<?xml version="1.0" encoding="utf-8"?>
<!-- Generator: Adobe Illustrator 16.0.0, SVG Export Plug-In . SVG Version: 6.00 Build 0)  -->
<!DOCTYPE svg PUBLIC "-//W3C//DTD SVG 1.1//EN" "http://www.w3.org/Graphics/SVG/1.1/DTD/svg11.dtd">
<svg version="1.1" id="Layer_1" xmlns="http://www.w3.org/2000/svg" xmlns:xlink="http://www.w3.org/1999/xlink" x="0px" y="0px"
	 width="3800px" height="2000px" viewBox="0 0 3800 2000" enable-background="new 0 0 3800 2000" xml:space="preserve">
<rect y="1.763" fill="#FFFFFF" width="3800" height="2000"/>
<path fill="#EBF2F9" d="M2818.978,734.241c-97.438-83.114-214.903-584.357-617.309-323.296
	c-207.902,134.88-558.473-115.792-848.643-29.21c-266.484,79.516-292.172,341.491-266.39,426.856
	c52.084,172.438-110,198.1-260.356,272.188c-235.854,116.216-62.42,524.64,160.394,526.592s1572.662-3.89,1572.662-3.89
	s323.685,0.815,458.287-177.829C3162.473,1233.407,3070.653,948.924,2818.978,734.241z"/>
<g>
	<g>
		<path fill="#7FD6E2" d="M3301,1631.027c0,3.299-2.674,5.973-5.972,5.973h-772.057c-3.3,0-5.974-2.674-5.974-5.973v-458.057
			c0-3.299,2.675-5.973,5.974-5.973h772.057c3.298,0,5.972,2.674,5.972,5.973V1631.027z"/>
		<path fill="#B3DCE0" d="M3287,1614.736c0,3.06-2.746,5.264-5.924,5.264h-744.152c-3.178,0-5.924-2.204-5.924-5.264V1189.57
			c0-3.063,2.746-5.57,5.924-5.57h744.151c3.179,0,5.925,2.51,5.925,5.57V1614.736z"/>
	</g>
	<g>
		<g>
			<path fill="#EE4036" d="M2748.176,1488.028c1.396-18.688,3.681-47.784,3.681-47.784c16.866-37.724-10.211-92.836-33.33-77.107
				c-24.756-33.029-107.873,3.956-82.841,76.596c0,0,1.067,24.379-3.313,46.931c-6.267,32.274-17.572,67.128-7.121,75.121
				c14.707,11.257,122.926,12.512,129.521,4.101C2765.459,1552.252,2746.785,1506.716,2748.176,1488.028z"/>
			<path fill="#013D37" d="M2772.512,1557.617c-8.938-11.14-79.646-35.592-79.646-35.592s-69.23,27.047-79.65,35.592
				c-10.42,8.546-14.329,62.558-14.329,62.558h185.907C2784.793,1620.175,2781.44,1568.756,2772.512,1557.617z"/>
			<path fill="#D89D72" d="M2714.781,1535.075c0,0-2.703,13.122-21.901,13.122c-19.187,0-21.896-13.122-21.896-13.122
				s5.339-10.61,0-23.066c-5.338-12.456,50.331-14.98,43.798,0C2708.25,1526.99,2714.781,1535.075,2714.781,1535.075z"/>
			<path fill="#FAB587" d="M2754.771,1451.04c0,9.884-7.007,23.464-11.729,23.464c-4.727,0-8.555-8.013-8.555-17.896
				c0-9.882,4.832-14.982,8.555-17.894C2747.613,1435.136,2754.771,1438.715,2754.771,1451.04z"/>
			<path fill="#FAB587" d="M2632.371,1451.04c0,9.884,7.014,23.464,11.733,23.464c4.723,0,8.548-8.013,8.548-17.896
				c0-9.882-4.831-14.982-8.548-17.894C2639.534,1435.136,2632.371,1438.715,2632.371,1451.04z"/>
			<path fill="#FAB587" d="M2693.771,1372.697c-33.2,0-47.877,23.264-47.877,57.957c0,17.678,0,31.493,0,43.451
				c0,30.221,34.918,56.066,45.947,56.066c11.026,0,49.805-30.223,49.805-58.852c0-11.313,0-24.348,0-40.668
				C2741.646,1395.961,2726.969,1372.697,2693.771,1372.697z"/>
			<path fill="#EE4036" d="M2741.646,1455.415l1.397-18.021c7.233-35.075-15.769-69.013-48.963-69.013
				c-33.197,0-58.942,37.024-50.06,72.101l1.871,20.499c0,0,6.396-5.388,7.507-15.11c0.854-7.441,3.721-37.52,3.721-37.52
				l3.644,17.758l40.048,2.632l6.847-14.058l2.753,14.689l12.728,0.831l8.196-24.585c0,0,1.145,21.349,3.691,37.436
				C2736.617,1453.113,2741.646,1455.415,2741.646,1455.415z"/>
		</g>
	</g>
	<path fill="#7FD6E2" d="M3040.33,1703.605c0.062-0.709,0.103-1.422,0.103-2.138c0-31.213-58.845-56.516-131.433-56.516
		s-131.433,25.303-131.433,56.516c0,0.716,0.041,1.429,0.103,2.138c23.117-21.225,73.228-35.928,131.33-35.928
		S3017.213,1682.383,3040.33,1703.605z"/>
	<rect x="2870.996" y="1357.222" fill="none" width="363.683" height="113.354"/>
	<text transform="matrix(1 0 0 1 2870.9941 1453.2871)" fill="#3D3F3F" font-family="'ArialRoundedMTBold'" font-size="131.9602">N</text>
	<text transform="matrix(1 0 0 1 2971.2529 1453.2871)" fill="#3D3F3F" font-family="'ArialRoundedMTBold'" font-size="105.5682">EWS</text>
	<g>
		<line fill="none" x1="2869" y1="1472" x2="3214" y2="1472"/>
		<g>
			<path fill="#3D3F3F" d="M2869.412,1477.092c38.221,0,76.44,0,114.66,0c61.53,0,123.063,0,184.594,0c14.966,0,29.932,0,44.897,0
				c6.448,0,6.448-10,0-10c-38.222,0-76.439,0-114.659,0c-61.531,0-123.063,0-184.595,0c-14.967,0-29.933,0-44.897,0
				C2862.963,1467.092,2862.963,1477.092,2869.412,1477.092L2869.412,1477.092z"/>
		</g>
	</g>
</g>
<g>
	<g>
		<path fill="#323232" d="M413.017,1360.59c-1.901,0.48-3.974,0.422-5.961-0.295c-5.317-1.91-8.073-7.77-6.166-13.082
			c21.408-59.523,29.586-122.932,37.502-184.25c7.506-58.152,15.263-118.291,34.207-176.064c2.358-7.203,8.325-11.429,14.852-10.491
			c5.75,0.818,9.807,5.772,9.429,11.522c-0.244,3.775-2.577,7.793-6.28,9.801c-17.313,54.627-24.732,112.162-31.926,167.854
			c-8.051,62.402-16.376,126.925-38.54,188.551C418.938,1357.455,416.202,1359.775,413.017,1360.59z"/>
	</g>
	<g>
		<path fill="#323232" d="M328.419,1592.467c-1.371,0.349-2.864,0.227-4.236-0.455c-3.029-1.499-4.272-5.185-2.769-8.223
			c41.212-83.129,66.388-175.2,86.757-254.979c0.833-3.287,4.18-5.27,7.454-4.43c3.288,0.84,5.269,4.18,4.429,7.461
			c-20.516,80.388-45.901,173.199-87.646,257.399C331.579,1590.91,330.092,1592.038,328.419,1592.467z"/>
	</g>
	<path fill="#64B264" d="M583.218,903.402c-14.984,9.089-34.675,8.65-50.385,0.879c-15.703-7.781-27.541-22.164-34.45-38.266
		c-3.141-7.324-5.358-15.043-8.973-22.145c-3.615-7.104-8.922-13.742-16.261-16.837c-7.348-3.089-16.94-1.688-21.646,4.743
		c-2.884,3.94-3.576,9.022-4.188,13.869c-1.436,11.491-2.801,23.573,1.494,34.336c2.819,7.063,7.87,12.966,12.824,18.728
		c7.819,9.088,15.818,18.324,26.042,24.586c14.356,8.787,31.707,10.893,48.461,12.474c10.832,1.024,21.869,1.903,32.495-0.402
		c15.293-3.319,28.676-13.165,38.277-25.521c9.595-12.362,15.684-27.125,19.914-42.191c-13.441-9.204-14.87-0.064-21.196,10.787
		C599.945,888.181,592.998,897.461,583.218,903.402z"/>
	<g>
		<rect x="594.517" y="787.073" fill="#393939" width="99.386" height="139.256"/>
	</g>
	<g>
		<path fill="#343434" d="M734.543,926.848c-15.935,19.023-45.858,2.82-47.808-17.844c-3.68-38.994-3.653-78.341,0.07-117.329
			c2.036-21.343,37.437-10.178,53.99-12.806c0.583,6.788,1.32,15.037,1.17,22.311c-0.152,7.249-3.625,15.568-10.738,17.004
			c-2.082,0.425-4.422,0.25-6.113,1.545c-1.938,1.48-2.192,4.258-2.275,6.698c-0.57,17.235-0.57,34.489,0.021,51.717
			c0.104,3.121,0.334,6.514,2.396,8.857c1.059,1.205,2.5,1.994,3.801,2.936c6.006,4.348,8.961,11.954,9.403,19.353
			C738.972,917.844,737.472,923.355,734.543,926.848z"/>
	</g>
	<g>
		<g>
			<g>
				<path fill="#272727" d="M527.539,1392.488c-0.07,0-0.142,0-0.211-0.006c-5.647-0.115-10.134-4.781-10.019-10.43
					c2.651-132.098,6.824-266.047,12.407-398.109c0-0.064,0.025-0.525,0.025-0.59c0.356-5.637,5.106-9.832,10.845-9.569
					c5.627,0.353,9.902,5.191,9.575,10.813c-5.589,132.136-9.755,265.925-12.408,397.866
					C537.642,1388.041,533.09,1392.488,527.539,1392.488z"/>
			</g>
		</g>
		<g>
			<g>
				<path fill="#272727" d="M526.084,1661.631c-0.019,0-0.045,0-0.07,0c-3.391-0.039-6.102-2.82-6.063-6.211
					c2.653-217.816,6.833-438.676,12.409-656.428c0.082-3.385,2.748-6.438,6.272-6.294c3.378,0.068,6.069,2.551,6.006,5.929
					c0,0.02-0.007,0.352-0.013,0.378c-5.576,217.995-9.749,438.798-12.409,656.569
					C532.18,1658.933,529.442,1661.631,526.084,1661.631z"/>
			</g>
		</g>
	</g>
	<g>
		<path fill="#323232" d="M605.554,999.973c-1.82,1.354-4.012,2.424-6.646,3.153c-13.376,3.718-32.938,0.09-46.781,0.09
			c-5.108,0-77.733,0-77.733,0c0-5.371-0.332-52.628-0.475-52.602c42.949-6.653,91.848-4.794,134.949-0.188
			C612.342,965.593,618.771,990.153,605.554,999.973z"/>
	</g>
	<g>
		<rect x="532.295" y="907.518" fill="#323232" width="24.541" height="53.377"/>
	</g>
	<g>
		<path fill="#343434" d="M594.901,767.864c-0.551-0.589-1.198-1.122-1.955-1.583c-5.121-3.143-23.951-1.282-30.463-1.771
			c-21.133-1.589-42.728-3.446-63.748-0.051c-4.348,29.842-6.021,59.973-6.729,90.077c-0.417,17.734-10.063,63.998,9.588,70.529
			c28.018,9.619,64.595-6.309,92.026,3.537c7.439-44.379,3.461-94.031,3.666-139.25
			C597.317,782.266,599.612,772.921,594.901,767.864z"/>
	</g>
	<g>
		<path fill="#343434" d="M556.817,791.809c-11.563-0.513-20.446,1.88-25.646-7.824c-3.301-6.159,0.045-17.446,0.045-24.15
			c-0.686-5.16-1.769-10.64,0.719-15.351c3.705-7.02,14.332-9.43,22.754-7.212c1.461,0.387,2.961,0.938,3.818,2.038
			c0.926,1.181,0.897,2.712,0.848,4.143c-0.643,16.126-1.274,32.258-1.909,48.384C557.233,791.829,557.022,791.815,556.817,791.809z
			"/>
	</g>
	<g>
		<path fill="#484848" d="M616.681,924.099c-3.353,4.521-8.313,6.726-13.105,7.325c-3.461,0.43-7.264,0.021-9.864-3.051
			c-4.371-5.159-0.229-28.432-0.141-35.981c0.186-17.028,0.37-34.06,0.563-51.096c0.142-12.998,0.384-26.009,0.429-39.014
			c0.054-17.068-0.689-25.618,15.121-21.429c2.219,0.584,4.627,1.32,6.051,3.692c1.084,1.82,1.365,4.262,1.603,6.576
			c3.737,36.892,5.146,74.231,4.205,111.484c-0.167,6.512-0.486,13.406-3.218,18.813
			C617.834,922.395,617.283,923.285,616.681,924.099z"/>
	</g>
	<g>
		<path fill="#343434" d="M583.146,664.146c-1.563-2.924-4.14-5.186-6.877-7.058c-9.15-6.269-20.459-8.794-31.547-8.979
			c-4.621-0.077-9.363,0.256-13.574,2.146c-6.058,2.705-10.396,8.396-12.807,14.582c-2.416,6.186-3.121,12.883-3.607,19.503
			c-1.288,17.254-1.281,34.611,0.014,51.865c0.18,2.479,0.448,5.106,1.941,7.102c2.308,3.077,6.646,3.589,10.479,3.848
			c11.415,0.756,22.831,1.513,34.246,2.269c4.249,0.282,8.983,0.41,12.223-2.359c2.563-2.19,3.537-5.679,4.308-8.967
			c4.744-20.061,7.212-40.661,7.346-61.271C585.313,672.493,585.19,667.967,583.146,664.146z"/>
	</g>
	<g>
		<path fill="#B6B6B6" d="M578.763,746.815c1.333-1.41,2.129-3.604,2.846-5.736c4.865-14.498,8.153-30.073,9.719-45.994
			c1.104-11.21,1.113-23.689-3.809-32.566c-4.353,0.942-9.134-1.896-13.029,1.021c-3.801,2.846-4.896,9.742-5.582,15.786
			c-0.719,6.365-1.442,12.723-2.166,19.081c-1.372,12.101-2.743,24.61-0.592,36.476c0.75,4.127,2.008,8.27,4.319,10.966
			C572.783,748.54,576.366,749.36,578.763,746.815z"/>
	</g>
	<g>
		<path fill="#343434" d="M534.846,661.911c3.546,0.282,6.499,2.692,9.704,4.229c9.057,4.333,24.362,5.615,34.348,6.173
			c6.691,0.364,13.658,0.687,19.83-1.93c6.175-2.615,11.256-9.106,9.955-15.684c-2.385-12.096-33.843-18.596-45.053-19.519
			c-14.324-1.19-30.053,3.813-37.847,15.896c-2.013,3.122-3.153,7.856-0.188,10.082
			C528.122,663.058,531.692,661.661,534.846,661.911z"/>
	</g>
	<g>
		<path fill="#323232" d="M683.39,1386.739c-3.25-0.917-5.936-3.416-6.984-6.8c-0.258-0.811-0.5-1.631-0.727-2.442
			c-0.615-1.249-0.955-2.596-1.031-3.942c-1.424-5.915-2.357-11.831-3.27-17.593c-1.152-7.281-2.243-14.159-4.224-20.812
			c-10.634-35.752-20.792-73.861-31.054-116.512c-6.781-28.214-12.408-57.133-17.845-85.104
			c-4.242-21.807-8.628-44.359-13.518-66.307c-1.841-8.272-3.521-16.588-5.205-24.904c-1.909-9.447-3.886-19.217-6.069-28.695
			c-0.531-2.32-0.923-5.146-1.363-8.422c-0.553-4.059-1.803-13.293-3.438-16.241c-4.229-2.729-5.901-8.229-3.725-12.915
			c2.392-5.121,8.447-7.326,13.588-4.954c10.224,4.771,12.146,18.896,13.839,31.36c0.364,2.66,0.696,5.18,1.024,6.583
			c2.25,9.749,4.248,19.649,6.187,29.231c1.651,8.187,3.307,16.363,5.127,24.512c4.948,22.221,9.356,44.901,13.626,66.85
			c5.396,27.752,10.974,56.453,17.658,84.227c10.172,42.289,20.232,80.06,30.765,115.459c2.365,7.945,3.615,15.822,4.82,23.443
			c0.916,5.794,1.795,11.338,3.106,16.613c1.334,2.582,1.924,5.467,1.666,8.396c-0.416,4.871-4.224,8.763-9.074,9.287
			C685.935,1387.207,684.62,1387.086,683.39,1386.739z"/>
	</g>
	<g>
		<path fill="#323232" d="M751.252,1649.684c-1.942-0.551-3.548-2.037-4.187-4.057c-0.517-1.635-1-3.27-1.454-4.916
			c-0.757-1.154-1.083-2.487-1-3.788c-2.454-9.774-4.059-19.716-5.614-29.399c-1.91-11.846-3.878-24.087-7.391-35.765
			c-17.748-58.966-34.688-121.753-51.795-191.96c-11.313-46.392-20.729-94.063-29.828-140.167
			c-7.12-36.091-14.484-73.413-22.709-109.812c-3.075-13.62-5.922-27.496-8.672-40.924c-3.219-15.686-6.552-31.906-10.241-47.721
			c-0.782-3.352-1.403-7.806-2.115-12.965c-1.416-10.211-4.358-31.457-9.902-34.034c-3.075-1.423-4.409-5.076-2.979-8.146
			c1.423-3.077,5.038-4.461,8.146-2.98c11.613,5.393,14.415,25.625,16.891,43.481c0.646,4.646,1.256,9.05,1.91,11.851
			c3.729,15.973,7.074,32.284,10.313,48.052c2.743,13.363,5.576,27.184,8.62,40.675c8.262,36.563,15.646,73.971,22.786,110.146
			c9.074,45.975,18.459,93.513,29.699,139.641c17.063,69.99,33.95,132.571,51.625,191.332c3.75,12.454,5.787,25.105,7.759,37.344
			c1.659,10.323,3.25,20.188,5.763,29.775c1.688,2.711,2.432,5.771,2.159,8.961c-0.256,2.916-2.531,5.249-5.441,5.569
			C752.783,1649.966,751.992,1649.889,751.252,1649.684z"/>
	</g>
	<path fill="#3B3B3B" d="M272.946,1603.934c0.955-2.301,1.916-4.602,2.871-6.9c-0.615-0.154-1.243-0.32-1.858-0.462
		c-0.013-21.875-0.024-43.759-0.038-65.634c-0.014-28.67,1.486-56.248,4.211-84.646c8.063-84.014-18.914-175.738-11.46-261.322
		c1.724-19.869,3.653-39.98,8.845-59.383c6.764-25.292,23.49-21.863,47.803-26.305c37.781-6.909,115.253-8.486,152.351,1.273
		c0.275,163.291-34.751,345.355-50.03,507.007h-3.326c9.089,7.673,19.33,13.597,30.354,17.824c2.725,1.045,5.576,2.044,7.68,3.954
		c4.391,4,3.69,11.691-1.358,14.947c-4.724,3.045-11.089,2.02-16.709,0.871c-15.953-3.257-31.912-6.514-47.865-9.77
		c-2.923-0.596-6.031-1.288-8.063-3.326c-2.454-2.461-2.641-6.141-2.69-9.491c-0.077-4.847-0.153-9.696-0.229-10.446h-1.486
		c-11.891-92.192-3.243-287.718-6.141-376.021c-5.326,41.092-20.658,176.713-31.312,227.911
		c-4.922,23.663-10.71,46.854-14.869,70.746c-2.128,12.203-4.423,24.354-6.961,36.424c-2.19,10.384-6.19,21.224-5.884,32.035
		c-0.795,0.121-1.598,0.142-2.393,0.217c5.559,10,12.773,19.203,21.429,27.087c2.103,1.916,4.346,3.826,5.522,6.332
		c2.462,5.23-1.288,12.127-7.281,13.392c-5.605,1.18-11.101-1.98-15.844-5c-13.483-8.563-26.971-17.125-40.456-25.695
		c-2.467-1.563-5.075-3.287-6.134-5.883C270.331,1610.535,271.646,1607.055,272.946,1603.934z"/>
	<path fill="#85D685" d="M401.646,811.166c-16.649-3.813-32.615-11.063-49.606-12.607c-3.93-0.357-8.198-0.313-11.383,2.07
		c-2.509,1.872-3.925,4.877-5.237,7.762c-18.438,40.354-36.994,81.04-47.243,124.368c-5.44,23.022-8.479,46.56-11.511,70.048
		c-3.82,29.639-7.646,59.274-11.474,88.911c-1.225,9.504-1.979,20.518,4.628,27.271c3.985,4.076,9.78,5.544,15.286,6.723
		c21.428,4.59,43.205,7.448,65.067,8.525c26.517,1.307,53.089,0.006,79.61-1.295c16.402-0.81,32.804-1.609,49.205-2.416
		c3.326-0.16,6.724-0.341,9.793-1.647c9.326-3.961,12.005-16.271,11.605-26.657c-0.474-12.145-3.346-24.041-5.929-35.902
		c-14.696-67.563-20.17-136.821-29.192-205.429c-1.771-13.421-0.442-41.353-14.725-48.241c-5.979-2.893-12.838-1.211-19.029-0.365
		C421.361,813.659,411.696,813.466,401.646,811.166z"/>
	<path fill="#FFE0D6" d="M463.351,748.642c-0.448,7.198-0.931,14.544-3.274,21.208c-5.243,14.876-18.474,23.208-30.896,29.851
		c-9.522,5.089-20.478,9.922-30.108,5.14c-8.257-4.102-13.059-14.088-19.369-21.586c-4.81-5.698-10.646-10.102-15.217-16.066
		c-10.257-13.378-12.735-32.668-12.8-50.73c-0.078-22.83,3.93-47.794,18.733-62.459c7.774-7.698,17.722-11.671,27.669-13.998
		c9.339-2.186,19.119-3.038,28.298-0.071c11.37,3.688,21.029,13.089,27.771,24.522C470.329,691.862,465.291,717.429,463.351,748.642
		z"/>
	<path fill="#443B36" d="M464.625,683.491c3.659,10.133,8.627,20.632,17.907,26.093c-5.717-0.353-11.338-2.096-16.254-5.038
		c-1.226-0.737-2.486-1.57-3.924-1.603c-2.293-0.06-4.113,1.968-5.113,4.038c-1.006,2.068-1.59,4.401-3.108,6.127
		c-4-3.589-7.999-7.18-11.998-10.77c-0.857-0.769-1.813-1.583-2.968-1.66c-1.23-0.075-2.34,0.705-3.32,1.455
		c-6.729,5.16-13.197,10.659-19.375,16.459c-1.789-3.423-2.59-7.352-2.302-11.204c-3.909,1.032-6.614,4.493-9.024,7.742
		c-4.112,5.538-8.229,11.088-12.344,16.626c-2.385-4.852-4.769-9.704-7.151-14.556c-10.485,12.095-16.863,27.682-17.869,43.654
		c-3.688-2.455-6.672-5.941-8.537-9.961c4.772,13.229,11.992,25.572,21.177,36.227c-10.05-7.104-14.588-20.087-24.497-27.381
		c-4.346-3.198-9.729-5.32-12.716-9.819c-0.327,5.044,1.229,10.191,4.307,14.203c-7.005-3.979-11.216-12.389-10.201-20.375
		c0.461-3.646,1.891-7.083,3.301-10.473c3.121-7.479,6.272-15.03,10.876-21.702c3.52-5.115,7.856-9.671,10.939-15.068
		c4.832-8.473,6.354-18.677,12.068-26.58c4-5.538,9.749-9.505,15.396-13.344c6.363-4.326,12.896-8.691,20.329-10.686
		c7.243-1.947,14.832-1.479,22.141-0.204c5.855,1.023,14.073,1.985,18.495,6.435c2.91,2.929,4.063,7.877,5.893,11.511
		C459.952,670.044,462.188,676.774,464.625,683.491z"/>
	<path fill="#5E625E" d="M311.853,736.061c-6.437,3.098-14.224,6.448-20.293,2.692c-1.937-1.192-3.537-3.326-3.229-5.583
		c0.256-1.903,1.769-3.371,3.229-4.621c7.902-6.773,17.112-11.999,26.934-15.438c6.939-2.438,24.981-8.563,31.996-4.544
		c7.883,4.519,2.217,11.028-3.295,13.664C335.887,727.632,323.267,730.568,311.853,736.061z"/>
	<path fill="#5E625E" d="M340.647,655.95c3.084-4.025,7.468-6.826,11.871-9.332c21.812-12.408,47.479-19.664,72.17-15.19
		c5.105,0.923,10.195,2.372,14.619,5.083c8.74,5.371,13.838,14.959,18.527,24.095c2.809,5.467,5.615,10.935,8.422,16.4
		c1.487,2.903,4.893,8.095,4.188,11.52c-0.795,3.908-5.281,2.051-8.364,1.946c-8.896-0.308-17.747,1.077-26.517,2.461
		c-9.602,1.508-19.268,3.038-28.433,6.294c-5.717,2.032-11.172,4.719-16.694,7.229c-12.385,5.634-25.133,10.422-37.873,15.197
		c-2.289,0.857-5.084,1.652-7,0.128c-1.77-1.41-1.796-4.025-1.857-6.288c-0.263-10.261-4.313-19.991-6.646-29.983
		C334.731,675.511,334.399,664.096,340.647,655.95z M423.579,682.805c0.359,1.032,0.646,2.188,1.513,2.854
		c1.153,0.878,2.795,0.513,4.198,0.122c7.818-2.188,15.824-3.814,23.933-4.403c3.423-0.25,7.384,1.083,7.96-2.814
		c0.432-2.922-2.602-7.74-4.14-10.043c-0.327-0.492-0.692-0.991-1.199-1.301c-0.614-0.372-1.364-0.417-2.089-0.449
		c-7.538-0.319-15.126,0.393-22.479,2.104c-2.204,0.513-4.441,1.141-6.301,2.429c-1.857,1.295-3.309,3.378-3.296,5.641
		C421.695,679.011,422.881,680.857,423.579,682.805z"/>
	<g>
		<path fill="#8A8A8A" d="M370.92,799.827c10.55,19.196,21.548,38.334,31.284,57.96c8.197,16.53,10.697,33.682,14.023,51.615
			c0.75,4.044,0.975,10.658,3.229,14.17c9.105,14.211,12.505-5.742,13.063-9.975c1.354-10.316,2.479-20.664,3.453-31.025
			c2.09-22.208,3.354-44.494,4.115-66.786c0.025-0.711,1.104-0.718,1.107,0c0.289,28.259-1.211,56.439-4.313,84.526
			c-0.69,6.256-0.024,37.168-13.267,33.965c-6.166-1.488-7.544-11.063-8.736-15.902c-3.146-12.793-4.096-26.021-7.531-38.751
			c-7.429-27.483-25.777-53.268-39.077-78.246C367.344,799.635,369.972,798.097,370.92,799.827z"/>
		<path fill="#C9C9C9" d="M404.735,933.893c3.513-1.455,10.371-0.531,14.073-0.59c8.024-0.135,16.023-0.059,24.05,0.108
			c0.94-1.159,3.551-0.938,3.346,0.737c-1.628,12.973,1.257,25.426,5.019,37.98c2.397,8.02,8.187,18.747,6.653,27.086
			c-1.02,5.543-6.531,7.78-12.602,8.634c-7.043,0.986-14.582,0.955-21.715,1.271c-3.403,0.152-8.353,0.986-11.446-0.937
			c-6.371-3.961-5.66-16.672-6.66-22.465c-2.013-11.704-3.729-23.497-4.576-35.304C400.537,945.672,398.365,936.526,404.735,933.893
			z"/>
		<path fill="#8A8A8A" d="M417.503,994.339c-2.936,0.378-6.262,1.07-7.717,3.642c-0.923,1.629-0.84,3.62-0.73,5.485
			c0.09,1.474,0.295,3.159,1.525,3.979c0.615,0.41,1.385,0.507,2.121,0.597c8.493,0.979,17.049,1.378,25.593,1.187
			c5.371-0.121,11.063-0.59,15.429-3.725c2.787-2,5.991-6.884,4.717-10.521c-1.288-3.66-6.377-2.727-9.452-2.713
			C438.462,992.301,427.938,992.992,417.503,994.339z"/>
		<path fill="#8A8A8A" d="M425.252,941.32c1.937-4.332,10.325-3.576,14.081-3.104c1.859,0.23,2.385,1.896,1.854,3.089
			c0.377,3.438,0.643,6.871,0.744,10.325c0.051,1.629,0.569,4.025-0.841,5.256c-1.442,1.25-5.396,1.147-7.235,1.301
			c-2.014,0.176-3.94-0.019-5.289-1.703c-1.474-1.864-2.179-4.666-2.734-6.924C425.239,947.186,424.207,943.66,425.252,941.32z"/>
		<g>
			<path fill="#8A8A8A" d="M407.03,963.631c3.013-0.724,6.031-1.641,9.105-1.979c3.014-0.332,6.076-0.047,9.108,0.158
				c1.646,0.116,3.313,0.314,4.96,0.314c1.07,0,1.902-0.358,2.854-0.833c0.5-0.25,0.969-0.391,1.521-0.384
				c1.506,0.012,2.903,0.474,4.422,0.262c1.353-0.19,2.635-0.44,4.006-0.166c0.115,0.025,0.097,0.236-0.024,0.218
				c-1.584-0.313-3.051,0.115-4.607,0.282c-1.396,0.146-2.82-0.494-4.189-0.302c-0.828,0.107-1.487,0.725-2.271,1
				c-0.551,0.198-1.115,0.243-1.698,0.25c-1.491,0.02-3.006-0.16-4.499-0.25c-3.173-0.192-6.371-0.513-9.519-0.147
				c-3.076,0.354-6.104,1.275-9.107,2.021C406.856,964.125,406.8,963.683,407.03,963.631z"/>
			<path fill="#8A8A8A" d="M434.358,964.805c-2.642,0.477-5.28,0.59-7.952,0.736c-5.108,0.275-10.127,2.077-15.287,1.692
				c-0.27-0.021-0.218-0.507,0.045-0.493c5.455,0.189,10.729-1.515,16.158-1.73c2.59-0.103,5.128-0.309,7.672-0.719
				c2.468-0.396,4.929-0.724,7.429-0.089c0.18,0.045,0.153,0.384-0.031,0.339C439.673,963.855,437.021,964.336,434.358,964.805z"/>
			<path fill="#8A8A8A" d="M436.276,969.406c-2.84,0.27-5.704,0.229-8.545,0.539c-5.697,0.621-11.293,1.939-17.041,2.121
				c-0.213,0.006-0.271-0.393-0.054-0.397c5.903-0.231,11.659-1.641,17.519-2.249c2.84-0.289,5.705-0.23,8.537-0.552
				c2.787-0.314,5.485-1.417,8.317-1.205c0.271,0.019,0.22,0.5-0.044,0.487C442.013,968.021,439.192,969.131,436.276,969.406z"/>
			<path fill="#8A8A8A" d="M410.356,978.514c2.545-0.269,5.134,0.289,7.646-0.352c2.57-0.654,5.019-1.814,7.582-2.514
				c5.211-1.424,10.589-1.954,15.94-2.486c0.205-0.021,0.263,0.372,0.052,0.396c-5.347,0.563-10.724,1.122-15.921,2.591
				c-2.493,0.697-4.865,1.834-7.358,2.52c-2.551,0.699-5.235,0.41-7.856,0.486C410.101,979.162,410.004,978.553,410.356,978.514z"/>
			<path fill="#8A8A8A" d="M431.001,980.404c-4.52,0.783-8.96,1.94-13.504,2.563c-0.271,0.031-0.334-0.461-0.071-0.5
				c4.545-0.613,8.993-1.779,13.505-2.568c4.441-0.775,8.922-0.615,13.392-1.09c0.28-0.025,0.353,0.479,0.069,0.523
				c-2.219,0.354-4.485,0.231-6.725,0.314C435.424,979.732,433.206,980.014,431.001,980.404z"/>
			<path fill="#8A8A8A" d="M416.26,989.275c2.281,0.44,4.583,0.09,6.826-0.275c2.339-0.379,4.659-0.904,6.96-1.487
				c4.532-1.146,9.024-2.493,13.596-3.454c0.197-0.045,0.242,0.326,0.052,0.371c-4.729,1.039-9.363,2.506-14.063,3.691
				c-4.229,1.078-9.012,2.525-13.428,1.699C415.914,989.763,415.959,989.218,416.26,989.275z"/>
		</g>
	</g>
	<g>
		<g>
			<path fill="#323232" d="M330.778,1076.827c-1.897,0-3.771-0.878-4.969-2.531c-1.992-2.737-1.385-6.576,1.358-8.569
				c3.781-2.742,7.832-4.557,11.755-6.318l1.975-0.896c7.808-3.563,15.498-7.877,22.934-12.05l77.201-43.251
				c14.363-8.043,29.207-16.369,41.424-27.336c2.512-2.262,6.402-2.051,8.665,0.469c2.263,2.521,2.051,6.396-0.468,8.665
				c-13.229,11.876-28.684,20.536-43.616,28.906l-77.207,43.257c-7.652,4.287-15.563,8.725-23.83,12.498l-2.051,0.932
				c-3.507,1.574-6.819,3.063-9.575,5.063C333.29,1076.449,332.028,1076.827,330.778,1076.827z"/>
		</g>
		<g>
			<path fill="#323232" d="M242.585,1116.848c-6.813,0-12.844-4.878-14.081-11.813c-1.385-7.781,3.808-15.216,11.588-16.603
				c43.97-7.823,86.001-26.259,121.541-53.313c6.302-4.781,15.28-3.563,20.067,2.725c4.788,6.287,3.563,15.273-2.725,20.063
				c-39.147,29.798-85.442,50.103-133.865,58.717C244.258,1116.771,243.412,1116.848,242.585,1116.848z"/>
		</g>
	</g>
	<path fill="#FFE0D6" d="M347,1063.464c1.563,5.437,2.372,11.652-0.615,16.452c-3.468,5.59-10.78,7.301-17.344,7.602
		c-1.243,0.061-2.576,0.064-3.608-0.627c-0.968-0.646-1.479-1.77-1.936-2.834c-4.891-11.445-8.402-23.481-10.454-35.764
		c-0.437-2.576-0.756-5.41,0.629-7.627c1.236-1.979,3.544-2.979,5.763-3.711C337.136,1031.142,342.911,1049.286,347,1063.464z"/>
	<path fill="#64B264" d="M345.539,808.39c-17.241,4.282-32.714,35.322-38.373,52.166c-11.185,33.296-10.415,69.324-8.037,104.37
		c1.788,26.362,4.467,52.896,12.479,78.08c7.157,0.646,14.407,0.313,21.472-0.994c1.147-0.211,2.339-0.475,3.218-1.234
		c1.986-1.705,1.423-4.854,0.725-7.371c-7.44-26.689,1.492-50.781-0.274-78.434c-0.771-12.063-0.955-24.471,2.986-35.903
		c8.974-26.042,20.899-39.527,36.647-59.94C394.615,835.508,367.646,802.904,345.539,808.39z"/>
</g>
</svg>
