<?xml version="1.0" encoding="utf-8"?>
<!-- Generator: Adobe Illustrator 16.0.0, SVG Export Plug-In . SVG Version: 6.00 Build 0)  -->
<!DOCTYPE svg PUBLIC "-//W3C//DTD SVG 1.1//EN" "http://www.w3.org/Graphics/SVG/1.1/DTD/svg11.dtd">
<svg version="1.1" id="Layer_1" xmlns="http://www.w3.org/2000/svg" xmlns:xlink="http://www.w3.org/1999/xlink" x="0px" y="0px"
	 width="3800px" height="2000px" viewBox="0 0 3800 2000" enable-background="new 0 0 3800 2000" xml:space="preserve">
<rect y="-1.237" fill="#FFFFFF" width="3800" height="2000"/>
<path fill="#EBF2F9" d="M2818.978,731.241c-97.438-83.114-214.904-584.357-617.309-323.296
	c-207.902,134.88-558.473-115.792-848.643-29.21c-266.484,79.516-292.172,341.491-266.389,426.857
	c52.084,172.438-110,198.099-260.357,272.188c-235.854,116.216-62.42,524.64,160.394,526.592s1572.662-3.89,1572.662-3.89
	s323.685,0.816,458.287-177.829C3162.473,1230.407,3070.653,945.924,2818.978,731.241z"/>
<g>
	<g id="Fire">
		<path fill="#E5CF35" d="M2791.563,1593.354c54.22-54.22,58.608-139.367,12.879-198.674l0.059-0.058
			c-0.01,0.01-0.168-0.129-0.252-0.192c-0.064-0.085-0.203-0.242-0.193-0.253l-0.059,0.06
			c-58.859-45.287-144.294-41.183-198.514,13.037c-16.819,16.818-28.789,36.664-36.006,57.746
			c24.78-19.729,53.856-31.441,83.721-35.188c-16.371,11.395-32.028,25.721-46.063,42.695
			c-27.896,33.74-44.264,71.851-48.426,106.755c8.841-18.761,20.536-37.313,35.009-54.815c21.508-26.015,46.45-46.437,72.143-60.503
			c-34.198,36.923-64.965,74.437-91.862,111.611c-30.28,41.853-55.662,83.281-75.512,122.968c-0.074,0.059-0.148,0.119-0.224,0.178
			c0.06-0.027,0.119-0.059,0.18-0.089c-0.11,0.221-0.223,0.438-0.331,0.658c0.219-0.273,0.441-0.547,0.662-0.82
			c45.764-22.346,93.934-52.055,142.493-88.184c32.906-24.484,65.992-51.921,98.629-82.016
			c-14.084,27.929-35.69,55.236-63.852,78.521c-17.504,14.473-36.061,26.164-54.82,35.007c34.904-4.164,73.01-20.535,106.75-48.432
			c15.938-13.179,29.528-27.794,40.561-43.081c-4.315,28.281-15.878,55.633-34.62,79.17
			C2754.996,1622.241,2774.744,1610.174,2791.563,1593.354z"/>
		<g>
			<path fill="#D6BA18" d="M2667.491,1482.141c-15.946,8.73-31.622,19.759-46.467,32.91c-16.762,20.176-32.467,40.399-47.027,60.525
				c-30.28,41.854-55.662,83.283-75.512,122.968c-0.075,0.06-0.149,0.119-0.225,0.178c0.059-0.027,0.119-0.059,0.179-0.089
				c-0.11,0.221-0.222,0.439-0.331,0.658c0.219-0.273,0.442-0.547,0.662-0.82c3.742-1.826,7.5-3.707,11.271-5.631
				c17.108-29.933,36.925-60.54,59.224-91.359C2598.026,1561.729,2630.926,1521.621,2667.491,1482.141z"/>
			<path fill="#D6BA18" d="M2653.979,1445.673c-9.039,1.133-18.008,2.953-26.822,5.456c-6.946,6.577-13.647,13.719-20.01,21.413
				c-26.721,32.317-42.859,68.633-47.832,102.31c8.343-28.231,23.564-57.137,45.396-83.541
				C2619.719,1473.16,2636.478,1457.855,2653.979,1445.673z"/>
			<path fill="#D6BA18" d="M2811.795,1405.083c-2.267-3.515-4.623-6.901-7.354-10.402l0.06-0.058
				c-0.01,0.01-0.168-0.129-0.252-0.192c-0.063-0.085-0.203-0.243-0.193-0.253l-0.059,0.06
				c-58.859-45.287-144.294-41.183-198.515,13.036c-16.818,16.819-28.789,36.666-36.004,57.747c1.345-1.07,2.732-2.089,4.104-3.111
				c7.468-14.516,17.249-28.162,29.411-40.325C2659.894,1364.686,2748.733,1359.201,2811.795,1405.083z"/>
		</g>
	</g>
	<g id="Rocket">
		<path fill="#6B6BDD" d="M2895.555,1465.822l-22.63-22.63c67.936-21.97,150.18-80.587,222.135-164.39
			c93.272-108.626,142.088-227.813,130.047-301.227l0.021-0.021c-0.003,0.002-0.001,0.013-0.009,0.011
			c-0.002-0.008,0.006-0.008,0.009-0.011l-0.021,0.021c-73.412-12.041-192.692,36.681-301.318,129.954
			c-83.801,71.957-142.514,154.105-164.482,222.041l-22.63-22.629c-1.965-1.966-5.23-2.16-7.196-0.195l-94.262,94.262
			c-0.524,0.525-0.836,1.208-1.081,1.861l117.104,0.033l48.157,0.02l0.377,0.008l0.228,0.148v48.143l-0.283,117.007
			c0.654-0.242,1.099-0.684,1.622-1.209l94.207-94.262C2897.51,1470.794,2897.521,1467.787,2895.555,1465.822z M2816.115,1386.384
			l-0.068-0.068l340.543-340.407l-340.407,340.544L2816.115,1386.384z"/>
		<path fill="#5656C1" d="M2740.945,1329.016l24.108,24.109c23.582-72.553,85.897-159.917,175.172-236.576
			c98.008-84.152,204.224-134.155,281.852-139.798c-73.725-8.915-189.847,39.604-295.898,130.667
			c-83.802,71.957-142.386,154.07-164.353,222.006l-22.631-22.631c-1.964-1.964-5.23-1.859-7.195,0.104l-94.262,94.262
			c-0.525,0.526-0.826,1.222-1.07,1.874l23.151,0.079l73.853-73.853C2735.765,1327.167,2738.854,1326.924,2740.945,1329.016z"/>
		<circle fill="#50CCB4" cx="2935.932" cy="1266.479" r="61.933"/>
		<circle fill="#50CCB4" cx="3035.53" cy="1166.881" r="50.616"/>
		<circle fill="#50CCB4" cx="3112.599" cy="1089.812" r="33.365"/>
		<circle fill="#2ECE5F" stroke="#677572" stroke-miterlimit="10" cx="2935.93" cy="1266.632" r="53.646"/>
		<circle fill="#2ECE5F" stroke="#677572" stroke-miterlimit="10" cx="3035.528" cy="1167.035" r="43.343"/>
		<circle fill="#2ECE5F" stroke="#677572" stroke-miterlimit="10" cx="3112.597" cy="1089.965" r="28.671"/>
		<path fill="#39B75A" d="M3022.902,1130.24c2.391-2.392,4.958-4.494,7.655-6.322c-9.289,1.129-18.286,5.246-25.418,12.377
			c-16.943,16.944-16.942,44.416,0,61.359c7.132,7.13,16.129,11.248,25.418,12.377c-2.697-1.827-5.266-3.933-7.655-6.322
			C3002.615,1183.422,3002.615,1150.528,3022.902,1130.24z"/>
		<path fill="#39B75A" d="M3104.068,1065.801c1.566-1.568,3.252-2.951,5.022-4.147c-6.096,0.739-12,3.44-16.68,8.121
			c-11.117,11.118-11.117,29.145-0.001,40.264c4.681,4.68,10.583,7.381,16.681,8.123c-1.771-1.199-3.456-2.582-5.023-4.15
			C3090.755,1100.697,3090.756,1079.113,3104.068,1065.801z"/>
		<path fill="#39B75A" d="M2920.078,1221.047c2.961-2.963,6.143-5.572,9.485-7.835c-11.513,1.398-22.664,6.501-31.5,15.339
			c-20.998,20.999-20.998,55.045,0,76.043c8.838,8.838,19.987,13.939,31.5,15.34c-3.344-2.264-6.524-4.873-9.485-7.836
			C2894.937,1286.955,2894.935,1246.189,2920.078,1221.047z"/>
	</g>
	<polygon fill="#6B6BDD" points="2767.879,1359.749 2676.906,1521.357 2857.264,1430.511 	"/>
</g>
<g>
	<path fill="#333333" d="M630.195,872.64c1.418-12.726,17.375-22.888,29.479-18.885c12.264,4.044,18.006,17.582,24.972,28.451
		c5.496,8.575,12.541,16.162,20.688,22.279c3.817,2.864,8.385,6.51,7.611,11.219c-0.319,1.937-1.537,3.585-2.724,5.146
		c-4.771,6.282-9.701,12.566-15.926,17.409c-6.226,4.847-13.958,8.185-21.83,7.709c-14.513-0.859-25.356-14.089-30.595-27.65
		C637.199,906.23,628.715,885.938,630.195,872.64z"/>
	<path fill="#355360" d="M692.744,1105.61c0,0,58.555,479.666,58.764,550.823l-15.489,0.99c0,0-110.95-387.406-132.485-408.72
		c0,0-8.904-1.636-12.351,0c-3.442,1.627-10.996,395.028-5.256,421.422h-16.07c0,0-77.251-460.165-74.178-561.633
		c0,0,16.39-50.97,84.915-46.378C649.119,1066.709,685.856,1054.991,692.744,1105.61z"/>
	<path fill="#333333" d="M488.689,1071.036c4.598-52.021,23.631-156.853,42.412-205.59c0.99-2.57,2.05-5.226,4.039-7.144
		c3.387-3.259,8.57-3.585,13.275-3.645c11.636-0.143,42.201,1.087,53.805,1.894c6.169,0.423,35.051-1.052,40.521,1.825
		c6.84,3.59,11.459,10.249,15.504,16.833c20.479,33.326,10.578,72.911,21.58,110.449c5.572,19.008,25.438,88.87,25.026,106.182
		c-2.087,4.673-3.873,9.615-5.024,14.526c-12.063,13.667-43.904,6.13-60.043,15.425c-12.246,7.058-26.017,10.439-39.99,12.53
		c-2.853-0.216-5.699-0.468-8.518-0.762c-16.238-1.725-50.968-4.735-65.611-11.953c-14.649-7.217-28.267,4.494-33.947-10.813
		C487.054,1098.229,487.512,1084.39,488.689,1071.036z"/>
	<path fill="#89796E" d="M533.197,736.296c3.287-7.198,10.594-11.889,18.198-14.078c7.61-2.188,15.636-2.244,23.545-2.582
		c8.871-0.387,17.773-1.143,26.613-0.294c8.841,0.854,17.761,3.455,24.646,9.063c6.885,5.612,11.397,14.601,10.082,23.386
		l0.541,25.838c1.27,19.359-4.141,39.093-15.104,55.103c-3.083,4.5-6.695,8.804-11.435,11.509
		c-5.715,3.258-12.535,3.91-19.117,3.972c-7.433,0.073-15.096-0.566-21.734-3.91c-5.428-2.729-9.83-7.083-14.057-11.44
		c-6.385-6.591-12.729-13.586-15.986-22.162c-4.764-12.535-2.305-26.57-4.278-39.837c-0.864-5.803-2.582-11.459-3.468-17.264
		C530.758,747.792,530.758,741.639,533.197,736.296z"/>
	<path fill="#A58C41" d="M723.99,1652.631c12.967-1.9,26.168-2.201,39.211-0.896c10.426,6.756,21.72,12.172,33.517,16.074
		c3.424,1.131,7.026,2.207,9.658,4.679c2.637,2.46,3.922,6.812,1.795,9.73c-1.852,2.553-5.396,3.044-8.539,3.278
		c-24.074,1.817-48.327,1.34-72.313-1.438c-1.438-0.168-2.966-0.382-4.061-1.329c-0.873-0.762-1.334-1.88-1.706-2.976
		C718.551,1670.902,719.457,1660.802,723.99,1652.631z"/>
	<path fill="#A58C41" d="M559.603,1654.904c0,0,28.729,1.529,33.071,4.047c4.34,2.52,8.788,25.266,1.675,28.523
		c-7.116,3.264-73.767-4.889-73.767-4.889s-6.603-9.354,13.203-15.056C553.59,1661.841,556.683,1661.864,559.603,1654.904z"/>
	<path fill="#CCCCCC" d="M533.91,1007.089c16.451,1.13,32.991,0.922,49.409-0.615c3.05,10.525,6.111,21.1,7.427,31.98
		c0.498,4.118,0.73,8.392-0.541,12.345c-1.272,3.945-4.334,7.549-8.397,8.409l-9.532,5.656
		c-10.346-12.313-24.391-20.841-36.574-31.334c-8.387-7.218-15.898-15.376-23.393-23.517
		C518.505,1005.957,526.521,1006.585,533.91,1007.089z"/>
	<g>
		<path fill="#89796E" d="M434.052,1026.7c-0.673,6.737-0.876,13.955,2.496,19.832c4.768,8.311,15.308,11.471,24.892,11.576
			c23.201,0.245,44.354-12.782,62.762-26.908c3.877-2.976,7.799-6.075,12.428-7.636c6.062-2.055,12.701-1.268,18.984-2.465
			c1.108-0.217,2.329-0.573,2.883-1.563c0.412-0.743,0.332-1.653,0.239-2.501c-0.676-6.148-1.37-12.296-2.099-18.443
			c-9.317-1.838-18.508,2.797-27.32,6.345c-8.861,3.564-18.096,6.123-27.305,8.669c-4.46,1.234-9,2.482-13.629,2.396
			s-9.443-1.685-12.385-5.263c-2.668-3.246-3.465-7.721-3.041-11.896c0.425-4.18,1.946-8.156,3.486-12.066
			c5.653-14.336,11.889-28.687,21.572-40.673c3.148-3.886,6.857-8.14,6.4-13.119c-0.319-3.491-2.764-6.522-5.748-8.373
			c-2.981-1.844-6.471-2.68-9.916-3.345c-5.579-1.082-14.43-3.757-19.574-0.019c-5.73,4.161-8.25,15.013-10.903,21.229
			c-7.417,17.359-14.112,35.096-18.729,53.429C436.994,1006.024,435.088,1016.311,434.052,1026.7z"/>
		<path fill="#89796E" d="M548.045,1009.535c0,3.897,2.705,7.229,5.453,9.996c4.728,4.765,10.138,9.037,16.444,11.343
			c6.306,2.312,13.617,2.465,19.531-0.719c5.917-3.173,9.987-10.034,8.841-16.648c-0.94-5.41-5.065-9.842-9.88-12.474
			c-4.819-2.632-10.303-3.727-15.704-4.69C563.008,994.608,548.054,995.839,548.045,1009.535z"/>
	</g>
	<path fill="#333333" d="M457.981,921.992c5.785-21.276,21.769-38.029,37.175-53.798c12.797-13.101,41.338-22.875,51.733-0.72
		c8.354,17.806-7.979,49.365-13.685,66.187c-1.61,4.74-3.77,10.009-8.44,11.805c-1.958,0.756-4.113,0.773-6.207,0.73
		c-19.718-0.425-39.317-5.778-56.512-15.438c-1.802-1.014-3.72-2.244-4.351-4.217C457.225,925.079,457.576,923.48,457.981,921.992z"
		/>
	<path fill="#333333" d="M587.322,728.464c-2.151-0.208-3.916-1.789-5.24-3.492c-1.683,4.145-8.496,4.68-10.805,0.85
		c-0.895,3.098-5.908,3.787-7.599,1.039c0.344,1.646-1.239,3.202-2.908,3.455c-1.666,0.245-3.319-0.442-4.839-1.181
		c0.609,3.222-3.823,6.02-6.467,4.088c1.002,4.131-2.479,8.729-6.729,8.89c2.502,4.058,0.679,10.119-3.643,12.116
		c2.831,2.914,2.662,8.184-0.351,10.912c2.631,2.041,2.36,6.75-0.479,8.479c1.223,1.271,1.069,3.289,0.836,5.035
		c-0.396,2.938-0.793,5.864-1.187,8.803c2.154,1.076,1.401,5.06-0.996,5.275c2.668,2.68,2.718,7.519,0.104,10.254
		c1.531,0.959,2.693,2.496,3.194,4.229c-0.04,1.604-2.533,1.34-3.907,0.51c-5.729-3.437-11.342-7.063-16.832-10.875
		c-1.337-0.928-2.724-1.93-3.435-3.393c-0.709-1.463-0.477-3.529,0.938-4.334c-2.262-0.873-4.653-1.838-6.096-3.787
		c-1.441-1.948-1.38-5.207,0.741-6.381c-2.184,0.338-4.279-1.144-5.539-2.957c-1.258-1.82-1.928-3.972-2.979-5.908
		c-1.712-3.166-4.479-6.959-2.36-9.867c-0.756-1.438-2.186-2.373-3.451-3.394c-1.268-1.021-2.496-2.36-2.533-3.99
		c-0.043-1.629,1.813-3.227,3.203-2.385c-3.346-1.851-5.483-5.686-5.313-9.51c-0.939-2.33-1.715-4.733-2.312-7.181
		c0.922-0.319,1.851-0.646,2.775-0.972c-2.068-3.184-3.9-8.004-0.823-10.229c-3.131-0.621-4.411-5.336-2.026-7.451
		c0.585-0.528,1.334-0.91,1.733-1.586c0.959-1.629-0.627-3.529-1.039-5.373c-0.67-3.024,2.847-6.067,5.742-4.979
		c-0.892-3.989,2.459-8.374,6.547-8.545c0.836-0.037,1.74,0.063,2.459-0.375c0.887-0.541,1.145-1.678,1.524-2.644
		c0.978-2.479,3.302-4.365,5.921-4.814c1.167-0.203,2.446-0.159,3.417-0.835c1.125-0.774,1.503-2.263,2.453-3.246
		c2.853-2.938,8.588,0.246,11.65-2.471c1.317-1.168,1.745-3.173,3.221-4.138c2.121-1.384,4.931,0.166,7.448-0.093
		c3.326-0.331,6.059-3.805,9.335-3.141c1.321,0.264,2.456,1.198,3.8,1.365c2.373,0.289,4.248-1.813,6.221-3.166
		c1.978-1.347,5.563-1.347,5.883,1.02c2.559-4.463,9.963-4.869,12.994-0.713c-0.342-1.34,2.472-1.574,2.352-0.189
		c2.256-0.916,4.589-1.852,7.025-1.838c2.436,0.019,5.035,1.224,5.945,3.485c2.883-1.47,6.594-2.871,9.11-0.842
		c0.962,0.781,1.552,1.955,2.548,2.693c1.977,1.45,4.725,0.719,7.177,0.787c2.459,0.073,5.392,2.299,4.218,4.45
		c2.284-0.418,4.706-0.823,6.873,0.013s3.84,3.405,2.851,5.508c3.568,0.185,6.657,3.584,6.504,7.156
		c-0.034,0.849-0.218,1.752,0.157,2.514c0.405,0.818,1.321,1.211,2.096,1.69c3.212,1.968,4.556,6.492,2.936,9.897
		c2.305,0.591,4.663,1.42,6.292,3.16c1.625,1.733,2.263,4.599,0.86,6.517c-0.521,0.719-1.309,1.297-1.509,2.164
		c-0.283,1.205,0.674,2.305,1.245,3.405c1.377,2.644,0.338,6.283-2.229,7.802c3.515,2.004,4.374,7.458,1.657,10.445
		c3.088,4.021,2.038,9.726,0.835,14.656c-0.7,2.883-1.401,5.766-2.109,8.655c1.648,2.201,0.893,5.791-1.509,7.145
		c1.78,1.66,1.104,5.14-1.177,6c-0.19,3.867-1.525,7.672-3.796,10.808c-0.512,1.235-2.253-0.246-2.585-1.543
		c-1.706-6.646-3.412-13.297-5.118-19.943c-0.925-3.607-1.773-7.739,0.335-10.819c-2.757-1.937-4.543-5.195-4.693-8.563
		c-3.978,0.996-8.069-3.737-6.504-7.523c-4.141,0.816-8.407-3.418-7.62-7.563c-3.771,1.34-8.394-1.771-8.583-5.767
		c-1.038,2.576-5.821,1.635-5.809-1.144c-0.006,1.377-4.599,0.492-5.177,0.744C590.197,726.202,590.242,728.753,587.322,728.464z"/>
	<g>
		<g>
			<path fill="#F7F7F7" d="M573.041,1055.15c-0.98,3.282-1.297,6.837-0.913,10.292c58.886,4.555,117.925,6.419,176.936,5.568
				c4.697-22.169-11.748-15.86-24.686-14.846c-17.052,1.333-34.132,2.182-51.216,2.533
				C664.168,1058.889,573.736,1052.814,573.041,1055.15z"/>
			<path fill="#E6E6E6" d="M755.295,901.515c-62.024-1.731-119.02-2.312-179.281-8.336c-2.573,50.614-6.936,117.377-1.189,167.629
				c41.227,4.757,87.37-0.37,128.735,2.243c10.128,0.641,20.622,2.157,30.76,1.746c10.095-0.412,12.136-8.489,13.39-20.183
				c2.551-23.806,1.721-48.69,3.16-72.672C751.296,964.823,752.608,901.827,755.295,901.515z"/>
		</g>
		<path fill="#FFFFFF" d="M647.865,996.785c7.672-8.956,11.772-21.886,16.118-32.682c0.716-1.771,3.089-2.354,4.196-0.541
			c6.759,11.055,12.852,22.438,18.292,34.198c1.229,2.662-2.724,4.999-3.965,2.318c-0.007-0.013-0.013-0.024-0.021-0.043
			c-11.02-0.418-22.006-0.214-32.998,0.67C647.336,1000.879,646.684,998.162,647.865,996.785z M680.186,995.42
			c-4.178-8.668-8.709-17.146-13.613-25.427c-3.432,8.828-6.953,18.13-12.296,25.882
			C665.164,995.002,672.455,995.026,680.186,995.42z"/>
	</g>
	<path fill="#89796E" d="M691.568,1067.777c-2.89-2.372-5.933-5.034-6.766-8.68c-0.83-3.614,0.777-7.415,3.178-10.242
		c2.4-2.821,5.542-4.895,8.471-7.168c4.694-3.646,9.004-7.918,14.375-10.457c5.369-2.541,12.322-2.934,16.805,0.965
		c2.767,2.402,4.137,6.006,5.23,9.505c2.619,8.402,4.205,17.128,4.713,25.919c0.189,3.307,0.189,6.786-1.381,9.699
		c-1.703,3.16-5.047,5.178-8.526,6.063C714.412,1086.786,701.091,1075.61,691.568,1067.777z"/>
</g>
</svg>
