<?xml version="1.0" encoding="utf-8"?>
<!-- Generator: Adobe Illustrator 16.0.0, SVG Export Plug-In . SVG Version: 6.00 Build 0)  -->
<!DOCTYPE svg PUBLIC "-//W3C//DTD SVG 1.1//EN" "http://www.w3.org/Graphics/SVG/1.1/DTD/svg11.dtd" [
	<!ENTITY ns_flows "http://ns.adobe.com/Flows/1.0/">
	<!ENTITY ns_extend "http://ns.adobe.com/Extensibility/1.0/">
	<!ENTITY ns_ai "http://ns.adobe.com/AdobeIllustrator/10.0/">
	<!ENTITY ns_graphs "http://ns.adobe.com/Graphs/1.0/">
]>
<svg version="1.1" id="Layer_1" xmlns:x="&ns_extend;" xmlns:i="&ns_ai;" xmlns:graph="&ns_graphs;"
	 xmlns="http://www.w3.org/2000/svg" xmlns:xlink="http://www.w3.org/1999/xlink" xmlns:a="http://ns.adobe.com/AdobeSVGViewerExtensions/3.0/"
	 x="0px" y="0px" width="3800px" height="2000px" viewBox="0 0 3800 2000" enable-background="new 0 0 3800 2000"
	 xml:space="preserve">
<rect fill="#FFFFFF" stroke="#000000" stroke-miterlimit="10" width="3800" height="2000"/>
<path fill="#EBF2F9" d="M3058.334,751.765c-96.407-86.411-212.634-607.53-610.784-336.114
	c-205.707,140.228-552.572-120.384-839.675-30.369c-263.668,82.668-289.084,355.033-263.572,443.784
	c51.534,179.274-108.836,205.952-257.606,282.979c-233.362,120.822-61.76,545.439,158.699,547.471
	c220.459,2.029,1556.043-4.043,1556.043-4.043s320.264,0.852,453.443-184.881C3398.2,1270.725,3307.351,974.961,3058.334,751.765z"
	/>
<g>
	<path fill="#666666" d="M696.894,1382.945c16.511,81.271,63.557,153.867,79.99,235.16c1.07,5.301,2.071,10.782,5.053,15.296
		c2.978,4.512,8.543,7.813,13.761,6.385c9.4-2.568,9.354-15.696,8.057-25.354c-3.887-28.836-0.524-58.095,2.842-86.994
		c5.245-45.054,10.489-90.1,15.737-135.146c3.915-4.063,11.048-3.139,15.338,0.521c4.295,3.659,6.391,9.225,8.098,14.6
		c7.62,23.986,10.84,49.109,14.029,74.073c6.377,49.943,12.762,100.013,13.543,150.354c4.566,0.299,9.133,0.592,13.699,0.886
		c18.661-49.862,32.711-101.321,45.975-152.891c6.717-26.098,13.243-52.295,17.445-78.915c5.527-35.003,6.993-70.505,8.176-105.921
		c0.239-7.149,0.315-14.859-3.763-20.739c-3.651-5.271-9.911-7.997-15.899-10.289c-51.662-19.816-107.219-27.202-162.386-31.489
		c-15.489-1.205-31.183-2.166-46.472,0.603c-12.072,2.188-25.214,6.95-34.234,15.599c-10.229,9.807-6.9,25.36-6.939,38.857
		C688.851,1319.477,690.522,1351.575,696.894,1382.945z"/>
	<path fill="#98B99D" d="M664.229,1202.589c-5.108,15.479-9.119,33.761,0.332,47.046c4.446,6.243,11.271,10.337,18.115,13.795
		c38.611,19.504,82.807,24.004,125.857,28.185c38.781,3.769,77.74,7.542,116.648,5.462c18.53-0.987,38.068-3.74,52.549-15.343
		c13.773-11.033,20.897-28.71,22.838-46.253c1.938-17.541-0.735-35.23-3.4-52.676c-2.924-19.133-5.857-38.319-10.898-57.008
		c-8.767-32.494-23.92-63.246-44.345-89.996c-15.408-20.182-34.227-38.381-57.214-49.179c-21.793-10.24-54.807-14.958-77.484-3.948
		c-22.641,10.989-43.421,42.572-58.576,62.041C711.812,1092.026,683.032,1145.641,664.229,1202.589z"/>
	<path fill="#F2D6C9" d="M780.407,1162.324c3.187,0.294,6.423,0.588,9.576,0.027c2.623-0.462,5.14-1.515,7.309-3.057
		c3.404-2.427,5.982-6.25,6.157-10.425c0.174-4.177-2.454-8.52-6.478-9.644c-1.843-0.515-3.806-0.356-5.689-0.026
		c-8.479,1.481-16.212,6.332-24.797,6.922c-3.144,0.219-6.693-0.005-8.969,2.172c-1.266,1.211-1.862,2.965-2.18,4.687
		c-0.35,1.873-0.395,3.914,0.535,5.582c1.781,3.197,6.955,2.145,10.021,2.428C770.731,1161.436,775.57,1161.88,780.407,1162.324z"/>
	<path fill="#F2D6C9" d="M879.986,930.368c-0.198,4.121-0.435,8.264-1.65,12.287c-2.877,9.527-11.515,18.068-23.228,22.662
		c-11.707,4.593-26.305,5.081-38.422,1.106c-11.959-3.92-20.812-11.65-27.836-19.779c-14.697-16.993-23.266-37.224-21.205-57.312
		c0.307-2.981,0.934-6.119,3.467-8.465c3.643-3.372,10.061-4.143,15.869-4.669c19.05-1.737,71.972-13.752,87.674-4.556
		C890.183,880.739,880.785,917.658,879.986,930.368z"/>
	<path fill="#D1B380" d="M725.821,872.67c2.787,11.854,17.852,20.805,33.971,22.841c16.125,2.042,32.77-1.823,46.779-8.035
		c14.996-6.65,29.012-16.31,46.51-16.875c3.208-0.103,6.54,0.142,9.363,1.271c3.127,1.249,5.317,3.458,7.137,5.711
		c9.982,12.357,11.454,27.315,12.678,41.66c5.34-12.439,9.557-25.138,12.604-37.984c3.333-14.035,4.267-30.475-9.688-40.355
		c-10.616-7.521-26.901-8.795-41.534-7.472c-20.625,1.868-40.476,8.155-56.494,17.886c-6.366,3.87-12.159,8.278-19.043,11.635
		c-6.879,3.354-15.24,5.625-23.362,4.533c-8.996-1.21-10.702-6.694-16.991-9.827C725.118,862.089,724.7,867.904,725.821,872.67z"/>
	<path fill="#A8C1AB" d="M724.019,1014.034c-14.203,10.694-25.768,24.454-36.821,38.38c-10.232,12.9-20.319,26.387-25.345,42.061
		c-5.027,15.676-4.196,34.136,6.039,47.029c10.325,13.021,27.688,17.862,44.002,21.018c6.508,1.26,13.123,2.371,19.737,1.954
		c7.374-0.461,19.14,0.949,26.148-1.374c3.752-1.249,3.768-4.875,6.607-7.629c2.839-2.752,3.501-8.827,1.447-12.21
		c-11.915-0.787-23.805-2.023-35.625-3.714c-9.822-1.4-20.466-3.594-26.813-11.217c-6.844-8.227-6.397-20.794-1.306-30.203
		s13.976-16.163,23.164-21.646c9.188-5.473,18.995-10.012,27.492-16.516c14.534-11.131,75.701-55.325,58.292-73.979
		C797.323,971.294,735.99,1005.016,724.019,1014.034z"/>
	<path fill="#A8C1AB" d="M911.876,1074.045c-5.688-10.463-14.15-19.105-21.259-28.667c-7.107-9.562-13.074-20.827-12.45-32.723
		c0.625-11.901,9.966-23.922,21.88-23.847c4.914,0.033,9.599,2.021,13.994,4.219c14.328,7.167,27.308,17.021,38.065,28.89
		c4.186,4.619,8.07,9.594,10.738,15.229c3.928,8.291,5.043,17.592,6.014,26.713c1.705,16.026,3.103,32.396-0.392,48.137
		c-4.983,22.449-21.093,42.593-42.364,51.595c-4.572,1.933-11.512,5.255-15.859,2.813c-4.643-2.611-5.462-8.683-4.501-13.198
		c2.651-12.505,11.179-22.896,13.099-36.176C920.957,1102.407,918.979,1087.113,911.876,1074.045z"/>
	<g>
		<path fill="#FFFFFF" d="M893.688,1191.236c1.436,1.28,2.953,2.578,4.802,3.1c2.552,0.723,5.25-0.146,7.753-1.004
			c1.665-0.564,3.328-1.135,4.99-1.705c0.646-0.223,1.341-0.479,1.716-1.048c0.385-0.591,0.327-1.353,0.255-2.052
			c-1.613-15.595-4.588-31.044-8.872-46.123c-6.843,3.16-13.687,6.324-20.528,9.485c-3.681,1.705-16.139,5.104-16.396,9.595
			c-0.263,4.527,8.583,11.954,11.416,15.056C883.521,1181.688,888.483,1186.6,893.688,1191.236z"/>
		<path fill="#333333" d="M896.899,1139.506c2.041-0.848,4.207-1.71,6.396-1.412c2.19,0.306,4.321,2.237,3.99,4.42
			c-0.233,1.563-8.399,5.271-9.888,6.136c-3.578,2.073-7.218,4.038-10.918,5.896c-3.696,1.853-7.453,3.589-11.26,5.206
			c-2.117,0.902-6.654,3.752-9.102,2.9c-9.073-3.146,6.713-11.788,9.46-13.329C882.413,1145.495,889.67,1142.492,896.899,1139.506z"
			/>
	</g>
	<path fill="#F2D6C9" d="M887.094,1161.951c-0.907,0.641-1.819,1.297-2.514,2.166c-1.718,2.145-1.797,5.13-1.8,7.877
		c-0.002,4.394,0.435,9.594,4.222,11.81c1.722,1.005,3.795,1.141,5.785,1.255c2.077,0.113,4.151,0.229,6.228,0.348
		c2.229,0.12,4.635,0.201,6.502-1.026c1.914-1.26,2.782-3.578,3.534-5.744c1.841-5.299,3.685-10.598,5.527-15.896
		c0.309-0.901,0.619-1.912,0.214-2.775c-0.253-0.531-0.736-0.904-1.203-1.264c-4.414-3.373-6.51-5.115-12.152-3.861
		C896.791,1155.864,890.514,1158.535,887.094,1161.951z"/>
	<path d="M928.742,1636.387c-2.802-2.514-6.849-2.92-10.601-3.203c-5.568-0.424-11.139-0.847-16.707-1.27
		c-2.387-0.182-4.905-0.408-6.854-1.804c-0.787-0.564-1.384-1.292-1.905-2.084c-1.742,0.017-3.502-0.077-5.212-0.108
		c-6.428-0.137-12.851,2.248-19.067,4.169c1.28,5.451,2.563,10.896,3.844,16.343c0.255,1.086,0.559,2.247,1.417,2.953
		c0.868,0.723,2.09,0.781,3.22,0.814c18.554,0.451,37.136-0.206,55.612-1.977C932.588,1645.285,932.417,1639.683,928.742,1636.387z"
		/>
	<path d="M800.838,1631.474c0.32,7.356,0.558,15.1-2.851,21.625c-2.411,4.604-6.412,8.14-10.324,11.561
		c-2.052,1.796-4.104,3.588-6.157,5.385c-0.567,0.494-1.159,1.005-1.873,1.249c-0.773,0.266-1.612,0.195-2.427,0.152
		c-3.516-0.19-7.047,0.185-10.555-0.104c-3.51-0.288-7.133-1.341-9.566-3.882c-2.435-2.546-3.238-6.846-1.078-9.626
		c1.401-1.803,3.676-2.639,5.752-3.594c6.073-2.797,11.323-7.353,14.944-12.979c2.271-3.526,4.322-7.296,8.448-8.751
		C786.532,1632.027,800.789,1630.393,800.838,1631.474z"/>
</g>
<g>
	<path fill="#4A4E31" d="M540.896,1651.18c-3.316,0.232-6.703,0.465-9.916-0.397c-3.211-0.862-6.268-3.028-7.286-6.197
		c-0.868-2.688-0.438-6.203-2.798-7.761c-0.539-0.361-1.158-0.544-1.805-0.651c-0.32-56.155,1.057-88.657,0.652-145.939
		c2.851-19.067,1.115-36.798,0.684-55.244c-1.361-58.351-2.722-116.698-4.08-175.047c-0.183-7.729-0.441-15.771-4.273-22.976
		c-6.192-11.646-20.014-18.236-32.939-23.275c-38.471-14.993-82.029-36.501-92.651,11.817c-2.813,12.789-5.173,25.701-7.081,38.706
		c-1.355,9.26-2.441,18.938,0.943,28.163c5.734,15.636,16.421,54.061,29.932,65.409c35.186,29.564,50.489,63.038,62.125,102.298
		c-3.624,13.091,0.644,31.656,2.22,41.783c7.553,48.529,23.031,93.707,30.607,142.227c-3.217,5.973-4.575,12.95-3.664,19.683
		c0.183,1.352,0.484,2.764,1.39,3.783c1.299,1.466,3.447,1.739,5.399,1.886c5.42,0.398,10.859,0.545,16.295,0.437
		c4.212-0.081,8.769-0.453,11.939-3.223C540.764,1663.016,540.99,1656.721,540.896,1651.18z"/>
	<path fill="#4A4E31" d="M495.058,1319.227c-10.833-23.862-50.349-39.88-87.718-12.686c-22.29,16.222-5.357,34.382-0.426,50.442
		c6.009,19.563,9.946,39.686,11.821,60.182c3.613,39.502-0.45,80.412-12.252,121.467c-7.847,27.296-8.005,57.196-13.403,84.406
		c-3.018,15.229-12.481,35.483-10.277,50.647c8.418,0.08,16.831,0.161,25.246,0.237c7.429,0.074,15.352,0.004,21.567-4.063
		c6.216-4.074,9.283-13.758,4.072-19.051c-5.123,1.682-10.563,3.379-15.833,2.149c-23.255-5.503,7.098-58.026,11.551-69.613
		c18.968-49.343,37.858-98.757,51.566-148.148C490.964,1399.191,509.867,1351.843,495.058,1319.227z"/>
	<path fill="#4A4E31" d="M502.188,1056.071c9.198,22.586,18.401,45.173,27.601,67.758c2.517,6.183,5.082,12.789,3.864,19.354
		c-2.146,11.537-14.768,17.783-26.219,20.359c-22.635-32.107-46.449-63.382-71.389-93.74c-14.182-17.262-36.283-57.146-3.708-69.144
		C469.224,987.078,491.177,1029.045,502.188,1056.071z"/>
	<path fill="#4A4E31" d="M584.998,1021.731c2.972-4.451,7.292-2.421,11.078,1.367c-10.466,38.027-19.827,76.354-28.067,114.927
		c-2.56,11.969-5.788,25.173-15.931,32.021c-4.333,2.927-9.506,4.339-14.659,5.218c-9.271,1.59-20.474,0.781-25.689-7.055
		c-7.459-11.198,1.752-22.091,9.125-29.861c8.687-9.155,12.354-15.041,17.688-27.421
		C550.914,1082.209,567.647,1047.75,584.998,1021.731z"/>
	<path fill="#F2D6C9" d="M602.58,1019.938c0.822-1.09,1.334-2.377,1.838-3.648c1.315-3.314,2.63-6.634,3.945-9.954
		c0.595-1.509,1.202-3.05,1.307-4.667c0.104-1.623-0.364-3.362-1.603-4.408c-1.144-0.97-2.787-1.202-4.256-0.889
		c-1.468,0.318-2.785,1.122-3.979,2.032c-2.7,2.069-4.912,4.764-6.408,7.818c-1.189,2.427-1.982,5.143-3.875,7.076
		c-0.844,0.862-1.881,1.536-2.607,2.495c-1.115,1.455-1.375,3.524-0.655,5.212C588.635,1026.521,599.688,1023.768,602.58,1019.938z"
		/>
	<path fill="#AA6A64" d="M542.677,1327.219c-3.813-82.035-12.35-163.858-23.479-245.338c-4.084-29.895-8.959-65.447-40.279-79.443
		c-29.005-12.966-64.676-16.265-83.549,12.875c-10.573,16.324-12.993,36.142-15.165,55.252
		c-13.338,117.229-26.677,234.463-40.012,351.693c14.656,0.867,189.873,26.8,190.697,15.877c0.008-0.135,0.02-0.275,0.03-0.416
		c1.115-0.086,2.21-0.285,3.22-0.743c3.911-1.768,5.086-6.43,5.722-10.509C544.975,1393.705,544.218,1360.352,542.677,1327.219z"/>
	<g>
		<path fill="#F2D6C9" d="M596.685,1112.275c0.386-0.853,0.68-1.752,1.225-2.513c1.137-1.584,3.169-2.263,5.107-2.468
			c1.937-0.21,3.91-0.043,5.826-0.394c5.965-1.089,10.854-7.001,16.844-6.079c1.856,0.286,3.547,1.229,5.063,2.328
			c1.987,1.448,3.837,3.347,4.343,5.756c0.797,3.783-1.883,7.335-4.395,10.275c-1.387,1.623-2.821,3.288-4.707,4.285
			c-1.559,0.824-3.32,1.144-5.034,1.541c-4.247,0.981-8.461,2.565-11.772,5.405c-2.754,2.366-5.025,5.659-8.545,6.532
			c-6.267,1.557-12.185-5.335-12.91-11.048C586.992,1120.068,594.521,1117.063,596.685,1112.275z"/>
		<path fill="#4A4E31" d="M600.883,1132.438c-2.743-5.52-5.485-11.049-8.227-16.566c-8.66,1.429-15.185,8.343-21.417,14.519
			c-8.6,8.53-17.893,16.356-27.76,23.38c-5.791,4.127-12.518,8.146-19.545,7.06c-8.619-1.337-14.119-9.647-18.521-17.176
			c-16.553-28.325-33.103-56.646-49.656-84.968c-13.091-22.396-27.787-14.222-37.172,5.918c-8.537,18.318,2.484,38.979,10.916,55.53
			c10.899,21.4,22.95,42.209,36.088,62.306c7.715,11.803,17.046,24.239,30.786,27.41c6.626,1.529,13.61,0.661,20.146-1.202
			c21.089-6.016,37.836-21.708,53.338-37.22c10.065-10.065,19.987-20.278,29.762-30.638c1.081-1.143,2.212-2.397,2.433-3.955
			C602.272,1135.304,601.567,1133.814,600.883,1132.438z"/>
	</g>
	<path fill="#F2D6C9" d="M506.957,889.604c-3.462-10.271-8.862-22.916-20.013-25.571c-12.069-2.873-29.054,5.087-37.778,12.718
		c-10.772,9.426-17.55,22.764-21.331,36.571c-4.117,15.063-4.791,31.721,1.945,45.813c6.736,14.094,22.152,24.655,37.601,22.354
		c10.315-1.537,19.172-8.333,25.906-16.292C510.606,944.714,515.469,914.863,506.957,889.604z"/>
	<path fill="#534741" d="M455.196,928.18c-3.422-6.02-13.855-5.75-16.965,0.442c-2.317,4.619,5.971,23.33,7.184,29.043
		c3.239,15.272,5.842,30.524,10.032,45.603c-24.615,0.539-49.432-2.145-72.881-9.656c-2.406-0.771-4.923-1.67-6.553-3.605
		c-2.15-2.549-2.229-6.203-2.104-9.533c1.83-49.407,28.376-128.587,89.577-127.121c7.548,0.184,14.979,1.832,22.315,3.621
		c4.818,1.176,9.696,2.442,14.001,4.905c8.921,5.104,14.4,14.863,16.666,24.888c2.267,10.024,1.723,20.441,1.164,30.702
		c-0.17,3.143-36.896-0.08-40.373-0.625c-3.969-0.62-11.403-3.767-15.376-2.068C457.339,916.717,456.737,923.998,455.196,928.18z"/>
	<path opacity="0.19" fill="#FFFFFF" enable-background="new    " d="M401.732,1251.27c-10.565-2.049-20.223-7.229-29.689-12.348
		c1.517-4.613,3.034-9.221,4.551-13.834c43.275,15.548,92.388,14.186,134.736-3.74c0.667,7.281,1.333,14.563,1.999,21.844
		c-11.475,2.425-23.195,3.398-34.884,4.363c-15.925,1.32-31.851,2.642-47.775,3.961
		C421.026,1252.314,411.236,1253.105,401.732,1251.27z"/>
</g>
<g>
	<path fill="#97A8B2" d="M1268.921,1236.915c0,0,2.533-40.313-70.48-37.428c-1.408,0.054-2.788,0.105-4.157,0.152
		c-0.502,0.275-0.994,0.556-1.497,0.83c-1.039,2.702-1.919,5.437-2.662,8.189c-0.208,0.776-0.412,1.962-0.572,3.052
		c-0.506,4.367-0.36,2.438,0,0c0.103-0.883,0.229-2.016,0.389-3.459c-0.198,1.793-0.6,3.585-0.85,5.378
		c-2.221,16.101-1.729,32.32-3.127,48.462c-1.194,13.764-4.011,27.493-6.998,41.166c2.829-0.132,6.109-0.096,7.935,0.565
		c3.655,1.333,5.424,335.285-0.901,356.11l29.063,0.297C1215.062,1660.23,1271.375,1317.243,1268.921,1236.915z"/>
	<g>
		<path fill="#EADDD0" d="M1189.183,1049.433c-8.488-1.236-17.519,3.257-21.652,10.771c-2.66,4.833-3.336,10.468-4.014,15.939
			c-2.41,19.499-5.47,38.913-9.17,58.212c-2.512,13.092-2.772,39.077-21.268,40.394c-6.926,0.493-14.038-4.711-20.876-5.794
			c-11.183-1.767-21.759-2.38-32.558-6.334c-8.717-3.193-14.538-7.788-21.058-14.128c-3.934-3.827-9.387-11.404-14.634-12.826
			c-3.766-1.026-8.531,3.321-6.145,6.402c-4.677-2.809-11.34,1.691-11.558,7.143c-0.413,10.448,20.187,16.36,27.47,20.896
			c11.295,7.038,22.383,14.51,34.653,19.786c19.308,8.294,40.204,12.927,61.226,13.333c3.701,0.068,7.619-0.043,10.773-1.981
			c6.766-4.156,10.418-13.879,15.534-19.822c4.761-5.53,7.276-9.235,9.461-16.475c5.979-19.832,11.198-40.246,15.11-60.597
			C1204.127,1087.13,1216.832,1053.456,1189.183,1049.433z"/>
		<path fill="#97A8B2" d="M1104.034,1356.807c0.488,12.881,1.332,25.75,2.181,38.612c1.265,19.245,2.527,38.491,3.793,57.729
			c0.405,6.16,0.957,12.717,4.735,17.592c0.391,0.502,0.835,0.999,1.427,1.231c1.999,0.761,3.585-1.771,4.256-3.808
			c8.024-24.204,19.959-47.113,35.208-67.561c3.893-5.212,8.133-10.394,13.773-13.641c4.24-2.443,9.057-3.669,13.805-4.864
			c9.506-2.399,19.012-4.796,28.52-7.189c5.572-1.406,11.361-2.919,15.74-6.642c3.452-2.934,5.715-6.989,7.909-10.954
			c11.101-20.075,22.313-40.432,27.97-62.663c4.123-16.216,5.187-33.071,4.916-49.807c-0.026-1.665-0.073-3.367-0.67-4.922
			c-0.826-2.137-2.613-3.765-4.521-5.033c-7.165-4.753-16.216-5.329-24.803-5.715c-32.601-1.448-65.861-2.131-97.814,5.52
			c-9.837,2.353-26.576,4.728-31.329,15.164c-5.843,12.814-4.056,32.652-4.737,46.488
			C1103.392,1316.482,1103.274,1336.663,1104.034,1356.807z"/>
		<g>
			<path fill="#97A8B2" d="M1170.606,1334.48c-18.237-2.449-36.477-4.897-54.711-7.346c-0.903-2.306,3.627,0.096,3.322,2.506
				c-9.543,76.215-5.887,153.562,1.732,230.234c3.283,33.045,3.531,66.201,0.068,99.118c7.502,0.809,20.432,1.993,27.937,2.803
				c13.817-102.645,22.212-205.665,36.03-308.311c0.699-5.188,1.123-11.188-2.871-14.974
				C1179.188,1335.737,1174.733,1335.034,1170.606,1334.48z"/>
		</g>
		<path fill="#EADDD0" d="M1146.931,998.279c10.877-0.396,22.017-7.729,33.754-10.146c-3.069-9.501,0.623-19.688,1.597-29.628
			c1.321-13.44-2.4-26.822-6.332-39.75c-3.167-10.416-6.707-21.16-14.175-29.085c-1.485-1.576-3.198-3.072-5.295-3.611
			c-1.793-0.465-3.686-0.185-5.516,0.096c-12.874,1.978-48.607,3.463-51.999,17.901c-4.653,19.812,8.972,46.067,16.591,63.558
			c3.594,8.244,7.32,16.691,13.646,23.084C1135.065,996.625,1140.957,998.496,1146.931,998.279z"/>
		<path fill="#6087A2" d="M1271.676,1281.391l0.214-0.201c0.135-0.146,0.262-0.283,0.379-0.411c0.285-0.423,0.586-0.835,0.866-1.265
			c3.845-5.847,7.154-12.018,10.505-18.161c6.346-71.187-1.744-143.022-24.046-212.925c-7.01-21.989-13.934-46.15-40.149-61.234
			c-1.344-0.772-2.775-1.534-4.469-1.799c-2.193-0.344-4.44,0.202-6.541,0.74c-14.158,3.627-28.316,7.254-42.477,10.887
			c-2.818,0.72-5.652,1.447-8.518,2.099c-2.998,0.682-6.027,1.285-9.114,1.718c-5.235,0.73-25.972,5.679-26.681,10.654
			c-1.808,12.716-3.453,25.44-4.916,38.184c-3.611,31.49-6.334,62.922-6.224,94.523c0.11,31.479-2.808,62.928-7.96,94.165
			c-0.402,2.433-2.275,15.095-4.527,28.11c0.118,0.229,0.227,0.456,0.349,0.684c1.823,3.437,3.791,6.799,5.939,10.04
			c0.193,0.296,0.584,0.841,0.986,1.396c0.201,0.242,0.38,0.46,0.502,0.598c2.442,2.808,5.106,5.45,7.888,7.921
			c0.217,0.188,0.604,0.549,1.026,0.938c-3.833-3.616,0.231,0.043,1.38,0.815c2.9,1.95,5.911,3.727,9.01,5.34
			c0.782,0.407,3.91,1.729,4.213,1.919c0.322,0.122,0.656,0.222,0.981,0.344c44.415-1.861,88.694-4.985,132.668-9.4
			C1265.76,1285.092,1268.726,1282.892,1271.676,1281.391z"/>
		<path fill="#97A8B2" d="M1123.007,1656.14c-0.445-0.011-0.904-0.016-1.316,0.091c-0.565,0.146-0.969,0.495-1.322,0.834
			c-1.613,1.556-2.786,3.332-3.426,5.204c-0.598,1.737-0.762,3.605-2.067,5.144c-1.454,1.714-4.093,2.75-6.681,3.602
			c-6.696,2.199-13.888,3.676-21.244,4.356c-1.631,0.152-3.308,0.274-4.785,0.771c-4.18,1.406-5.229,5.134-5.776,8.343
			c-0.159,0.932-0.19,2.067,0.935,2.592c0.606,0.279,1.385,0.29,2.111,0.29c21.027-0.042,30.004-0.059,51.026-0.095
			c5.133-0.012,10.429-0.17,15.396-1.048c0.67-0.116,1.364-0.265,1.861-0.592c0.545-0.365,0.775-0.899,0.971-1.407
			c2.773-7.254,3.112-15.104,2.482-22.586c-0.195-2.326-0.6-4.24-4.293-4.758c-5.25-0.741,0.518-0.17-4.838-0.297
			C1135.696,1656.436,1129.351,1656.287,1123.007,1656.14z"/>
		<path fill="#333333" d="M1213.935,923.942c0.08-6.493-3.646-12.319-6.828-17.982c-5.291-9.416-9.44-19.541-15.928-28.175
			c-6.49-8.634-16.024-15.852-26.822-16.168c-4.493-0.132-8.93,0.931-13.303,1.982c-18.621,4.494-37.465,9.063-54.421,17.977
			c-2.12,1.109-4.284,2.363-5.614,4.356c-1.18,1.767-1.576,3.924-1.945,6.012c-0.523,2.961-1.044,5.917-1.564,8.877
			c-0.328,1.851-0.656,3.754-0.297,5.599c1.092,5.637,7.78,8.158,13.51,8.491c5.688,0.328,11.373-0.481,17.009-1.295
			c5.397-0.772,18.172-5.256,22.592-0.354c2.187,2.422,1.538,6.461,3.008,9.316c1.804,3.516,5.203,5.657,7.46,8.798
			c2.358,2.903,3.989,7.021,2.268,10.342c3.184-1.882,7.106-2.469,10.697-1.602c1.262,0.307,2.543,0.825,3.369,1.824
			c1.594,1.924,0.901,4.997-0.838,6.794c-1.738,1.797-4.219,2.628-6.598,3.398c10.22,9.893,13.979,25.907,9.226,39.305
			c7.847-0.788,14.37-6.266,19.79-11.991c4.893-5.177,9.379-10.833,12.462-17.256c1.427-2.983,2.543-6.103,3.656-9.217
			c2.212-6.195,4.428-12.393,6.642-18.595C1212.671,930.995,1213.894,927.532,1213.935,923.942z"/>
	</g>
	<path fill="#97A8B2" d="M1188.349,1656.813c-0.445-0.012-0.902-0.021-1.319,0.09c-0.563,0.147-0.962,0.49-1.317,0.828
		c-1.618,1.562-2.786,3.338-3.426,5.203c-0.598,1.745-0.762,3.611-2.07,5.149c-1.453,1.713-4.09,2.751-6.68,3.601
		c-6.694,2.2-13.891,3.676-21.244,4.357c-1.631,0.153-3.307,0.274-4.785,0.771c-4.179,1.405-5.229,5.134-5.775,8.344
		c-0.16,0.93-0.193,2.065,0.933,2.591c0.608,0.279,1.385,0.29,2.114,0.29c21.021-0.042,30.002-0.059,51.026-0.095
		c5.134-0.012,10.427-0.176,15.392-1.048c0.671-0.115,1.363-0.265,1.863-0.598c0.547-0.359,0.774-0.894,0.971-1.4
		c2.775-7.255,3.111-15.11,2.479-22.588c-0.195-2.326-0.597-4.239-4.288-4.759c-5.253-0.739,0.513-0.169-4.843-0.295
		C1201.037,1657.107,1194.692,1656.96,1188.349,1656.813z"/>
	<g>
		<g>
			<g>
				<g>
					<path fill="#C7B299" d="M1041.962,1155.25c-2.186,4.388-4.639,8.645-7.354,12.726c-0.379,0.571-0.814,1.175-1.474,1.36
						c-0.682,0.189-1.393-0.133-2.03-0.451c-7.262-3.59-14.523-7.185-21.789-10.772c1.695-17.158,0.777-37.932,5.697-54.252
						c0.701-2.321,36.5,3.934,38.879,10.426c2.355,6.438-4.281,22.078-6.506,28.255
						C1045.824,1146.876,1044.017,1151.121,1041.962,1155.25z"/>
				</g>
			</g>
			<path fill="#534741" d="M1012.563,1105.709c1.027,0.233,2.088,0.27,3.135,0.359c2.236,0.19,4.438,0.641,6.625,1.138
				c10.764,2.452,21.232,6.067,31.551,10.003c0.68,0.259,1.388,0.523,2.107,0.423c1.121-0.153,1.957-1.189,2.238-2.284
				c0.283-1.095,0.125-2.252-0.033-3.373c-0.032-0.223-0.069-0.455-0.209-0.63c-0.129-0.163-0.332-0.253-0.526-0.332
				c-0.519-0.222-1.042-0.429-1.57-0.625c-2.421-0.914-4.917-1.623-7.407-2.321c-10.75-3.008-21.562-5.777-32.427-8.315
				c-0.561-0.132-1.2-0.248-1.676,0.075c-0.853,0.58-1.264,2.087-1.536,3.032C1012.61,1103.643,1011.389,1105.439,1012.563,1105.709
				z"/>
		</g>
		<polygon fill="#5B8C87" points="1012.062,1136.375 1044.238,1150.349 1050.763,1133.377 1012.062,1117.653 		"/>
	</g>
	<g>
		<path fill="#333333" d="M1132.872,943.6c-0.186-0.691-0.991-1.369-1.787-1.284c-8.021,0.809-15.928,2.648-23.712,4.609
			c-2.681,0.677-1.536,4.644,1.146,3.944c7.008-1.829,14.104-3.167,21.172-4.705c0.938,3.643,1.681,7.302,2.108,11.05
			c0.19,1.654,0.28,3.326,0.304,4.991c0.045,2.987-4.443,3.252-6.395,3.623c-2.379,0.449-4.779,0.587-7.193,0.691
			c-3.556,0.164-3.749-1.448-5.1-3.765c-2.041-3.505-3.639-7.233-5.034-11.008c-0.438-1.186-2.363-0.714-2.001,0.522
			c1.589,5.409,3.607,10.908,6.633,15.768c2.184,3.51,10.301,1.379,13.603,0.909c3.663-0.523,8.393-1.337,8.868-5.567
			C1136.208,956.934,1134.53,949.822,1132.872,943.6z"/>
		<path fill="#333333" d="M1152.091,936.541c-6.878,2.596-13.566,6.593-20.145,9.924c-1.248,0.634-0.375,2.702,0.955,2.257
			c6.998-2.332,14.543-4.276,21.233-7.344C1156.854,940.131,1154.896,935.483,1152.091,936.541z"/>
	</g>
	<path fill="#EADDD0" d="M1211.994,1049.946c-2.709-10.349-14.002-32.059-25.912-16.465c-3.644,4.769-4.489,11.045-5.213,17.004
		c-5.812,47.886-11.621,95.771-17.433,143.657c-3.028,24.954-6.336,50.745-19.282,72.284c-2.072,3.447-4.41,6.832-5.431,10.725
		c-1.021,3.891-0.422,8.517,2.64,11.124c-4.229,5.303-0.745,16.681,6.998,16.072c1.637-0.127,3.172-0.861,4.522-1.798
		c7.715-5.347,5.819-15.301,7.598-23.526c2.433-11.247,5.9-22.238,9.343-33.204c13.255-42.188,29.87-83.347,38.733-126.464
		C1213.269,1096.451,1217.914,1072.563,1211.994,1049.946z"/>
	<path fill="#999999" d="M1181.887,1024.107c-2.974,0.688-6.077,1.438-8.366,3.457c-2.963,2.605-3.944,6.746-4.748,10.61
		c-9.015,43.339-15.883,87.128-20.562,131.149c14.92,3.769,29.84,7.539,44.761,11.308c18.973-41.191,27.454-87.164,24.428-132.411
		c-0.543-8.067-1.892-16.981-8.158-22.089C1201.88,1020.142,1191.132,1021.966,1181.887,1024.107z"/>
</g>
<g>
	<path fill="#6B4C5B" d="M3250.008,1131.533c-7.107-35.317-4.985-71.734-4.471-107.76c0.142-9.745,0.009-20.071-5.11-28.366
		c-1.322-2.144-3.16-4.221-5.631-4.704c-1.697-0.33-3.439,0.143-5.123,0.525c-22.452,5.083-45.529-5.998-68.518-4.771
		c-3.05,0.164-6.209,0.588-8.773,2.248c-1.778,1.157-3.148,2.832-4.438,4.519c-12.646,16.541-20.188,36.38-26.355,56.27
		c-11.271,36.383-18.479,73.882-25.665,111.289l-3.701,6.86c17.725-6.386,37.204-4.54,55.976-2.884
		c28.005,2.47,56.072,4.32,84.163,5.547c2.348,0.105,4.722,0.201,7.01-0.313c7.248-1.618,11.952-9.061,12.961-16.422
		C3253.335,1146.218,3251.469,1138.813,3250.008,1131.533z"/>
	<path fill="#EDD5BE" d="M3175.963,1030.96c5.103,2.815,10.12,4.815,13.885,5.293c4.4,0.563,8.74-1.153,12.849-2.837
		c8.443-3.462,17.414-7.346,22.371-15.008c2.901-4.483,4.11-9.823,5.173-15.06c2.669-13.178,4.705-26.482,6.09-39.858
		c0.708-6.868,1.176-14.164-1.955-20.317c-5.277-10.361-18.319-13.503-29.774-15.504c-11.314-1.978-23.326-3.875-34.004,0.371
		c-11.182,4.446-9.645,13.009-11.623,23.278c-2.477,12.831-4.563,25.721-6.096,38.697c-0.875,7.369-1.521,15.167,1.57,21.909
		C3157.317,1018.177,3166.776,1025.889,3175.963,1030.96z"/>
	<path fill="#2C2C2B" d="M3255.113,1477.408c-2.351-52.146,2.584-105.33,2.155-157.797c1.549-18.186-0.961-36.709-7.334-53.81
		c-0.393-1.063-0.82-2.146-1.609-2.961c-2.441-2.521-6.619-1.178-9.865,0.162c-31.083,12.853-67.802,9.827-96.146-8.326
		c-5.598,8.561-7.203,19.051-8.588,29.195c-2.23,16.393-4.677,32.75-5.276,49.218c0,0.029-0.007,0.057-0.011,0.089h0.004
		c-0.129,3.537-0.192,7.077-0.129,10.621c0.394,20.521,4.341,40.745,7.425,60.976c2.014,13.193,3.782,26.482,3.955,39.849
		c0.137,10.943-1.396,20.946,1.047,31.655c6.008,26.38,6.022,55.122,8.563,82.077c2.722,28.861,3.174,27.931,5.4,56.841
		c0.084,1.15,0.17,2.304,0.261,3.452c1.451,0.393,23.614,5.507,23.614-0.251c1.78-56.105,5.79-82.415,7.564-138.525
		c0.754-23.61-0.949-103.38,5.016-125.876c2.46,0.248,4.92,0.495,7.375,0.741c13.518,74.252,27.292,174.509,40.807,248.764
		c1.188,6.537,2.637,13.589,6.935,17.8c4.295,4.21,12.316,3.031,13.583-3.482C3255.89,1561.089,3257.669,1534.172,3255.113,1477.408
		z"/>
	<g>
		<path fill="#FFFFFF" d="M3194.615,1091.979c-0.093,0.021-0.187,0.049-0.277,0.059
			C3194.425,1092.037,3194.522,1091.994,3194.615,1091.979z"/>
		<path fill="#FFFFFF" d="M3195.188,1091.785c-0.051,0.022-0.094,0.053-0.146,0.072
			C3195.09,1091.838,3195.139,1091.813,3195.188,1091.785z"/>
		<path fill="#34455F" d="M3194.943,1091.91c0.034-0.016,0.063-0.034,0.101-0.053c-0.147,0.069-0.285,0.094-0.429,0.121
			C3194.726,1091.951,3194.835,1091.951,3194.943,1091.91z"/>
	</g>
	<path fill="#6B4C5B" d="M3188.383,967.769c3.4,0.173,6.972,0.319,10.039-1.159c3.069-1.476,5.37-5.147,4.125-8.317
		c-2.641,4.301,3.168,8.754,7.908,10.496c6.195,2.28,12.385,4.557,18.581,6.834c14.239,69.158,5.523,140.729-3.236,210.796
		c10.538,0.325,21.083,0.652,31.627,0.98c1.01,0.027,2.106,0.027,2.894-0.6c0.898-0.729,1.057-2.013,1.146-3.165
		c5.093-66.394,1.923-133.169-3.884-199.506c-0.65-7.433-1.352-14.93-3.602-22.044c-2.479-7.805-6.752-14.902-11.157-21.799
		c-4.8-7.506-9.933-15.015-16.959-20.486c-11.99-9.331-28.314-11.619-43.336-9.328c-8.206,1.251-16.388,3.849-23.011,8.862
		c-8.974,6.798-14.266,17.343-18.295,27.854c-5.904,15.41-9.754,31.516-13.584,47.567c-13.774,57.769-27.555,115.537-41.33,173.306
		c8.785,3.019,17.642,5.819,26.562,8.413c2.726,0.794,6.048,1.438,8.094-0.534c1.375-1.332,1.65-3.396,1.852-5.3
		c5.167-49.313,13.638-98.283,25.323-146.466c3.396-13.997,7.084-28.036,12.884-41.26
		C3168.093,966.813,3171.392,966.898,3188.383,967.769z"/>
	<path fill="#3D352F" d="M3171.813,1615.783c1.138-0.072,2.352-0.176,3.342,0.386c1.12,0.632,1.646,1.949,1.964,3.191
		c1.971,7.723-1.028,15.726-1.879,23.652c-0.51,4.715-0.252,9.506-0.971,14.197c-1.605-0.161-3.206-0.313-4.815-0.465
		c0.354-2.79,0.372-5.619,0.067-8.414c-0.097-0.889-0.244-1.813-0.759-2.549c-0.508-0.734-1.498-1.22-2.324-0.878
		c-0.733,0.297-1.114,1.096-1.398,1.839c-0.672,1.73-1.199,3.521-1.591,5.343c-0.21,1.003-0.405,2.069-1.081,2.85
		c-1.064,1.219-2.906,1.285-4.523,1.258c-5.933-0.092-11.867-0.182-17.795-0.278c-2.535-0.036-5.414-0.235-7.013-2.207
		c-1.952-2.396-0.782-6.166,1.449-8.311c2.229-2.147,5.24-3.241,7.856-4.897c2.854-1.808,5.263-4.312,6.951-7.23
		c2.901-5.023,2.979-12.553,6.799-16.912c1.599-1.813,3.388-1.483,5.591-1.146
		C3165.06,1615.734,3168.407,1616.006,3171.813,1615.783z"/>
	<path fill="#3D352F" d="M3253.881,1610.92c0.533-0.029,1.115-0.023,1.542,0.29c0.296,0.218,0.479,0.552,0.639,0.875
		c2.159,4.388,2.084,9.488,2.963,14.293c1.242,6.777,4.423,13.015,7.011,19.405c0.745,1.854,1.46,3.788,1.409,5.785
		c-0.097,3.9-3.209,7.261-6.858,8.66c-3.647,1.393-7.714,1.16-11.562,0.475c-0.795-0.143-1.6-0.305-2.316-0.666
		c-0.743-0.366-1.366-0.932-1.928-1.537c-4.695-5.081-4.948-12.699-5.21-19.611c-0.148-3.968-0.386-7.937-0.713-11.896
		c-0.276-3.354-1.511-7.569-0.915-10.892c0.5-2.794,2.599-2.975,5.035-3.322C3246.621,1612.266,3250.19,1611.12,3253.881,1610.92z"
		/>
	<g>
		<path fill="#696D79" d="M3382.567,918.144c2.332-0.966,3.889-3.176,5.14-5.365c2.67-4.689,4.566-9.954,4.502-15.351
			c-0.225-18.57-25.713-20.987-39.58-25.531c-5.617-1.842-12.903-3.174-16.505,1.518c-2.873,3.741-4.348,4.837-4.915,9.956
			c-0.809,7.292-1.611,14.584-2.423,21.875c-0.127,1.176-0.218,2.494,0.529,3.413c0.553,0.672,1.434,0.963,2.266,1.214
			c14.354,4.328,29.271,6.438,44.121,8.529C3378.001,918.724,3380.428,919.033,3382.567,918.144z"/>
		<path fill="#EDD5BE" d="M3390.694,894.717c-1.303-4.02-2.727-8.143-5.627-11.354c-4.219-4.659-10.825-6.645-17.077-8.411
			c-1.342-0.381-3.236-0.525-3.716,0.702c-0.368,0.932,0.456,1.864,1.154,2.614c3.227,3.476,4.931,7.986,5.845,12.513
			c0.914,4.522,1.104,9.146,1.722,13.715c0.328,2.459,1.076,4.218,2.359,5.375c-13.709,19.952-23.652,43.128-37.886,62.789
			c-24.227,33.456-59.23,54.373-91.768,77.31c-6.296,4.435-13.257,10.282-13.707,18.356c-0.229,4.129,1.37,7.963,3.045,11.531
			c4.319,9.188,11.239,18.945,20.792,17.908c6.434-0.697,11.748-6.175,16.482-11.328c16.286-17.739,32.421-35.313,51.4-55.988
			c9.068-9.878,18.182-19.809,25.822-31.06c9.888-14.562,17.097-31.014,24.235-47.335c5.083-11.614,10.163-23.23,15.246-34.848
			c1.107-2.536,2.175-5.184,2.751-7.877c0.189-0.214,0.399-0.402,0.553-0.658C3394.938,904.448,3392.031,898.842,3390.694,894.717z"
			/>
		<g>
			<path fill="#666666" d="M3316.384,867.852c-3.83,2.179-7.632,4.488-11.768,6.045c-1.911,0.719-3.158-2.114-1.26-2.927
				c4.058-1.732,8.222-3.127,12.175-5.098C3316.793,865.244,3317.563,867.18,3316.384,867.852z"/>
			<path fill="#666666" d="M3315.086,860.918c-3.422-1.26-6.486-3.005-9.137-5.526c-1.48-1.41,0.3-4.011,1.937-2.626
				c2.631,2.218,5.387,4.297,8.375,6.015C3317.498,859.491,3316.346,861.382,3315.086,860.918z"/>
			<path fill="#666666" d="M3320.558,855.699c-3.287-3.39-5.839-7.881-8.257-11.917c-1.041-1.731,1.323-3.751,2.541-1.995
				c2.74,3.954,5.882,8.264,7.646,12.764C3322.979,855.806,3321.429,856.598,3320.558,855.699z"/>
		</g>
	</g>
	<path fill="#EDD5BE" d="M3189.505,1057.208c-0.114-1.651-0.414-3.505-1.77-4.455c-1.105-0.77-2.574-0.692-3.908-0.505
		c-20.153,2.814-33.529,21.694-44.405,38.89c-14.094,22.282-28.226,44.616-39.67,68.369c-0.631,1.313-1.269,2.679-1.292,4.14
		c-0.034,1.876,0.945,3.599,1.896,5.217c7.558,12.842,15.111,25.684,22.662,38.525c1.646,2.798,3.351,5.838,3.056,9.067
		c-0.656,7.151-10.6,13.585-6.353,19.38c2.323,3.159,7.58,2.521,10.354-0.258c2.778-2.768,3.72-6.832,4.544-10.667
		c1.922-8.937,3.84-17.871,5.763-26.812c0.476-2.224,0.955-4.545,0.409-6.752c-0.602-2.407-2.342-4.351-4.021-6.186
		c-5.195-5.676-10.392-11.354-15.588-17.025c13.928-17.485,31.019-32.254,44.965-49.727
		C3180.093,1100.938,3191.06,1079.51,3189.505,1057.208z"/>
	<path fill="#56D2EF" d="M3283.676,1304.357c-14.313-25.564-21.639-55.477-17.895-84.533c4.315-33.486,9.174-60.654,0.795-94.047
		c-1.828-7.285-4.644-14.271-7.451-21.236c-6.182-15.33-12.36-30.661-18.542-45.988c-1.417-3.516-2.89-7.115-5.438-9.923
		c-8.461-9.323-32.283,3.439-45.052,0.043c-5.317-1.414-6.637-3.436-9.924,1.074c-2.779,3.81-4.106,10.253-5.802,14.669
		c-7.616,19.851-14.26,40.363-15.86,61.689c-0.807,10.676-0.363,21.609-3.509,31.852c-2.569,8.372-7.403,15.834-11.312,23.676
		c-14.259,28.625-15.948,61.816-26.525,91.992c-1.718,4.914-3.691,9.82-4.22,14.996c-0.526,5.182,0.614,10.82,4.334,14.465
		c2.646,2.588,6.263,3.889,9.754,5.115c5.121,1.804,10.248,3.606,15.373,5.41c7.109,2.503,14.252,5.011,21.653,6.441
		c9.038,1.741,18.296,1.848,27.498,1.95c16.962,0.182,33.925,0.372,50.888,0.553c9.654,0.109,19.327,0.215,28.955-0.553
		c6.465-0.514,14.563-3.054,15.022-9.525C3286.627,1309.587,3285.096,1306.888,3283.676,1304.357z"/>
</g>
</svg>
