<?xml version="1.0" encoding="utf-8"?>
<!-- Generator: Adobe Illustrator 16.0.0, SVG Export Plug-In . SVG Version: 6.00 Build 0)  -->
<!DOCTYPE svg PUBLIC "-//W3C//DTD SVG 1.1//EN" "http://www.w3.org/Graphics/SVG/1.1/DTD/svg11.dtd">
<svg version="1.1" id="Layer_1" xmlns="http://www.w3.org/2000/svg" xmlns:xlink="http://www.w3.org/1999/xlink" x="0px" y="0px"
	 width="3800px" height="2000px" viewBox="0 0 3800 2000" enable-background="new 0 0 3800 2000" xml:space="preserve">
<rect fill="#FFFFFF" width="3800" height="2000"/>
<path id="Cloud" fill="#EBF2F9" d="M2818.978,732.479c-97.438-83.114-214.905-584.357-617.309-323.296
	c-207.902,134.88-558.473-115.792-848.643-29.21c-266.484,79.516-292.172,341.492-266.388,426.858
	c52.084,172.438-110,198.098-260.358,272.187c-235.854,116.216-62.42,524.64,160.394,526.592s1572.662-3.89,1572.662-3.89
	s323.685,0.817,458.287-177.829C3162.473,1231.645,3070.653,947.161,2818.978,732.479z"/>
<g>
	<path fill="#666666" d="M810.161,1356.441c15.369,75.646,59.159,143.218,74.454,218.884c0.996,4.935,1.928,10.036,4.703,14.238
		c2.772,4.199,7.952,7.271,12.809,5.942c8.749-2.391,8.706-14.609,7.499-23.6c-3.618-26.84-0.487-54.073,2.645-80.974
		c4.882-41.935,9.764-83.863,14.648-125.792c3.644-3.781,10.283-2.921,14.276,0.485c3.998,3.405,5.949,8.587,7.538,13.589
		c7.092,22.326,10.09,45.711,13.058,68.947c5.935,46.486,11.879,93.091,12.605,139.947c4.25,0.279,8.501,0.552,12.751,0.825
		c17.37-46.411,30.447-94.309,42.792-142.309c6.253-24.292,12.327-48.676,16.238-73.454c5.144-32.581,6.509-65.625,7.61-98.59
		c0.223-6.654,0.293-13.831-3.502-19.304c-3.398-4.906-9.225-7.443-14.798-9.577c-48.087-18.444-99.799-25.319-151.148-29.309
		c-14.417-1.122-29.024-2.016-43.255,0.561c-11.237,2.036-23.469,6.469-31.865,14.519c-9.521,9.13-6.422,23.605-6.458,36.169
		C802.675,1297.365,804.231,1327.243,810.161,1356.441z"/>
	<path fill="#98B99D" d="M779.758,1188.568c-4.755,14.407-8.488,31.424,0.31,43.789c4.137,5.811,10.49,9.621,16.86,12.841
		c35.938,18.153,77.076,22.342,117.146,26.234c36.096,3.508,72.359,7.02,108.574,5.083c17.248-0.918,35.434-3.48,48.912-14.28
		c12.821-10.27,19.452-26.723,21.258-43.052c1.804-16.326-0.684-32.792-3.164-49.031c-2.722-17.808-5.451-35.666-10.144-53.062
		c-8.161-30.245-22.265-58.869-41.276-83.769c-14.342-18.783-31.858-35.724-53.254-45.774c-20.285-9.531-51.015-13.923-72.121-3.675
		c-21.074,10.229-40.417,39.626-54.522,57.747C824.047,1085.657,797.259,1135.561,779.758,1188.568z"/>
	<path fill="#F2D6C9" d="M887.895,1151.09c2.966,0.273,5.978,0.547,8.914,0.024c2.441-0.43,4.783-1.409,6.802-2.845
		c3.169-2.26,5.568-5.817,5.731-9.704c0.162-3.888-2.284-7.931-6.03-8.977c-1.715-0.479-3.542-0.331-5.295-0.024
		c-7.893,1.378-15.09,5.895-23.081,6.443c-2.927,0.204-6.23-0.004-8.349,2.022c-1.178,1.126-1.734,2.759-2.029,4.361
		c-0.326,1.743-0.368,3.643,0.499,5.196c1.657,2.976,6.474,1.997,9.327,2.26C878.889,1150.263,883.393,1150.676,887.895,1151.09z"/>
	<path fill="#F2D6C9" d="M980.582,935.188c-0.185,3.836-0.405,7.692-1.536,11.437c-2.678,8.867-10.718,16.817-21.62,21.094
		c-10.897,4.275-24.485,4.729-35.763,1.028c-11.131-3.648-19.372-10.843-25.909-18.41c-13.68-15.816-21.656-34.647-19.737-53.345
		c0.285-2.775,0.869-5.696,3.227-7.879c3.391-3.138,9.364-3.856,14.771-4.346c17.732-1.617,66.991-12.8,81.606-4.241
		C990.072,888.993,981.326,923.357,980.582,935.188z"/>
	<path fill="#D1B380" d="M837.087,881.482c2.595,11.034,16.616,19.365,31.62,21.26c15.009,1.901,30.501-1.697,43.542-7.479
		c13.958-6.189,27.004-15.181,43.291-15.708c2.986-0.095,6.087,0.133,8.715,1.184c2.911,1.162,4.949,3.219,6.643,5.315
		c9.292,11.502,10.662,25.425,11.8,38.776c4.97-11.578,8.896-23.397,11.732-35.355c3.103-13.063,3.971-28.365-9.018-37.561
		c-9.881-7.001-25.039-8.186-38.659-6.956c-19.197,1.739-37.675,7.591-52.583,16.649c-5.926,3.602-11.318,7.705-17.726,10.83
		c-6.402,3.122-14.185,5.235-21.745,4.219c-8.374-1.126-9.961-6.23-15.815-9.147C836.433,871.634,836.043,877.047,837.087,881.482z"
		/>
	<path fill="#A8C1AB" d="M835.409,1013.063c-13.22,9.954-23.984,22.762-34.272,35.725c-9.524,12.007-18.914,24.56-23.592,39.148
		c-4.678,14.593-3.905,31.774,5.621,43.774c9.611,12.121,25.772,16.627,40.957,19.563c6.058,1.174,12.214,2.206,18.371,1.818
		c6.863-0.429,17.814,0.884,24.338-1.278c3.493-1.163,3.507-4.537,6.149-7.102c2.643-2.561,3.259-8.216,1.347-11.364
		c-11.09-0.733-22.157-1.883-33.159-3.457c-9.143-1.304-19.05-3.345-24.958-10.441c-6.371-7.657-5.954-19.354-1.216-28.111
		s13.009-15.045,21.561-20.149c8.552-5.093,17.681-9.318,25.59-15.372c13.528-10.36,70.462-51.496,54.257-68.858
		C903.64,973.281,846.552,1004.669,835.409,1013.063z"/>
	<path fill="#A8C1AB" d="M1010.265,1068.921c-5.294-9.739-13.171-17.783-19.788-26.683c-6.616-8.9-12.169-19.386-11.588-30.458
		c0.582-11.079,9.276-22.267,20.365-22.198c4.574,0.031,8.935,1.881,13.026,3.927c13.336,6.671,25.417,15.843,35.431,26.891
		c3.896,4.299,7.511,8.929,9.994,14.175c3.657,7.717,4.693,16.375,5.598,24.865c1.587,14.916,2.888,30.153-0.366,44.805
		c-4.637,20.896-19.633,39.645-39.431,48.023c-4.256,1.799-10.716,4.892-14.762,2.618c-4.322-2.43-5.084-8.082-4.189-12.284
		c2.468-11.64,10.405-21.312,12.192-33.672C1018.717,1095.319,1016.876,1081.084,1010.265,1068.921z"/>
	<g>
		<path fill="#FFFFFF" d="M993.336,1178c1.336,1.191,2.749,2.4,4.47,2.887c2.375,0.672,4.886-0.138,7.216-0.936
			c1.55-0.525,3.098-1.057,4.645-1.586c0.601-0.208,1.248-0.446,1.597-0.977c0.358-0.55,0.305-1.26,0.237-1.91
			c-1.502-14.516-4.271-28.895-8.258-42.93c-6.369,2.941-12.739,5.885-19.107,8.827c-3.426,1.588-15.022,4.751-15.261,8.933
			c-0.244,4.212,7.989,11.125,10.626,14.014C983.872,1169.112,988.491,1173.686,993.336,1178z"/>
		<path fill="#333333" d="M996.325,1129.851c1.9-0.789,3.916-1.592,5.953-1.314c2.039,0.286,4.022,2.083,3.714,4.114
			c-0.217,1.455-7.818,4.906-9.204,5.712c-3.33,1.929-6.719,3.758-10.162,5.487c-3.441,1.726-6.938,3.341-10.481,4.846
			c-1.97,0.84-6.193,3.492-8.472,2.7c-8.445-2.93,6.249-10.973,8.805-12.407C982.841,1135.426,989.596,1132.631,996.325,1129.851z"
			/>
	</g>
	<path fill="#F2D6C9" d="M987.198,1150.742c-0.844,0.597-1.693,1.207-2.34,2.016c-1.599,1.997-1.673,4.775-1.675,7.333
		c-0.002,4.089,0.404,8.929,3.93,10.992c1.603,0.935,3.532,1.062,5.385,1.168c1.933,0.104,3.864,0.213,5.796,0.324
		c2.075,0.111,4.314,0.188,6.052-0.955c1.781-1.173,2.589-3.331,3.29-5.347c1.713-4.933,3.43-9.864,5.145-14.795
		c0.287-0.84,0.576-1.781,0.199-2.584c-0.236-0.494-0.686-0.841-1.12-1.177c-4.109-3.139-6.059-4.761-11.311-3.593
		C996.224,1145.076,990.381,1147.563,987.198,1150.742z"/>
	<path d="M1025.963,1592.342c-2.608-2.34-6.375-2.718-9.867-2.981c-5.183-0.395-10.369-0.788-15.551-1.181
		c-2.223-0.17-4.567-0.381-6.38-1.68c-0.732-0.525-1.288-1.202-1.773-1.939c-1.622,0.016-3.26-0.071-4.851-0.101
		c-5.983-0.127-11.961,2.093-17.748,3.88c1.191,5.074,2.386,10.142,3.579,15.212c0.237,1.011,0.52,2.092,1.319,2.749
		c0.807,0.672,1.945,0.727,2.997,0.758c17.27,0.42,34.565-0.192,51.764-1.842C1029.543,1600.624,1029.384,1595.41,1025.963,1592.342
		z"/>
	<path d="M906.912,1587.769c0.298,6.848,0.519,14.056-2.653,20.129c-2.244,4.286-5.969,7.577-9.609,10.761
		c-1.91,1.672-3.82,3.341-5.731,5.012c-0.528,0.461-1.079,0.937-1.743,1.163c-0.719,0.248-1.501,0.182-2.259,0.143
		c-3.272-0.178-6.559,0.172-9.824-0.098c-3.267-0.268-6.639-1.248-8.904-3.613c-2.266-2.37-3.015-6.372-1.004-8.959
		c1.305-1.679,3.421-2.457,5.354-3.346c5.653-2.604,10.54-6.845,13.91-12.081c2.113-3.282,4.023-6.791,7.863-8.146
		C893.596,1588.284,906.866,1586.764,906.912,1587.769z"/>
</g>
<g>
	<path fill="#97A8B2" d="M503.116,1220.518c0,0-2.357-37.522,65.603-34.837c1.31,0.05,2.595,0.098,3.869,0.141
		c0.467,0.257,0.925,0.518,1.393,0.773c0.968,2.515,1.786,5.062,2.479,7.622c0.193,0.722,0.383,1.826,0.531,2.84
		c0.472,4.065,0.336,2.271,0,0c-0.095-0.821-0.212-1.875-0.361-3.219c0.185,1.669,0.558,3.336,0.791,5.006
		c2.067,14.986,1.609,30.084,2.91,45.107c1.112,12.813,3.734,25.591,6.514,38.317c-2.633-0.123-5.686-0.09-7.386,0.526
		c-3.401,1.24-5.048,312.08,0.839,331.463l-27.052,0.276C553.248,1614.535,500.832,1295.287,503.116,1220.518z"/>
	<g>
		<path fill="#EADDD0" d="M577.336,1046.011c7.901-1.149,16.307,3.032,20.152,10.026c2.477,4.499,3.106,9.743,3.737,14.836
			c2.243,18.148,5.091,36.22,8.535,54.184c2.338,12.186,2.58,36.371,19.796,37.598c6.446,0.459,13.066-4.385,19.431-5.393
			c10.409-1.645,20.253-2.215,30.305-5.896c8.114-2.973,13.533-7.25,19.601-13.15c3.661-3.563,8.738-10.615,13.621-11.938
			c3.506-0.955,7.941,3.092,5.721,5.959c4.353-2.615,10.555,1.574,10.758,6.648c0.384,9.726-18.79,15.229-25.569,19.449
			c-10.513,6.551-20.833,13.507-32.254,18.417c-17.972,7.72-37.422,12.033-56.988,12.41c-3.445,0.063-7.092-0.04-10.028-1.844
			c-6.297-3.868-9.697-12.917-14.458-18.45c-4.433-5.146-6.772-8.595-8.807-15.334c-5.565-18.46-10.424-37.461-14.065-56.403
			C563.426,1081.1,551.601,1049.756,577.336,1046.011z"/>
		<path fill="#97A8B2" d="M656.591,1332.112c-0.454,11.988-1.239,23.968-2.029,35.94c-1.177,17.912-2.353,35.826-3.531,53.733
			c-0.377,5.732-0.89,11.837-4.406,16.374c-0.364,0.467-0.777,0.93-1.329,1.146c-1.86,0.708-3.336-1.648-3.961-3.544
			c-7.47-22.529-18.577-43.854-32.771-62.886c-3.623-4.851-7.569-9.674-12.819-12.697c-3.947-2.274-8.431-3.415-12.85-4.527
			c-8.848-2.232-17.696-4.463-26.546-6.691c-5.187-1.308-10.575-2.716-14.65-6.183c-3.214-2.73-5.319-6.504-7.362-10.194
			c-10.332-18.686-20.769-37.634-26.034-58.326c-3.838-15.094-4.828-30.783-4.575-46.36c0.023-1.551,0.067-3.134,0.624-4.582
			c0.769-1.988,2.432-3.503,4.207-4.685c6.669-4.424,15.094-4.959,23.087-5.319c30.344-1.347,61.302-1.983,91.044,5.139
			c9.156,2.189,24.736,4.4,29.161,14.115c5.438,11.926,3.774,30.391,4.408,43.27
			C657.189,1294.578,657.298,1313.362,656.591,1332.112z"/>
		<g>
			<path fill="#97A8B2" d="M594.626,1311.33c16.976-2.279,33.953-4.559,50.925-6.837c0.841-2.146-3.376,0.09-3.092,2.332
				c8.883,70.94,5.479,142.934-1.612,214.3c-3.055,30.758-3.285,61.619-0.063,92.259c-6.983,0.752-19.019,1.854-26.004,2.608
				c-12.86-95.541-20.675-191.431-33.537-286.973c-0.649-4.829-1.045-10.414,2.673-13.938
				C586.639,1312.5,590.785,1311.847,594.626,1311.33z"/>
		</g>
		<path fill="#EADDD0" d="M616.663,998.398c-10.124-0.369-20.493-7.194-31.417-9.444c2.856-8.844-0.58-18.325-1.487-27.577
			c-1.229-12.51,2.234-24.966,5.894-36.999c2.948-9.695,6.243-19.695,13.194-27.072c1.382-1.467,2.977-2.859,4.929-3.361
			c1.669-0.433,3.431-0.172,5.134,0.09c11.983,1.841,45.244,3.223,48.4,16.662c4.331,18.441-8.351,42.879-15.442,59.16
			c-3.345,7.673-6.813,15.535-12.702,21.486C627.708,996.859,622.224,998.6,616.663,998.398z"/>
		<path fill="#6087A2" d="M500.552,1261.916l-0.199-0.188c-0.125-0.136-0.243-0.263-0.352-0.382
			c-0.266-0.395-0.546-0.777-0.807-1.178c-3.578-5.442-6.659-11.187-9.778-16.905c-5.906-66.26,1.624-133.123,22.382-198.188
			c6.524-20.468,12.97-42.956,37.371-56.996c1.25-0.718,2.582-1.428,4.159-1.675c2.041-0.32,4.132,0.188,6.089,0.689
			c13.178,3.376,26.355,6.752,39.536,10.133c2.624,0.671,5.261,1.347,7.928,1.954c2.791,0.635,5.61,1.196,8.483,1.6
			c4.873,0.679,24.175,5.285,24.835,9.916c1.684,11.836,3.214,23.68,4.575,35.542c3.361,29.311,5.896,58.566,5.794,87.981
			c-0.102,29.299,2.614,58.571,7.409,87.646c0.373,2.266,2.116,14.05,4.213,26.164c-0.108,0.214-0.211,0.425-0.324,0.638
			c-1.697,3.199-3.529,6.328-5.528,9.346c-0.18,0.275-0.543,0.782-0.917,1.299c-0.188,0.226-0.354,0.428-0.468,0.558
			c-2.272,2.612-4.752,5.071-7.342,7.372c-0.202,0.174-0.563,0.511-0.955,0.872c3.567-3.366-0.214,0.041-1.284,0.76
			c-2.699,1.813-5.502,3.468-8.387,4.97c-0.728,0.378-3.64,1.609-3.921,1.786c-0.3,0.114-0.611,0.207-0.914,0.319
			c-41.341-1.731-82.555-4.64-123.486-8.749C506.059,1265.361,503.299,1263.313,500.552,1261.916z"/>
		<path fill="#97A8B2" d="M638.932,1610.728c0.415-0.01,0.842-0.014,1.226,0.085c0.525,0.136,0.901,0.461,1.229,0.776
			c1.502,1.448,2.594,3.102,3.189,4.844c0.557,1.617,0.709,3.355,1.923,4.789c1.354,1.595,3.811,2.559,6.22,3.353
			c6.231,2.047,12.927,3.422,19.774,4.055c1.518,0.141,3.078,0.254,4.453,0.717c3.891,1.309,4.867,4.779,5.376,7.766
			c0.148,0.867,0.177,1.924-0.871,2.413c-0.563,0.26-1.288,0.271-1.964,0.271c-19.571-0.04-27.928-0.055-47.495-0.089
			c-4.777-0.013-9.706-0.159-14.33-0.976c-0.624-0.107-1.27-0.247-1.732-0.552c-0.507-0.339-0.721-0.836-0.903-1.31
			c-2.581-6.752-2.896-14.058-2.311-21.022c0.182-2.165,0.559-3.946,3.996-4.429c4.887-0.69-0.481-0.158,4.503-0.276
			C627.12,1611.003,633.027,1610.865,638.932,1610.728z"/>
		<path fill="#333333" d="M554.297,929.207c-0.074-6.044,3.394-11.467,6.355-16.738c4.925-8.765,8.787-18.189,14.825-26.225
			c6.042-8.036,14.915-14.755,24.967-15.049c4.181-0.123,8.312,0.867,12.382,1.845c17.332,4.183,34.871,8.436,50.654,16.733
			c1.974,1.033,3.987,2.199,5.226,4.054c1.098,1.646,1.467,3.653,1.81,5.597c0.486,2.756,0.972,5.508,1.455,8.263
			c0.306,1.723,0.611,3.494,0.277,5.211c-1.017,5.247-7.241,7.593-12.576,7.903c-5.293,0.305-10.585-0.448-15.831-1.206
			c-5.023-0.719-16.914-4.892-21.028-0.33c-2.035,2.256-1.432,6.014-2.8,8.672c-1.679,3.272-4.842,5.266-6.942,8.189
			c-2.196,2.702-3.714,6.536-2.111,9.626c-2.965-1.751-6.614-2.297-9.957-1.491c-1.175,0.285-2.366,0.769-3.136,1.698
			c-1.483,1.791-0.839,4.651,0.779,6.324s3.928,2.446,6.142,3.162c-9.513,9.208-13.012,24.114-8.587,36.585
			c-7.304-0.733-13.376-5.833-18.42-11.162c-4.555-4.818-8.73-10.083-11.6-16.061c-1.328-2.777-2.367-5.682-3.403-8.58
			c-2.06-5.765-4.122-11.535-6.183-17.308C555.474,935.771,554.335,932.548,554.297,929.207z"/>
	</g>
	<path fill="#97A8B2" d="M578.112,1611.354c0.413-0.011,0.839-0.02,1.228,0.084c0.523,0.137,0.896,0.456,1.226,0.77
		c1.507,1.455,2.594,3.108,3.188,4.844c0.558,1.624,0.71,3.361,1.928,4.793c1.352,1.595,3.807,2.561,6.217,3.352
		c6.231,2.047,12.931,3.422,19.773,4.056c1.519,0.143,3.079,0.256,4.454,0.718c3.89,1.308,4.868,4.779,5.375,7.767
		c0.149,0.865,0.18,1.921-0.867,2.411c-0.566,0.26-1.289,0.27-1.969,0.27c-19.565-0.038-27.926-0.054-47.494-0.087
		c-4.779-0.013-9.706-0.165-14.327-0.976c-0.624-0.108-1.269-0.247-1.734-0.558c-0.509-0.334-0.72-0.831-0.903-1.303
		c-2.582-6.753-2.895-14.064-2.307-21.025c0.182-2.164,0.556-3.944,3.991-4.429c4.89-0.688-0.478-0.157,4.508-0.274
		C566.302,1611.629,572.207,1611.492,578.112,1611.354z"/>
	<g>
		<g>
			<g>
				<g>
					<path fill="#C7B299" d="M714.367,1144.505c2.034,4.084,4.317,8.046,6.845,11.845c0.353,0.532,0.758,1.094,1.373,1.267
						c0.634,0.176,1.296-0.124,1.889-0.42c6.76-3.342,13.518-6.688,20.281-10.026c-1.577-15.971-0.723-35.307-5.303-50.497
						c-0.652-2.161-33.974,3.661-36.188,9.705c-2.192,5.991,3.984,20.55,6.057,26.299
						C710.772,1136.711,712.455,1140.662,714.367,1144.505z"/>
				</g>
			</g>
			<path fill="#534741" d="M741.731,1098.394c-0.955,0.217-1.943,0.25-2.918,0.334c-2.082,0.177-4.131,0.597-6.167,1.059
				c-10.019,2.282-19.763,5.647-29.366,9.311c-0.634,0.24-1.293,0.487-1.962,0.395c-1.044-0.144-1.822-1.106-2.083-2.127
				c-0.264-1.019-0.117-2.096,0.03-3.14c0.03-0.207,0.064-0.423,0.194-0.586c0.12-0.152,0.31-0.235,0.49-0.31
				c0.482-0.206,0.97-0.398,1.461-0.581c2.254-0.852,4.577-1.512,6.896-2.161c10.006-2.799,20.069-5.376,30.182-7.739
				c0.522-0.122,1.118-0.23,1.561,0.07c0.793,0.539,1.176,1.942,1.43,2.821C741.688,1096.47,742.824,1098.142,741.731,1098.394z"/>
		</g>
		<polygon fill="#5B8C87" points="742.198,1126.937 712.248,1139.942 706.176,1124.146 742.198,1109.511 		"/>
	</g>
	<g>
		<path fill="#333333" d="M629.749,947.503c0.173-0.643,0.923-1.274,1.664-1.194c7.466,0.753,14.825,2.464,22.07,4.29
			c2.495,0.63,1.43,4.323-1.066,3.671c-6.522-1.703-13.128-2.948-19.706-4.38c-0.874,3.391-1.565,6.797-1.963,10.286
			c-0.177,1.54-0.261,3.096-0.282,4.646c-0.042,2.78,4.135,3.026,5.952,3.372c2.214,0.418,4.448,0.546,6.695,0.643
			c3.31,0.152,3.489-1.347,4.746-3.504c1.9-3.263,3.388-6.733,4.686-10.246c0.409-1.104,2.2-0.665,1.862,0.485
			c-1.479,5.035-3.357,10.153-6.173,14.677c-2.032,3.267-9.588,1.283-12.662,0.846c-3.409-0.487-7.812-1.245-8.254-5.182
			C626.645,959.914,628.206,953.295,629.749,947.503z"/>
		<path fill="#333333" d="M611.86,940.934c6.402,2.415,12.628,6.136,18.751,9.236c1.161,0.59,0.349,2.515-0.89,2.101
			c-6.514-2.171-13.536-3.979-19.763-6.835C607.427,944.274,609.25,939.949,611.86,940.934z"/>
	</g>
	<path fill="#EADDD0" d="M556.104,1046.489c2.521-9.633,13.033-29.84,24.118-15.325c3.392,4.438,4.179,10.28,4.853,15.827
		c5.409,44.571,10.816,89.142,16.226,133.715c2.819,23.227,5.897,47.232,17.948,67.28c1.929,3.209,4.104,6.359,5.055,9.983
		c0.95,3.621,0.394,7.927-2.457,10.354c3.937,4.937,0.693,15.527-6.514,14.96c-1.523-0.118-2.953-0.802-4.208-1.674
		c-7.183-4.977-5.417-14.242-7.073-21.897c-2.264-10.468-5.491-20.698-8.696-30.906c-12.337-39.269-27.803-77.579-36.053-117.711
		C554.917,1089.776,550.593,1067.541,556.104,1046.489z"/>
	<path fill="#999999" d="M584.127,1022.439c2.768,0.64,5.657,1.337,7.787,3.218c2.758,2.424,3.67,6.278,4.42,9.875
		c8.39,40.339,14.783,81.097,19.139,122.072c-13.888,3.508-27.775,7.018-41.664,10.525c-17.659-38.34-25.554-81.132-22.736-123.247
		c0.505-7.509,1.761-15.806,7.593-20.56C565.518,1018.748,575.521,1020.445,584.127,1022.439z"/>
</g>
<g>
	<path fill="#6B4C5B" d="M3156.572,1122.43c-6.613-32.873-4.641-66.77-4.16-100.302c0.131-9.07,0.008-18.682-4.757-26.403
		c-1.231-1.996-2.941-3.93-5.241-4.379c-1.58-0.307-3.201,0.133-4.77,0.489c-20.897,4.731-42.377-5.582-63.775-4.44
		c-2.839,0.152-5.778,0.547-8.166,2.093c-1.655,1.077-2.93,2.635-4.131,4.206c-11.77,15.396-18.791,33.862-24.529,52.375
		c-10.492,33.865-17.201,68.769-23.89,103.587l-3.444,6.385c16.498-5.943,34.629-4.226,52.102-2.685
		c26.066,2.299,52.191,4.021,78.338,5.163c2.186,0.099,4.395,0.188,6.525-0.29c6.745-1.507,11.124-8.435,12.063-15.286
		C3159.67,1136.098,3157.934,1129.205,3156.572,1122.43z"/>
	<path fill="#EDD5BE" d="M3087.652,1028.817c4.75,2.621,9.42,4.482,12.924,4.927c4.097,0.524,8.137-1.073,11.961-2.641
		c7.858-3.223,16.208-6.837,20.823-13.97c2.699-4.173,3.825-9.144,4.815-14.018c2.482-12.266,4.378-24.649,5.667-37.099
		c0.659-6.393,1.095-13.184-1.819-18.911c-4.912-9.644-17.051-12.568-27.713-14.431c-10.532-1.842-21.713-3.607-31.65,0.345
		c-10.408,4.138-8.979,12.108-10.819,21.666c-2.306,11.943-4.247,23.942-5.673,36.02c-0.814,6.859-1.418,14.117,1.461,20.393
		C3070.299,1016.919,3079.103,1024.097,3087.652,1028.817z"/>
	<path fill="#2C2C2B" d="M3161.324,1444.367c-2.188-48.538,2.406-98.04,2.008-146.877c1.441-16.928-0.895-34.167-6.827-50.086
		c-0.366-0.989-0.765-1.996-1.498-2.756c-2.272-2.347-6.161-1.096-9.183,0.15c-28.932,11.964-63.109,9.147-89.491-7.749
		c-5.212,7.968-6.704,17.732-7.993,27.175c-2.076,15.258-4.354,30.482-4.911,45.811c0,0.027-0.007,0.054-0.011,0.083h0.004
		c-0.119,3.293-0.179,6.587-0.119,9.886c0.365,19.101,4.039,37.926,6.91,56.756c1.875,12.28,3.521,24.649,3.682,37.092
		c0.127,10.185-1.299,19.495,0.975,29.463c5.592,24.555,5.605,51.308,7.971,76.396c2.533,26.864,2.955,25.999,5.025,52.907
		c0.078,1.071,0.158,2.146,0.244,3.213c1.35,0.366,21.979,5.126,21.979-0.233c1.657-52.222,5.391-76.711,7.041-128.937
		c0.702-21.977-0.884-96.227,4.668-117.164c2.291,0.23,4.58,0.461,6.865,0.689c12.583,69.112,25.404,162.431,37.982,231.546
		c1.105,6.085,2.455,12.649,6.455,16.569c3.998,3.918,11.465,2.821,12.644-3.241
		C3162.048,1522.256,3163.704,1497.201,3161.324,1444.367z"/>
	<g>
		<path fill="#FFFFFF" d="M3105.014,1085.612c-0.086,0.021-0.174,0.046-0.258,0.056
			C3104.838,1085.667,3104.928,1085.627,3105.014,1085.612z"/>
		<path fill="#FFFFFF" d="M3105.548,1085.433c-0.048,0.021-0.088,0.05-0.136,0.067
			C3105.456,1085.482,3105.502,1085.458,3105.548,1085.433z"/>
		<path fill="#34455F" d="M3105.32,1085.549c0.031-0.015,0.057-0.031,0.094-0.049c-0.138,0.063-0.268,0.087-0.4,0.112
			C3105.117,1085.587,3105.219,1085.587,3105.32,1085.549z"/>
	</g>
	<path fill="#6B4C5B" d="M3099.213,970c3.166,0.162,6.489,0.297,9.344-1.078c2.857-1.375,4.999-4.792,3.84-7.742
		c-2.457,4.003,2.949,8.148,7.361,9.77c5.766,2.123,11.527,4.242,17.295,6.361c13.254,64.371,5.142,130.988-3.012,196.206
		c9.809,0.303,19.623,0.607,29.438,0.911c0.939,0.026,1.961,0.026,2.693-0.558c0.836-0.678,0.984-1.873,1.067-2.945
		c4.739-61.799,1.79-123.953-3.614-185.698c-0.606-6.918-1.26-13.897-3.354-20.519c-2.309-7.264-6.285-13.871-10.385-20.29
		c-4.469-6.986-9.246-13.977-15.785-19.068c-11.16-8.686-26.355-10.815-40.336-8.683c-7.639,1.165-15.255,3.583-21.42,8.249
		c-8.352,6.328-13.278,16.143-17.028,25.926c-5.495,14.344-9.079,29.335-12.644,44.275c-12.82,53.771-25.648,107.541-38.47,161.312
		c8.177,2.81,16.421,5.416,24.724,7.831c2.537,0.738,5.629,1.338,7.533-0.498c1.279-1.239,1.536-3.16,1.725-4.933
		c4.809-45.9,12.693-91.481,23.568-136.329c3.162-13.028,6.596-26.096,11.994-38.404C3080.328,969.109,3083.398,969.19,3099.213,970
		z"/>
	<path fill="#3D352F" d="M3083.79,1573.164c1.06-0.067,2.189-0.163,3.11,0.359c1.043,0.588,1.531,1.814,1.828,2.971
		c1.834,7.188-0.957,14.637-1.748,22.015c-0.475,4.388-0.234,8.848-0.904,13.214c-1.494-0.149-2.983-0.29-4.481-0.432
		c0.33-2.598,0.347-5.23,0.063-7.832c-0.09-0.827-0.228-1.687-0.706-2.372c-0.475-0.685-1.395-1.136-2.164-0.817
		c-0.682,0.276-1.036,1.02-1.302,1.712c-0.625,1.609-1.115,3.276-1.479,4.972c-0.196,0.934-0.378,1.928-1.007,2.654
		c-0.991,1.135-2.705,1.195-4.21,1.171c-5.522-0.086-11.045-0.171-16.563-0.26c-2.359-0.033-5.04-0.219-6.528-2.054
		c-1.816-2.23-0.728-5.74,1.35-7.735c2.074-1.999,4.878-3.018,7.313-4.559c2.656-1.683,4.898-4.014,6.469-6.729
		c2.701-4.676,2.774-11.686,6.33-15.742c1.487-1.688,3.152-1.38,5.204-1.066C3077.504,1573.119,3080.621,1573.371,3083.79,1573.164z
		"/>
	<path fill="#3D352F" d="M3160.178,1568.639c0.497-0.027,1.038-0.021,1.436,0.27c0.275,0.202,0.446,0.514,0.594,0.814
		c2.011,4.084,1.939,8.831,2.759,13.304c1.155,6.308,4.117,12.114,6.526,18.062c0.693,1.726,1.357,3.526,1.311,5.385
		c-0.09,3.63-2.986,6.759-6.383,8.062c-3.395,1.296-7.181,1.079-10.762,0.441c-0.741-0.133-1.49-0.284-2.156-0.62
		c-0.691-0.341-1.271-0.867-1.794-1.431c-4.37-4.729-4.605-11.82-4.849-18.254c-0.139-3.693-0.361-7.387-0.664-11.072
		c-0.258-3.122-1.406-7.046-0.852-10.138c0.465-2.601,2.418-2.77,4.686-3.093
		C3153.422,1569.891,3156.743,1568.824,3160.178,1568.639z"/>
	<g>
		<path fill="#696D79" d="M3279.958,923.809c2.171-0.898,3.62-2.956,4.784-4.992c2.484-4.365,4.249-9.266,4.19-14.29
			c-0.21-17.284-23.933-19.534-36.841-23.764c-5.229-1.714-12.011-2.954-15.363,1.414c-2.674,3.482-4.047,4.502-4.574,9.267
			c-0.754,6.788-1.5,13.575-2.255,20.361c-0.118,1.095-0.204,2.322,0.491,3.177c0.516,0.625,1.336,0.896,2.109,1.13
			c13.361,4.029,27.246,5.992,41.068,7.939C3275.707,924.349,3277.967,924.637,3279.958,923.809z"/>
		<path fill="#EDD5BE" d="M3287.522,902.003c-1.212-3.741-2.538-7.579-5.237-10.567c-3.928-4.337-10.076-6.186-15.895-7.829
			c-1.25-0.354-3.014-0.489-3.459,0.653c-0.343,0.868,0.424,1.735,1.074,2.433c3.004,3.236,4.589,7.434,5.439,11.647
			c0.852,4.208,1.027,8.512,1.603,12.766c0.306,2.288,1.003,3.925,2.196,5.002c-12.76,18.571-22.016,40.143-35.265,58.443
			c-22.55,31.141-55.13,50.61-85.417,71.959c-5.859,4.129-12.34,9.57-12.758,17.085c-0.213,3.844,1.275,7.412,2.835,10.734
			c4.02,8.551,10.46,17.632,19.353,16.667c5.988-0.647,10.936-5.747,15.341-10.544c15.158-16.51,30.177-32.868,47.843-52.112
			c8.441-9.194,16.924-18.438,24.035-28.911c9.203-13.554,15.914-28.868,22.558-44.059c4.731-10.811,9.459-21.622,14.19-32.436
			c1.031-2.361,2.025-4.826,2.561-7.332c0.177-0.199,0.371-0.375,0.516-0.612C3291.473,911.062,3288.768,905.843,3287.522,902.003z"
			/>
		<g>
			<path fill="#666666" d="M3218.354,876.998c-3.563,2.028-7.103,4.177-10.952,5.626c-1.779,0.67-2.94-1.967-1.173-2.724
				c3.777-1.612,7.652-2.911,11.331-4.745C3218.736,874.571,3219.453,876.373,3218.354,876.998z"/>
			<path fill="#666666" d="M3217.147,870.544c-3.187-1.173-6.038-2.797-8.505-5.144c-1.377-1.312,0.279-3.733,1.803-2.444
				c2.448,2.064,5.014,4,7.795,5.599C3219.393,869.216,3218.319,870.976,3217.147,870.544z"/>
			<path fill="#666666" d="M3222.24,865.687c-3.061-3.156-5.436-7.335-7.686-11.092c-0.969-1.612,1.232-3.492,2.364-1.857
				c2.552,3.68,5.476,7.691,7.118,11.88C3224.494,865.786,3223.051,866.522,3222.24,865.687z"/>
		</g>
	</g>
	<path fill="#EDD5BE" d="M3100.258,1053.248c-0.107-1.537-0.386-3.262-1.647-4.146c-1.028-0.717-2.396-0.644-3.638-0.469
		c-18.758,2.619-31.209,20.191-41.332,36.197c-13.118,20.74-26.272,41.528-36.924,63.637c-0.588,1.223-1.182,2.493-1.203,3.854
		c-0.031,1.746,0.88,3.35,1.766,4.856c7.034,11.952,14.064,23.905,21.094,35.857c1.531,2.604,3.119,5.436,2.844,8.44
		c-0.611,6.655-9.867,12.645-5.914,18.038c2.164,2.94,7.057,2.347,9.639-0.24c2.584-2.576,3.462-6.358,4.229-9.929
		c1.789-8.317,3.574-16.634,5.364-24.956c0.443-2.07,0.89-4.231,0.381-6.284c-0.561-2.241-2.181-4.051-3.743-5.759
		c-4.835-5.282-9.672-10.568-14.51-15.847c12.965-16.274,28.873-30.021,41.855-46.284
		C3091.497,1093.952,3101.705,1074.007,3100.258,1053.248z"/>
	<path fill="#56D2EF" d="M3187.91,1283.293c-13.322-23.796-20.141-51.639-16.656-78.683c4.018-31.169,8.539-56.457,0.74-87.538
		c-1.701-6.781-4.322-13.283-6.935-19.766c-5.755-14.271-11.505-28.539-17.259-42.807c-1.319-3.272-2.689-6.621-5.061-9.236
		c-7.876-8.678-30.05,3.202-41.936,0.041c-4.948-1.316-6.178-3.198-9.237,0.999c-2.587,3.546-3.82,9.544-5.4,13.654
		c-7.089,18.477-13.273,37.569-14.763,57.419c-0.75,9.938-0.338,20.114-3.266,29.647c-2.391,7.793-6.891,14.738-10.529,22.038
		c-13.271,26.643-14.845,57.537-24.688,85.625c-1.601,4.573-3.437,9.141-3.929,13.958c-0.49,4.823,0.571,10.071,4.033,13.464
		c2.465,2.409,5.83,3.619,9.08,4.761c4.767,1.679,9.539,3.356,14.309,5.036c6.617,2.33,13.266,4.664,20.154,5.995
		c8.412,1.62,17.03,1.72,25.596,1.814c15.787,0.169,31.576,0.347,47.365,0.516c8.986,0.101,17.989,0.199,26.951-0.516
		c6.018-0.479,13.557-2.842,13.982-8.866C3190.657,1288.16,3189.232,1285.648,3187.91,1283.293z"/>
</g>
</svg>
