<?xml version="1.0" encoding="utf-8"?>
<!-- Generator: Adobe Illustrator 16.0.0, SVG Export Plug-In . SVG Version: 6.00 Build 0)  -->
<!DOCTYPE svg PUBLIC "-//W3C//DTD SVG 1.1//EN" "http://www.w3.org/Graphics/SVG/1.1/DTD/svg11.dtd">
<svg version="1.1" id="Layer_1" xmlns="http://www.w3.org/2000/svg" xmlns:xlink="http://www.w3.org/1999/xlink" x="0px" y="0px"
	 width="3800px" height="2000px" viewBox="0 0 3800 2000" enable-background="new 0 0 3800 2000" xml:space="preserve">
<rect x="-2" y="-2" fill="#FFFFFF" width="3800" height="2000"/>
<path fill="#EBF2F9" d="M2816.978,730.479c-97.438-83.112-214.902-584.355-617.309-323.296
	c-207.902,134.88-558.473-115.792-848.643-29.21c-266.484,79.518-292.172,341.491-266.391,426.857
	c52.084,172.438-110,198.098-260.355,272.188c-235.854,116.217-62.42,524.641,160.394,526.594
	c222.813,1.951,1572.662-3.893,1572.662-3.893s323.685,0.816,458.287-177.828C3160.473,1229.645,3068.653,945.161,2816.978,730.479z
	"/>
<g>
	<path fill="#ADD8E6" d="M3126,1611.027c0,3.851-3.122,6.973-6.973,6.973h-529.056c-3.852,0-6.974-3.122-6.974-6.973V954.973
		c0-3.851,3.122-6.973,6.974-6.973h529.056c3.851,0,6.973,3.122,6.973,6.973V1611.027z"/>
	<g>
		<path fill="#1F88A0" d="M3045,1061.026c0,3.852-3.121,6.974-6.972,6.974h-366.057c-3.853,0-6.974-3.122-6.974-6.974v-1.055
			c0-3.852,3.121-6.974,6.974-6.974h366.057c3.852,0,6.972,3.122,6.972,6.974V1061.026z"/>
		<path fill="#1F88A0" d="M3045,1103.027c0,3.851-3.121,6.973-6.972,6.973h-366.057c-3.853,0-6.974-3.122-6.974-6.973v-1.057
			c0-3.851,3.121-6.973,6.974-6.973h366.057c3.852,0,6.972,3.122,6.972,6.973V1103.027z"/>
		<path fill="#1F88A0" d="M3045,1144.027c0,3.851-3.121,6.973-6.972,6.973h-366.057c-3.853,0-6.974-3.122-6.974-6.973v-1.057
			c0-3.851,3.121-6.973,6.974-6.973h366.057c3.852,0,6.972,3.122,6.972,6.973V1144.027z"/>
		<path fill="#1F88A0" d="M3045,1185.026c0,3.852-3.121,6.974-6.972,6.974h-366.057c-3.853,0-6.974-3.122-6.974-6.974v-1.055
			c0-3.852,3.121-6.974,6.974-6.974h366.057c3.852,0,6.972,3.122,6.972,6.974V1185.026z"/>
		<path fill="#1F88A0" d="M3045,1227.026c0,3.852-3.121,6.974-6.972,6.974h-366.057c-3.853,0-6.974-3.122-6.974-6.974v-1.055
			c0-3.852,3.121-6.974,6.974-6.974h366.057c3.852,0,6.972,3.122,6.972,6.974V1227.026z"/>
		<path fill="#1F88A0" d="M3045,1267.026c0,3.852-3.121,6.974-6.972,6.974h-366.057c-3.853,0-6.974-3.122-6.974-6.974v-1.055
			c0-3.852,3.121-6.974,6.974-6.974h366.057c3.852,0,6.972,3.122,6.972,6.974V1267.026z"/>
		<path fill="#1F88A0" d="M3045,1309.027c0,3.851-3.121,6.973-6.972,6.973h-366.057c-3.853,0-6.974-3.122-6.974-6.973v-1.057
			c0-3.851,3.121-6.973,6.974-6.973h366.057c3.852,0,6.972,3.122,6.972,6.973V1309.027z"/>
		<path fill="#1F88A0" d="M3045,1350.026c0,3.852-3.121,6.974-6.972,6.974h-366.057c-3.853,0-6.974-3.122-6.974-6.974v-1.055
			c0-3.852,3.121-6.974,6.974-6.974h366.057c3.852,0,6.972,3.122,6.972,6.974V1350.026z"/>
	</g>
	<g>
		<path fill="#1F88A0" d="M3045,1390.026c0,3.852-3.121,6.974-6.972,6.974h-366.057c-3.853,0-6.974-3.122-6.974-6.974v-1.055
			c0-3.852,3.121-6.974,6.974-6.974h366.057c3.852,0,6.972,3.122,6.972,6.974V1390.026z"/>
		<path fill="#1F88A0" d="M3045,1433.027c0,3.851-3.121,6.973-6.972,6.973h-366.057c-3.853,0-6.974-3.122-6.974-6.973v-1.057
			c0-3.851,3.121-6.973,6.974-6.973h366.057c3.852,0,6.972,3.122,6.972,6.973V1433.027z"/>
	</g>
	<g>
		<path fill="#1F88A0" d="M2801,1473.96c0,3.853-1.553,7.04-2.938,7.04h-131.541c-1.389,0-1.521-3.188-1.521-7.04v-1.161
			c0-3.852,0.133-7.799,1.521-7.799h131.541c1.387,0,2.938,3.947,2.938,7.799V1473.96z"/>
		<path fill="#1F88A0" d="M2801,1515.218c0,3.854-1.553,6.782-2.938,6.782h-131.541c-1.389,0-1.521-2.93-1.521-6.782v-1.16
			c0-3.852,0.133-7.058,1.521-7.058h131.541c1.387,0,2.938,3.206,2.938,7.058V1515.218z"/>
	</g>
	<g>
		<path fill="none" d="M2958.526,1481.831c16.037-3.515,31.948,1.856,42.608,12.824l2.59-1.229
			c-11.261-12.105-28.442-18.12-45.766-14.323c-24.812,5.438-40.953,29.041-37.529,53.777l2.455-1.163
			C2920.21,1508.678,2935.384,1486.902,2958.526,1481.831z"/>
		<path fill="none" d="M2978.104,1571.162c-16.053,3.518-31.979-1.866-42.64-12.854l-2.354,1.118
			c11.263,11.947,28.337,17.857,45.542,14.085c24.702-5.414,40.813-28.833,37.571-53.454l-2.482,1.178
			C3016.438,1544.29,3001.263,1566.085,2978.104,1571.162z"/>
		<path fill="#1F88A0" d="M2957.961,1479.104c17.321-3.796,34.505,2.219,45.765,14.324l5.393-2.555
			c-12.551-14.427-32.385-21.732-52.378-17.35c-28.337,6.211-46.563,33.604-41.689,61.907l5.384-2.551
			C2917.008,1508.145,2933.149,1484.543,2957.961,1479.104z"/>
		<path fill="#1F88A0" d="M3016.224,1520.057c3.241,24.621-12.866,48.04-37.569,53.454c-17.205,3.772-34.279-2.138-45.542-14.085
			l-5.397,2.559c12.562,14.266,32.281,21.466,52.162,17.107c28.232-6.188,46.431-33.404,41.747-61.592L3016.224,1520.057z"/>
		<path fill="none" stroke="#1F88A0" stroke-width="4" stroke-miterlimit="10" d="M2958.526,1481.831
			c-23.145,5.071-38.316,26.847-35.642,49.889l22.568-10.688c2.034-8.484,8.733-15.495,17.83-17.488
			c5.36-1.176,10.696-0.418,15.278,1.807l22.572-10.69C2990.478,1483.688,2974.563,1478.316,2958.526,1481.831z"/>
		<path fill="none" stroke="#1F88A0" stroke-width="4" stroke-miterlimit="10" d="M2973.349,1549.452
			c-5.379,1.179-10.729,0.412-15.321-1.829l-22.561,10.686c10.66,10.987,26.587,16.371,42.64,12.854
			c23.156-5.077,38.334-26.872,35.637-49.93l-22.555,10.683C2989.168,1540.422,2982.461,1547.455,2973.349,1549.452z"/>
		
			<line fill="none" stroke="#1F88A0" stroke-width="4" stroke-miterlimit="10" x1="2897.974" y1="1543.521" x2="3026.192" y2="1482.786"/>
		
			<line fill="none" stroke="#1F88A0" stroke-width="4" stroke-miterlimit="10" x1="2910.896" y1="1569.911" x2="3039.114" y2="1509.176"/>
		<g>
			<path fill="#1F88A0" d="M2917.426,1553.305l0.75,6.115l-2.246,1.062l-2.223-19.521l2.619-1.236l13.68,14.112l-2.322,1.098
				l-4.294-4.444L2917.426,1553.305z M2922.142,1549.005l-3.933-4.063c-0.896-0.926-1.613-1.806-2.322-2.659l-0.051,0.022
				c0.223,1.117,0.43,2.27,0.589,3.444l0.648,5.644L2922.142,1549.005z"/>
			<path fill="#1F88A0" d="M2940.653,1544.783c0.589,1.25,1.132,2.335,1.654,3.25l-1.946,0.917l-1.059-1.913l-0.048,0.021
				c-0.116,1.246-0.787,3.118-2.934,4.133c-1.896,0.895-4.664,0.918-6.664-3.324l-3.334-7.063l2.195-1.037l3.155,6.689
				c1.083,2.296,2.515,3.514,4.511,2.569c1.473-0.693,2.014-2.198,1.95-3.36c-0.028-0.383-0.14-0.818-0.329-1.218l-3.496-7.412
				l2.194-1.036L2940.653,1544.783z"/>
			<path fill="#1F88A0" d="M2941.159,1529.564l1.637,3.469l3.146-1.483l0.789,1.671l-3.146,1.484l3.072,6.513
				c0.708,1.498,1.529,2.146,2.756,1.569c0.573-0.271,0.963-0.546,1.202-0.75l0.877,1.6c-0.343,0.376-0.957,0.818-1.808,1.219
				c-1.021,0.483-2,0.547-2.807,0.195c-0.931-0.354-1.66-1.322-2.333-2.743l-3.105-6.59l-1.873,0.883l-0.789-1.671l1.872-0.885
				l-1.367-2.893L2941.159,1529.564z"/>
			<path fill="#1F88A0" d="M2945.75,1524.744l2.196-1.037l3.556,7.536l0.051-0.024c0.056-0.788,0.347-1.596,0.841-2.288
				c0.476-0.681,1.132-1.295,1.952-1.683c1.623-0.767,4.689-0.993,6.655,3.176l3.395,7.188l-2.196,1.037l-3.274-6.938
				c-0.919-1.946-2.419-3.251-4.488-2.273c-1.425,0.671-2.073,2.197-1.909,3.586c0.018,0.356,0.146,0.693,0.346,1.117l3.438,7.289
				l-2.196,1.035L2945.75,1524.744z"/>
			<path fill="#1F88A0" d="M2975.994,1524.63c2.107,4.467-0.066,7.873-2.987,9.252c-3.27,1.542-6.92,0.337-8.722-3.48
				c-1.907-4.046-0.382-7.662,2.962-9.24C2970.718,1519.521,2974.252,1520.936,2975.994,1524.63z M2966.471,1529.277
				c1.249,2.645,3.713,3.923,5.858,2.91c2.097-0.989,2.738-3.703,1.455-6.425c-0.967-2.047-3.213-4.157-5.811-2.935
				C2965.381,1524.056,2965.388,1526.979,2966.471,1529.277z"/>
			<path fill="#1F88A0" d="M2977.74,1521.152c-0.673-1.424-1.273-2.635-1.88-3.725l1.923-0.904l1.194,2.334l0.101-0.047
				c-0.219-1.882,0.622-3.526,2.097-4.224c0.246-0.117,0.437-0.175,0.657-0.22l0.979,2.07c-0.25,0.057-0.486,0.139-0.784,0.277
				c-1.549,0.73-2.093,2.421-1.616,4.21c0.094,0.322,0.207,0.694,0.387,1.069l3.035,6.438l-2.17,1.023L2977.74,1521.152z"/>
			<path fill="#1F88A0" d="M2985.065,1508.938c0.377,0.737,0.11,1.597-0.764,2.01c-0.771,0.361-1.604,0.023-1.958-0.727
				c-0.364-0.771-0.073-1.643,0.727-2.021C2983.896,1507.813,2984.7,1508.164,2985.065,1508.938z M2989.922,1525.564l-5.7-12.079
				l2.197-1.035l5.699,12.079L2989.922,1525.564z"/>
			<path fill="#1F88A0" d="M2993.787,1522.184l2.108-9.689c0.22-0.896,0.445-1.705,0.688-2.614l-0.021-0.048l-6.539,3.084
				l-0.836-1.771l9.209-4.346l0.621,1.385l-2.08,9.559c-0.181,0.909-0.396,1.742-0.651,2.627l0.022,0.051l7.063-3.335l0.825,1.749
				l-9.812,4.627L2993.787,1522.184z"/>
			<path fill="#1F88A0" d="M3004.828,1511.635c1.452,2.946,3.926,3.273,6.121,2.238c1.573-0.744,2.393-1.465,3.051-2.203
				l1.117,1.396c-0.61,0.715-1.744,1.738-3.666,2.645c-3.72,1.755-7.095,0.357-8.813-3.287c-1.721-3.643-0.929-7.523,2.592-9.187
				c3.942-1.86,6.629,1.114,7.679,3.335c0.211,0.449,0.325,0.822,0.405,1.06L3004.828,1511.635z M3010.524,1507.024
				c-0.636-1.41-2.259-3.301-4.729-2.135c-2.221,1.05-2.229,3.556-1.687,5.159L3010.524,1507.024z"/>
			<path fill="#1F88A0" d="M3020.841,1489.311l6.889,14.601c0.509,1.074,1.11,2.285,1.572,3.073l-1.971,0.931l-1.09-2.049
				l-0.051,0.021c-0.037,1.666-1.026,3.387-2.998,4.313c-2.92,1.38-6.332-0.031-8.063-3.699c-1.921-4.008-0.592-7.655,2.354-9.046
				c1.848-0.871,3.507-0.586,4.516,0.127l0.05-0.021l-3.403-7.212L3020.841,1489.311z M3023.627,1500.902
				c-0.132-0.273-0.331-0.638-0.537-0.876c-0.983-1.244-2.723-1.826-4.371-1.052c-2.271,1.07-2.677,3.704-1.417,6.375
				c1.155,2.446,3.307,3.901,5.678,2.782c1.476-0.692,2.362-2.304,1.983-4.139c-0.067-0.335-0.185-0.647-0.35-0.995
				L3023.627,1500.902z"/>
		</g>
	</g>
	<rect x="2664.011" y="990.474" fill="none" width="206.875" height="62.763"/>
	<text transform="matrix(1 0 0 1 2664.0107 1031.7324)" fill="#1F88A0" font-family="'MyriadPro-Regular'" font-size="58.1112">Credits</text>
</g>
<g>
	<g>
		<path fill="#3B3B3B" d="M449.946,1597.934c0.955-2.301,1.916-4.602,2.871-6.899c-0.615-0.154-1.243-0.32-1.858-0.462
			c-0.013-21.875-0.024-43.76-0.038-65.635c-0.014-28.67,1.486-56.248,4.211-84.646c8.063-84.015-18.914-175.738-11.46-261.322
			c1.724-19.869,3.653-39.979,8.845-59.383c6.765-25.292,23.49-21.863,47.804-26.306c37.78-6.908,115.252-8.485,152.351,1.273
			c0.274,163.291-34.751,345.355-50.031,507.007h-3.324c9.088,7.673,19.33,13.597,30.354,17.824c2.725,1.045,5.576,2.044,7.68,3.954
			c4.392,4,3.69,11.69-1.357,14.947c-4.725,3.045-11.089,2.02-16.709,0.87c-15.953-3.257-31.912-6.514-47.865-9.77
			c-2.923-0.596-6.031-1.288-8.063-3.326c-2.455-2.461-2.642-6.141-2.69-9.491c-0.077-4.847-0.153-9.695-0.229-10.445h-1.485
			c-11.893-92.192-3.243-287.719-6.143-376.021c-5.325,41.092-20.656,176.713-31.311,227.911
			c-4.922,23.663-10.71,46.854-14.869,70.746c-2.128,12.203-4.423,24.354-6.961,36.424c-2.19,10.384-6.19,21.224-5.884,32.035
			c-0.795,0.121-1.598,0.142-2.394,0.217c5.56,10,12.773,19.203,21.429,27.087c2.104,1.916,4.347,3.826,5.522,6.332
			c2.462,5.23-1.288,12.127-7.28,13.393c-5.605,1.18-11.102-1.98-15.845-5c-13.483-8.563-26.971-17.125-40.456-25.695
			c-2.467-1.563-5.074-3.287-6.134-5.883C447.331,1604.535,448.646,1601.055,449.946,1597.934z"/>
		<path fill="#64B264" d="M707.06,970.181c1.446-13.478-2.73-27.624-6.822-40.3c-7.692-23.826-13.199-49.856-26.026-71.627
			c-6.008-10.197-29.646-28.404-42.582-25.338c-65.508,15.748,24.818,80.527,33.131,96.711c4.813,9.364,9.595,18.748,14.427,28.073
			l21.17,33.169C703.987,985.508,706.778,972.797,707.06,970.181z"/>
		<path fill="#85D685" d="M578.646,805.166c-16.648-3.813-32.614-11.063-49.605-12.607c-3.932-0.356-8.198-0.313-11.383,2.07
			c-2.51,1.872-3.926,4.877-5.237,7.762c-18.438,40.354-36.994,81.04-47.243,124.368c-5.439,23.022-8.479,46.561-11.511,70.048
			c-3.82,29.64-7.646,59.274-11.474,88.911c-1.227,9.504-1.979,20.519,4.628,27.271c3.983,4.076,9.778,5.544,15.284,6.723
			c21.429,4.59,43.205,7.448,65.067,8.525c26.517,1.307,53.089,0.006,79.61-1.295c16.402-0.811,32.804-1.609,49.205-2.416
			c3.326-0.16,6.724-0.341,9.793-1.647c9.326-3.961,12.005-16.271,11.604-26.657c-0.474-12.145-3.346-24.041-5.929-35.901
			c-14.696-67.563-20.17-136.821-29.192-205.43c-1.771-13.421-0.441-41.353-14.725-48.24c-5.979-2.894-12.838-1.211-19.029-0.365
			C598.361,807.659,588.696,807.466,578.646,805.166z"/>
		<path fill="#FFE0D6" d="M640.351,742.642c-0.447,7.198-0.931,14.544-3.273,21.208c-5.243,14.876-18.475,23.208-30.896,29.852
			c-9.521,5.089-20.478,9.922-30.107,5.14c-8.257-4.102-13.06-14.088-19.369-21.586c-4.811-5.698-10.646-10.102-15.218-16.065
			c-10.257-13.378-12.734-32.668-12.8-50.73c-0.077-22.83,3.931-47.794,18.733-62.459c7.774-7.698,17.722-11.671,27.669-13.998
			c9.339-2.186,19.119-3.038,28.298-0.07c11.37,3.688,21.029,13.089,27.771,24.521C647.329,685.862,642.291,711.429,640.351,742.642
			z"/>
		<path fill="#443B36" d="M641.625,677.491c3.659,10.133,8.627,20.632,17.907,26.093c-5.717-0.353-11.338-2.096-16.254-5.038
			c-1.227-0.737-2.486-1.57-3.924-1.603c-2.293-0.061-4.113,1.968-5.113,4.038c-1.006,2.067-1.59,4.4-3.108,6.127
			c-4-3.589-7.999-7.181-11.998-10.771c-0.856-0.769-1.813-1.583-2.968-1.66c-1.23-0.074-2.34,0.705-3.32,1.455
			c-6.729,5.16-13.197,10.659-19.375,16.459c-1.789-3.423-2.59-7.352-2.302-11.204c-3.909,1.032-6.614,4.493-9.024,7.742
			c-4.111,5.538-8.229,11.088-12.344,16.626c-2.385-4.852-4.769-9.704-7.151-14.556c-10.484,12.095-16.862,27.682-17.868,43.654
			c-3.688-2.455-6.673-5.941-8.537-9.962c4.771,13.229,11.992,25.572,21.177,36.228c-10.05-7.104-14.588-20.087-24.497-27.381
			c-4.346-3.198-9.729-5.32-12.716-9.819c-0.327,5.044,1.229,10.191,4.308,14.203c-7.006-3.979-11.217-12.389-10.201-20.375
			c0.461-3.646,1.891-7.083,3.301-10.473c3.121-7.479,6.271-15.03,10.876-21.702c3.52-5.115,7.856-9.671,10.938-15.068
			c4.832-8.473,6.354-18.677,12.068-26.58c4-5.538,9.749-9.505,15.396-13.344c6.362-4.326,12.896-8.691,20.328-10.687
			c7.243-1.946,14.832-1.479,22.142-0.203c5.854,1.022,14.073,1.984,18.495,6.435c2.91,2.929,4.063,7.877,5.893,11.511
			C636.952,664.044,639.188,670.774,641.625,677.491z"/>
		<path fill="#5E625E" d="M488.853,730.061c-6.437,3.099-14.224,6.448-20.293,2.692c-1.937-1.192-3.535-3.326-3.229-5.583
			c0.256-1.903,1.77-3.371,3.229-4.621c7.902-6.772,17.112-11.999,26.935-15.438c6.938-2.438,24.981-8.563,31.996-4.544
			c7.883,4.519,2.217,11.027-3.295,13.664C512.887,721.632,500.267,724.568,488.853,730.061z"/>
		<path fill="#5E625E" d="M517.647,649.95c3.084-4.025,7.468-6.826,11.87-9.332c21.813-12.408,47.479-19.664,72.171-15.19
			c5.104,0.923,10.194,2.372,14.617,5.083c8.741,5.371,13.84,14.959,18.528,24.096c2.81,5.467,5.615,10.935,8.422,16.399
			c1.487,2.903,4.894,8.095,4.188,11.521c-0.795,3.907-5.281,2.051-8.364,1.945c-8.896-0.308-17.747,1.077-26.517,2.461
			c-9.603,1.509-19.269,3.038-28.434,6.294c-5.717,2.032-11.172,4.72-16.694,7.229c-12.385,5.634-25.133,10.422-37.872,15.197
			c-2.289,0.856-5.084,1.651-7,0.128c-1.771-1.41-1.796-4.025-1.857-6.288c-0.264-10.261-4.313-19.991-6.646-29.983
			C511.731,669.511,511.399,658.096,517.647,649.95z M600.579,676.805c0.359,1.032,0.646,2.188,1.513,2.854
			c1.153,0.878,2.795,0.513,4.198,0.122c7.818-2.188,15.824-3.814,23.933-4.403c3.423-0.25,7.384,1.083,7.96-2.813
			c0.433-2.923-2.602-7.74-4.14-10.044c-0.327-0.491-0.692-0.99-1.199-1.301c-0.614-0.372-1.364-0.417-2.089-0.449
			c-7.538-0.318-15.126,0.394-22.479,2.104c-2.204,0.513-4.441,1.141-6.301,2.429c-1.857,1.295-3.31,3.378-3.297,5.642
			C598.695,673.011,599.881,674.857,600.579,676.805z"/>
		<g>
			<path fill="#8A8A8A" d="M547.92,793.827c10.55,19.196,21.548,38.334,31.284,57.96c8.197,16.53,10.697,33.682,14.023,51.615
				c0.75,4.044,0.975,10.658,3.229,14.17c9.105,14.211,12.505-5.742,13.063-9.976c1.354-10.315,2.479-20.663,3.453-31.024
				c2.09-22.208,3.354-44.494,4.115-66.786c0.025-0.711,1.104-0.718,1.107,0c0.289,28.259-1.211,56.439-4.313,84.526
				c-0.69,6.256-0.024,37.168-13.267,33.965c-6.166-1.488-7.545-11.063-8.736-15.902c-3.146-12.793-4.096-26.021-7.531-38.751
				c-7.429-27.481-25.776-53.268-39.076-78.246C544.344,793.635,546.972,792.097,547.92,793.827z"/>
			<path fill="#C9C9C9" d="M581.735,927.893c3.513-1.455,10.371-0.53,14.074-0.59c8.022-0.135,16.021-0.059,24.049,0.108
				c0.939-1.159,3.551-0.938,3.346,0.737c-1.628,12.973,1.257,25.426,5.019,37.979c2.397,8.021,8.188,18.747,6.653,27.086
				c-1.02,5.543-6.531,7.78-12.602,8.635c-7.043,0.985-14.582,0.954-21.715,1.271c-3.403,0.152-8.354,0.986-11.446-0.937
				c-6.371-3.962-5.66-16.673-6.66-22.466c-2.013-11.704-3.729-23.497-4.576-35.304
				C577.537,939.672,575.365,930.526,581.735,927.893z"/>
			<path fill="#8A8A8A" d="M594.503,988.339c-2.936,0.378-6.262,1.07-7.717,3.643c-0.923,1.629-0.84,3.619-0.73,5.484
				c0.09,1.475,0.295,3.159,1.525,3.979c0.615,0.41,1.385,0.507,2.121,0.597c8.493,0.979,17.049,1.378,25.593,1.187
				c5.371-0.12,11.063-0.59,15.429-3.725c2.787-2,5.991-6.884,4.717-10.521c-1.287-3.66-6.377-2.728-9.451-2.714
				C615.462,986.301,604.938,986.992,594.503,988.339z"/>
			<path fill="#8A8A8A" d="M602.252,935.32c1.937-4.332,10.325-3.576,14.081-3.104c1.859,0.23,2.385,1.896,1.854,3.089
				c0.377,3.438,0.644,6.871,0.744,10.325c0.051,1.629,0.569,4.025-0.841,5.256c-1.442,1.25-5.396,1.147-7.235,1.302
				c-2.014,0.176-3.939-0.02-5.289-1.703c-1.474-1.864-2.179-4.666-2.733-6.925C602.239,941.186,601.207,937.66,602.252,935.32z"/>
			<g>
				<path fill="#8A8A8A" d="M584.03,957.631c3.013-0.724,6.031-1.641,9.104-1.979c3.015-0.332,6.076-0.047,9.108,0.157
					c1.646,0.116,3.313,0.314,4.96,0.314c1.069,0,1.901-0.358,2.854-0.833c0.5-0.25,0.969-0.391,1.521-0.384
					c1.506,0.012,2.903,0.474,4.422,0.262c1.353-0.19,2.635-0.44,4.006-0.166c0.115,0.025,0.097,0.236-0.024,0.218
					c-1.584-0.313-3.051,0.115-4.606,0.282c-1.396,0.146-2.82-0.494-4.188-0.302c-0.828,0.106-1.487,0.725-2.271,1
					c-0.551,0.198-1.115,0.243-1.698,0.25c-1.491,0.02-3.006-0.16-4.499-0.25c-3.173-0.192-6.371-0.513-9.519-0.147
					c-3.076,0.354-6.104,1.275-9.107,2.021C583.856,958.125,583.8,957.683,584.03,957.631z"/>
				<path fill="#8A8A8A" d="M611.358,958.805c-2.643,0.478-5.28,0.59-7.952,0.736c-5.108,0.275-10.128,2.077-15.287,1.692
					c-0.269-0.021-0.218-0.508,0.045-0.493c5.455,0.188,10.729-1.516,16.158-1.73c2.59-0.103,5.128-0.309,7.672-0.719
					c2.468-0.396,4.929-0.724,7.429-0.089c0.18,0.045,0.153,0.384-0.031,0.339C616.673,957.855,614.021,958.336,611.358,958.805z"/>
				<path fill="#8A8A8A" d="M613.276,963.406c-2.84,0.27-5.704,0.229-8.545,0.539c-5.697,0.621-11.293,1.938-17.041,2.121
					c-0.213,0.006-0.271-0.394-0.055-0.397c5.903-0.231,11.659-1.641,17.52-2.249c2.84-0.289,5.705-0.229,8.537-0.552
					c2.787-0.314,5.484-1.417,8.316-1.205c0.271,0.019,0.221,0.5-0.044,0.487C619.013,962.021,616.192,963.131,613.276,963.406z"/>
				<path fill="#8A8A8A" d="M587.356,972.514c2.545-0.269,5.134,0.289,7.646-0.352c2.57-0.654,5.019-1.814,7.582-2.514
					c5.211-1.425,10.589-1.954,15.94-2.486c0.205-0.021,0.263,0.372,0.052,0.396c-5.347,0.563-10.724,1.122-15.921,2.592
					c-2.493,0.696-4.865,1.834-7.358,2.52c-2.551,0.699-5.235,0.41-7.856,0.486C587.101,973.162,587.004,972.553,587.356,972.514z"
					/>
				<path fill="#8A8A8A" d="M608.001,974.404c-4.52,0.783-8.96,1.939-13.504,2.563c-0.27,0.031-0.334-0.461-0.071-0.5
					c4.545-0.613,8.993-1.779,13.505-2.567c4.441-0.775,8.922-0.615,13.393-1.091c0.279-0.024,0.353,0.479,0.068,0.523
					c-2.219,0.354-4.484,0.23-6.725,0.314C612.424,973.732,610.206,974.014,608.001,974.404z"/>
				<path fill="#8A8A8A" d="M593.26,983.275c2.281,0.439,4.583,0.09,6.826-0.275c2.339-0.379,4.659-0.904,6.96-1.487
					c4.532-1.146,9.024-2.493,13.596-3.454c0.197-0.045,0.242,0.326,0.053,0.371c-4.729,1.039-9.363,2.506-14.063,3.691
					c-4.229,1.078-9.012,2.525-13.428,1.699C592.914,983.763,592.959,983.218,593.26,983.275z"/>
			</g>
		</g>
		<g>
			<path fill="#64B264" d="M538.47,829.569c-9.92,2.669-21.262,7.226-22.972,8.882c-11.808,11.437-21.563,37.932-22.564,54.003
				c-2.74,44.034-30.932,102.133-7.813,104.157c20.357,1.778,41.688-7.55,57.666-19.193c4.768-3.475,32.689-32.734,38.253-30.91
				c4.653,1.525-0.812-18.768-0.872-18.996c-1.701-6.269-27.785,14.525-29.087,15.504c-8.514,6.281-20.338,11.201-30.461,13.983
				c2.001-17.296,8.168-33.465,12.167-50.297C535.139,896.797,566.43,822.048,538.47,829.569z"/>
			<path fill="#FFE0D6" d="M577.503,934.852c0,0-0.984-5.354-8.477-4.684c0.776-0.919,1.736-1.727,2.682-2.472
				c8.888-7.05,18.614-13.042,28.912-17.792c0.959-0.441,1.988-0.89,3.04-0.735c1.12,0.164,2.019,0.98,2.821,1.78
				c4.254,4.212,8.152,9.836,7.082,15.731c-0.912,5.069-5.257,8.778-9.634,11.498c-6.942,4.311-15.207,9.22-22.509,9.103
				C581.995,942.888,577.503,934.852,577.503,934.852z"/>
		</g>
		<g>
			<path fill="#64B264" d="M681.925,961.995c-1.666-2.61-2.74-4.295-2.734-4.282c-5.392-10.418-29.043-26.025-38.41-33.002
				c-2.329,8.969-5.078,17.907-8.327,26.566c-2.841,7.566,52.192,45.114,64.722,41.983c1.102,0.017,2.173-0.907,3.182-2.394
				C700.354,990.869,687.651,970.966,681.925,961.995z"/>
			<path fill="#FFE0D6" d="M641.585,937.182c0,0,1.832-6.302,9.896-5.031c-0.715-1.144-1.647-2.162-2.568-3.107
				c-8.682-8.941-18.424-16.678-28.966-22.975c-0.981-0.585-2.042-1.182-3.207-1.064c-1.244,0.124-2.338,1.038-3.327,1.939
				c-5.23,4.737-10.276,11.179-9.946,18.257c0.272,6.085,4.479,10.768,8.86,14.276c6.953,5.562,15.254,11.916,23.225,12.236
				C635.553,946.454,641.585,937.182,641.585,937.182z"/>
		</g>
	</g>
	<g>
		<path fill="#6B6D6B" d="M672.928,601.132c2.432,3.527,4.106,7.448,5.122,11.689c1.921,8.016,1.486,17.173-0.643,26.96
			c-6.318,28.364-9.201,40.029-10.564,43.779c0.017,0.009,0.035,0.018,0.052,0.027c39.295-69.626,71.012-161.046,58.973-210.815
			c-18.748-77.507-134.517-108.475-203.928-112.591c-182.205-10.804-183.129,86.833-183.129,86.833
			C303.165,675.188,490.25,605.37,490.286,605.356c30.715-11.465,133.508-37.891,172.679-13.498
			C667.017,594.381,670.388,597.448,672.928,601.132z"/>
		<g>
			<path fill="#FFFFFF" d="M431.395,434.706l-12.489,1.5l4.94,41.057c0.284,2.365-0.032,4.182-0.948,5.453
				c-0.917,1.269-2.209,2.006-3.88,2.207c-1.696,0.204-3.148-0.209-4.353-1.237c-1.208-1.027-1.949-2.713-2.23-5.05l-4.941-41.057
				l-12.49,1.502c-1.954,0.235-3.457-0.02-4.511-0.768c-1.054-0.746-1.666-1.826-1.837-3.242c-0.174-1.462,0.18-2.678,1.067-3.647
				c0.888-0.967,2.27-1.564,4.145-1.788l36.39-4.378c1.979-0.238,3.502,0.023,4.572,0.782c1.067,0.757,1.686,1.844,1.858,3.254
				c0.17,1.415-0.182,2.612-1.054,3.588C434.763,433.862,433.347,434.47,431.395,434.706z"/>
			<path fill="#FFFFFF" d="M452.076,428.15l1.878,15.612c1.15-1.702,2.309-3.08,3.472-4.132c1.165-1.053,2.491-1.896,3.978-2.533
				c1.49-0.635,3.119-1.06,4.894-1.272c2.672-0.319,5.112-0.041,7.314,0.841c2.206,0.882,4.029,2.331,5.47,4.347
				c0.897,1.17,1.566,2.517,2.011,4.04c0.446,1.525,0.789,3.301,1.033,5.332l2.426,20.161c0.254,2.105-0.036,3.758-0.872,4.953
				c-0.834,1.196-2.047,1.887-3.641,2.08c-3.469,0.417-5.46-1.505-5.974-5.772l-2.138-17.773c-0.406-3.367-1.218-5.894-2.438-7.586
				c-1.22-1.694-3.231-2.369-6.032-2.031c-1.876,0.225-3.501,0.963-4.877,2.208c-1.375,1.247-2.325,2.84-2.847,4.781
				c-0.377,1.634-0.324,4.458,0.158,8.467l1.674,13.916c0.25,2.081-0.025,3.724-0.834,4.931c-0.806,1.206-2.044,1.908-3.716,2.108
				c-3.469,0.417-5.46-1.506-5.974-5.773l-5.49-45.643c-0.256-2.132,0.006-3.788,0.792-4.963c0.782-1.176,1.998-1.864,3.642-2.06
				c1.671-0.203,3.04,0.182,4.109,1.149C451.162,424.506,451.823,426.043,452.076,428.15z"/>
			<path fill="#FFFFFF" d="M521.615,466.557c-2.307,2.286-4.59,4.065-6.846,5.338c-2.259,1.275-4.866,2.093-7.822,2.447
				c-2.698,0.324-5.134,0.075-7.305-0.745c-2.172-0.821-3.919-2.076-5.244-3.766c-1.324-1.692-2.113-3.604-2.372-5.737
				c-0.346-2.878,0.271-5.442,1.853-7.692c1.581-2.25,3.92-3.914,7.027-4.99c0.647-0.235,2.265-0.782,4.847-1.64
				c2.582-0.857,4.791-1.626,6.626-2.303c1.836-0.675,3.818-1.469,5.952-2.378c-0.464-2.76-1.267-4.728-2.413-5.908
				c-1.145-1.178-3.272-1.58-6.383-1.207c-2.673,0.322-4.638,0.937-5.897,1.844c-1.259,0.909-2.283,2.163-3.065,3.77
				c-0.785,1.606-1.349,2.673-1.688,3.196c-0.34,0.522-1.166,0.863-2.478,1.018c-1.183,0.143-2.25-0.113-3.201-0.768
				c-0.953-0.654-1.5-1.573-1.642-2.755c-0.221-1.851,0.216-3.728,1.317-5.633c1.102-1.905,2.971-3.59,5.61-5.054
				c2.638-1.464,6.027-2.446,10.166-2.944c4.624-0.557,8.327-0.45,11.104,0.326c2.779,0.774,4.854,2.277,6.233,4.511
				c1.375,2.233,2.297,5.302,2.769,9.208c0.298,2.467,0.543,4.563,0.736,6.287c0.193,1.722,0.405,3.639,0.634,5.75
				c0.237,1.979,0.814,4,1.729,6.069c0.913,2.067,1.406,3.408,1.48,4.025c0.13,1.081-0.26,2.125-1.168,3.133
				c-0.908,1.012-2.004,1.591-3.289,1.745c-1.08,0.13-2.208-0.25-3.385-1.137C524.322,469.68,523.027,468.343,521.615,466.557z
				 M519.088,451.414c-1.473,0.75-3.644,1.618-6.509,2.602c-2.867,0.982-4.849,1.689-5.943,2.122
				c-1.095,0.433-2.106,1.141-3.03,2.123c-0.925,0.985-1.295,2.249-1.109,3.791c0.19,1.593,0.959,2.875,2.301,3.851
				c1.342,0.97,2.989,1.341,4.943,1.106c2.083-0.25,3.949-0.937,5.6-2.059c1.649-1.124,2.8-2.455,3.449-3.996
				c0.76-1.708,0.92-4.386,0.481-8.036L519.088,451.414z"/>
			<path fill="#FFFFFF" d="M547.757,431.931l0.153,1.272c1.556-2.665,3.364-4.699,5.423-6.108c2.059-1.408,4.517-2.283,7.368-2.628
				c2.776-0.334,5.328-0.025,7.658,0.918c2.33,0.946,4.167,2.458,5.515,4.54c0.848,1.201,1.464,2.533,1.851,3.999
				c0.384,1.467,0.717,3.354,0.994,5.669l2.356,19.582c0.253,2.105-0.038,3.758-0.872,4.952c-0.832,1.198-2.022,1.886-3.563,2.071
				c-1.569,0.188-2.909-0.212-4.016-1.199c-1.112-0.986-1.789-2.508-2.036-4.566l-2.11-17.539c-0.416-3.471-1.217-6.064-2.402-7.787
				c-1.185-1.722-3.217-2.409-6.093-2.061c-1.877,0.223-3.518,0.988-4.926,2.293s-2.354,2.977-2.837,5.015
				c-0.326,1.63-0.231,4.591,0.286,8.882l1.585,13.181c0.259,2.134-0.046,3.794-0.906,4.979c-0.861,1.185-2.075,1.873-3.642,2.061
				c-1.518,0.182-2.831-0.221-3.939-1.208c-1.11-0.987-1.787-2.508-2.036-4.565l-3.659-30.416c-0.242-2.003,0.016-3.553,0.77-4.648
				c0.754-1.094,1.89-1.731,3.407-1.915c0.924-0.114,1.786,0.006,2.583,0.353c0.799,0.35,1.476,0.932,2.03,1.75
				C547.251,429.633,547.605,430.672,547.757,431.931z"/>
			<path fill="#FFFFFF" d="M615.962,456.342l-11.126-14.148l-5.057,6.082l1.006,8.364c0.244,2.03-0.101,3.656-1.037,4.877
				c-0.937,1.22-2.097,1.917-3.483,2.081c-1.62,0.195-2.957-0.192-4.01-1.159c-1.057-0.97-1.709-2.505-1.965-4.615l-5.398-44.871
				c-0.28-2.338-0.044-4.172,0.708-5.501c0.753-1.328,1.965-2.094,3.636-2.296c1.618-0.195,2.971,0.204,4.055,1.195
				c1.083,0.991,1.755,2.565,2.013,4.724l3.071,25.519l10.342-13.838c1.28-1.718,2.272-2.906,2.975-3.564
				c0.701-0.658,1.606-1.054,2.712-1.187c1.31-0.16,2.453,0.129,3.427,0.858c0.974,0.731,1.539,1.725,1.688,2.984
				c0.187,1.542-0.994,3.771-3.538,6.683l-4.972,5.799l12.834,15.663c0.948,1.162,1.635,2.052,2.061,2.666
				c0.426,0.614,0.674,1.216,0.746,1.807c0.201,1.671-0.098,3.042-0.894,4.116c-0.795,1.074-1.939,1.7-3.431,1.879
				c-1.286,0.155-2.316-0.073-3.094-0.686C618.454,459.171,617.364,458.024,615.962,456.342z"/>
			<path fill="#FFFFFF" d="M471.688,567.616l-2.155-17.925l-16.375-19.735c-1.44-1.781-2.475-3.182-3.106-4.201
				c-0.631-1.017-0.994-1.924-1.09-2.721c-0.158-1.311,0.214-2.502,1.114-3.576c0.899-1.069,2.095-1.699,3.586-1.875
				c1.568-0.188,2.811,0.111,3.727,0.901c0.917,0.787,2.343,2.41,4.28,4.859l12.626,15.884l8.614-18.438
				c0.516-1.128,0.948-2.083,1.299-2.854s0.751-1.504,1.203-2.198c0.451-0.693,0.978-1.248,1.582-1.656
				c0.602-0.411,1.367-0.675,2.292-0.784c1.44-0.174,2.698,0.152,3.773,0.973c1.077,0.823,1.689,1.85,1.838,3.084
				c0.12,1.002-0.003,2.034-0.371,3.095c-0.366,1.063-1.037,2.549-2.004,4.466l-11.537,23.405l2.156,17.926
				c0.281,2.338-0.05,4.148-0.988,5.437c-0.94,1.287-2.248,2.03-3.916,2.232c-1.696,0.205-3.141-0.204-4.331-1.22
				C472.711,571.671,471.972,569.981,471.688,567.616z"/>
			<path fill="#FFFFFF" d="M540.384,544.727c0.378,3.136,0.236,6.085-0.421,8.849c-0.659,2.765-1.798,5.209-3.42,7.334
				c-1.622,2.125-3.656,3.848-6.104,5.173c-2.448,1.325-5.278,2.179-8.491,2.568c-3.188,0.383-6.116,0.213-8.782-0.508
				c-2.669-0.721-5.047-1.927-7.142-3.62c-2.094-1.688-3.779-3.783-5.058-6.272c-1.278-2.493-2.105-5.322-2.485-8.481
				c-0.385-3.189-0.247-6.165,0.412-8.927c0.658-2.763,1.786-5.194,3.385-7.291c1.6-2.095,3.635-3.806,6.108-5.136
				c2.474-1.327,5.277-2.179,8.414-2.556c3.186-0.384,6.14-0.215,8.859,0.497c2.719,0.717,5.119,1.915,7.198,3.593
				c2.08,1.68,3.759,3.771,5.037,6.275C539.174,538.733,540.004,541.566,540.384,544.727z M529.821,545.997
				c-0.516-4.291-1.863-7.519-4.04-9.682c-2.176-2.16-4.858-3.052-8.045-2.669c-2.057,0.249-3.805,1-5.242,2.254
				c-1.441,1.254-2.458,2.976-3.056,5.159c-0.597,2.183-0.729,4.661-0.395,7.439c0.331,2.749,1.038,5.102,2.119,7.058
				c1.083,1.956,2.467,3.383,4.152,4.291c1.687,0.905,3.583,1.231,5.692,0.975c3.186-0.383,5.58-1.889,7.178-4.52
				C529.787,553.673,530.33,550.237,529.821,545.997z"/>
			<path fill="#FFFFFF" d="M577.863,555.9l-0.162-1.349c-1.067,1.746-2.232,3.242-3.487,4.487c-1.258,1.246-2.678,2.233-4.26,2.957
				c-1.583,0.725-3.428,1.214-5.533,1.468c-2.545,0.306-4.89,0.053-7.033-0.758c-2.145-0.81-3.88-2.074-5.208-3.792
				c-1.58-2.079-2.621-5.212-3.125-9.402l-2.508-20.853c-0.253-2.107,0.032-3.738,0.859-4.896c0.828-1.155,2.022-1.825,3.59-2.014
				c1.593-0.191,2.941,0.18,4.044,1.115c1.106,0.936,1.781,2.445,2.033,4.526l2.025,16.847c0.295,2.439,0.746,4.466,1.356,6.075
				c0.611,1.608,1.506,2.818,2.686,3.626c1.179,0.811,2.68,1.105,4.506,0.884c1.772-0.213,3.381-0.94,4.821-2.185
				c1.44-1.241,2.418-2.754,2.935-4.538c0.412-1.559,0.314-4.858-0.291-9.897l-1.54-12.798c-0.25-2.082,0.049-3.708,0.899-4.88
				c0.85-1.17,2.061-1.852,3.627-2.04s2.889,0.181,3.966,1.107c1.076,0.927,1.741,2.444,1.994,4.55l3.668,30.495
				c0.24,2.005-0.033,3.563-0.826,4.673c-0.792,1.112-1.908,1.755-3.347,1.928c-1.44,0.173-2.691-0.204-3.754-1.132
				C578.732,559.178,578.087,557.776,577.863,555.9z"/>
		</g>
	</g>
</g>
</svg>
