<?xml version="1.0" encoding="utf-8"?>
<!-- Generator: Adobe Illustrator 16.0.0, SVG Export Plug-In . SVG Version: 6.00 Build 0)  -->
<!DOCTYPE svg PUBLIC "-//W3C//DTD SVG 1.1//EN" "http://www.w3.org/Graphics/SVG/1.1/DTD/svg11.dtd" [
	<!ENTITY ns_flows "http://ns.adobe.com/Flows/1.0/">
	<!ENTITY ns_extend "http://ns.adobe.com/Extensibility/1.0/">
	<!ENTITY ns_ai "http://ns.adobe.com/AdobeIllustrator/10.0/">
	<!ENTITY ns_graphs "http://ns.adobe.com/Graphs/1.0/">
]>
<svg version="1.1" id="Layer_1" xmlns:x="&ns_extend;" xmlns:i="&ns_ai;" xmlns:graph="&ns_graphs;"
	 xmlns="http://www.w3.org/2000/svg" xmlns:xlink="http://www.w3.org/1999/xlink" xmlns:a="http://ns.adobe.com/AdobeSVGViewerExtensions/3.0/"
	 x="0px" y="0px" width="3800px" height="2000px" viewBox="0 0 3800 2000" enable-background="new 0 0 3800 2000"
	 xml:space="preserve">
<rect fill="#FFFFFF" width="3800" height="2000"/>
<path fill="#EBF2F9" d="M2818.977,732.479c-97.438-83.115-214.905-584.358-617.308-323.296
	c-207.902,134.879-558.473-115.793-848.642-29.21c-266.485,79.515-292.172,341.492-266.388,426.858
	c52.084,172.438-110,198.098-260.359,272.186c-235.854,116.216-62.42,524.64,160.394,526.592
	c222.813,1.952,1572.662-3.889,1572.662-3.889s323.684,0.817,458.287-177.83C3162.473,1231.645,3070.653,947.161,2818.977,732.479z"
	/>
<g>
	<g opacity="0.25"  a:adobe-knockout="true"  a:adobe-blending-mode="multiply">
		<g opacity="0"  a:adobe-knockout="false"  a:adobe-blending-mode="normal">
			<path fill="#89D1D7" d="M2871.526,1284h21.261c0-64-50.072-112.545-111.621-112.545c-33.436,0-64.826,14.342-86.128,40.152
				l16.396,13.303c17.251-20.9,42.664-32.078,69.732-32.078C2830.99,1192.832,2871.526,1231,2871.526,1284z"/>
			<path fill="#89D1D7" d="M3128,1548h-486v-214.596l34.197-36.404h418.513l33.29,36.404V1548z M3152.495,1249H2617.99
				l-45.99,49.479V1671h104.512l31.21-40h362.839l29.26,40H3197v-372.521L3152.495,1249z"/>
			<polygon fill="#89D1D7" points="3129.082,1548 2643.348,1548 2690.166,1436 3082.264,1436 			"/>
			<polygon fill="#89D1D7" points="3128,1548.663 3080,1436.008 3080,1297 3094.71,1297 3128,1333.404 			"/>
			<polygon fill="#89D1D7" points="2690,1436.008 2690,1297 2676.197,1297 2642,1333.404 2642,1547.2 			"/>
			<polygon fill="#89D1D7" points="3112.99,1209 2658.934,1209 2617.99,1249 3152.495,1249 			"/>
			<g>
				<path fill="#89D1D7" d="M2719,1465.898v53.154l40,18.605v-53.154L2719,1465.898z"/>
				<path fill="#89D1D7" d="M2758.661,1446.85l-39.632,19.049l40.063,18.605l40.063-18.605L2758.661,1446.85z"/>
				<path fill="#89D1D7" d="M2759,1484.504v53.154l40-18.605v-53.154L2759,1484.504z"/>
			</g>
			<g>
				<path fill="#89D1D7" d="M2842,1465.898v53.154l40,18.605v-53.154L2842,1465.898z"/>
				<path fill="#89D1D7" d="M2882.492,1446.85l-39.632,19.049l40.064,18.605l40.063-18.605L2882.492,1446.85z"/>
				<path fill="#89D1D7" d="M2882,1484.504v53.154l40-18.605v-53.154L2882,1484.504z"/>
			</g>
			<g>
				<path fill="#89D1D7" d="M2965,1465.898v53.154l40,18.605v-53.154L2965,1465.898z"/>
				<path fill="#89D1D7" d="M3006.322,1446.85l-39.63,19.049l40.062,18.605l40.065-18.605L3006.322,1446.85z"/>
				<path fill="#89D1D7" d="M3005,1484.504v53.154l40-18.605v-53.154L3005,1484.504z"/>
			</g>
			<polygon fill="#89D1D7" points="2919.349,1334.672 2905.994,1334.672 2905.994,1297.279 2852.576,1297.279 2852.576,1334.672 
				2836.551,1334.672 2836.551,1353.368 2858.209,1353.368 2853.279,1369.748 2864.026,1378.76 2864.902,1388.609 
				2880.869,1415.695 2896.271,1388.815 2896.946,1379.172 2907.479,1369.748 2902.551,1353.368 2919.349,1353.368 			"/>
			<polygon fill="#89D1D7" points="2852.576,1297.279 2852.576,1334.672 2836.551,1334.672 2836.551,1353.368 2858.209,1353.368 
				2853.279,1369.748 2864.026,1378.76 2864.902,1388.609 2880.869,1415.695 2881.078,1297.279 			"/>
		</g>
		<g opacity="0.0476"  a:adobe-knockout="false"  a:adobe-blending-mode="normal">
			<path fill="#84C9CE" d="M2866.566,1278h21.26c0-63-50.071-112.279-111.62-112.279c-33.437,0-64.826,14.475-86.128,40.285
				l16.395,13.369c17.251-20.9,42.665-32.311,69.733-32.311C2826.03,1187.064,2866.566,1225,2866.566,1278z"/>
			<path fill="#84C9CE" d="M3123,1543h-486v-215.064l34.237-35.936h418.513l33.25,35.936V1543z M3147.534,1244H2613.03l-46.03,49.01
				V1666h104.551l31.21-40h362.84l29.26,40H3192v-372.99L3147.534,1244z"/>
			<polygon fill="#84C9CE" points="3124.122,1543 2638.387,1543 2685.205,1431 3077.304,1431 			"/>
			<polygon fill="#84C9CE" points="3123,1543.194 3075,1430.539 3075,1292 3089.75,1292 3123,1327.936 			"/>
			<polygon fill="#84C9CE" points="2685,1430.539 2685,1292 2671.237,1292 2637,1327.936 2637,1541.73 			"/>
			<polygon fill="#84C9CE" points="3108.03,1204 2653.973,1204 2613.03,1244 3147.534,1244 			"/>
			<g>
				<polygon fill="#84C9CE" points="2714,1460.43 2714,1513.584 2754,1532.189 2754,1479.034 				"/>
				<polygon fill="#84C9CE" points="2753.7,1441.381 2714.069,1460.43 2754.132,1479.034 2794.196,1460.43 				"/>
				<polygon fill="#84C9CE" points="2754,1479.034 2754,1532.189 2794,1513.584 2794,1460.43 				"/>
			</g>
			<g>
				<polygon fill="#84C9CE" points="2837,1460.43 2837,1513.584 2877,1532.189 2877,1479.034 				"/>
				<polygon fill="#84C9CE" points="2877.531,1441.381 2837.9,1460.43 2877.964,1479.034 2918.028,1460.43 				"/>
				<polygon fill="#84C9CE" points="2877,1479.034 2877,1532.189 2917,1513.584 2917,1460.43 				"/>
			</g>
			<g>
				<polygon fill="#84C9CE" points="2960,1460.43 2960,1513.584 3000,1532.189 3000,1479.034 				"/>
				<polygon fill="#84C9CE" points="3001.362,1441.381 2961.731,1460.43 3001.794,1479.034 3041.858,1460.43 				"/>
				<polygon fill="#84C9CE" points="3000,1479.034 3000,1532.189 3040,1513.584 3040,1460.43 				"/>
			</g>
			<polygon fill="#84C9CE" points="2914.389,1329.203 2901.033,1329.203 2901.033,1291.811 2847.616,1291.811 2847.616,1329.203 
				2831.59,1329.203 2831.59,1347.899 2853.248,1347.899 2848.319,1364.278 2859.066,1373.291 2859.942,1383.141 2875.908,1410.226 
				2891.311,1383.347 2891.985,1373.702 2902.519,1364.278 2897.59,1347.899 2914.389,1347.899 			"/>
			<polygon fill="#84C9CE" points="2847.616,1291.811 2847.616,1329.203 2831.59,1329.203 2831.59,1347.899 2853.248,1347.899 
				2848.319,1364.278 2859.066,1373.291 2859.942,1383.141 2875.908,1410.226 2876.118,1291.811 			"/>
		</g>
		<g opacity="0.0952"  a:adobe-knockout="false"  a:adobe-blending-mode="normal">
			<path fill="#7FC0C6" d="M2861.605,1273h21.261c0-64-50.072-112.514-111.621-112.514c-33.436,0-64.825,14.357-86.127,40.168
				l16.396,13.31c17.25-20.899,42.663-32.105,69.731-32.105C2821.07,1181.858,2861.605,1220,2861.605,1273z"/>
			<path fill="#7FC0C6" d="M3118,1537h-486v-214.533l34.276-36.467h418.514l33.21,36.467V1537z M3142.574,1238H2608.07
				l-46.07,49.541V1660h104.591l31.211-40h362.838l29.26,40H3187v-372.459L3142.574,1238z"/>
			<polygon fill="#7FC0C6" points="3119.162,1537 2633.428,1537 2680.245,1425 3072.344,1425 			"/>
			<polygon fill="#7FC0C6" points="3118,1537.726 3070,1425.069 3070,1286 3084.79,1286 3118,1322.467 			"/>
			<polygon fill="#7FC0C6" points="2680,1425.069 2680,1286 2666.276,1286 2632,1322.467 2632,1536.262 			"/>
			<polygon fill="#7FC0C6" points="3103.069,1198 2649.014,1198 2608.07,1238 3142.574,1238 			"/>
			<g>
				<polygon fill="#7FC0C6" points="2709,1454.961 2709,1508.114 2749,1526.72 2749,1473.565 				"/>
				<polygon fill="#7FC0C6" points="2748.74,1435.911 2709.108,1454.961 2749.172,1473.565 2789.236,1454.961 				"/>
				<polygon fill="#7FC0C6" points="2749,1473.565 2749,1526.72 2789,1508.114 2789,1454.961 				"/>
			</g>
			<g>
				<polygon fill="#7FC0C6" points="2832,1454.961 2832,1508.114 2872,1526.72 2872,1473.565 				"/>
				<polygon fill="#7FC0C6" points="2872.571,1435.911 2832.939,1454.961 2873.004,1473.565 2913.068,1454.961 				"/>
				<polygon fill="#7FC0C6" points="2872,1473.565 2872,1526.72 2912,1508.114 2912,1454.961 				"/>
			</g>
			<g>
				<polygon fill="#7FC0C6" points="2955,1454.961 2955,1508.114 2995,1526.72 2995,1473.565 				"/>
				<polygon fill="#7FC0C6" points="2996.402,1435.911 2956.771,1454.961 2996.834,1473.565 3036.898,1454.961 				"/>
				<polygon fill="#7FC0C6" points="2995,1473.565 2995,1526.72 3035,1508.114 3035,1454.961 				"/>
			</g>
			<polygon fill="#7FC0C6" points="2909.429,1323.733 2896.073,1323.733 2896.073,1286.342 2842.656,1286.342 2842.656,1323.733 
				2826.63,1323.733 2826.63,1342.43 2848.288,1342.43 2843.358,1358.81 2854.105,1367.821 2854.981,1377.671 2870.948,1404.758 
				2886.351,1377.877 2887.025,1368.234 2897.558,1358.81 2892.631,1342.43 2909.429,1342.43 			"/>
			<polygon fill="#7FC0C6" points="2842.656,1286.342 2842.656,1323.733 2826.63,1323.733 2826.63,1342.43 2848.288,1342.43 
				2843.358,1358.81 2854.105,1367.821 2854.981,1377.671 2870.948,1404.758 2871.158,1286.342 			"/>
		</g>
		<g opacity="0.1429"  a:adobe-knockout="false"  a:adobe-blending-mode="normal">
			<path fill="#7AB8BD" d="M2856.646,1268h21.261c0-64-50.072-112.748-111.621-112.748c-33.436,0-64.826,14.24-86.128,40.051
				l16.396,13.251c17.251-20.899,42.664-31.899,69.732-31.899C2816.109,1176.654,2856.646,1214,2856.646,1268z"/>
			<path fill="#7AB8BD" d="M3113,1532h-486v-215.003l34.316-35.997h418.513l33.171,35.997V1532z M3137.614,1233h-534.505
				L2557,1282.071V1655h104.631l31.21-40h362.839l29.26,40H3182v-372.929L3137.614,1233z"/>
			<polygon fill="#7AB8BD" points="3114.201,1532 2628.467,1532 2675.285,1420 3067.383,1420 			"/>
			<polygon fill="#7AB8BD" points="3113,1532.256 3065,1419.601 3065,1281 3079.829,1281 3113,1316.997 			"/>
			<polygon fill="#7AB8BD" points="2675,1419.601 2675,1281 2661.316,1281 2627,1316.997 2627,1530.793 			"/>
			<polygon fill="#7AB8BD" points="3098.109,1193 2644.053,1193 2603.109,1233 3137.614,1233 			"/>
			<g>
				<polygon fill="#7AB8BD" points="2704,1449.492 2704,1502.646 2744,1521.252 2744,1468.097 				"/>
				<polygon fill="#7AB8BD" points="2743.78,1430.442 2704.148,1449.492 2744.212,1468.097 2784.275,1449.492 				"/>
				<polygon fill="#7AB8BD" points="2744,1468.097 2744,1521.252 2784,1502.646 2784,1449.492 				"/>
			</g>
			<g>
				<polygon fill="#7AB8BD" points="2827,1449.492 2827,1502.646 2867,1521.252 2867,1468.097 				"/>
				<polygon fill="#7AB8BD" points="2867.611,1430.442 2827.979,1449.492 2868.044,1468.097 2908.107,1449.492 				"/>
				<polygon fill="#7AB8BD" points="2867,1468.097 2867,1521.252 2907,1502.646 2907,1449.492 				"/>
			</g>
			<g>
				<polygon fill="#7AB8BD" points="2950,1449.492 2950,1502.646 2990,1521.252 2990,1468.097 				"/>
				<polygon fill="#7AB8BD" points="2991.441,1430.442 2951.812,1449.492 2991.873,1468.097 3031.938,1449.492 				"/>
				<polygon fill="#7AB8BD" points="2990,1468.097 2990,1521.252 3030,1502.646 3030,1449.492 				"/>
			</g>
			<polygon fill="#7AB8BD" points="2904.468,1318.265 2891.113,1318.265 2891.113,1280.872 2837.695,1280.872 2837.695,1318.265 
				2821.67,1318.265 2821.67,1336.961 2843.328,1336.961 2838.398,1353.341 2849.146,1362.353 2850.021,1372.202 2865.988,1399.289 
				2881.391,1372.408 2882.065,1362.765 2892.598,1353.341 2887.67,1336.961 2904.468,1336.961 			"/>
			<polygon fill="#7AB8BD" points="2837.695,1280.872 2837.695,1318.265 2821.67,1318.265 2821.67,1336.961 2843.328,1336.961 
				2838.398,1353.341 2849.146,1362.353 2850.021,1372.202 2865.988,1399.289 2866.197,1280.872 			"/>
		</g>
		<g opacity="0.1905"  a:adobe-knockout="false"  a:adobe-blending-mode="normal">
			<path fill="#76AFB4" d="M2851.686,1262h21.261c0-64-50.072-112.482-111.621-112.482c-33.436,0-64.826,14.373-86.128,40.184
				l16.396,13.317c17.251-20.9,42.663-32.132,69.732-32.132C2811.149,1170.887,2851.686,1209,2851.686,1262z"/>
			<path fill="#76AFB4" d="M3108,1526h-486v-214.473l34.356-36.527h418.513l33.131,36.527V1526z M3132.654,1227h-534.505
				L2552,1276.603V1649h104.671l31.21-40h362.839l29.26,40H3177v-372.397L3132.654,1227z"/>
			<polygon fill="#76AFB4" points="3109.241,1526 2623.506,1526 2670.324,1414 3062.422,1414 			"/>
			<polygon fill="#76AFB4" points="3108,1526.787 3060,1414.132 3060,1275 3074.869,1275 3108,1311.527 			"/>
			<polygon fill="#76AFB4" points="2670,1414.132 2670,1275 2656.356,1275 2622,1311.527 2622,1525.324 			"/>
			<polygon fill="#76AFB4" points="3093.148,1187 2639.092,1187 2598.149,1227 3132.654,1227 			"/>
			<g>
				<polygon fill="#76AFB4" points="2699,1444.022 2699,1497.177 2739,1515.782 2739,1462.628 				"/>
				<polygon fill="#76AFB4" points="2738.82,1424.974 2699.188,1444.022 2739.252,1462.628 2779.315,1444.022 				"/>
				<polygon fill="#76AFB4" points="2739,1462.628 2739,1515.782 2779,1497.177 2779,1444.022 				"/>
			</g>
			<g>
				<polygon fill="#76AFB4" points="2822,1444.022 2822,1497.177 2862,1515.782 2862,1462.628 				"/>
				<polygon fill="#76AFB4" points="2862.651,1424.974 2823.02,1444.022 2863.083,1462.628 2903.147,1444.022 				"/>
				<polygon fill="#76AFB4" points="2862,1462.628 2862,1515.782 2902,1497.177 2902,1444.022 				"/>
			</g>
			<g>
				<polygon fill="#76AFB4" points="2945,1444.022 2945,1497.177 2985,1515.782 2985,1462.628 				"/>
				<polygon fill="#76AFB4" points="2986.481,1424.974 2946.851,1444.022 2986.913,1462.628 3026.979,1444.022 				"/>
				<polygon fill="#76AFB4" points="2985,1462.628 2985,1515.782 3025,1497.177 3025,1444.022 				"/>
			</g>
			<polygon fill="#76AFB4" points="2899.508,1312.796 2886.153,1312.796 2886.153,1275.403 2832.734,1275.403 2832.734,1312.796 
				2816.71,1312.796 2816.71,1331.492 2838.367,1331.492 2833.438,1347.872 2844.186,1356.884 2845.062,1366.733 2861.028,1393.819 
				2876.431,1366.939 2877.105,1357.296 2887.638,1347.872 2882.709,1331.492 2899.508,1331.492 			"/>
			<polygon fill="#76AFB4" points="2832.734,1275.403 2832.734,1312.796 2816.71,1312.796 2816.71,1331.492 2838.367,1331.492 
				2833.438,1347.872 2844.186,1356.884 2845.062,1366.733 2861.028,1393.819 2861.237,1275.403 			"/>
		</g>
		<g opacity="0.2381"  a:adobe-knockout="false"  a:adobe-blending-mode="normal">
			<path fill="#71A7AB" d="M2846.725,1257h21.262c0-64-50.073-112.717-111.622-112.717c-33.436,0-64.825,14.256-86.128,40.065
				l16.396,13.26c17.25-20.9,42.663-31.927,69.731-31.927C2806.188,1165.682,2846.725,1203,2846.725,1257z"/>
			<path fill="#71A7AB" d="M3103,1521h-486v-214.941l34.396-36.059h418.512l33.092,36.059V1521z M3127.693,1222h-534.505
				L2547,1271.134V1644h104.711l31.209-40h362.839l29.26,40H3172v-372.866L3127.693,1222z"/>
			<polygon fill="#71A7AB" points="3104.281,1521 2618.546,1521 2665.364,1409 3057.462,1409 			"/>
			<polygon fill="#71A7AB" points="3103,1521.318 3055,1408.663 3055,1270 3069.908,1270 3103,1306.059 			"/>
			<polygon fill="#71A7AB" points="2665,1408.663 2665,1270 2651.396,1270 2617,1306.059 2617,1519.854 			"/>
			<polygon fill="#71A7AB" points="3088.188,1182 2634.132,1182 2593.188,1222 3127.693,1222 			"/>
			<g>
				<polygon fill="#71A7AB" points="2694,1438.554 2694,1491.708 2734,1510.313 2734,1457.158 				"/>
				<polygon fill="#71A7AB" points="2733.859,1419.504 2694.228,1438.554 2734.291,1457.158 2774.355,1438.554 				"/>
				<polygon fill="#71A7AB" points="2734,1457.158 2734,1510.313 2774,1491.708 2774,1438.554 				"/>
			</g>
			<g>
				<polygon fill="#71A7AB" points="2817,1438.554 2817,1491.708 2857,1510.313 2857,1457.158 				"/>
				<polygon fill="#71A7AB" points="2857.691,1419.504 2818.059,1438.554 2858.123,1457.158 2898.187,1438.554 				"/>
				<polygon fill="#71A7AB" points="2857,1457.158 2857,1510.313 2897,1491.708 2897,1438.554 				"/>
			</g>
			<g>
				<polygon fill="#71A7AB" points="2940,1438.554 2940,1491.708 2980,1510.313 2980,1457.158 				"/>
				<polygon fill="#71A7AB" points="2981.521,1419.504 2941.891,1438.554 2981.953,1457.158 3022.018,1438.554 				"/>
				<polygon fill="#71A7AB" points="2980,1457.158 2980,1510.313 3020,1491.708 3020,1438.554 				"/>
			</g>
			<polygon fill="#71A7AB" points="2894.547,1307.327 2881.193,1307.327 2881.193,1269.935 2827.774,1269.935 2827.774,1307.327 
				2811.749,1307.327 2811.749,1326.022 2833.407,1326.022 2828.479,1342.402 2839.225,1351.414 2840.101,1361.264 
				2856.068,1388.351 2871.471,1361.471 2872.146,1351.826 2882.677,1342.402 2877.75,1326.022 2894.547,1326.022 			"/>
			<polygon fill="#71A7AB" points="2827.774,1269.935 2827.774,1307.327 2811.749,1307.327 2811.749,1326.022 2833.407,1326.022 
				2828.479,1342.402 2839.225,1351.414 2840.101,1361.264 2856.068,1388.351 2856.277,1269.935 			"/>
		</g>
		<g opacity="0.2857"  a:adobe-knockout="false"  a:adobe-blending-mode="normal">
			<path fill="#6C9EA3" d="M2841.765,1251h21.261c0-64-50.072-112.452-111.621-112.452c-33.436,0-64.826,14.388-86.128,40.198
				l16.396,13.326c17.252-20.9,42.664-32.159,69.732-32.159C2801.229,1159.913,2841.765,1198,2841.765,1251z"/>
			<path fill="#6C9EA3" d="M3098,1516h-486v-215.41l34.436-36.59h418.513l33.052,36.59V1516z M3122.733,1216h-534.505L2542,1265.665
				V1638h104.75l31.21-40h362.839l29.26,40H3167v-372.335L3122.733,1216z"/>
			<polygon fill="#6C9EA3" points="3099.32,1516 2613.586,1516 2660.404,1403 3052.502,1403 			"/>
			<polygon fill="#6C9EA3" points="3098,1515.85 3050,1403.193 3050,1264 3064.948,1264 3098,1300.59 			"/>
			<polygon fill="#6C9EA3" points="2660,1403.193 2660,1264 2646.436,1264 2612,1300.59 2612,1514.386 			"/>
			<polygon fill="#6C9EA3" points="3083.229,1176 2629.172,1176 2588.229,1216 3122.733,1216 			"/>
			<g>
				<polygon fill="#6C9EA3" points="2689,1433.084 2689,1486.239 2729,1504.844 2729,1451.689 				"/>
				<polygon fill="#6C9EA3" points="2728.899,1414.035 2689.268,1433.084 2729.331,1451.689 2769.395,1433.084 				"/>
				<polygon fill="#6C9EA3" points="2729,1451.689 2729,1504.844 2769,1486.239 2769,1433.084 				"/>
			</g>
			<g>
				<polygon fill="#6C9EA3" points="2812,1433.084 2812,1486.239 2852,1504.844 2852,1451.689 				"/>
				<polygon fill="#6C9EA3" points="2852.73,1414.035 2813.1,1433.084 2853.162,1451.689 2893.227,1433.084 				"/>
				<polygon fill="#6C9EA3" points="2852,1451.689 2852,1504.844 2892,1486.239 2892,1433.084 				"/>
			</g>
			<g>
				<polygon fill="#6C9EA3" points="2935,1433.084 2935,1486.239 2975,1504.844 2975,1451.689 				"/>
				<polygon fill="#6C9EA3" points="2976.561,1414.035 2936.93,1433.084 2976.992,1451.689 3017.058,1433.084 				"/>
				<polygon fill="#6C9EA3" points="2975,1451.689 2975,1504.844 3015,1486.239 3015,1433.084 				"/>
			</g>
			<polygon fill="#6C9EA3" points="2889.587,1301.857 2876.232,1301.857 2876.232,1264.465 2822.814,1264.465 2822.814,1301.857 
				2806.789,1301.857 2806.789,1320.554 2828.447,1320.554 2823.518,1336.934 2834.264,1345.945 2835.141,1355.795 
				2851.107,1382.881 2866.51,1356.002 2867.186,1346.357 2877.717,1336.934 2872.789,1320.554 2889.587,1320.554 			"/>
			<polygon fill="#6C9EA3" points="2822.814,1264.465 2822.814,1301.857 2806.789,1301.857 2806.789,1320.554 2828.447,1320.554 
				2823.518,1336.934 2834.264,1345.945 2835.141,1355.795 2851.107,1382.881 2851.317,1264.465 			"/>
		</g>
		<g opacity="0.3333"  a:adobe-knockout="false"  a:adobe-blending-mode="normal">
			<path fill="#67969A" d="M2836.805,1246h21.261c0-64-50.072-112.686-111.621-112.686c-33.437,0-64.825,14.271-86.128,40.08
				l16.396,13.268c17.251-20.9,42.664-31.953,69.732-31.953C2796.269,1154.709,2836.805,1192,2836.805,1246z"/>
			<path fill="#67969A" d="M3093,1510h-486v-214.879l34.477-36.121h418.512l33.012,36.121V1510z M3117.773,1211h-534.505
				L2537,1260.195V1633h104.79l31.21-40h362.838l29.26,40H3162v-372.805L3117.773,1211z"/>
			<polygon fill="#67969A" points="3094.359,1510 2608.626,1510 2655.443,1398 3047.542,1398 			"/>
			<polygon fill="#67969A" points="3093,1510.381 3045,1397.725 3045,1259 3059.988,1259 3093,1295.121 			"/>
			<polygon fill="#67969A" points="2655,1397.725 2655,1259 2641.477,1259 2607,1295.121 2607,1508.917 			"/>
			<polygon fill="#67969A" points="3078.268,1171 2624.212,1171 2583.269,1211 3117.773,1211 			"/>
			<g>
				<polygon fill="#67969A" points="2684,1427.615 2684,1480.771 2724,1499.375 2724,1446.221 				"/>
				<polygon fill="#67969A" points="2723.939,1408.566 2684.308,1427.615 2724.371,1446.221 2764.435,1427.615 				"/>
				<polygon fill="#67969A" points="2724,1446.221 2724,1499.375 2764,1480.771 2764,1427.615 				"/>
			</g>
			<g>
				<polygon fill="#67969A" points="2807,1427.615 2807,1480.771 2847,1499.375 2847,1446.221 				"/>
				<polygon fill="#67969A" points="2847.771,1408.566 2808.139,1427.615 2848.203,1446.221 2888.267,1427.615 				"/>
				<polygon fill="#67969A" points="2847,1446.221 2847,1499.375 2887,1480.771 2887,1427.615 				"/>
			</g>
			<g>
				<polygon fill="#67969A" points="2930,1427.615 2930,1480.771 2970,1499.375 2970,1446.221 				"/>
				<polygon fill="#67969A" points="2971.601,1408.566 2931.97,1427.615 2972.033,1446.221 3012.098,1427.615 				"/>
				<polygon fill="#67969A" points="2970,1446.221 2970,1499.375 3010,1480.771 3010,1427.615 				"/>
			</g>
			<polygon fill="#67969A" points="2884.627,1296.389 2871.272,1296.389 2871.272,1258.996 2817.854,1258.996 2817.854,1296.389 
				2801.828,1296.389 2801.828,1315.084 2823.486,1315.084 2818.558,1331.465 2829.304,1340.477 2830.181,1350.326 
				2846.147,1377.412 2861.55,1350.532 2862.225,1340.889 2872.757,1331.465 2867.829,1315.084 2884.627,1315.084 			"/>
			<polygon fill="#67969A" points="2817.854,1258.996 2817.854,1296.389 2801.828,1296.389 2801.828,1315.084 2823.486,1315.084 
				2818.558,1331.465 2829.304,1340.477 2830.181,1350.326 2846.147,1377.412 2846.356,1258.996 			"/>
		</g>
		<g opacity="0.381"  a:adobe-knockout="false"  a:adobe-blending-mode="normal">
			<path fill="#628D91" d="M2831.844,1240h21.262c0-64-50.073-112.421-111.622-112.421c-33.436,0-64.825,14.404-86.128,40.214
				l16.396,13.334c17.251-20.9,42.664-32.187,69.731-32.187C2791.309,1148.94,2831.844,1187,2831.844,1240z"/>
			<path fill="#628D91" d="M3088,1505h-486v-215.348l34.516-35.652h418.512l32.973,35.652V1505z M3112.813,1205h-534.505
				L2532,1254.727V1627h104.83l31.21-40h362.838l29.26,40H3157v-372.273L3112.813,1205z"/>
			<polygon fill="#628D91" points="3089.399,1505 2603.666,1505 2650.483,1392 3042.582,1392 			"/>
			<polygon fill="#628D91" points="3088,1504.912 3040,1392.256 3040,1254 3055.027,1254 3088,1289.652 			"/>
			<polygon fill="#628D91" points="2650,1392.256 2650,1254 2636.516,1254 2602,1289.652 2602,1503.447 			"/>
			<polygon fill="#628D91" points="3073.307,1165 2619.252,1165 2578.308,1205 3112.813,1205 			"/>
			<g>
				<polygon fill="#628D91" points="2679,1422.146 2679,1475.302 2719,1493.906 2719,1440.752 				"/>
				<polygon fill="#628D91" points="2718.979,1403.098 2679.348,1422.146 2719.41,1440.752 2759.475,1422.146 				"/>
				<polygon fill="#628D91" points="2719,1440.752 2719,1493.906 2759,1475.302 2759,1422.146 				"/>
			</g>
			<g>
				<polygon fill="#628D91" points="2802,1422.146 2802,1475.302 2842,1493.906 2842,1440.752 				"/>
				<polygon fill="#628D91" points="2842.811,1403.098 2803.179,1422.146 2843.242,1440.752 2883.307,1422.146 				"/>
				<polygon fill="#628D91" points="2842,1440.752 2842,1493.906 2882,1475.302 2882,1422.146 				"/>
			</g>
			<g>
				<polygon fill="#628D91" points="2925,1422.146 2925,1475.302 2965,1493.906 2965,1440.752 				"/>
				<polygon fill="#628D91" points="2966.641,1403.098 2927.01,1422.146 2967.072,1440.752 3007.137,1422.146 				"/>
				<polygon fill="#628D91" points="2965,1440.752 2965,1493.906 3005,1475.302 3005,1422.146 				"/>
			</g>
			<polygon fill="#628D91" points="2879.666,1290.92 2866.313,1290.92 2866.313,1253.527 2812.894,1253.527 2812.894,1290.92 
				2796.868,1290.92 2796.868,1309.615 2818.526,1309.615 2813.597,1325.996 2824.344,1335.008 2825.22,1344.857 2841.188,1371.943 
				2856.59,1345.063 2857.265,1335.42 2867.796,1325.996 2862.868,1309.615 2879.666,1309.615 			"/>
			<polygon fill="#628D91" points="2812.894,1253.527 2812.894,1290.92 2796.868,1290.92 2796.868,1309.615 2818.526,1309.615 
				2813.597,1325.996 2824.344,1335.008 2825.22,1344.857 2841.188,1371.943 2841.396,1253.527 			"/>
		</g>
		<g opacity="0.4286"  a:adobe-knockout="false"  a:adobe-blending-mode="normal">
			<path fill="#5D8589" d="M2826.884,1235h21.261c0-64-50.072-112.656-111.621-112.656c-33.436,0-64.825,14.288-86.128,40.098
				l16.396,13.274c17.251-20.899,42.664-31.981,69.732-31.981C2786.348,1143.734,2826.884,1182,2826.884,1235z"/>
			<path fill="#5D8589" d="M3083,1499h-486v-214.817l34.556-36.183h418.512l32.933,36.183V1499z M3107.853,1200h-534.505
				L2527,1249.258V1622h104.869l31.211-40h362.838l29.26,40H3152v-372.742L3107.853,1200z"/>
			<polygon fill="#5D8589" points="3084.439,1499 2598.705,1499 2645.523,1387 3037.621,1387 			"/>
			<polygon fill="#5D8589" points="3083,1499.442 3035,1386.786 3035,1248 3050.067,1248 3083,1284.183 			"/>
			<polygon fill="#5D8589" points="2645,1386.786 2645,1248 2631.556,1248 2597,1284.183 2597,1497.979 			"/>
			<polygon fill="#5D8589" points="3068.347,1160 2614.291,1160 2573.348,1200 3107.853,1200 			"/>
			<g>
				<polygon fill="#5D8589" points="2674,1416.678 2674,1469.832 2714,1488.438 2714,1435.282 				"/>
				<polygon fill="#5D8589" points="2714.019,1397.628 2674.387,1416.678 2714.45,1435.282 2754.514,1416.678 				"/>
				<polygon fill="#5D8589" points="2714,1435.282 2714,1488.438 2755,1469.832 2755,1416.678 				"/>
			</g>
			<g>
				<polygon fill="#5D8589" points="2797,1416.678 2797,1469.832 2837,1488.438 2837,1435.282 				"/>
				<polygon fill="#5D8589" points="2837.85,1397.628 2798.219,1416.678 2838.281,1435.282 2878.346,1416.678 				"/>
				<polygon fill="#5D8589" points="2837,1435.282 2837,1488.438 2877,1469.832 2877,1416.678 				"/>
			</g>
			<g>
				<polygon fill="#5D8589" points="2920,1416.678 2920,1469.832 2960,1488.438 2960,1435.282 				"/>
				<polygon fill="#5D8589" points="2961.681,1397.628 2922.049,1416.678 2962.112,1435.282 3002.177,1416.678 				"/>
				<polygon fill="#5D8589" points="2960,1435.282 2960,1488.438 3000,1469.832 3000,1416.678 				"/>
			</g>
			<polygon fill="#5D8589" points="2874.706,1285.451 2861.352,1285.451 2861.352,1248.058 2807.934,1248.058 2807.934,1285.451 
				2791.908,1285.451 2791.908,1304.146 2813.566,1304.146 2808.637,1320.526 2819.384,1329.539 2820.26,1339.388 
				2836.227,1366.475 2851.629,1339.595 2852.305,1329.951 2862.836,1320.526 2857.908,1304.146 2874.706,1304.146 			"/>
			<polygon fill="#5D8589" points="2807.934,1248.058 2807.934,1285.451 2791.908,1285.451 2791.908,1304.146 2813.566,1304.146 
				2808.637,1320.526 2819.384,1329.539 2820.26,1339.388 2836.227,1366.475 2836.437,1248.058 			"/>
		</g>
		<g opacity="0.4762"  a:adobe-knockout="false"  a:adobe-blending-mode="normal">
			<path fill="#587C80" d="M2821.924,1229h21.261c0-64-50.073-112.39-111.621-112.39c-33.437,0-64.825,14.419-86.128,40.229
				l16.396,13.341c17.25-20.899,42.662-32.213,69.731-32.213C2781.387,1137.968,2821.924,1176,2821.924,1229z"/>
			<path fill="#587C80" d="M3078,1494h-486v-215.286l34.596-35.714h418.512l32.893,35.714V1494z M3102.893,1195h-534.506
				L2523,1243.789V1617h103.91l31.209-41h362.838l29.26,41H3148v-373.211L3102.893,1195z"/>
			<polygon fill="#587C80" points="3079.479,1494 2593.745,1494 2640.563,1381 3032.66,1381 			"/>
			<polygon fill="#587C80" points="3078,1493.974 3030,1381.317 3030,1243 3045.107,1243 3078,1278.714 			"/>
			<polygon fill="#587C80" points="2640,1381.317 2640,1243 2626.596,1243 2592,1278.714 2592,1492.51 			"/>
			<polygon fill="#587C80" points="3063.387,1154 2609.331,1154 2568.387,1195 3102.893,1195 			"/>
			<g>
				<polygon fill="#587C80" points="2669,1411.209 2669,1464.363 2709,1482.969 2709,1429.813 				"/>
				<polygon fill="#587C80" points="2709.059,1392.159 2669.426,1411.209 2709.49,1429.813 2749.554,1411.209 				"/>
				<polygon fill="#587C80" points="2709,1429.813 2709,1482.969 2750,1464.363 2750,1411.209 				"/>
			</g>
			<g>
				<polygon fill="#587C80" points="2792,1411.209 2792,1464.363 2832,1482.969 2832,1429.813 				"/>
				<polygon fill="#587C80" points="2832.891,1392.159 2793.258,1411.209 2833.322,1429.813 2873.385,1411.209 				"/>
				<polygon fill="#587C80" points="2832,1429.813 2832,1482.969 2872,1464.363 2872,1411.209 				"/>
			</g>
			<g>
				<polygon fill="#587C80" points="2915,1411.209 2915,1464.363 2955,1482.969 2955,1429.813 				"/>
				<polygon fill="#587C80" points="2956.721,1392.159 2917.089,1411.209 2957.152,1429.813 2997.217,1411.209 				"/>
				<polygon fill="#587C80" points="2955,1429.813 2955,1482.969 2995,1464.363 2995,1411.209 				"/>
			</g>
			<polygon fill="#587C80" points="2869.746,1279.982 2856.392,1279.982 2856.392,1242.589 2802.973,1242.589 2802.973,1279.982 
				2786.947,1279.982 2786.947,1298.678 2808.605,1298.678 2803.676,1315.058 2814.423,1324.069 2815.299,1333.919 
				2831.268,1361.006 2846.67,1334.125 2847.344,1324.481 2857.875,1315.058 2852.948,1298.678 2869.746,1298.678 			"/>
			<polygon fill="#587C80" points="2802.973,1242.589 2802.973,1279.982 2786.947,1279.982 2786.947,1298.678 2808.605,1298.678 
				2803.676,1315.058 2814.423,1324.069 2815.299,1333.919 2831.268,1361.006 2831.477,1242.589 			"/>
		</g>
		<g opacity="0.5238"  a:adobe-knockout="false"  a:adobe-blending-mode="normal">
			<path fill="#547477" d="M2816.963,1224h21.261c0-64-50.071-112.625-111.62-112.625c-33.437,0-64.826,14.303-86.129,40.112
				l16.396,13.283c17.251-20.9,42.664-32.008,69.732-32.008C2776.428,1132.763,2816.963,1171,2816.963,1224z"/>
			<path fill="#547477" d="M3073,1488h-486v-214.756l34.635-36.244h418.512l32.854,36.244V1488z M3097.932,1189h-534.504
				L2518,1238.319V1611h103.949l31.209-40h362.839l29.261,40H3143v-372.681L3097.932,1189z"/>
			<polygon fill="#547477" points="3074.52,1488 2588.784,1488 2635.602,1376 3027.701,1376 			"/>
			<polygon fill="#547477" points="3073,1488.505 3025,1375.849 3025,1237 3040.146,1237 3073,1273.244 			"/>
			<polygon fill="#547477" points="2635,1375.849 2635,1237 2621.635,1237 2587,1273.244 2587,1487.04 			"/>
			<polygon fill="#547477" points="3058.426,1149 2604.37,1149 2563.428,1189 3097.932,1189 			"/>
			<g>
				<polygon fill="#547477" points="2664,1405.74 2664,1458.895 2705,1477.5 2705,1424.344 				"/>
				<polygon fill="#547477" points="2704.098,1386.69 2664.467,1405.74 2704.529,1424.344 2744.594,1405.74 				"/>
				<polygon fill="#547477" points="2705,1424.344 2705,1477.5 2745,1458.895 2745,1405.74 				"/>
			</g>
			<g>
				<polygon fill="#547477" points="2787,1405.74 2787,1458.895 2827,1477.5 2827,1424.344 				"/>
				<polygon fill="#547477" points="2827.93,1386.69 2788.298,1405.74 2828.361,1424.344 2868.426,1405.74 				"/>
				<polygon fill="#547477" points="2827,1424.344 2827,1477.5 2867,1458.895 2867,1405.74 				"/>
			</g>
			<g>
				<polygon fill="#547477" points="2910,1405.74 2910,1458.895 2950,1477.5 2950,1424.344 				"/>
				<polygon fill="#547477" points="2951.76,1386.69 2912.129,1405.74 2952.191,1424.344 2992.256,1405.74 				"/>
				<polygon fill="#547477" points="2950,1424.344 2950,1477.5 2990,1458.895 2990,1405.74 				"/>
			</g>
			<polygon fill="#547477" points="2864.785,1274.513 2851.431,1274.513 2851.431,1237.12 2798.013,1237.12 2798.013,1274.513 
				2781.986,1274.513 2781.986,1293.209 2803.645,1293.209 2798.717,1309.588 2809.463,1318.601 2810.34,1328.45 2826.307,1355.536 
				2841.709,1328.656 2842.384,1319.013 2852.916,1309.588 2847.988,1293.209 2864.785,1293.209 			"/>
			<polygon fill="#547477" points="2798.013,1237.12 2798.013,1274.513 2781.986,1274.513 2781.986,1293.209 2803.645,1293.209 
				2798.717,1309.588 2809.463,1318.601 2810.34,1328.45 2826.307,1355.536 2826.516,1237.12 			"/>
		</g>
		<g opacity="0.5714"  a:adobe-knockout="false"  a:adobe-blending-mode="normal">
			<path fill="#4F6B6E" d="M2812.003,1218h21.261c0-63-50.072-112.359-111.621-112.359c-33.436,0-64.825,14.436-86.128,40.245
				l16.396,13.349c17.251-20.899,42.664-32.24,69.732-32.24C2771.467,1126.994,2812.003,1165,2812.003,1218z"/>
			<path fill="#4F6B6E" d="M3068,1483h-486v-215.225l34.675-35.775h418.512l32.813,35.775V1483z M3092.972,1184h-534.505
				L2513,1232.851V1606h103.988l31.211-40h362.838l29.26,40H3138v-373.149L3092.972,1184z"/>
			<polygon fill="#4F6B6E" points="3069.559,1483 2583.824,1483 2630.642,1371 3022.74,1371 			"/>
			<polygon fill="#4F6B6E" points="3068,1483.035 3020,1370.379 3020,1232 3035.187,1232 3068,1267.775 			"/>
			<polygon fill="#4F6B6E" points="2630,1370.379 2630,1232 2616.675,1232 2582,1267.775 2582,1481.571 			"/>
			<polygon fill="#4F6B6E" points="3053.465,1144 2599.41,1144 2558.467,1184 3092.972,1184 			"/>
			<g>
				<polygon fill="#4F6B6E" points="2660,1400.271 2660,1453.426 2700,1472.03 2700,1418.876 				"/>
				<polygon fill="#4F6B6E" points="2699.139,1381.221 2659.506,1400.271 2699.569,1418.876 2739.633,1400.271 				"/>
				<polygon fill="#4F6B6E" points="2700,1418.876 2700,1472.03 2740,1453.426 2740,1400.271 				"/>
			</g>
			<g>
				<polygon fill="#4F6B6E" points="2782,1400.271 2782,1453.426 2822,1472.03 2822,1418.876 				"/>
				<polygon fill="#4F6B6E" points="2822.969,1381.221 2783.338,1400.271 2823.4,1418.876 2863.465,1400.271 				"/>
				<polygon fill="#4F6B6E" points="2822,1418.876 2822,1472.03 2862,1453.426 2862,1400.271 				"/>
			</g>
			<g>
				<polygon fill="#4F6B6E" points="2905,1400.271 2905,1453.426 2945,1472.03 2945,1418.876 				"/>
				<polygon fill="#4F6B6E" points="2946.8,1381.221 2907.168,1400.271 2947.231,1418.876 2987.296,1400.271 				"/>
				<polygon fill="#4F6B6E" points="2945,1418.876 2945,1472.03 2985,1453.426 2985,1400.271 				"/>
			</g>
			<polygon fill="#4F6B6E" points="2859.825,1269.044 2846.471,1269.044 2846.471,1231.65 2793.053,1231.65 2793.053,1269.044 
				2777.026,1269.044 2777.026,1287.739 2798.686,1287.739 2793.756,1304.119 2804.502,1313.132 2805.379,1322.981 
				2821.346,1350.067 2836.748,1323.188 2837.424,1313.543 2847.955,1304.119 2843.027,1287.739 2859.825,1287.739 			"/>
			<polygon fill="#4F6B6E" points="2793.053,1231.65 2793.053,1269.044 2777.026,1269.044 2777.026,1287.739 2798.686,1287.739 
				2793.756,1304.119 2804.502,1313.132 2805.379,1322.981 2821.346,1350.067 2821.556,1231.65 			"/>
		</g>
		<g opacity="0.619"  a:adobe-knockout="false"  a:adobe-blending-mode="normal">
			<path fill="#4A6366" d="M2807.043,1213h21.261c0-64-50.072-112.594-111.621-112.594c-33.436,0-64.825,14.318-86.128,40.127
				l16.396,13.291c17.251-20.899,42.663-32.035,69.732-32.035C2766.506,1121.789,2807.043,1160,2807.043,1213z"/>
			<path fill="#4A6366" d="M3063,1477h-486v-214.693l34.715-36.307h418.512l32.773,36.307V1477z M3088.012,1178h-534.505
				L2508,1227.382V1600h104.028l31.21-40h362.838l29.261,40H3133v-372.618L3088.012,1178z"/>
			<polygon fill="#4A6366" points="3064.599,1477 2578.863,1477 2625.682,1365 3017.779,1365 			"/>
			<polygon fill="#4A6366" points="3063,1477.566 3015,1364.91 3015,1226 3030.227,1226 3063,1262.307 			"/>
			<polygon fill="#4A6366" points="2625,1364.91 2625,1226 2611.715,1226 2577,1262.307 2577,1476.103 			"/>
			<polygon fill="#4A6366" points="3048.506,1138 2594.449,1138 2553.507,1178 3088.012,1178 			"/>
			<g>
				<polygon fill="#4A6366" points="2655,1394.802 2655,1447.957 2695,1466.562 2695,1413.406 				"/>
				<polygon fill="#4A6366" points="2694.178,1375.752 2654.545,1394.802 2694.609,1413.406 2734.673,1394.802 				"/>
				<polygon fill="#4A6366" points="2695,1413.406 2695,1466.562 2735,1447.957 2735,1394.802 				"/>
			</g>
			<g>
				<polygon fill="#4A6366" points="2777,1394.802 2777,1447.957 2817,1466.562 2817,1413.406 				"/>
				<polygon fill="#4A6366" points="2818.009,1375.752 2778.377,1394.802 2818.44,1413.406 2858.504,1394.802 				"/>
				<polygon fill="#4A6366" points="2817,1413.406 2817,1466.562 2858,1447.957 2858,1394.802 				"/>
			</g>
			<g>
				<polygon fill="#4A6366" points="2900,1394.802 2900,1447.957 2940,1466.562 2940,1413.406 				"/>
				<polygon fill="#4A6366" points="2941.84,1375.752 2902.208,1394.802 2942.271,1413.406 2982.336,1394.802 				"/>
				<polygon fill="#4A6366" points="2940,1413.406 2940,1466.562 2980,1447.957 2980,1394.802 				"/>
			</g>
			<polygon fill="#4A6366" points="2854.865,1263.575 2841.511,1263.575 2841.511,1226.182 2788.092,1226.182 2788.092,1263.575 
				2772.066,1263.575 2772.066,1282.271 2793.725,1282.271 2788.796,1298.65 2799.542,1307.662 2800.418,1317.512 
				2816.386,1344.599 2831.789,1317.718 2832.464,1308.074 2842.995,1298.65 2838.066,1282.271 2854.865,1282.271 			"/>
			<polygon fill="#4A6366" points="2788.092,1226.182 2788.092,1263.575 2772.066,1263.575 2772.066,1282.271 2793.725,1282.271 
				2788.796,1298.65 2799.542,1307.662 2800.418,1317.512 2816.386,1344.599 2816.596,1226.182 			"/>
		</g>
		<g opacity="0.6667"  a:adobe-knockout="false"  a:adobe-blending-mode="normal">
			<path fill="#455A5D" d="M2802.082,1207h21.262c0-63-50.073-112.328-111.621-112.328c-33.437,0-64.825,14.451-86.129,40.26
				l16.396,13.357c17.251-20.9,42.663-32.268,69.732-32.268C2761.546,1116.021,2802.082,1154,2802.082,1207z"/>
			<path fill="#455A5D" d="M3058,1472h-486v-215.162l34.755-35.838h418.511l32.734,35.838V1472z M3083.051,1173h-534.505
				L2503,1221.913V1595h104.068l31.21-40h362.837l29.261,40H3128v-373.087L3083.051,1173z"/>
			<polygon fill="#455A5D" points="3059.638,1472 2573.904,1472 2620.721,1360 3012.819,1360 			"/>
			<polygon fill="#455A5D" points="3058,1472.098 3010,1359.441 3010,1221 3025.266,1221 3058,1256.838 			"/>
			<polygon fill="#455A5D" points="2620,1359.441 2620,1221 2606.755,1221 2572,1256.838 2572,1470.633 			"/>
			<polygon fill="#455A5D" points="3043.545,1133 2589.49,1133 2548.546,1173 3083.051,1173 			"/>
			<g>
				<polygon fill="#455A5D" points="2650,1389.333 2650,1442.488 2690,1461.093 2690,1407.938 				"/>
				<polygon fill="#455A5D" points="2689.218,1370.283 2649.585,1389.333 2689.648,1407.938 2729.713,1389.333 				"/>
				<polygon fill="#455A5D" points="2690,1407.938 2690,1461.093 2730,1442.488 2730,1389.333 				"/>
			</g>
			<g>
				<polygon fill="#455A5D" points="2772,1389.333 2772,1442.488 2813,1461.093 2813,1407.938 				"/>
				<polygon fill="#455A5D" points="2813.049,1370.283 2773.417,1389.333 2813.48,1407.938 2853.544,1389.333 				"/>
				<polygon fill="#455A5D" points="2813,1407.938 2813,1461.093 2853,1442.488 2853,1389.333 				"/>
			</g>
			<g>
				<polygon fill="#455A5D" points="2895,1389.333 2895,1442.488 2935,1461.093 2935,1407.938 				"/>
				<polygon fill="#455A5D" points="2936.88,1370.283 2897.248,1389.333 2937.312,1407.938 2977.375,1389.333 				"/>
				<polygon fill="#455A5D" points="2935,1407.938 2935,1461.093 2975,1442.488 2975,1389.333 				"/>
			</g>
			<polygon fill="#455A5D" points="2849.904,1258.106 2836.551,1258.106 2836.551,1220.713 2783.132,1220.713 2783.132,1258.106 
				2767.106,1258.106 2767.106,1276.801 2788.765,1276.801 2783.835,1293.182 2794.582,1302.193 2795.459,1312.043 
				2811.426,1339.13 2826.828,1312.249 2827.504,1302.605 2838.034,1293.182 2833.106,1276.801 2849.904,1276.801 			"/>
			<polygon fill="#455A5D" points="2783.132,1220.713 2783.132,1258.106 2767.106,1258.106 2767.106,1276.801 2788.765,1276.801 
				2783.835,1293.182 2794.582,1302.193 2795.459,1312.043 2811.426,1339.13 2811.636,1220.713 			"/>
		</g>
		<g opacity="0.7143"  a:adobe-knockout="false"  a:adobe-blending-mode="normal">
			<path fill="#405254" d="M2797.122,1202h21.261c0-64-50.072-112.563-111.621-112.563c-33.436,0-64.825,14.333-86.128,40.143
				l16.396,13.299c17.251-20.9,42.663-32.063,69.731-32.063C2756.586,1110.816,2797.122,1149,2797.122,1202z"/>
			<path fill="#405254" d="M3053,1466h-486v-214.632l34.794-36.368h418.512l32.694,36.368V1466z M3078.091,1167h-534.505
				L2498,1216.444V1589h104.108l31.21-40h362.837l29.261,40H3123v-372.556L3078.091,1167z"/>
			<polygon fill="#405254" points="3054.678,1466 2568.943,1466 2615.761,1354 3007.859,1354 			"/>
			<polygon fill="#405254" points="3053,1466.629 3005,1353.973 3005,1215 3020.306,1215 3053,1251.368 			"/>
			<polygon fill="#405254" points="2615,1353.973 2615,1215 2601.794,1215 2567,1251.368 2567,1465.164 			"/>
			<polygon fill="#405254" points="3038.584,1127 2584.529,1127 2543.586,1167 3078.091,1167 			"/>
			<g>
				<polygon fill="#405254" points="2645,1383.863 2645,1437.019 2685,1455.623 2685,1402.469 				"/>
				<polygon fill="#405254" points="2684.258,1364.814 2644.625,1383.863 2684.688,1402.469 2724.752,1383.863 				"/>
				<polygon fill="#405254" points="2685,1402.469 2685,1455.623 2725,1437.019 2725,1383.863 				"/>
			</g>
			<g>
				<polygon fill="#405254" points="2767,1383.863 2767,1437.019 2808,1455.623 2808,1402.469 				"/>
				<polygon fill="#405254" points="2808.089,1364.814 2768.457,1383.863 2808.52,1402.469 2848.584,1383.863 				"/>
				<polygon fill="#405254" points="2808,1402.469 2808,1455.623 2848,1437.019 2848,1383.863 				"/>
			</g>
			<g>
				<polygon fill="#405254" points="2890,1383.863 2890,1437.019 2930,1455.623 2930,1402.469 				"/>
				<polygon fill="#405254" points="2931.92,1364.814 2892.287,1383.863 2932.351,1402.469 2972.415,1383.863 				"/>
				<polygon fill="#405254" points="2930,1402.469 2930,1455.623 2970,1437.019 2970,1383.863 				"/>
			</g>
			<polygon fill="#405254" points="2844.944,1252.637 2831.59,1252.637 2831.59,1215.244 2778.171,1215.244 2778.171,1252.637 
				2762.146,1252.637 2762.146,1271.332 2783.804,1271.332 2778.875,1287.713 2789.621,1296.725 2790.498,1306.574 
				2806.466,1333.66 2821.868,1306.78 2822.544,1297.137 2833.074,1287.713 2828.146,1271.332 2844.944,1271.332 			"/>
			<polygon fill="#405254" points="2778.171,1215.244 2778.171,1252.637 2762.146,1252.637 2762.146,1271.332 2783.804,1271.332 
				2778.875,1287.713 2789.621,1296.725 2790.498,1306.574 2806.466,1333.66 2806.676,1215.244 			"/>
		</g>
		<g opacity="0.7619"  a:adobe-knockout="false"  a:adobe-blending-mode="normal">
			<path fill="#3B494C" d="M2792.162,1196h21.26c0-63-50.072-112.298-111.62-112.298c-33.436,0-64.825,14.468-86.128,40.276
				l16.396,13.365c17.251-20.9,42.664-32.295,69.732-32.295C2751.626,1105.049,2792.162,1143,2792.162,1196z"/>
			<path fill="#3B494C" d="M3048,1461h-486v-215.101l34.834-35.899h418.512l32.654,35.899V1461z M3073.131,1162h-534.506
				L2493,1210.975V1584h104.148l31.209-40h362.838l29.261,40H3118v-373.025L3073.131,1162z"/>
			<polygon fill="#3B494C" points="3049.717,1461 2563.983,1461 2610.8,1349 3002.899,1349 			"/>
			<polygon fill="#3B494C" points="3048,1461.16 3000,1348.504 3000,1210 3015.346,1210 3048,1245.899 			"/>
			<polygon fill="#3B494C" points="2610,1348.504 2610,1210 2596.834,1210 2562,1245.899 2562,1459.695 			"/>
			<polygon fill="#3B494C" points="3033.624,1122 2579.569,1122 2538.625,1162 3073.131,1162 			"/>
			<g>
				<polygon fill="#3B494C" points="2640,1378.395 2640,1431.55 2680,1450.154 2680,1396.999 				"/>
				<polygon fill="#3B494C" points="2679.297,1359.345 2639.665,1378.395 2679.729,1396.999 2719.793,1378.395 				"/>
				<polygon fill="#3B494C" points="2680,1396.999 2680,1450.154 2720,1431.55 2720,1378.395 				"/>
			</g>
			<g>
				<polygon fill="#3B494C" points="2763,1378.395 2763,1431.55 2803,1450.154 2803,1396.999 				"/>
				<polygon fill="#3B494C" points="2803.129,1359.345 2763.496,1378.395 2803.56,1396.999 2843.624,1378.395 				"/>
				<polygon fill="#3B494C" points="2803,1396.999 2803,1450.154 2843,1431.55 2843,1378.395 				"/>
			</g>
			<g>
				<polygon fill="#3B494C" points="2885,1378.395 2885,1431.55 2925,1450.154 2925,1396.999 				"/>
				<polygon fill="#3B494C" points="2926.959,1359.345 2887.327,1378.395 2927.391,1396.999 2967.455,1378.395 				"/>
				<polygon fill="#3B494C" points="2925,1396.999 2925,1450.154 2966,1431.55 2966,1378.395 				"/>
			</g>
			<polygon fill="#3B494C" points="2839.984,1247.168 2826.629,1247.168 2826.629,1209.774 2773.211,1209.774 2773.211,1247.168 
				2757.186,1247.168 2757.186,1265.863 2778.844,1265.863 2773.915,1282.243 2784.661,1291.256 2785.537,1301.104 
				2801.505,1328.191 2816.908,1301.312 2817.583,1291.667 2828.113,1282.243 2823.186,1265.863 2839.984,1265.863 			"/>
			<polygon fill="#3B494C" points="2773.211,1209.774 2773.211,1247.168 2757.186,1247.168 2757.186,1265.863 2778.844,1265.863 
				2773.915,1282.243 2784.661,1291.256 2785.537,1301.104 2801.505,1328.191 2801.715,1209.774 			"/>
		</g>
		<g opacity="0.8095"  a:adobe-knockout="false"  a:adobe-blending-mode="normal">
			<path fill="#364143" d="M2787.201,1191h21.261c0-64-50.072-112.532-111.621-112.532c-33.436,0-64.824,14.351-86.128,40.159
				l16.396,13.306c17.251-20.899,42.663-32.09,69.731-32.09C2746.666,1099.843,2787.201,1138,2787.201,1191z"/>
			<path fill="#364143" d="M3043,1455h-486v-214.57l34.874-36.43h418.511l32.615,36.43V1455z M3068.17,1156h-534.505L2488,1205.506
				V1578h104.188l31.21-40h362.838l29.26,40H3113v-372.494L3068.17,1156z"/>
			<polygon fill="#364143" points="3044.757,1455 2559.022,1455 2605.84,1343 2997.938,1343 			"/>
			<polygon fill="#364143" points="3043,1455.691 2995,1343.034 2995,1204 3010.385,1204 3043,1240.43 			"/>
			<polygon fill="#364143" points="2605,1343.034 2605,1204 2591.874,1204 2557,1240.43 2557,1454.226 			"/>
			<polygon fill="#364143" points="3028.664,1116 2574.608,1116 2533.665,1156 3068.17,1156 			"/>
			<g>
				<polygon fill="#364143" points="2635,1372.926 2635,1426.081 2675,1444.686 2675,1391.53 				"/>
				<polygon fill="#364143" points="2674.337,1353.876 2634.704,1372.926 2674.768,1391.53 2714.832,1372.926 				"/>
				<polygon fill="#364143" points="2675,1391.53 2675,1444.686 2715,1426.081 2715,1372.926 				"/>
			</g>
			<g>
				<polygon fill="#364143" points="2758,1372.926 2758,1426.081 2798,1444.686 2798,1391.53 				"/>
				<polygon fill="#364143" points="2798.168,1353.876 2758.536,1372.926 2798.6,1391.53 2838.664,1372.926 				"/>
				<polygon fill="#364143" points="2798,1391.53 2798,1444.686 2838,1426.081 2838,1372.926 				"/>
			</g>
			<g>
				<polygon fill="#364143" points="2880,1372.926 2880,1426.081 2920,1444.686 2920,1391.53 				"/>
				<polygon fill="#364143" points="2921.999,1353.876 2882.366,1372.926 2922.431,1391.53 2962.494,1372.926 				"/>
				<polygon fill="#364143" points="2920,1391.53 2920,1444.686 2961,1426.081 2961,1372.926 				"/>
			</g>
			<polygon fill="#364143" points="2835.023,1241.699 2821.669,1241.699 2821.669,1204.306 2768.25,1204.306 2768.25,1241.699 
				2752.226,1241.699 2752.226,1260.394 2773.883,1260.394 2768.955,1276.774 2779.701,1285.786 2780.578,1295.636 
				2796.545,1322.723 2811.947,1295.842 2812.623,1286.198 2823.153,1276.774 2818.226,1260.394 2835.023,1260.394 			"/>
			<polygon fill="#364143" points="2768.25,1204.306 2768.25,1241.699 2752.226,1241.699 2752.226,1260.394 2773.883,1260.394 
				2768.955,1276.774 2779.701,1285.786 2780.578,1295.636 2796.545,1322.723 2796.755,1204.306 			"/>
		</g>
		<g opacity="0.8571"  a:adobe-knockout="false"  a:adobe-blending-mode="normal">
			<path fill="#32383A" d="M2782.241,1185h21.261c0-63-50.072-112.267-111.621-112.267c-33.436,0-64.824,14.483-86.128,40.292
				l16.396,13.372c17.251-20.899,42.663-32.322,69.731-32.322C2741.705,1094.075,2782.241,1132,2782.241,1185z"/>
			<path fill="#32383A" d="M3038,1450h-486v-215.039l34.914-35.961h418.511l32.575,35.961V1450z M3063.21,1151h-534.505
				L2483,1200.037V1573h104.228l31.21-40h362.837l29.261,40H3108v-372.963L3063.21,1151z"/>
			<polygon fill="#32383A" points="3039.797,1450 2554.063,1450 2600.879,1338 2992.979,1338 			"/>
			<polygon fill="#32383A" points="3038,1450.223 2990,1337.565 2990,1199 3005.425,1199 3038,1234.961 			"/>
			<polygon fill="#32383A" points="2600,1337.565 2600,1199 2586.914,1199 2552,1234.961 2552,1448.757 			"/>
			<polygon fill="#32383A" points="3023.703,1111 2569.648,1111 2528.705,1151 3063.21,1151 			"/>
			<g>
				<polygon fill="#32383A" points="2630,1367.457 2630,1420.611 2670,1439.217 2670,1386.062 				"/>
				<polygon fill="#32383A" points="2669.377,1348.407 2629.744,1367.457 2669.808,1386.062 2709.872,1367.457 				"/>
				<polygon fill="#32383A" points="2670,1386.062 2670,1439.217 2710,1420.611 2710,1367.457 				"/>
			</g>
			<g>
				<polygon fill="#32383A" points="2753,1367.457 2753,1420.611 2793,1439.217 2793,1386.062 				"/>
				<polygon fill="#32383A" points="2793.208,1348.407 2753.576,1367.457 2793.639,1386.062 2833.703,1367.457 				"/>
				<polygon fill="#32383A" points="2793,1386.062 2793,1439.217 2833,1420.611 2833,1367.457 				"/>
			</g>
			<g>
				<polygon fill="#32383A" points="2875,1367.457 2875,1420.611 2916,1439.217 2916,1386.062 				"/>
				<polygon fill="#32383A" points="2917.039,1348.407 2877.406,1367.457 2917.471,1386.062 2957.534,1367.457 				"/>
				<polygon fill="#32383A" points="2916,1386.062 2916,1439.217 2956,1420.611 2956,1367.457 				"/>
			</g>
			<polygon fill="#32383A" points="2830.063,1236.23 2816.709,1236.23 2816.709,1198.837 2763.29,1198.837 2763.29,1236.23 
				2747.265,1236.23 2747.265,1254.925 2768.923,1254.925 2763.994,1271.306 2774.74,1280.317 2775.617,1290.167 2791.585,1317.254 
				2806.987,1290.373 2807.663,1280.729 2818.193,1271.306 2813.266,1254.925 2830.063,1254.925 			"/>
			<polygon fill="#32383A" points="2763.29,1198.837 2763.29,1236.23 2747.265,1236.23 2747.265,1254.925 2768.923,1254.925 
				2763.994,1271.306 2774.74,1280.317 2775.617,1290.167 2791.585,1317.254 2791.795,1198.837 			"/>
		</g>
		<g opacity="0.9048"  a:adobe-knockout="false"  a:adobe-blending-mode="normal">
			<path fill="#2D3031" d="M2777.281,1180h21.26c0-64-50.071-112.501-111.62-112.501c-33.437,0-64.824,14.366-86.128,40.175
				l16.396,13.313c17.25-20.898,42.663-32.116,69.731-32.116C2736.745,1088.87,2777.281,1127,2777.281,1180z"/>
			<path fill="#2D3031" d="M3033,1444h-486v-214.508l34.953-36.492h418.512l32.535,36.492V1444z M3058.25,1145h-534.505
				L2478,1194.568V1567h104.267l31.211-40h362.837l29.261,40H3103v-372.432L3058.25,1145z"/>
			<polygon fill="#2D3031" points="3034.837,1444 2549.103,1444 2595.919,1332 2988.019,1332 			"/>
			<polygon fill="#2D3031" points="3033,1444.754 2985,1332.096 2985,1193 3000.465,1193 3033,1229.492 			"/>
			<polygon fill="#2D3031" points="2595,1332.096 2595,1193 2581.953,1193 2547,1229.492 2547,1443.288 			"/>
			<polygon fill="#2D3031" points="3018.742,1105 2564.688,1105 2523.745,1145 3058.25,1145 			"/>
			<g>
				<polygon fill="#2D3031" points="2625,1361.988 2625,1415.143 2665,1433.747 2665,1380.592 				"/>
				<polygon fill="#2D3031" points="2664.416,1342.938 2624.784,1361.988 2664.848,1380.592 2704.912,1361.988 				"/>
				<polygon fill="#2D3031" points="2665,1380.592 2665,1433.747 2705,1415.143 2705,1361.988 				"/>
			</g>
			<g>
				<polygon fill="#2D3031" points="2748,1361.988 2748,1415.143 2788,1433.747 2788,1380.592 				"/>
				<polygon fill="#2D3031" points="2788.247,1342.938 2748.615,1361.988 2788.679,1380.592 2828.743,1361.988 				"/>
				<polygon fill="#2D3031" points="2788,1380.592 2788,1433.747 2828,1415.143 2828,1361.988 				"/>
			</g>
			<g>
				<polygon fill="#2D3031" points="2871,1361.988 2871,1415.143 2911,1433.747 2911,1380.592 				"/>
				<polygon fill="#2D3031" points="2912.079,1342.938 2872.446,1361.988 2912.511,1380.592 2952.573,1361.988 				"/>
				<polygon fill="#2D3031" points="2911,1380.592 2911,1433.747 2951,1415.143 2951,1361.988 				"/>
			</g>
			<polygon fill="#2D3031" points="2825.104,1230.761 2811.748,1230.761 2811.748,1193.368 2758.33,1193.368 2758.33,1230.761 
				2742.305,1230.761 2742.305,1249.456 2763.963,1249.456 2759.033,1265.836 2769.78,1274.848 2770.656,1284.697 
				2786.625,1311.785 2802.027,1284.904 2802.703,1275.261 2813.233,1265.836 2808.306,1249.456 2825.104,1249.456 			"/>
			<polygon fill="#2D3031" points="2758.33,1193.368 2758.33,1230.761 2742.305,1230.761 2742.305,1249.456 2763.963,1249.456 
				2759.033,1265.836 2769.78,1274.848 2770.656,1284.697 2786.625,1311.785 2786.834,1193.368 			"/>
		</g>
		<g opacity="0.9524"  a:adobe-knockout="false"  a:adobe-blending-mode="normal">
			<path fill="#282729" d="M2772.32,1175h21.261c0-64-50.071-112.736-111.621-112.736c-33.436,0-64.824,14.249-86.127,40.058
				l16.396,13.255c17.251-20.899,42.663-31.911,69.731-31.911C2731.784,1083.665,2772.32,1121,2772.32,1175z"/>
			<path fill="#282729" d="M3028,1439h-486v-214.977l34.993-36.023h418.511l32.496,36.023V1439z M3053.289,1140h-534.504
				L2473,1189.099V1562h104.307l31.21-40h362.838l29.261,40H3098v-372.901L3053.289,1140z"/>
			<polygon fill="#282729" points="3029.876,1439 2544.142,1439 2590.958,1327 2983.058,1327 			"/>
			<polygon fill="#282729" points="3028,1439.284 2980,1326.627 2980,1188 2995.504,1188 3028,1224.023 			"/>
			<polygon fill="#282729" points="2590,1326.627 2590,1188 2576.993,1188 2542,1224.023 2542,1437.818 			"/>
			<polygon fill="#282729" points="3013.783,1100 2559.728,1100 2518.785,1140 3053.289,1140 			"/>
			<g>
				<polygon fill="#282729" points="2620,1356.519 2620,1409.674 2660,1428.278 2660,1375.123 				"/>
				<polygon fill="#282729" points="2659.456,1337.469 2619.823,1356.519 2659.887,1375.123 2699.952,1356.519 				"/>
				<polygon fill="#282729" points="2660,1375.123 2660,1428.278 2700,1409.674 2700,1356.519 				"/>
			</g>
			<g>
				<polygon fill="#282729" points="2743,1356.519 2743,1409.674 2783,1428.278 2783,1375.123 				"/>
				<polygon fill="#282729" points="2783.287,1337.469 2743.656,1356.519 2783.718,1375.123 2823.782,1356.519 				"/>
				<polygon fill="#282729" points="2783,1375.123 2783,1428.278 2823,1409.674 2823,1356.519 				"/>
			</g>
			<g>
				<polygon fill="#282729" points="2866,1356.519 2866,1409.674 2906,1428.278 2906,1375.123 				"/>
				<polygon fill="#282729" points="2907.118,1337.469 2867.485,1356.519 2907.55,1375.123 2947.613,1356.519 				"/>
				<polygon fill="#282729" points="2906,1375.123 2906,1428.278 2946,1409.674 2946,1356.519 				"/>
			</g>
			<polygon fill="#282729" points="2820.143,1225.292 2806.788,1225.292 2806.788,1187.898 2753.369,1187.898 2753.369,1225.292 
				2737.344,1225.292 2737.344,1243.987 2759.002,1243.987 2754.074,1260.367 2764.82,1269.379 2765.697,1279.229 
				2781.664,1306.315 2797.066,1279.436 2797.742,1269.791 2808.273,1260.367 2803.345,1243.987 2820.143,1243.987 			"/>
			<polygon fill="#282729" points="2753.369,1187.898 2753.369,1225.292 2737.344,1225.292 2737.344,1243.987 2759.002,1243.987 
				2754.074,1260.367 2764.82,1269.379 2765.697,1279.229 2781.664,1306.315 2781.874,1187.898 			"/>
		</g>
		<g  a:adobe-knockout="false"  a:adobe-blending-mode="normal">
			<path fill="#231F20" d="M2767.36,1169h21.261c0-64-50.072-112.471-111.621-112.471c-33.436,0-64.824,14.382-86.128,40.19
				l16.396,13.321c17.251-20.899,42.663-32.144,69.731-32.144C2726.824,1077.897,2767.36,1116,2767.36,1169z"/>
			<path fill="#231F20" d="M3024,1433h-487v-214.446l35.033-36.554h418.511l33.456,36.554V1433z M3048.329,1134h-534.505
				L2468,1183.63V1556h104.347l31.21-40h362.837l29.261,40H3093v-372.37L3048.329,1134z"/>
			<polygon fill="#231F20" points="3024.916,1433 2539.182,1433 2585.998,1321 2978.098,1321 			"/>
			<polygon fill="#231F20" points="3024,1433.815 2975,1321.158 2975,1182 2990.544,1182 3024,1218.554 			"/>
			<polygon fill="#231F20" points="2585,1321.158 2585,1182 2572.033,1182 2537,1218.554 2537,1432.35 			"/>
			<polygon fill="#231F20" points="3008.822,1094 2554.768,1094 2513.824,1134 3048.329,1134 			"/>
			<g>
				<path fill="#231F20" d="M2615,1351.05v53.155l40,18.604v-53.155L2615,1351.05z"/>
				<path fill="#231F20" d="M2654.496,1332l-39.633,19.05l40.063,18.604l40.064-18.604L2654.496,1332z"/>
				<path fill="#231F20" d="M2655,1369.654v53.155l40-18.604v-53.155L2655,1369.654z"/>
			</g>
			<g>
				<path fill="#231F20" d="M2738,1351.05v53.155l40,18.604v-53.155L2738,1351.05z"/>
				<path fill="#231F20" d="M2778.327,1332l-39.632,19.05l40.063,18.604l40.064-18.604L2778.327,1332z"/>
				<path fill="#231F20" d="M2778,1369.654v53.155l40-18.604v-53.155L2778,1369.654z"/>
			</g>
			<g>
				<path fill="#231F20" d="M2861,1351.05v53.155l40,18.604v-53.155L2861,1351.05z"/>
				<path fill="#231F20" d="M2902.158,1332l-39.633,19.05l40.064,18.604l40.063-18.604L2902.158,1332z"/>
				<path fill="#231F20" d="M2901,1369.654v53.155l40-18.604v-53.155L2901,1369.654z"/>
			</g>
			<polygon fill="#231F20" points="2815.183,1219.823 2801.828,1219.823 2801.828,1182.43 2748.409,1182.43 2748.409,1219.823 
				2732.384,1219.823 2732.384,1238.518 2754.042,1238.518 2749.113,1254.898 2759.859,1263.91 2760.736,1273.76 2776.704,1300.847 
				2792.106,1273.966 2792.782,1264.322 2803.313,1254.898 2798.385,1238.518 2815.183,1238.518 			"/>
			<polygon fill="#231F20" points="2748.409,1182.43 2748.409,1219.823 2732.384,1219.823 2732.384,1238.518 2754.042,1238.518 
				2749.113,1254.898 2759.859,1263.91 2760.736,1273.76 2776.704,1300.847 2776.914,1182.43 			"/>
		</g>
	</g>
	<path fill="#012670" d="M2767.36,1170h21.261c0-64-50.072-112.971-111.621-112.971c-33.436,0-64.824,14.131-86.128,39.941
		l16.396,13.195c17.251-20.899,42.663-31.707,69.731-31.707C2726.824,1078.459,2767.36,1116,2767.36,1170z"/>
	<path fill="#A2A9ED" d="M3048.329,1135h-534.505L2468,1183.63V1557h104.347l31.21-41h362.837l29.261,41H3093v-373.37L3048.329,1135
		z M3023,1433h-485v-214.446l34.033-37.554h418.511l32.456,37.554V1433z"/>
	<polygon fill="#CCD4CF" points="3024.916,1433 2539.182,1433 2585.998,1322 2978.098,1322 	"/>
	<polygon fill="#999999" points="3023,1433.815 2975,1321.158 2975,1181 2990.544,1181 3023,1218.554 	"/>
	<polygon fill="#999999" points="2585,1321.158 2585,1181 2572.033,1181 2538,1218.554 2538,1432.35 	"/>
	<polygon fill="#CCD4CF" points="3008.822,1095 2554.768,1095 2513.824,1135 3048.329,1135 	"/>
	<g>
		<path fill="#4FD6E8" d="M2615,1351.05v53.155l41,18.604v-53.155L2615,1351.05z"/>
		<path fill="#8CF1F9" d="M2654.496,1332l-39.633,19.05l40.063,18.604l40.064-18.604L2654.496,1332z"/>
		<path fill="#40AAB2" d="M2656,1369.654v53.155l39-18.604v-53.155L2656,1369.654z"/>
	</g>
	<g>
		<path fill="#4FD6E8" d="M2738,1351.05v53.155l39,18.604v-53.155L2738,1351.05z"/>
		<path fill="#8CF1F9" d="M2778.327,1332l-39.632,19.05l40.063,18.604l40.064-18.604L2778.327,1332z"/>
		<path fill="#40AAB2" d="M2777,1369.654v53.155l41-18.604v-53.155L2777,1369.654z"/>
	</g>
	<g>
		<path fill="#4FD6E8" d="M2861,1351.05v53.155l40,18.604v-53.155L2861,1351.05z"/>
		<path fill="#8CF1F9" d="M2902.158,1332l-39.633,19.05l40.064,18.604l40.063-18.604L2902.158,1332z"/>
		<path fill="#40AAB2" d="M2901,1369.654v53.155l40-18.604v-53.155L2901,1369.654z"/>
	</g>
	<polygon fill="#2C2E32" points="2815.183,1219.823 2801.828,1219.823 2801.828,1182.43 2748.409,1182.43 2748.409,1219.823 
		2732.384,1219.823 2732.384,1238.518 2754.042,1238.518 2749.113,1254.898 2759.859,1263.91 2760.736,1273.76 2776.704,1300.847 
		2792.106,1273.966 2792.782,1264.322 2803.313,1254.898 2798.385,1238.518 2815.183,1238.518 	"/>
	<polygon fill="#606266" points="2748.409,1182.43 2748.409,1219.823 2732.384,1219.823 2732.384,1238.518 2754.042,1238.518 
		2749.113,1254.898 2759.859,1263.91 2760.736,1273.76 2776.704,1300.847 2776.914,1182.43 	"/>
</g>
<g>
	<path fill="#F2E7D6" d="M411.322,1595.744c1.038-1.598,2.118-3.416,1.749-5.285c-0.314-1.586-1.599-2.771-2.808-3.838
		c-4.053-3.559-8.098-7.125-12.15-10.684c-1.524-1.34-3.328-2.77-5.344-2.488c-1.831,0.262-3.136,1.865-4.175,3.404
		c-2.666,3.941-4.817,8.203-6.956,12.449c-4.641,9.207-9.28,18.404-13.92,27.607c-0.936,1.846-1.886,3.781-1.878,5.848
		c0.027,5.467,6.628,10.822,11.241,12.754c5.248,2.195,8.677-0.795,11.657-4.961C396.766,1619.35,403.825,1607.311,411.322,1595.744
		z"/>
	<path fill="#F2E7D6" d="M542.436,1662.051c0.211,3.248,0.526,6.75,2.65,9.213c3.267,3.779,9.109,3.441,14.056,2.785
		c0.937-0.123,1.955-0.283,2.611-0.973c0.792-0.836,0.765-2.141,0.705-3.295c-0.622-11.518,0.328-23.117,2.808-34.387
		c1.182-5.398,2.727-10.768,2.924-16.293c0.103-2.891-0.286-6.063-2.357-8.078c-1.811-1.762-4.489-2.23-6.997-2.551
		c-3.95-0.498-8.029-0.824-11.877,0.225c-10.605,2.887-7.237,12.068-6.676,20.563C541,1640.191,541.718,1651.119,542.436,1662.051z"
		/>
	<path fill="#97A8B2" d="M415.394,1386.996c1.894-22.85,2.385-45.795,2.385-68.721c0-41.658-1.64-83.316-4.906-124.846
		c-3.328-42.205-7.783-87.273,12.355-124.508c9.703-17.938,27.901-34.006,48.142-31.518c14.794,1.818,26.992,13.428,33.32,26.926
		c6.321,13.502,7.708,28.742,8.343,43.635c2.036,47.453-2.569,94.914-7.162,142.188c-2.609,26.824-5.22,53.662-9.013,80.35
		c-13.53,95.127-42.148,187.893-82.125,275.268c-1.223,2.67-2.596,5.5-5.132,6.986c-9.745,5.727-37.338-8.404-39.478-19.41
		c-1.64-8.428,5.768-22.889,8.037-31.041c3.28-11.809,6.499-23.637,9.566-35.5C401.611,1480.904,411.485,1434.316,415.394,1386.996z
		"/>
	<path fill="#97A8B2" d="M583.688,1156.232c2.959,25.186,3.335,50.596,3.609,75.955c0.279,26.104,0.464,52.207,0.539,78.314
		c0.082,27.914,0.047,55.832-0.643,83.738c-1.926,78.506-8.979,156.783-16.03,234.994c-10.988,2.689-22.441,3.488-33.703,2.354
		c-7.715-98.291,0.356-198.291-20.227-294.713c-16.619-77.838-51.777-152.764-51.607-232.359
		c0.049-23.875,3.684-50.605,20.104-69.207c12.048-13.646,36.218-26.699,53.431-14.689c15.15,10.572,20.752,36.713,26.021,53.004
		C573.876,1100.514,580.395,1128.148,583.688,1156.232z"/>
	<path fill="#DFE3DF" d="M602.357,1153.516c-1.612,8.268-1.62,16.758-1.858,25.178c-0.444,15.992-1.715,31.947-2.994,47.896
		c-0.437,5.447-0.881,10.934-2.331,16.199c-1.025,3.689-2.542,7.283-2.876,11.102c-0.089,1.004-0.083,2.063,0.355,2.975
		c0.506,1.051,1.503,1.76,2.467,2.402c3.848,2.57,7.866,4.879,12.014,6.912c2.467,1.205,5.24,2.338,7.878,1.58
		c1.306-0.375,2.439-1.189,3.493-2.041c1.804-1.463,3.471-3.104,4.858-4.961c3.061-4.105,4.64-9.104,5.993-14.035
		c5.849-21.258,8.589-43.363,8.111-65.404c-0.211-9.799-1.133-19.881-5.637-28.588c-2.105-4.08-4.941-7.717-8.037-11.094
		c-2.063-2.256-6.642-8.6-9.785-9.1C607.571,1131.512,603.231,1149.031,602.357,1153.516z"/>
	<g>
		<path fill="#EBEFEB" d="M603.738,1179.111c-2.078-7.121-4.509-14.293-4.544-21.775c-0.042-10.227,4.776-20.322,12.423-26.035
			c7.646-5.715,17.89-6.869,26.417-2.99c11.003,5.008,17.973,17.07,22.885,29.078c11.775,28.762,7.354,61.316,11.31,92.586
			c1.777,14.008,2.303,25.199-1.899,32.596c-8.721,15.344-31.386,9.445-53.657,9.139c-19.12-0.258-3.199-29.791-3.314-46.314
			C613.209,1222.932,609.977,1200.488,603.738,1179.111z"/>
		<path fill="#E2E2E2" d="M613.892,1159.564c-0.3-8.607,1.231-16.65,3.151-24.365c0.15-0.615,0.88-0.229,0.745,0.406
			c-1.647,7.729-2.905,15.756-2.372,24.238c0.575,9.242,2.604,18.602,4.046,27.801c0.233,1.465-1.34,1.793-1.599,0.313
			C616.222,1178.611,614.22,1168.977,613.892,1159.564z"/>
		<path fill="#E2E2E2" d="M620.063,1132.941c0.035-0.652,0.745-0.537,0.758,0.141c0.259,16.094,2.181,31.66,5.16,47.684
			c0.314,1.688-1.449,2.008-1.831,0.355C620.446,1165.355,619.264,1148.613,620.063,1132.941z"/>
	</g>
	<path fill="#F2E7D6" d="M543.439,823.601c6.014,1.818,9.396,8.027,12.116,13.688c6.71,13.958,6.437,23.381,12.854,37.474
		c4.449,9.76,8.843,19.62,11.351,30.041c2.194,9.124,9.744,23.138,11.488,32.356c3.101,16.4,9.416,31.992,14.432,47.911
		c5.446,17.285,9.375,35.005,13.291,52.697c3.91,17.645,7.811,35.287,11.72,52.928c1.448,6.551,1.796,15.381-4.428,17.879
		c-3.943,1.578-8.583-0.729-11.044-4.188c-2.459-3.457-3.266-7.789-4.031-11.965c-2.385-13.064-4.96-26.131-9.013-38.779
		c-4.442-13.883-10.613-27.137-16.633-40.404c-15.627-34.397-30.402-69.203-43.229-104.744
		c-6.627-18.362-12.723-36.912-18.298-55.617c-2.871-9.619-5.173-13.857,2.076-21.765
		C530.497,826.304,536.47,821.465,543.439,823.601z"/>
	<path fill="#917F6F" d="M489.052,601.234c-7.477-6.13-17.111-8.925-26.617-10.705c-8.658-1.623-17.528-2.526-26.282-1.568
		c-24.921,2.719-47.232,21.887-53.676,46.113c-7.969,29.955,6.867,60.886,8.739,91.82c0.827,13.695-0.922,27.461-4.175,40.79
		c-1.421,5.823-3.211,11.743-6.978,16.404c-3.765,4.66-9.956,7.817-15.784,6.427c-5.83-1.387-10.114-8.426-7.387-13.763
		c-10.203,13.114-0.958,34.708,14.828,39.885c15.792,5.171,33.668-3.277,43.632-16.575c9.956-13.294,13.359-30.376,14.5-46.95
		c1.148-16.575,0.321-33.322,3.055-49.71c3.314-19.803,14.015-43.625,35.513-48.773c14.412-3.456,31.987-4.532,33.395-23.224
		C502.651,620.299,497.641,608.285,489.052,601.234z"/>
	<path fill="#F2E7D6" d="M548.237,754.851c-0.445,7.059-0.922,14.261-3.259,20.793c-5.221,14.59-18.396,22.755-30.772,29.268
		c-9.478,4.988-20.384,9.728-29.978,5.037c-8.221-4.018-13.004-13.804-19.292-21.16c-4.784-5.59-10.599-9.909-15.15-15.755
		c-10.215-13.12-12.683-32.035-12.744-49.741c-0.081-22.386,3.909-46.862,18.655-61.24c7.743-7.545,17.651-11.441,27.552-13.722
		c9.301-2.143,19.039-2.979,28.182-0.065c11.323,3.611,20.938,12.83,27.655,24.04C555.194,699.178,550.171,724.246,548.237,754.851z
		"/>
	<path fill="#FF8FA0" d="M544.499,698.679c0.888,0.174,2.001,0.273,2.501-0.479c0.3-0.45,0.24-1.048,0.15-1.581
		c-0.862-4.979-3.464-9.454-6.021-13.811c-4.708-8.019-9.97-16.541-18.519-20.186c-3.41-1.452-7.134-2.02-10.838-2.135
		c-20.61-0.657-39.163,11.986-54.757,25.488c-4.154,3.598-8.465,7.736-9.333,13.162c-0.731,4.599,2.2,18.956,7.598,19.824
		c5.03,0.813,14.371-7.982,18.826-10.253c13.928-7.098,29.384-11.184,44.999-11.904C527.606,696.41,536.155,697.018,544.499,698.679
		z"/>
	<path fill="#998675" d="M506.409,699.547c7.306,9.495,16.304,18.047,27.333,22.728c11.03,4.681,24.321,5.03,34.625-1.086
		c1.026-0.609,2.159-1.606,1.859-2.769c-4.395,1.971-9.56-1.562-11.556-5.944c-1.989-4.381-1.885-9.383-2.699-14.129
		c-1.551-9.064-6.458-17.172-11.658-24.751c-4.537-6.607-9.444-13.076-15.648-18.142c-6.212-5.067-13.886-8.676-21.902-8.771
		c-3.614-0.049-7.393,0.693-10.209,2.962c-3.458,2.786-4.913,7.47-4.831,11.905c0.123,6.293,2.713,12.76,4.394,18.808
		C498.092,687.451,501.953,693.745,506.409,699.547z"/>
	<path fill="#998675" d="M523.779,655.59c-7.558-8.634-17.207-15.594-28.132-19.106c-10.928-3.516-23.139-3.423-33.669,1.144
		c-11.145,4.845-19.66,14.187-27.156,23.76c-6.383,8.16-12.397,16.886-15.287,26.833c-1.934,6.627-2.419,13.608-2.172,20.505
		c1.126,31.486,18.237,61.983,44.525,79.35c-0.171-8.599-6.177-16.191-6.751-24.777c-0.26-3.882,0.608-7.873-0.417-11.628
		c-0.745-2.712-2.412-5.063-3.943-7.424c-1.538-2.362-2.993-4.903-3.211-7.712c-0.226-2.804,1.134-5.924,3.778-6.888
		c2.652-0.959,6.144,1.346,5.625,4.114c1.093-14.053,8.351-27.514,19.483-36.155c4.318-3.353,9.409-6.076,12.826-10.457
		c3.704-4.745,3.164-9.937,5.269-15.187c4.557-11.393,18.532-2.942,27.128-4.739c2.323-0.486,4.585-2.091,5.09-4.411
		C527.339,660.168,525.557,657.631,523.779,655.59z"/>
	<path fill="#585973" d="M536.312,813.877c0.841-0.007,1.777,0.055,2.358,0.664c0.622,0.652,0.58,1.663,0.561,2.562
		c-0.288,13.066,11.056,23.151,15.942,35.271c2.992,7.416,3.519,15.577,3.519,23.569c0,24.381-4.558,48.517-6.321,72.833
		c-2.105,28.962-0.239,58.051-0.423,87.092c-0.015,2.605-0.076,5.328-1.313,7.623c-1.142,2.129-3.158,3.629-5.159,4.979
		c-21.219,14.277-68.082,9.318-93.612,10.838c-3.239,0.197-6.826,0.232-9.3-1.865c-1.388-1.172-2.214-2.855-2.986-4.504
		c-19.427-41.525-4.975-78.391-20.814-121.415c-5.303-14.388-11.747-28.646-13.223-43.909c-1.476-15.262,3.145-32.24,15.827-40.864
		c9.443-6.423,21.218-7.022,31.475-11.538c8.282-3.648,14.378-10.238,22.181-14.475c8.461-4.594,16.846-2.172,25.975-2.082
		C513.01,818.774,524.354,813.966,536.312,813.877z"/>
	<path fill="#F2E7D6" d="M390.11,989.354c16.34-31.106,32.678-62.215,49.017-93.321c5.344-10.178,10.749-20.522,13.127-31.77
		c1.483-7.011,1.75-14.216,2.016-21.38c0.096-2.661,0.184-5.381-0.643-7.915c-2.917-8.976-16.065-10.536-23.828-5.162
		c-7.764,5.372-11.426,14.794-14.821,23.605c-15.561,40.384-34.278,79.546-55.925,117.013c-0.91,1.57-1.907,3.223-3.534,4.025
		c-4.503,2.209-8.761-3.336-10.743-7.941c-10.018-23.245-20.028-46.488-30.046-69.731c-3.157-7.333-6.383-15.153-5.207-23.049
		c0.709-4.76,3.005-9.219,3.368-14.019c0.636-8.461-4.708-16.08-9.806-22.869c-2.761-3.692-5.659-7.497-9.724-9.679
		c-8.017-4.313-18.916-0.49-23.665,7.271c-4.756,7.758-3.772,18.208,1.142,25.864c3.751,5.842,9.539,10.35,12.355,16.693
		c0.908,2.037,1.476,4.213,2.446,6.22c1.606,3.313,4.223,6.005,6.533,8.87c9.799,12.142,14.302,27.565,19.612,42.24
		c9.634,26.654,22.304,52.37,35.616,77.359C365.209,1045.086,380.256,1008.119,390.11,989.354z"/>
	<path fill="#F2E7D6" d="M611.692,1124.441c-0.144,1.016-0.219,2.23,0.581,2.875c0.799,0.646,2.009,0.324,2.965,0.715
		c1.388,0.561,1.742,2.328,1.934,3.813c0.717,5.57,2.522,11.885,7.667,14.125c4.081,1.777,9.103,0.129,12.082-3.17
		c2.979-3.305,4.148-7.922,4.134-12.367c-0.013-8.441-3.826-16.332-6.526-24.33c-1.661-4.92-2.999-10.143-6.341-14.123
		c-4.975-5.922-14.152-6.57-14.972,2.424C612.314,1104.395,613.113,1114.334,611.692,1124.441z"/>
	<path fill="#DD7A8F" d="M624.129,1696.297c-0.526-5.086-1.237-10.592-4.804-14.256c-1.312-1.348-2.938-2.352-4.599-3.229
		c-6.109-3.227-13.031-4.896-19.947-4.814c-6.054,0.068-12.758,1.285-17.644-2.289c-4.277-3.135-5.856-9.174-10.441-11.83
		c-2.891-1.676-6.704-1.611-9.54,0.166c-0.416,0.258-0.833,0.58-1.011,1.045c-0.15,0.371-0.116,0.785-0.082,1.18
		c0.143,1.625,0.287,3.24,0.423,4.859c-5.487-0.197-10.981-0.197-16.461,0.135c-0.049,10.68,0.177,21.359,0.683,32.031
		c0.061,1.352,0.144,2.756,0.792,3.943c1.046,1.92,3.301,2.814,5.433,3.328c4.04,0.971,8.228,1.08,12.382,1.189
		c18.861,0.48,37.879,0.955,56.465-2.313c3.259-0.568,7.018-1.68,8.146-4.793C624.423,1699.275,624.273,1697.756,624.129,1696.297z"
		/>
	<path fill="#DD7A8F" d="M373.545,1624.99c1.142,2.533,2.351,5.16,4.62,6.977c2.27,1.809,5.917,2.52,8.316,0.852
		c2.377-1.66,2.828-5.049,5.453-6.361c2.501-1.248,5.87,0.24,7.093,2.574c1.223,2.332,0.731,5.131-0.389,7.506
		c-1.402,2.973-3.752,5.572-6.69,7.408c-1.107,0.688-2.357,1.33-2.952,2.418c-0.588,1.066-0.417,2.332-0.232,3.51
		c0.848,5.467,1.735,11.057,4.579,15.945c2.849,4.885,8.083,9.002,14.179,9.273c0.792,0.033,1.633,0.012,2.323,0.375
		c0.882,0.467,1.257,1.424,1.565,2.305c1.599,4.525,3.041,9.941-0.247,13.643c-1.688,1.9-4.305,2.902-6.874,3.617
		c-6.971,1.934-14.46,2.285-21.607,1.014c-1.463-0.258-2.946-0.6-4.154-1.383c-1.478-0.961-2.378-2.465-3.226-3.92
		c-9.574-16.338-19.011-32.742-28.318-49.199c-1.339-2.367-2.713-4.932-2.309-7.568c0.342-2.266,1.948-4.197,3.607-5.918
		c3.875-4.018,9.144-9.109,14.686-11.217C370.088,1614.131,371.271,1619.934,373.545,1624.99z"/>
</g>
</svg>
