<?xml version="1.0" encoding="utf-8"?>
<!-- Generator: Adobe Illustrator 16.0.0, SVG Export Plug-In . SVG Version: 6.00 Build 0)  -->
<!DOCTYPE svg PUBLIC "-//W3C//DTD SVG 1.1//EN" "http://www.w3.org/Graphics/SVG/1.1/DTD/svg11.dtd">
<svg version="1.1" id="Layer_1" xmlns="http://www.w3.org/2000/svg" xmlns:xlink="http://www.w3.org/1999/xlink" x="0px" y="0px"
	 width="3800px" height="2000px" viewBox="0 0 3800 2000" enable-background="new 0 0 3800 2000" xml:space="preserve">
<rect y="-0.237" fill="#FFFFFF" width="3800" height="2000"/>
<path fill="#EBF2F9" d="M2818.978,732.241c-97.438-83.114-214.903-584.357-617.309-323.296
	c-207.902,134.88-558.473-115.792-848.643-29.21c-266.484,79.516-292.172,341.491-266.39,426.856
	c52.084,172.438-110,198.1-260.356,272.188c-235.854,116.216-62.42,524.64,160.394,526.592s1572.662-3.89,1572.662-3.89
	s323.685,0.815,458.287-177.829C3162.473,1231.407,3070.653,946.924,2818.978,732.241z"/>
<g>
	<g id="Baselayer">
		<g>
			<path fill="#ADD8E6" d="M3257,1630.188c0,2.885-2.396,4.813-4.815,4.813h-894.369c-2.42,0-4.813-1.93-4.813-4.813v-506.384
				c0-2.884,2.396-4.804,4.813-4.804h894.369c2.423,0,4.815,1.92,4.815,4.804V1630.188z"/>
			<path fill="#A5D2D3" d="M2584.134,1588.374c-27.289-1.3-54.553-3.677-81.117-10.318c-16.621-4.153-34.243-8.612-48.85-17.911
				c-14.848-9.448-26.905-23.224-33.288-39.711c-7.445-19.229-11.729-39.998-16.297-60.057c-3.103-13.614-6.011-27.298-8.443-41.048
				c-1.902-10.748-3.226-21.593-4.832-32.387c-4.169-28.027-8.137-56.037-11.723-84.146c-3.616-28.354-7.196-56.706-10.513-85.1
				c-2.627-22.483-5.282-44.959-7.767-67.459c-1.139-10.298-2.301-20.594-3.408-30.896c-0.006-0.059-0.284-0.76-0.299-0.76
				c-2.422,0-4.601,2.337-4.601,5.221v506.385c0,2.884,2.396,4.813,4.814,4.813h894.369c2.421,0,4.814-1.93,4.814-4.813v-18.318
				C3237,1617.09,2776.004,1597.511,2584.134,1588.374z"/>
			<path fill="#4C4CCC" d="M3257,1166.672c0,0.271-2.396,0.328-4.815,0.328h-894.369c-2.42,0-4.813-0.058-4.813-0.328v-47.598
				c0-0.271,2.396-0.074,4.813-0.074h894.369c2.423,0,4.815-0.197,4.815,0.074V1166.672z"/>
		</g>
		<g id="lines1">
			<path fill="#80A7CE" d="M3214,1326.531c0,2.883-1.872,4.469-4.293,4.469h-351.828c-2.422,0-4.879-1.586-4.879-4.469v-104.41
				c0-2.882,2.457-5.121,4.879-5.121h351.828c2.421,0,4.293,2.239,4.293,5.121V1326.531z"/>
			<g>
				<path fill="#5D7EDB" d="M3190.709,1247c0,2.884-2.119,5-4.731,5H2877.59c-2.612,0-4.73-2.116-4.73-5l0,0c0-2.884,2.118-5,4.73-5
					h308.388C3188.59,1242,3190.709,1244.116,3190.709,1247L3190.709,1247z"/>
				<path fill="#5D7EDB" d="M3190.709,1270c0,2.883-2.119,5-4.731,5H2877.59c-2.612,0-4.73-2.117-4.73-5l0,0c0-2.883,2.118-5,4.73-5
					h308.388C3188.59,1265,3190.709,1267.117,3190.709,1270L3190.709,1270z"/>
				<path fill="#5D7EDB" d="M3190.709,1292c0,2.884-2.119,5-4.731,5H2877.59c-2.612,0-4.73-2.116-4.73-5l0,0c0-2.884,2.118-5,4.73-5
					h308.388C3188.59,1287,3190.709,1289.116,3190.709,1292L3190.709,1292z"/>
			</g>
		</g>
		<g id="Lines2">
			<path fill="#80A7CE" d="M3214,1458.348c0,2.885-1.872,4.652-4.293,4.652h-351.828c-2.422,0-4.879-1.77-4.879-4.652V1353.94
				c0-2.886,2.457-4.938,4.879-4.938h351.828c2.421,0,4.293,2.055,4.293,4.938V1458.348z"/>
			<g>
				<path fill="#5D7EDB" d="M3190.709,1379c0,2.883-2.119,5-4.731,5H2877.59c-2.612,0-4.73-2.117-4.73-5l0,0c0-2.883,2.118-5,4.73-5
					h308.388C3188.59,1374,3190.709,1376.117,3190.709,1379L3190.709,1379z"/>
				<path fill="#5D7EDB" d="M3190.709,1402c0,2.884-2.119,5-4.731,5H2877.59c-2.612,0-4.73-2.116-4.73-5l0,0c0-2.883,2.118-5,4.73-5
					h308.388C3188.59,1397,3190.709,1399.117,3190.709,1402L3190.709,1402z"/>
				<path fill="#5D7EDB" d="M3190.709,1424c0,2.883-2.119,5-4.731,5H2877.59c-2.612,0-4.73-2.117-4.73-5l0,0c0-2.883,2.118-5,4.73-5
					h308.388C3188.59,1419,3190.709,1421.117,3190.709,1424L3190.709,1424z"/>
			</g>
		</g>
		<g id="Lines3">
			<path fill="#80A7CE" d="M3214,1589.729c0,2.886-1.872,5.271-4.293,5.271h-351.828c-2.422,0-4.879-2.388-4.879-5.271V1485.32
				c0-2.886,2.457-5.32,4.879-5.32h351.828c2.421,0,4.293,2.438,4.293,5.32V1589.729z"/>
			<g>
				<path fill="#5D7EDB" d="M3190.709,1510c0,2.883-2.119,5-4.731,5H2877.59c-2.612,0-4.73-2.117-4.73-5l0,0c0-2.883,2.118-5,4.73-5
					h308.388C3188.59,1505,3190.709,1507.117,3190.709,1510L3190.709,1510z"/>
				<path fill="#5D7EDB" d="M3190.709,1533c0,2.883-2.119,5-4.731,5H2877.59c-2.612,0-4.73-2.117-4.73-5l0,0c0-2.883,2.118-5,4.73-5
					h308.388C3188.59,1528,3190.709,1530.117,3190.709,1533L3190.709,1533z"/>
				<path fill="#5D7EDB" d="M3190.709,1554.5c0,2.884-2.119,5.5-4.731,5.5H2877.59c-2.612,0-4.73-2.616-4.73-5.5l0,0
					c0-2.884,2.118-5.5,4.73-5.5h308.388C3188.59,1549,3190.709,1551.616,3190.709,1554.5L3190.709,1554.5z"/>
			</g>
		</g>
	</g>
	<g id="buttons">
		<circle fill="#9999AD" cx="2379.161" cy="1143.072" r="11.095"/>
		<circle fill="#9999AD" cx="2405.263" cy="1143.072" r="11.095"/>
		<circle fill="#9999AD" cx="2431.365" cy="1143.072" r="11.096"/>
	</g>
	<circle fill="#80A7CE" cx="2611.625" cy="1398.449" r="194.422"/>
</g>
<g>
	<path fill="#EADDD0" d="M698.282,1075.02c1.246,0.594,2.294,1.601,3.473,2.34c3.422,2.154,7.649,1.977,11.618,1.343
		c2.741-0.438,6.028-0.849,7.688,1.597c0.99,1.466,1.031,3.527,0.944,5.437c-0.133,2.734-0.444,5.472-0.936,8.168
		c-0.209,1.14-0.456,2.299-0.989,3.305c-1.006,1.895-2.865,2.967-4.688,3.618c-4.5,1.609-9.246,1.282-13.862,0.895
		c-7.078-0.595-14.167-1.303-21.072-2.964c-1.677-0.399-3.506-0.99-4.375-2.677c-0.711-1.388-0.577-3.155-0.418-4.8
		c0.537-5.619-0.226-12.583,5.175-14.938C684.897,1074.564,694.551,1073.239,698.282,1075.02z"/>
	<path fill="#8ECCCE" d="M536.298,833.77c9.081,5.941,14.467,16.161,17.85,26.474c9.789,29.831,5.719,62.385,11.326,93.274
		c10.77,59.238,60.53,109.396,119.683,120.631c0.364,9.093-1.173,18.254-4.479,26.729c-23.439-10.959-53.226-4.813-76.664-15.769
		c-11.953-5.59-43.881-13.646-54.813-21.028c-28.479-19.229-48.068-49.488-60.333-81.588
		c-12.268-32.096-28.205-63.529-33.718-97.447C450.958,859.243,509.526,816.246,536.298,833.77z"/>
	<g>
		<g>
			<path fill="#443B36" d="M487.88,643.462c10.537,2.43,25.548,9.356,24.928,22.351c-0.115,4.455-2.246,8.676-2.378,13.131
				c-0.315,10.569,10.005,17.933,19.089,23.354c2.207,1.32,4.506,2.738,5.769,4.979c1.263,2.239,1.022,5.549-1.188,6.856
				c-1.998,1.187-4.75,0.358-6.705,1.61c-2.427,1.549-2.14,5.249-0.836,7.818c2.418,4.772,7.033,7.975,11.428,11.037
				c4.396,3.065,8.938,6.436,11.063,11.35c2.127,4.915,0.724,11.767-4.25,13.754c-1.252,0.503-2.687,0.699-3.671,1.62
				c-1.908,1.786-0.928,5.04,0.684,7.104c1.613,2.061,3.817,3.912,4.203,6.5c0.558,3.725-3.214,6.953-6.959,7.274
				c-3.75,0.319-7.343-1.388-10.715-3.056c-2.494,2.438-0.15,7.13-2.177,9.972c-1.218,1.705-3.55,2.093-5.629,2.342
				c-4.621,0.55-9.245,1.101-13.869,1.654c-2.218,0.263-4.506,0.547-6.478,1.608c-3.571,1.924-5.389,5.938-7.986,9.058
				c-2.603,3.113-7.458,5.405-10.571,2.798c-4.006-3.358-0.462-9.613,2.113-14.159c6.467-11.415,5.057-25.473,3.456-38.491
				c-3.125-25.43-6.521-51.659-19.448-73.775c-3.886-6.649-8.763-14.413-5.608-21.439
				C466.329,649.378,477.865,641.149,487.88,643.462z"/>
			<path fill="#443B36" d="M348.437,738.668c-2.985-3.439-0.767-9.021,2.734-11.935c3.504-2.913,8.041-4.433,11.344-7.567
				c7.375-7,6.045-18.831,4.802-28.93c-0.971-7.853-1.522-15.938,0.543-23.573c2.071-7.635,7.198-14.834,14.642-17.519
				c4.793-1.726,10.028-1.465,15.115-1.771c7.525-0.462,29-10.797,27.536,4.247c-1.13,11.54-18.597,20.251-23.607,30.509
				c-5.869,12.016-2.625,26.199-1.362,39.511c1.438,15.209,0.107,30.739,3.522,45.624c2.875,12.542,9.002,24.063,15.062,35.417
				c1.748,3.269,3.494,6.535,5.237,9.808c-4.685,0.179-9.926,0.165-13.325-3.068c-1.117-1.063-1.938-2.396-2.894-3.611
				c-1.651-2.086-3.709-3.808-5.754-5.512c-6.799-5.671-13.888-11.493-22.439-13.788c-3.227-0.871-7.293-1.855-7.956-5.131
				c-0.293-1.455,0.247-2.938,0.273-4.418c0.116-5.768-6.909-8.803-12.67-9.052c-1.876-0.081-3.922-0.088-5.4-1.252
				c-3.169-2.49-1.146-7.6,1.384-10.737c2.535-3.139,5.565-7.223,3.63-10.763C356.853,741.5,351.171,741.811,348.437,738.668z"/>
		</g>
		<path fill="#E2CFC5" d="M493.606,671.348c12.404,15.896,15.221,36.294,15.048,55.692c-0.136,15.337-1.897,30.651-5.245,45.657
			c-3.321,14.868-8.506,29.94-19.604,41.222c-11.098,11.273-29.351,17.835-45.047,12.468c-17.93-6.133-26.374-24.485-32.155-41.077
			c-8.382-24.027-15.441-49.333-11.067-74.119c4.138-23.474,19.903-40.172,40.004-54.182
			C454.394,643.867,480.886,655.046,493.606,671.348z"/>
		<path fill="#443B36" d="M386.078,668.702c6.393-6.305,16.026-7.918,23.493-12.9c6.304-4.206,10.82-10.646,16.945-15.106
			c8.926-6.508,20.521-8.264,31.557-7.797c8.689,0.359,17.549,2.063,24.93,6.658c6.636,4.128,11.908,10.909,13.17,18.547
			c6.318,1.507,10.821,5.969,11.202,15.104c0.146,3.352-1.137,6.511-3.305,9.407c2.38,1.826,4.598,3.841,6.581,6.107l-1.145,18.06
			c0.283,4.999,0.57,9.997,0.852,14.996c-1.889,2.268-5.823,0.641-7.248-1.944c-1.42-2.582-1.463-5.721-2.692-8.405
			c-1.231-2.676-4.726-4.84-7.063-3.034c-0.93,4.727-1.98,9.7-5.209,13.275c-3.227,3.574-9.409,4.948-12.818,1.542
			c-2.77-2.768-2.594-7.196-3.053-11.084c-0.456-3.892-2.813-8.469-6.727-8.236c-1.667,0.104-3.129,1.103-4.55,1.979
			c-4.32,2.67-9.556,4.537-14.456,3.2c-4.9-1.333-8.783-6.919-6.818-11.603c-4.188-0.604-6.838,4.195-10.239,6.707
			c-4.089,3.019-9.65,2.72-14.712,2.292c-3.238-0.272-6.547-0.628-9.532-1.858c-5.131,16.542-3.163,35.552-1.415,52.182
			c-0.807-3.608-1.61-7.216-2.416-10.824c-1.628-0.337-2.88,1.473-3.266,3.088c-2.579,10.784,10.651,21.798,5.813,31.775
			c-0.896-15.165-12.877-27.043-19.202-40.858c-5.795-12.652-6.771-26.931-6.974-40.844
			C377.626,688.31,378.376,676.293,386.078,668.702z"/>
		<path fill="#443B36" d="M457.101,821.063c-0.307-0.771-0.457-1.709-1.168-2.134c-0.385-0.229-0.851-0.25-1.293-0.267
			c-2.729-0.087-5.464-0.104-8.197-0.05c0.767,1.233-0.229,2.95-1.586,3.47c-1.356,0.52-2.877,0.206-4.295-0.115
			c-1.875-0.421-3.752-0.847-5.633-1.269c-1.134,1.314-0.543,3.489,0.776,4.621c1.317,1.131,3.108,1.486,4.817,1.806
			c6.791,1.266,16.269,3.615,22.938,0.688C472.526,823.837,458.792,825.335,457.101,821.063z"/>
	</g>
	<path fill="#272826" d="M362.351,1683.723c0.944-2.442,1.891-4.888,2.834-7.332c-0.605-0.162-1.226-0.336-1.832-0.488
		c-0.011-23.23-0.023-46.465-0.036-69.694c-0.016-30.445,1.464-59.729,4.149-89.889c7.949-89.216-18.649-186.62-11.304-277.505
		c1.705-21.104,3.604-42.461,8.722-63.063c6.672-26.857,23.165-23.212,47.139-27.934c37.262-7.335,113.649-9.014,150.237,1.358
		c0.271,173.397-34.27,366.739-49.34,538.919c-1.093,0-2.185,0-3.274,0c8.955,7.628,19.059,13.914,29.935,18.41
		c2.683,1.11,5.495,2.165,7.565,4.202c4.33,4.242,3.64,12.413-1.336,15.869c-4.657,3.229-10.941,2.145-16.479,0.93
		c-15.736-3.46-31.468-6.921-47.2-10.377c-2.882-0.635-5.95-1.37-7.953-3.532c-2.417-2.607-2.604-6.521-2.656-10.077
		c-0.073-5.152-0.149-10.305-0.226-15.448c-0.485-0.004-0.979-0.004-1.465-0.004c-11.722-93.553-8.343-182.198-11.199-275.971
		c-5.251,43.64-15.229,68.677-25.731,123.047c-4.854,25.125-10.559,49.754-14.664,75.133c-2.099,12.951-4.359,25.857-6.864,38.674
		c-2.157,11.027-6.109,22.535-5.799,34.017c-0.787,0.137-1.575,0.151-2.362,0.235c5.484,10.616,12.6,20.392,21.132,28.758
		c2.076,2.035,4.283,4.067,5.443,6.731c2.431,5.552-1.269,12.873-7.177,14.212c-5.53,1.256-10.948-2.104-15.627-5.301
		c-13.299-9.099-26.594-18.194-39.889-27.286c-2.438-1.667-5.002-3.498-6.057-6.254
		C359.778,1690.735,361.067,1687.044,362.351,1683.723z"/>
	<path fill="#8ECCCE" d="M489.724,827.604c4.539-2.765,9.215-6.161,14.523-5.93c4.252,0.188,8.087,2.769,10.875,5.984
		c4.914,5.671,7.061,13.17,8.971,20.428c13.232,50.271,21.604,101.817,24.971,153.689c0.791,12.149,20.341,50.181,17.781,62.085
		c-4.211,19.579,8.264,72.731,6.465,92.679c-0.941,10.47,0.272,22.979-8.045,29.409c-3.935,3.044-9.119,3.811-14.054,4.478
		c-17.592,2.378-89.408,0.339-107,2.714c-12.667,1.716-66.53,5.367-77.946-0.385c-14.176-7.141-20.904-23.396-25.657-38.545
		c-17.932-57.181,26.663-176.308,20.661-235.933c-2.713-27.018-7.965-88.536,31.798-91.989c14.411-1.249,28.991,6.47,42.782,9.354
		C454.161,839.471,473.538,837.459,489.724,827.604z"/>
	<g>
		<g>
			<path fill="#A39281" d="M697.042,1046.558c0.162-11.638,0.496-23.277,0.966-34.917c0.074-0.984,0.107-1.968,0.196-2.958
				c0.02-0.239-0.027-0.454-0.067-0.67c0-0.07,0.003-0.144,0.007-0.213c0.121-2.88-4.352-2.64-4.477,0.222
				c-0.014,0.358-0.02,0.718-0.037,1.073c-1.725,9.68-1.9,19.462-1.348,29.278c-0.176,9.271-0.096,18.529,0.154,27.781
				c0.021,33.246,1.27,66.487,3.769,99.672c0.185,2.442,3.972,2.941,4.42,0.378c4.401-25,2.68-50.21,1.006-75.396
				C700.671,1076.389,698.265,1061.443,697.042,1046.558z"/>
			<path fill="#EAE4E1" d="M692.172,1006.243c0.169,0.496,0.378,1.009,0.793,1.33c0.459,0.355,1.087,0.405,1.675,0.438
				c1.109,0.063,2.225,0.124,3.334,0.188c0.58,0.029,1.235,0.034,1.635-0.387c0.297-0.313,0.362-0.771,0.41-1.2
				c0.138-1.139,0.266-2.274,0.396-3.408c0.688-5.94,1.374-11.874,2.061-17.813c-0.746-0.279-1.514,0.422-1.841,1.15
				c-0.328,0.729-0.47,1.58-1.047,2.134c-0.692-1.256-1.63-2.566-2.794-3.416c-0.425,0.466-0.811,1.04-1.08,1.62
				c-1.081-1.299-1.702-3.196-3.314-1.704c-1.197,1.105-1.321,3.827-1.425,5.315C690.608,995.646,690.474,1001.309,692.172,1006.243
				z"/>
			<path fill="#B1D8D2" d="M691.776,993.311c-0.021,0.426,0.209,1.043,0.607,0.877c0.1-0.041,0.168-0.133,0.235-0.22
				c0.936-1.202,1.87-2.407,2.805-3.607c0.577,1.925,1.151,3.853,1.731,5.773c0.345-0.839,0.822-1.626,1.402-2.325
				c0.273,0.685,0.547,1.364,0.816,2.043c0.453-2.138,0.804-4.297,1.056-6.471c-1.732,0.303-3.605-0.375-4.741-1.722
				c-0.267-0.317-0.525-0.688-0.929-0.784C690.774,985.944,691.892,990.407,691.776,993.311z"/>
		</g>
		<g>
			<path fill="#B3A08D" d="M702.571,1140.694c-0.581-3.538-1.157-7.075-1.734-10.608c-0.035-0.594-0.068-1.186-0.095-1.779
				c-0.021-0.313-0.149-0.547-0.317-0.742c-1.465-8.952-2.926-17.904-4.388-26.855c-2.181-13.329-4.358-26.657-6.535-39.987
				c-1.923-11.774-3.125-23.896-8-34.901c-0.371-0.838-1.255-1.022-1.978-0.771c-1.006-0.771-2.855-0.158-2.524,1.408
				c5.488,25.875,9.461,52.014,13.245,78.178c1.855,12.832,3.679,25.668,5.648,38.485c0.948,6.146,1.875,12.302,2.957,18.429
				c0.485,2.729,0.411,5.285,3.331,6.049c0.708,0.184,1.382,0.059,1.847-0.547c2.006-2.586,1.867-4.746,1.558-7.896
				C704.978,1152.987,703.571,1146.816,702.571,1140.694z"/>
			<path fill="#EAE4E1" d="M675.677,1025.52c-1.281-1.57-1.771-3.629-2.229-5.604c-0.655-2.861-1.313-5.725-1.971-8.59
				c-0.16-0.699-0.136-1.691,0.566-1.816c0.418-0.071,0.789,0.25,1.086,0.552c0.749,0.757,1.502,1.51,2.25,2.266
				c0.132-0.574,0.314-1.158,0.707-1.603c0.385-0.439,1.026-0.706,1.579-0.506c0.331,0.122,0.635,0.401,0.985,0.351
				c0.646-0.097,0.732-1.172,1.371-1.302c0.555-0.11,0.904,0.559,1.061,1.103c0.406-0.092,0.75-0.394,0.896-0.777
				c0.34-0.017,0.494,0.415,0.543,0.756c0.572,4.141,0.682,8.344,0.328,12.506c-0.144,1.673-0.457,3.703-2.183,4.387
				C678.904,1027.933,676.801,1026.896,675.677,1025.52z"/>
			<path fill="#B1B4D8" d="M674.543,1016.409c0.24,0.729,0.486,1.473,0.938,2.097c0.162,0.225,0.396,0.446,0.672,0.402
				c0.266-0.049,0.414-0.328,0.519-0.578c0.368-0.885,0.646-1.802,0.838-2.74c0.47,0.239,0.711,0.762,1.056,1.157
				c0.346,0.396,1,0.673,1.379,0.305c0.274-0.267,0.315-0.801,0.693-0.879c0.519-0.104,0.974,0.827,1.393,0.504
				c0.085-0.066,0.128-0.173,0.169-0.271c0.223-0.548,0.44-1.096,0.661-1.642c0.201-0.504,0.404-1.076,0.183-1.568
				c-0.136-0.287-0.394-0.493-0.638-0.693c-0.424-0.329-0.848-0.668-1.271-1.001c-0.063-0.048-0.131-0.098-0.205-0.103
				c-0.183-0.007-0.264,0.217-0.339,0.383c-0.202,0.437-0.769,0.66-1.215,0.479c-0.24-0.103-0.435-0.295-0.681-0.366
				c-0.64-0.183-1.189,0.501-1.83,0.647c-0.344,0.078-0.702,0-1.053,0.01c-0.353,0.009-0.746,0.137-0.877,0.462
				c0.344-0.839-1.129-0.472-1.352,0.05C673.284,1013.764,674.308,1015.688,674.543,1016.409z"/>
		</g>
	</g>
	<g>
		<g>
			<path fill="#8F8071" d="M703.493,1065.152c0.078-9.465-0.014-18.939-0.237-28.416c-0.058-0.806-0.069-1.607-0.131-2.411
				c-0.017-0.202,0.034-0.37,0.081-0.547c-0.003-0.059-0.003-0.114-0.007-0.168c-0.062-2.348,4.348-1.917,4.407,0.411
				c0.008,0.291,0.008,0.584,0.018,0.873c1.502,7.952,1.477,15.91,0.727,23.854c-0.014,7.544-0.283,15.063-0.722,22.563
				c-0.696,27.013-2.612,53.948-5.759,80.775c-0.229,1.977-3.977,2.184-4.367,0.074c-3.828-20.542-1.609-40.929,0.561-61.299
				C699.3,1089.197,701.978,1077.178,703.493,1065.152z"/>
			<path fill="#EAE4E1" d="M709.119,1032.658c-0.175,0.391-0.392,0.797-0.808,1.039c-0.461,0.264-1.08,0.271-1.655,0.268
				c-1.103-0.008-2.201-0.014-3.298-0.024c-0.57-0.003-1.219-0.034-1.604-0.396c-0.29-0.271-0.34-0.647-0.381-0.998
				c-0.104-0.932-0.212-1.859-0.321-2.792c-0.554-4.86-1.105-9.716-1.662-14.574c0.744-0.188,1.48,0.423,1.791,1.033
				c0.305,0.606,0.43,1.307,0.985,1.786c0.716-0.986,1.661-2.002,2.825-2.63c0.415,0.399,0.777,0.887,1.035,1.37
				c1.094-0.996,1.74-2.506,3.302-1.209c1.161,0.963,1.228,3.182,1.296,4.396C710.878,1024.125,710.896,1028.735,709.119,1032.658z"
				/>
			<path fill="#D8B1CC" d="M709.774,1022.168c0.01,0.352-0.229,0.837-0.615,0.682c-0.098-0.036-0.168-0.113-0.229-0.188
				c-0.896-1.025-1.795-2.052-2.691-3.077c-0.607,1.532-1.218,3.067-1.824,4.604c-0.327-0.701-0.783-1.365-1.343-1.966
				c-0.276,0.54-0.562,1.077-0.844,1.617c-0.402-1.762-0.707-3.534-0.912-5.313c1.707,0.338,3.57-0.118,4.716-1.15
				c0.266-0.243,0.528-0.529,0.928-0.587C710.915,1016.238,709.721,1019.806,709.774,1022.168z"/>
		</g>
		<g>
			<path fill="#A39281" d="M696.111,1141.34c0.641-2.847,1.282-5.688,1.927-8.531c0.044-0.479,0.088-0.96,0.132-1.438
				c0.023-0.255,0.154-0.438,0.327-0.589c1.627-7.195,3.251-14.394,4.877-21.587c2.424-10.715,4.84-21.433,7.264-32.146
				c2.142-9.463,3.572-19.248,8.602-27.933c0.384-0.661,1.262-0.771,1.964-0.523c1.013-0.568,2.822,0.021,2.463,1.272
				c-5.938,20.732-10.396,41.763-14.661,62.818c-2.096,10.329-4.154,20.66-6.361,30.971c-1.062,4.942-2.098,9.896-3.291,14.815
				c-0.533,2.188-0.515,4.271-3.41,4.738c-0.701,0.112-1.362-0.027-1.81-0.54c-1.927-2.207-1.745-3.955-1.374-6.496
				C693.483,1151.198,694.997,1146.257,696.111,1141.34z"/>
			<path fill="#EAE4E1" d="M724.993,1049.177c1.297-1.209,1.824-2.854,2.309-4.436c0.706-2.294,1.414-4.587,2.124-6.878
				c0.168-0.56,0.168-1.367-0.521-1.506c-0.408-0.082-0.78,0.16-1.084,0.392c-0.757,0.573-1.513,1.146-2.27,1.722
				c-0.114-0.473-0.282-0.955-0.657-1.337c-0.375-0.379-1.002-0.628-1.549-0.492c-0.332,0.08-0.636,0.293-0.979,0.232
				c-0.636-0.111-0.699-0.992-1.326-1.131c-0.543-0.118-0.905,0.409-1.069,0.841c-0.393-0.095-0.729-0.358-0.865-0.678
				c-0.336-0.032-0.497,0.313-0.554,0.586c-0.646,3.332-0.844,6.741-0.577,10.14c0.105,1.368,0.375,3.035,2.063,3.679
				C721.763,1050.969,723.854,1050.236,724.993,1049.177z"/>
			<path fill="#D8B8B1" d="M726.299,1041.836c-0.253,0.58-0.513,1.171-0.972,1.653c-0.162,0.173-0.405,0.342-0.667,0.29
				c-0.265-0.051-0.406-0.287-0.5-0.496c-0.345-0.735-0.601-1.498-0.771-2.268c-0.47,0.168-0.717,0.579-1.066,0.884
				c-0.352,0.305-0.999,0.494-1.363,0.177c-0.271-0.23-0.298-0.669-0.669-0.751c-0.505-0.113-0.979,0.622-1.38,0.339
				c-0.084-0.062-0.125-0.147-0.166-0.232c-0.202-0.457-0.411-0.91-0.617-1.365c-0.189-0.419-0.378-0.898-0.145-1.283
				c0.135-0.229,0.391-0.385,0.641-0.53c0.425-0.249,0.852-0.499,1.275-0.749c0.062-0.037,0.129-0.07,0.203-0.07
				c0.18,0.005,0.25,0.188,0.323,0.326c0.188,0.365,0.75,0.578,1.191,0.452c0.235-0.065,0.432-0.216,0.679-0.259
				c0.634-0.115,1.16,0.465,1.792,0.62c0.334,0.082,0.688,0.041,1.036,0.062c0.344,0.027,0.729,0.151,0.855,0.424
				c-0.322-0.699,1.123-0.321,1.332,0.109C727.589,1039.753,726.546,1041.262,726.299,1041.836z"/>
		</g>
	</g>
	<path fill="#EADDD0" d="M711.428,1078.4c-3.091-0.247-6.224-0.479-9.273,0.08c-3.052,0.561-6.061,1.998-7.886,4.503
		c-1.473,2.019-2.059,4.55-2.321,7.034c-0.419,3.963,0.282,8.638,3.704,10.679c1.089,0.646,2.345,0.957,3.584,1.215
		c3.188,0.662,6.43,1.078,9.676,1.235c2.056,0.102,4.208,0.077,6.033-0.869c2.99-1.547,4.302-5.11,4.908-8.428
		c0.621-3.399,1.545-8.809,0.229-12.14C718.864,1078.623,714.283,1078.63,711.428,1078.4z"/>
	<path fill="#8C7768" d="M279.15,1068.794c55.493-80.325,114.688-150.174,168.081-224.146c6-3.412,13.405,0.291,19.274,3.922
		c49.357,30.552,99.169,61.466,140.503,102.223c4.936,4.864,9.998,10.383,10.814,17.262c0.816,6.82-2.741,13.325-6.27,19.22
		c-43.139,72.145-99.69,135.161-155.873,197.684c-6.035,6.718-12.188,13.531-19.882,18.268c-2.882,1.772-6.176,3.273-9.53,2.832
		c-2.49-0.331-4.707-1.698-6.836-3.034c-43.929-27.578-87.369-55.984-129.309-86.505c-9.311-6.772-19.443-15.309-19.645-26.815
		C270.34,1082.025,274.79,1075.109,279.15,1068.794z"/>
	<g>
		<path fill="#FFFFFF" d="M341.214,1008.521c-16.15,18.36-32.301,36.727-48.448,55.091c-2.424,2.755-4.938,5.688-5.875,9.449
			c33.305,27.936,66.698,55.724,100.188,83.359c8.195,6.768,16.471,13.569,25.706,18.257c3.239,1.646,6.741,3.042,10.274,2.563
			c5.799-0.79,10.161-6.316,13.969-11.452c52.063-70.271,113.056-139.754,170.981-203.643c2.39-2.64,5.005-6.25,3.843-9.796
			c-0.596-1.817-2.061-3.03-3.442-4.131c-37.214-29.521-80.281-56.807-117.49-86.33c-2.664-2.11-8.084-8.575-11.341-8.293
			c-3.54,0.313-8.766,8.698-11.176,11.375c-8.313,9.244-16.609,18.511-24.894,27.791c-16.002,17.931-31.946,35.924-47.867,53.951
			C377.472,967.289,359.346,987.902,341.214,1008.521z"/>
		<path fill="#828282" d="M597.945,937.84c1.612-3.922-0.595-5.938-3.173-8.168c-3.545-3.063-7.291-7.284-11.297-9.479
			c-2.998-1.645-5.496,0.657-7.273,3.407c-0.641,0.985-1.047,2.092-1.323,3.22c-0.811,0.968-1.62,1.926-2.552,2.805
			c-0.856,0.807-1.154,2.51-0.357,3.507c3.193,3.985,6.508,7.833,9.967,11.503c2.395,2.535,4.453,4.938,7.743,2.947
			C592.642,945.782,596.507,941.347,597.945,937.84z"/>
		<path fill="#828282" d="M510.755,872.657c0.864-4.759-4.477-7.939-7.125-10.672c-2.447-2.528-5.299-5.873-8.732-5.92
			c-0.234-0.82-1.152-1.374-1.905-0.753c-2.888,2.371-7.597,6.439-7.712,10.955c-0.105,4.015,4.587,7.747,7.033,9.995
			c3.125,2.876,6.928,5.014,11.026,4.093C506.757,879.583,510.019,876.727,510.755,872.657z"/>
		<path fill="#EDEDED" d="M588.312,936.615c-1.428,1.653-3.662,4.307-5.365,4.567c-1.936,0.303-3.387-2.154-4.254-3.925
			c-0.315,0.107-0.506-0.338-0.297-0.801c-0.051-0.748,0.654-1.638,1.186-1.678c4.5-6.516,7.558-15.03,13.395-19.791
			c3.021-2.467,7.191-3.747,6.896,1.196c-0.187,3.134-2.633,6.85-4.252,9.653C593.433,929.632,591.079,933.404,588.312,936.615z
			 M594.644,925.023c0.614-1.07,1.224-2.146,1.819-3.229c2.048-2.586,2.812-6.197,0.522-6.643c-0.547-1.992-2.383-0.188-3.732,1.228
			c-1,0.857-1.939,1.829-2.822,2.919c-1.626,1.985-2.953,4.228-4.271,6.492c-1.945,3.338-3.787,6.599-5.995,9.643
			c0.719,1.829,1.822,4.246,4.029,3.372c1.935-0.764,5.179-5.557,6.535-7.507C592.125,929.291,593.401,927.16,594.644,925.023z"/>
		<path fill="#EDEDED" d="M500.608,870.051c-1.424,1.653-3.658,4.308-5.366,4.57c-1.931,0.3-3.382-2.157-4.253-3.926
			c-0.313,0.104-0.5-0.337-0.297-0.802c-0.047-0.75,0.655-1.637,1.188-1.678c4.5-6.514,7.563-15.028,13.395-19.792
			c3.018-2.464,7.188-3.75,6.893,1.198c-0.186,3.132-2.629,6.845-4.249,9.653C505.731,863.067,503.376,866.844,500.608,870.051z
			 M506.94,858.46c0.612-1.07,1.221-2.146,1.82-3.229c2.051-2.587,2.811-6.197,0.523-6.641c-0.553-1.998-2.379-0.188-3.736,1.228
			c-1,0.854-1.938,1.828-2.814,2.919c-1.629,1.983-2.957,4.226-4.279,6.491c-1.944,3.338-3.784,6.598-5.994,9.643
			c0.722,1.83,1.822,4.246,4.03,3.375c1.937-0.766,5.181-5.563,6.538-7.513C504.425,862.727,505.701,860.597,506.94,858.46z"/>
	</g>
	<g>
		<path fill="#A3B1C2" d="M315.535,1053.48c1.167-2.176,4.057-4.493,5.987-6.082c0.021-0.019,0.033-0.027,0.055-0.046
			c1.394-3.082,4.65-5.597,7.209-7.653c0.384-0.549,0.804-1.136,1.303-1.826c9.68-13.431,24.544-21.31,34.605-33.938
			c3.276-4.112,4.166-10.747,8.98-13.518c5.536-3.19,10.385-0.166,15.587,2.068c41.936,17.974,77.482,46.394,113.468,74.069
			c1.637,1.259,0.063,4.088-1.657,2.824c-5.792-4.259-11.313-8.891-16.931-13.396c0.775,1.463,1.274,3.141,1.472,5.131
			c3.72,3.5,7.061,7.188,9.603,11.183c0.78,1.229,0.301,3.149-1.003,3.827c-7.686,3.994-14.561,9.568-21.844,14.277
			c-5.813,3.746-7.571,8.903-12.642,13.193c-3.621,3.063-8.382,3.97-12.08,6.725c-2.146,1.604-3.463,3.718-4.691,5.912
			c0.337,0.854,0.621,1.745,0.76,2.715c0.236,1.674-0.738,4.099-2.906,3.816c-0.604-0.082-1.188-0.212-1.777-0.328
			c-2.657,3.262-4.959,3.835-9.795,4.063c-9.454,0.436-17.457,0.605-26.646-1.787c-9.009-2.349-18.195-1.474-27.005-3.937
			c-13.879-3.879-19.071-13.123-29.203-21.646c-5.637-4.742-11.55-9.779-15.756-15.896c-3.369-4.899-5.238-9.925-9.221-14.504
			c-2.066-2.38-5.421-4.938-6.718-7.892C312.949,1056.859,313.908,1056.505,315.535,1053.48z M435.411,1115.177
			c-1.344-1.938-3.096-3.976-5.002-5.978c0.377,1.05,0.04,2.174-0.68,2.977C431.591,1113.313,433.494,1114.363,435.411,1115.177z
			 M408.149,1013.932c-0.239-0.185-0.405-0.391-0.541-0.601c-0.511,0.375-1.133,0.595-1.832,0.611
			c0.297,0.936,0.513,1.935,0.524,3.095c0.003,0.763-0.395,1.492-0.938,2.077c0.823,0.754,1.627,1.534,2.438,2.304
			c1.577,0.879,3.129,1.811,4.688,2.725c-0.286-0.748-0.573-1.493-0.79-2.291c-0.404-1.504,0.597-3.331,2.053-3.875
			C411.845,1016.68,409.965,1015.35,408.149,1013.932z M332.59,1056.082c0.247-0.594,0.531-1.266,1.077-1.363
			c3.027-0.549,5.333-0.007,7.852,0.426c-0.371-1.796-0.735-3.106-0.604-4.432c-0.813,0.8-1.734,1.094-2.987,0.904
			c-3.645-0.543-3.084-0.372-6.191-2.302c-0.699-0.437-1.132-1.151-1.341-1.914c-0.218,0.344-0.459,0.683-0.701,1.013
			C328.546,1050.816,328.94,1053.335,332.59,1056.082z M354.445,1096.563c0.359,1.125,1.564,2.347,3.099,3.543
			c-0.489-1.411,0.385-3.064,1.715-3.688c-1.279-1.429-2.535-2.879-3.781-4.334C354.731,1093.662,354.054,1095.374,354.445,1096.563
			z M388.022,1005.505c-3.725,0.881-6.67-0.585-9.668-2.407c1.991,3.806,5.461,7.914,6.886,10.079
			c0.588,0.892,0.5,2.004,0.021,2.927c2.924,0.551,5.151,2.152,6.042,5.531c1.837,0.144,3.73,0.556,5.641,1.04
			c-1.065-1.013-2.175-1.983-3.213-3.022c-0.988-0.992-0.91-2.191-0.319-3.078c-0.702-0.618-1.4-1.242-2.104-1.864
			c-2.259-2.011-0.187-5.109,2.295-5.12c-0.526-0.411-1-0.779-1.288-1.021c-1.812-1.526-0.818-3.912,0.902-4.812
			c-1.046-0.749-2.116-1.472-3.22-2.144C390.453,1003.212,389.845,1005.071,388.022,1005.505z M382.562,1103.202
			c0.646,0.036,1.295,0.069,1.92,0.154c-0.081-1.157,0.423-2.185,1.26-2.796c-4.624-0.888-8.354-3.64-12.286-6.271
			c1.121,1.809,2.305,3.584,3.55,5.316C378.815,1100.869,380.685,1102.044,382.562,1103.202z M400.991,1059.883
			c-1.262-0.345-2.344-0.646-2.971-0.884c-1.896-0.713-3.768-1.714-5.686-2.578c-0.191,0.208-0.378,0.437-0.56,0.653
			c2.335,1.811,4.696,3.589,7.079,5.344C398.884,1061.232,399.758,1060.194,400.991,1059.883z M456.358,1062.354
			c-8.181-6.146-15.889-13.195-23.959-19.104c-1.225-0.895-2.482-1.73-3.724-2.605c-0.028,0.021-0.05,0.052-0.077,0.073
			c0.258,0.636,0.522,1.269,0.735,1.936c9.377,7.144,18.647,14.396,27.002,22.573
			C456.25,1064.305,456.264,1063.344,456.358,1062.354z M409.833,1055.626c3.966,1.014,6.386,2.323,8.711,5.668
			c0.651,0.941,0.47,2.147-0.131,3.078c1.532-1.218,2.902-1.573,4.222-1.323c-0.778-0.91-1.569-1.806-2.342-2.724
			c-2.069-2.468-3.909-4.282-4.567-6.2c-0.877,1.229-2.463,1.928-3.875,0.864c-1.355-1.009-2.666-2.073-4.01-3.101
			c-0.486,0-0.984-0.095-1.472-0.429c-0.804-0.553-1.609-1.101-2.417-1.649c-1.77,0.545-3.48,1.183-5.107,1.957
			c0.01,0.026,0.008,0.056,0.015,0.082c1.872,0.882,3.739,1.748,5.597,2.611C406.147,1054.807,407.879,1055.128,409.833,1055.626z
			 M383.655,1036.303c3.253,3.483,7.526,7.419,10.673,10.377c0.992-0.504,1.983-1.02,3.01-1.381
			C392.822,1042.237,388.272,1039.22,383.655,1036.303z M369.958,1075.649c-0.053-0.49,0.102-0.997,0.365-1.442
			c-2.44-1.585-4.833-3.277-7.18-5.051c-0.11-0.005-0.227-0.008-0.334-0.008c0.271,1.185,0.195,2.283-0.136,3.572
			C363.872,1073.137,366.495,1074.211,369.958,1075.649z M373.657,1069.135c0.445-1.895,2.563-3.503,4.503-2.148
			c0.455,0.315,0.911,0.598,1.362,0.91c0.022-0.025,0.062-0.049,0.084-0.072c0.592-0.725,0.977-1.445,1.271-2.16
			c-0.075-0.382-0.044-0.742,0.063-1.081c-1.186-1.012-2.365-2.028-3.543-3.048c-1.485,1.711-2.891,2.926-5.334,3.687
			c-0.048,0.583-0.147,1.224-0.356,2.099c-0.041,0.152-0.135,0.29-0.203,0.438C372.22,1068.24,372.94,1068.677,373.657,1069.135z
			 M366.448,1060.68c0.499-0.362,1.093-0.621,1.711-0.681c1.979-0.193,3.287-0.886,4.279-1.816
			c-2.851-1.579-5.315-2.917-5.282-2.735c0.223,1.138-0.152,2.207-0.877,2.947c0.065,0.291,0.131,0.586,0.195,0.875
			C366.589,1059.782,366.535,1060.244,366.448,1060.68z M359.717,1056.053c0.081-0.896,0.513-1.668,1.212-2.188
			c0.034-0.411,0.139-0.836,0.284-1.262c-1.722,0.696-3.75,1.104-5.114,2.229c-0.065,0.055-0.106,0.101-0.169,0.151
			C357.172,1055.377,358.468,1055.719,359.717,1056.053z M386.707,1026.186c-0.095-0.217-0.078-0.43-0.136-0.646
			c-3.6-1.205-6.777-1.146-9.513-0.139c0.199,0.065,0.393,0.065,0.596,0.183c3.926,2.287,7.766,4.698,11.583,7.148
			c0.205-0.133,0.416-0.236,0.645-0.324C388.7,1030.417,387.644,1028.342,386.707,1026.186z M357.571,1043.492
			c-6.73-0.668-4.317-0.816-3.085,5.495v0.014c1.04-0.466,2.012-0.962,2.585-1.619c1.031-1.182,1.6-2.418,1.957-3.687
			c-0.393-0.094-0.775-0.172-1.168-0.256C357.767,1043.446,357.665,1043.499,357.571,1043.492z M426.342,1046.655
			c-0.53,0.018-1.069-0.077-1.569-0.357c-1.045-0.581-2.059-1.212-3.099-1.803c-0.396,0.186-0.803,0.349-1.212,0.518
			c2.17,1.892,4.317,3.793,6.434,5.718c4.776,2.134,9.348,4.616,13.873,7.199C436.063,1054.064,431.209,1050.352,426.342,1046.655z
			 M421.524,1053.902c-0.021,0.021-0.08,0.011-0.103,0.032c-0.425,0.533,3.842,5.712,9.198,11.845
			c0.422-0.066,0.863-0.077,1.313-0.015c0.364,0.052,0.734,0.104,1.106,0.147C429.619,1061.591,425.667,1057.676,421.524,1053.902z
			 M411.108,1084.404c-1.883-1.799-3.793-3.551-5.74-5.268c-0.43,1.172-1.473,2.157-2.766,2.042
			c-2.182-0.193-4.087-0.696-5.928-1.316c0.131,0.866,0.188,1.784,0.061,2.838c-0.168,1.432-1.045,2.396-2.181,2.741
			c2.856,1.002,5.158,1.692,6.556,1.896c0.716-1.032,2-1.68,3.281-1.233c0.275,0.096,0.561,0.195,0.844,0.293
			c0.382-0.423,0.824-0.774,1.334-0.926c1.64-0.473,3.051-0.646,4.395-0.682C411.021,1084.664,411.035,1084.516,411.108,1084.404z
			 M396.265,1103.459c-0.984-1.607-1.978-3.208-2.828-4.932c-0.25-0.516-0.332-1.064-0.305-1.602
			c-0.287-0.059-0.581-0.089-0.838-0.213c-0.206-0.095-0.391-0.213-0.594-0.308c1.022,1.704,0.047,3.955-1.92,4.358
			c1.853,0.928,3.729,1.937,5.619,2.987C395.705,1103.633,395.983,1103.546,396.265,1103.459z M367.112,1084.391
			c2.583,0.931,5.694,2.9,8.896,4.893c-1.826-1.646-3.639-3.301-5.505-4.916c-0.094-0.086-0.128-0.188-0.209-0.273
			c-3.638-1.688-7.047-3.545-10.375-5.932c-0.696-0.503-1.09-1.201-1.256-1.938c-0.291-0.063-0.577-0.091-0.856-0.241
			c-0.82-0.438-1.628-0.896-2.443-1.34c-0.233,0.723-0.418,1.384-0.552,1.989c1.326,1.756,2.311,3.714,2.777,5.979
			c2.02,1.846,4.053,3.682,6.083,5.521C363.2,1086.1,364.679,1083.52,367.112,1084.391z M431.24,1031.396
			c0.661,2.041,0.741,3.738,0.344,5.156c1.108,0.801,2.242,1.558,3.341,2.369c4.969,3.688,9.819,7.527,14.684,11.341
			c2.949,2.323,5.888,4.665,8.837,6.987c0.726,0.593,1.476,1.154,2.206,1.737c0.549,0.088,1.074,0.203,1.606,0.313
			c-7.142-7.393-15.34-13.826-22.931-20.696C436.64,1036.18,433.946,1033.778,431.24,1031.396z M443.083,1071.13
			c-0.018-1.026,0.568-2.032,1.408-2.646c0.722-0.523,1.438-1.047,2.16-1.573c0.169-0.125,0.419-0.111,0.632-0.175
			c-3.349-1.988-7.192-4.254-10.906-6.352c2.167,2.517,4.229,5.117,5.995,7.971c0.469,0.761,0.479,1.733,0.182,2.607
			C442.729,1071.021,442.911,1071.068,443.083,1071.13z M448.901,1040.829c3.795,3.37,18.709,13.498,23.308,21.97
			c2.113,0.956,4.208,1.944,6.345,2.876c-0.27-0.823-0.479-1.653-0.529-2.483c-0.002-0.088,0.078-0.16,0.105-0.241
			c-2.154-1.661-4.314-3.267-6.347-4.871c-8.183-6.453-16.444-12.892-24.781-19.142c-0.299-0.225-0.614-0.427-0.915-0.646
			C447.022,1039.139,447.954,1039.992,448.901,1040.829z M482.858,1076.007c-1.381-0.227-2.758-0.449-4.144-0.675
			c0.056,1.091,0.097,2.184,0.159,3.271c0.014,0.25-0.087,0.446-0.139,0.665c1.593-1.112,3.205-2.189,4.822-3.257
			C483.327,1076.018,483.104,1076.057,482.858,1076.007z M474.519,1069.875c-0.459-0.211-0.912-0.417-1.371-0.623
			c-0.107,0.273-0.161,0.564-0.324,0.829c-0.695,1.112-2.059,1.438-3.215,0.839c-2.489-1.295-4.894-2.78-7.263-4.347
			c0.841,2.562,2.505,5.235,4.228,7.697c2.265-0.177,4.316,0.303,6.751,0.897c-0.052-0.998-0.115-1.998-0.149-3.001
			C473.133,1071.285,473.728,1070.377,474.519,1069.875z M439.299,1075.558c0.256,0.291,0.511,0.566,0.763,0.853
			c4.199,3.214,8.602,6.265,13.098,8.951c-1.492-1.869-2.971-3.753-4.43-5.649C445.438,1078.289,442.196,1076.705,439.299,1075.558z
			 M443.094,1092.485c-0.868-1.062-1.839-2.072-2.771-3.104c-6.045-3.557-11.567-8.886-16.701-14.041
			c-3.966-2.68-8.064-5.049-12.186-6.905c5.412,5.146,11.021,10.067,16.693,14.923c5.529,3.974,11.012,8.014,16.32,12.271
			c0.465,0.121,0.863,0.253,1.255,0.385C444.937,1094.781,444.086,1093.592,443.094,1092.485z M413.364,1110.316
			c-0.25-0.04-0.508-0.067-0.753-0.177c-1.343-0.588-2.649-1.266-3.939-1.976c0.552,1.011,0.517,2.104,0.068,2.979
			c2.821,1.467,5.677,2.804,8.564,3.896C415.997,1113.452,414.68,1111.882,413.364,1110.316z M364.317,1012.189
			c-3.806,2.851-5.754,6.021-9.22,8.937c-1.053,0.887-2.15,1.806-3.272,2.743c0.389,0.135,0.756,0.331,1.074,0.662
			c2,2.063,3.098,4.505,2.58,7.233c0.486-0.321,1.025-0.557,1.616-0.523c0.684,0.037,1.225,0.065,1.732,0.104
			c-0.172-0.79,0.057-1.55,0.528-2.167c-0.316-1.421-0.517-2.869-0.232-4.577c-0.436-0.54-0.73-1.218-0.806-1.969
			c-0.021-0.235-0.048-0.465-0.067-0.698c-0.268-2.726,2.572-3.514,4.492-2.47c0.172-0.017,0.344-0.033,0.521-0.058
			c-0.132-1.046-0.047-2.219,0.353-3.641c0.586-2.063,2.729-2.646,4.522-1.84c0.782,0.376,1.586,0.692,2.375,1.04
			c-0.908-1.711-1.769-3.453-2.471-5.314C366.935,1010.51,365.769,1011.104,364.317,1012.189z M441.879,1028.345
			c-12.823-8.973-25.248-18.052-39.249-24.82c1.854,1.656,3.645,3.416,5.396,5.304c0.389,0.414,0.598,0.87,0.726,1.321
			c0.56-0.334,1.202-0.521,1.836-0.404c4.345,0.79,8.53,5.169,11.868,7.805c0.113,0.091,0.223,0.187,0.334,0.279
			c10.427,6.346,21.51,11.858,31.258,19.313c5.456,4.167,11.814,8.439,18.059,12.996c-0.072-1.014,0.377-1.911,1.095-2.458
			c-0.087-0.063-0.177-0.135-0.269-0.197C462.92,1040.554,451.853,1035.324,441.879,1028.345z M475.956,1081.198
			c-0.166-0.004-0.328,0.036-0.49,0.003c-1.792-0.374-3.332-0.823-4.766-1.11c1.302,2.23-1.104,4.345-3.274,4.011
			c-1.097-0.17-2.623-1.021-4.347-2.171c-0.523,0.317-1.07,0.599-1.671,0.699c-0.945,0.158-1.954,0.165-3.004,0.063
			c1.854,2.298,3.688,4.615,5.487,6.963c1.12-1.058,2.314-2.063,3.724-2.919C470.511,1084.968,473.242,1083.085,475.956,1081.198z
			 M459.269,1094.781c-2.237-1.346-5.307-3.262-8.783-5.479c-0.051,0.675-0.348,1.293-0.81,1.729c1.873,2.793,3.304,5.768,4.9,8.857
			l0,0C456.312,1098.294,457.81,1096.549,459.269,1094.781z M441.679,1108.052c1.445-1.468,3.149-2.373,4.905-3.196
			c-1.35-0.7-2.687-1.457-4.01-2.273c-0.452,0-0.917-0.095-1.371-0.425c-1.862-1.356-3.82-2.882-5.832-4.446
			c-1.951-1.436-3.885-2.915-5.802-4.417c3.872,3.561,7.8,7.061,11.912,10.396c2.896,2.396-1.243,6.46-4.118,4.118
			c-1.505-1.233-4.267-3.591-7.568-6.15c1.276,1.147,2.315,2.102,2.894,2.709c2.19,2.329,4.783,4.422,6.916,6.761
			C440.163,1110.025,440.785,1108.963,441.679,1108.052z M420.419,1122.498c-4.854-1.271-9.58-3.338-14.211-5.734
			c-0.364,1.922-2.92,3.321-4.961,1.69c-0.256-0.202-2.485-1.895-5.279-3.783c-0.912,0.283-1.529,0.587-1.589,0.933
			c-0.098,0.565-0.503,1.115-1.013,1.531c2.873,0.665,5.701,1.704,8.525,2.471C406.738,1120.915,413.746,1122.471,420.419,1122.498z
			 M386.8,1116.453c-2.264-1.121-4.283-2.782-6.224-4.58c-0.746,0.036-1.492-0.121-2.025-0.777
			c-1.221-1.494-2.409-2.996-3.581-4.505c-1.076-0.963-2.123-1.948-3.195-2.909c-0.283,1.102-1.147,1.997-2.472,2.152
			c0.453,0.526,0.878,1.076,1.343,1.59c1.64,1.9,0.293,5.627-2.396,5.093c1.894,1.312,4.003,2.44,6.565,3.226
			C378.866,1116.979,382.825,1116.486,386.8,1116.453z M324.797,1065.348c2.359,3.108,4.337,5.693,6.354,9.123
			c4.102,6.984,8.98,12.228,14.43,17.247c0.063-0.407,0.104-0.813,0.236-1.228c0.366-1.146,1.372-1.744,2.25-2.424
			c-9.061-8.215-18.673-17.063-25.091-27.359c-0.805-1.293-0.448-2.758,0.479-3.703c-0.811-1.027-1.432-2.13-1.87-3.28
			c-0.365,0.479-0.723,1.058-1.078,1.792C318.481,1059.707,322.042,1061.727,324.797,1065.348z"/>
		<g>
			<path fill="#A3B1C2" d="M544.284,966.86c1.087,0.29,2.082,0.731,3.041,1.229c-0.948-1.263-1.873-2.539-2.721-3.882
				c-1.225-1.939,1.191-4.259,3.116-3.112c0.161,0.095,0.312,0.213,0.474,0.314c-0.642-0.802-1.252-1.621-1.924-2.388
				c-1.271-1.444-2.45-2.457-3-4.36c-0.512-1.751,1.439-3.051,2.948-2.271c7.177,3.73,13.106,9.022,19.276,14.172
				c1.586,1.314-0.662,3.456-2.233,2.232c-3.255-2.531-6.462-5.12-9.81-7.487c2.063,2.627,4.125,5.255,6.217,7.865
				c2.295,2.869,5.792,6.079,7.354,9.433c1.037,2.228-1.516,4.372-3.438,2.654c-0.756-0.678-1.491-1.434-2.241-2.151
				c0.75,1.908-1.513,3.816-3.354,2.788c-2.113-1.18-3.993-2.854-5.871-4.526c1.083,1.16,1.995,2.471,2.636,3.49
				c1.433,2.288-2.052,5.114-3.815,2.94c-0.449-0.553-0.937-1.133-1.408-1.695l-0.008-0.012c-0.041,0.944-0.424,1.877-0.979,2.612
				c-0.618,0.827-1.708,1.553-2.809,1.141c-0.37-0.135-0.742-0.274-1.113-0.414c-2.262-0.848-2.049-3.723-0.371-4.535
				c-0.189-1.235-0.627-2.947-0.337-3.739c0.187-0.5,0.466-0.915,0.783-1.28c-1.357-1.942-2.579-3.944-3.345-6.082
				C540.713,968.036,542.637,966.421,544.284,966.86z"/>
			<path fill="#A3B1C2" d="M507.96,929.32c0.121,0.669,0.087,1.49-0.081,2.151c-0.354,1.386-1.097,2.563-2.343,3.304
				c-2.781,1.648-6.548,0.231-9.045-1.242c-2.428-1.436-0.824-5.803,1.99-4.722c0.703,0.271,3.505,1.603,4.155,1.054
				c0.354-0.302,0.019-3.491,0.313-4.186c0.521-1.215,1.31-1.904,2.254-2.19c0.25-2.378,0.966-4.507,4.051-4.673
				c1.268-0.07,2.619,0.332,3.982,0.935c-1.198-1.744-2.264-3.544-3.008-5.591c-0.521-1.43,1.063-2.843,2.428-2.433
				c5.117,1.539,9.14,4.873,13.277,8.136c1.701,1.336,5.388,3.438,5.063,6.026c-0.136,1.095-1.256,2.068-2.363,1.356
				c-1.769-1.138-3.441-2.373-5.06-3.684c-0.206,0.313-0.651,0.505-0.94,0.158c-1.327-1.563-2.653-3.119-4.002-4.66
				c-0.394-0.271-0.773-0.551-1.173-0.808c2.292,2.586,4.865,4.972,5.803,8.168c0.433,1.479-1.094,3.271-2.666,2.666
				c-2.619-1.006-4.955-2.365-7.439-3.668c-3.133-1.642-2.926-2.829-3.045,0.731c-0.04,1.28-1.032,2.346-2.251,2.502
				C507.882,928.828,507.913,929.036,507.96,929.32z"/>
			<path fill="#A3B1C2" d="M456.136,908.476c1.62-2.09,4.522-2.046,6.922-1.968c1.271,0.044,2.422-0.017,3.688-0.146
				c1.333-0.141,2.526,0.095,3.746,0.303c-0.402-0.721-0.888-1.454-1.043-1.923c-0.371-1.11-0.724-2.174-0.125-3.221
				c1.172-2.047,3.602-1.653,5.233-0.574c1.667,1.102,0.258,3.639-1.499,2.798c0.925,1.692,2.186,3.146,2.003,5.22
				c-0.07,0.807-0.57,1.813-1.484,1.953c-1.18,0.183-2.057,0.204-3.237,0.015c-1.774-0.281-3.119-0.007-4.874,0.195
				c-1.499,0.173-3.952-0.263-5.339,0.581c-0.297,0.424-0.668,0.769-1.183,0.844c-0.131,0.021-0.265,0.041-0.397,0.06
				C456.019,912.987,454.569,910.493,456.136,908.476z"/>
			<path fill="#A3B1C2" d="M449.256,931.555c0.439-0.641,0.949-1.071,1.492-1.405c-0.304-0.162-0.61-0.316-0.914-0.479
				c-0.942-0.496-0.281-2.181,0.742-1.758c1.278,0.525,2.555,1.105,3.848,1.641c1.267,0.203,2.558,0.694,3.743,1.282v0.007
				c1.296,0.661,0.554,2.91-1.086,2.575c-0.996-0.202-2.025-0.473-3.044-0.469c-1.074,0-1.101,0.194-1.722,0.965
				C450.938,935.623,448.015,933.374,449.256,931.555z"/>
			<path fill="#A3B1C2" d="M494.774,962.871c0.489-2.211,3.912-1.36,3.604,0.665c1.476,1.502,3.092,3.142,5.158,3.392
				c2.146,0.257,3.746,1.076,5.292,2.664c1.516,1.552-0.729,3.687-2.342,2.342c-1.749-1.455-3.997-1.2-5.938-2.317
				c-2.015-1.16-3.646-2.842-5.464-4.267c-0.51-0.397-0.594-1.182-0.466-1.76C494.674,963.35,494.726,963.11,494.774,962.871z"/>
			<path fill="#A3B1C2" d="M517.524,982.744c2.033,0,2.037,3.163,0,3.163C515.49,985.907,515.487,982.744,517.524,982.744z"/>
		</g>
		<path fill="#B58888" d="M399.002,996.469c0.479-0.658,0.966-1.24,1.448-1.87c-0.29-0.824-0.277-1.722,0.185-2.57
			c3.974-7.354,10.38-11.283,17.646-12.813c4.031-1.887,8.523-3.18,13.811-3.739c14.133-1.513,25.957,3.186,36.831,12.157
			c12.151,10.035,19.351,22.684,20.991,38.398c1.38,13.235-4.695,20.372-16.43,26.154c-2.934,1.446-5.434-1.411-4.226-4.228
			c0.752-1.756,1.509-3.339,2.218-4.863c-0.238-0.116-0.48-0.196-0.711-0.379c-2.748-2.134-5.399-4.379-8.02-6.664
			c-0.526,0.038-1.063-0.019-1.587-0.318c-6.851-3.923-13.376-8.851-19.654-14.151c-4.755-3.224-9.542-6.411-14.345-9.502
			c-3.871-2.497-8.198-4.529-12.414-6.693c-1.275,0.209-2.688-0.59-3.378-1.853c-2.798-1.553-5.513-3.197-7.877-5.225
			c-0.418-0.355-0.683-0.771-0.817-1.215c-0.385,0.439-0.783,0.854-1.154,1.312C400.373,999.793,397.926,997.934,399.002,996.469z
			 M476.142,1014.246c1.645,1.938,3.562,4.106,5.363,5.711c-1.896-8.11-7.008-14.811-13.697-19.823
			C471.119,1004.498,473.886,1009.281,476.142,1014.246z M438.901,980.301c4.94,1.357,9.641,3.362,13.648,5.771
			c3.721,1.028,7.324,2.403,10.762,4.104c-0.893-0.69-1.781-1.388-2.697-2.024C453.558,983.193,446.171,980.727,438.901,980.301z
			 M483.38,1034.775c-0.391-0.141-0.789-0.362-1.165-0.713c-0.394-0.371-0.771-0.761-1.168-1.133
			c-0.106,0.665-0.462,1.275-1.001,1.742c-0.378,2.434-1.047,4.891-1.972,7.518C480.465,1040.29,482.338,1037.951,483.38,1034.775z"
			/>
	</g>
	<path fill="#8ECCCE" d="M362.754,837.932c-22.31,20.342-25.868,53.389-31.679,83.011c-6.461,32.903-12.637,37.394-19.478,70.226
		c-2.03,9.774-3.591,20.475,1.048,29.313c6.683,12.74,22.959,16.273,37.188,18.415c21.203,3.188,35.403,8.414,56.609,11.604
		c36.863,5.546,15.311,2.568,74.088,11.716c3.132,0.486,27.127,5.343,34.703,6.669c4.084,0.717,19.805,6.949,21.625,3.23
		c4.156-8.474,7.023-17.576,8.471-26.901c0.896-5.774-30.135-10.882-35.617-12.9c-6.471-2.382-38.682-7.017-43.184-8.127
		c-44.176-10.91-37.256-4.311-81.433-15.22c-3.757-0.927-7.561-1.873-10.96-3.723c-11.628-6.335,6.234-35.308,8.969-48.266
		c2.729-12.958,1.352-29.829,8.121-41.212c5.947-9.997,11.25-20.376,15.863-31.056c4.405-10.193,8.25-21.278,6.299-32.21
		C408.942,827.549,379.594,822.588,362.754,837.932z"/>
	<path fill="#EADDD0" d="M566.089,1061.159c0.04,3.932,0,7.997-2.045,11.591c-2.039,3.595-6.629,6.611-11.65,6.288
		c-2.069-0.132-4.011-0.804-5.906-1.466c-5.397-1.883-11.277-4.143-13.506-8.414c-1.715-3.287-0.825-7.01,0.089-10.49
		c2.081-7.925,6.255-16.307,18.114-14.672C562.753,1045.589,566,1053.011,566.089,1061.159z"/>
</g>
</svg>
