<?xml version="1.0" encoding="utf-8"?>
<!-- Generator: Adobe Illustrator 16.0.0, SVG Export Plug-In . SVG Version: 6.00 Build 0)  -->
<!DOCTYPE svg PUBLIC "-//W3C//DTD SVG 1.1//EN" "http://www.w3.org/Graphics/SVG/1.1/DTD/svg11.dtd">
<svg version="1.1" id="Layer_1" xmlns="http://www.w3.org/2000/svg" xmlns:xlink="http://www.w3.org/1999/xlink" x="0px" y="0px"
	 width="3800px" height="2000px" viewBox="0 0 3800 2000" enable-background="new 0 0 3800 2000" xml:space="preserve">
<rect y="-0.237" fill="#FFFFFF" width="3800" height="2000"/>
<path fill="#EBF2F9" d="M2818.978,732.241c-97.438-83.114-214.905-584.357-617.309-323.296
	c-207.902,134.88-558.473-115.792-848.643-29.21c-266.484,79.516-292.172,341.492-266.388,426.858
	c52.084,172.438-110,198.098-260.358,272.187c-235.854,116.216-62.42,524.64,160.394,526.592s1572.662-3.89,1572.662-3.89
	s323.685,0.817,458.287-177.829C3162.473,1231.407,3070.653,946.924,2818.978,732.241z"/>
<g id="sheild">
	<path fill="#ADD8E6" d="M1139.342,1177.297c0-36.257-2.932-71.827-8.554-106.496c-44.852,22.73-99.531,36.086-158.548,36.086
		c-95.239,0-179.201-34.762-228.75-87.623c-49.548,52.861-133.51,87.623-228.75,87.623c-52.603,0-101.762-10.607-143.587-29.01
		c-4.897,32.428-7.442,65.626-7.442,99.42c0,267.512,159.089,497.862,387.816,601.614
		C980.253,1675.159,1139.342,1444.809,1139.342,1177.297z"/>
	<g>
		<path fill="none" d="M751.047,1259.445c-47.183,0-85.874,34.555-89.619,82.555h179.238
			C836.919,1294,798.229,1259.445,751.047,1259.445z"/>
		<path fill="#1389A5" d="M870.41,1342c-3.804-64-55.791-112.221-119.363-112.221c-63.573,0-115.558,48.221-119.362,112.221H626v211
			h252v-211H870.41z M751.047,1259.445c47.182,0,85.873,34.555,89.619,82.555H661.428
			C665.173,1294,703.864,1259.445,751.047,1259.445z M771,1467.994v47.354c-6,1.636-12.295,2.513-18.876,2.513
			c-6.671,0-14.124-0.9-19.124-2.58v-47.495c-8-5.471-10.867-13.638-10.867-22.763c0-16.472,13.198-29.824,29.669-29.824
			s29.913,13.353,29.913,29.824C781.715,1454.264,777,1462.523,771,1467.994z"/>
		<path fill="#FFFFFF" d="M751.647,1415.198c-16.469,0-29.515,13.353-29.515,29.824c0,9.125,2.867,17.292,10.867,22.763v47.495
			c5,1.68,12.453,2.58,19.124,2.58c6.581,0,12.876-0.877,18.876-2.513v-47.354c6-5.471,10.637-13.73,10.637-22.972
			C781.637,1428.551,768.119,1415.198,751.647,1415.198z"/>
	</g>
</g>
<g id="email-setup_1_">
	<path fill="#ADD8E6" d="M3337,1709.928c0,3.548-2.502,6.072-5.482,6.072H2230.563c-2.98,0-5.563-2.524-5.563-6.072v-623.351
		c0-3.549,2.583-6.577,5.563-6.577h1100.954c2.98,0,5.482,3.028,5.482,6.577V1709.928z"/>
	<path fill="#4C4CCC" d="M3337,1139.347c0,0.334-2.502,0.653-5.482,0.653H2230.563c-2.98,0-5.563-0.319-5.563-0.653v-58.592
		c0-0.334,2.583-0.755,5.563-0.755h1100.954c2.98,0,5.482,0.421,5.482,0.755V1139.347z"/>
	<g id="buttons_1_">
		<circle fill="#9999AD" cx="2256.84" cy="1110.297" r="13.657"/>
		<circle fill="#9999AD" cx="2288.971" cy="1110.297" r="13.657"/>
		<circle fill="#9999AD" cx="2321.103" cy="1110.297" r="13.657"/>
	</g>
	<g>
		<path fill="#42CBEA" d="M2954,1122.574c0,3.549-2.877,6.426-6.427,6.426h-586.146c-3.55,0-6.427-2.877-6.427-6.426v-25.148
			c0-3.549,2.877-6.426,6.427-6.426h586.146c3.55,0,6.427,2.877,6.427,6.426V1122.574z"/>
		<rect x="2366.01" y="1098.181" fill="none" width="436.988" height="26.419"/>
		<text transform="matrix(1 0 0 1 2366.0098 1117.6738)" fill="#252626" font-family="'ArialRoundedMTBold'" font-size="26.7762">https://some-email-service.com/</text>
	</g>
	<path fill="#83B7B2" d="M2526,1696.539c0,3.549-3.161,6.461-7.223,6.461h-265.371c-4.062,0-7.406-2.912-7.406-6.461v-521.064
		c0-3.55,3.345-6.475,7.406-6.475h265.371c4.062,0,7.223,2.925,7.223,6.475V1696.539z"/>
	<g id="email-setup">
		<path fill="#83B7B2" d="M3319,1694.396c0,3.55-3.338,6.604-7.093,6.604h-756.483c-3.756,0-6.424-3.054-6.424-6.604v-521.064
			c0-3.55,2.668-6.332,6.424-6.332h756.483c3.755,0,7.093,2.782,7.093,6.332V1694.396z"/>
	</g>
	<rect x="2682.504" y="1237.107" fill="none" width="517.344" height="39.891"/>
	<text transform="matrix(1 0 0 1 2682.5039 1264.3975)" fill="#191919" font-family="'ArialRoundedMTBold'" font-size="37.4867">press@simarmannsingh.de</text>
	<g id="text">
		<path fill="#636666" d="M3262,1333.453c0,3.55-2.727,6.547-6.032,6.547h-567.74c-3.306,0-6.228-2.997-6.228-6.547v-2.142
			c0-3.548,2.922-6.312,6.228-6.312h567.74c3.306,0,6.032,2.764,6.032,6.312V1333.453z"/>
		<path fill="#636666" d="M3262,1365.586c0,3.548-2.727,6.414-6.032,6.414h-567.74c-3.306,0-6.228-2.866-6.228-6.414v-2.143
			c0-3.55,2.922-6.443,6.228-6.443h567.74c3.306,0,6.032,2.894,6.032,6.443V1365.586z"/>
		<path fill="#636666" d="M3262,1398.252c0,3.549-2.727,5.748-6.032,5.748h-567.74c-3.306,0-6.228-2.199-6.228-5.748v-2.142
			c0-3.55,2.922-7.11,6.228-7.11h567.74c3.306,0,6.032,3.561,6.032,7.11V1398.252z"/>
		<path fill="#636666" d="M3262,1430.919c0,3.549-2.727,7.081-6.032,7.081h-567.74c-3.306,0-6.228-3.532-6.228-7.081v-2.142
			c0-3.549,2.922-5.777,6.228-5.777h567.74c3.306,0,6.032,2.229,6.032,5.777V1430.919z"/>
		<path fill="#636666" d="M3262,1464.121c0,3.55-2.727,6.879-6.032,6.879h-567.74c-3.306,0-6.228-3.329-6.228-6.879v-2.142
			c0-3.549,2.922-6.979,6.228-6.979h567.74c3.306,0,6.032,3.431,6.032,6.979V1464.121z"/>
		<path fill="#636666" d="M3262,1496.789c0,3.548-2.727,6.211-6.032,6.211h-567.74c-3.306,0-6.228-2.663-6.228-6.211v-2.143
			c0-3.549,2.922-6.646,6.228-6.646h567.74c3.306,0,6.032,3.098,6.032,6.646V1496.789z"/>
		<path fill="#636666" d="M3262,1529.456c0,3.548-2.727,6.544-6.032,6.544h-567.74c-3.306,0-6.228-2.996-6.228-6.544v-2.143
			c0-3.549,2.922-6.313,6.228-6.313h567.74c3.306,0,6.032,2.765,6.032,6.313V1529.456z"/>
		<path fill="#636666" d="M3262,1562.122c0,3.55-2.727,5.878-6.032,5.878h-567.74c-3.306,0-6.228-2.328-6.228-5.878v-2.142
			c0-3.549,2.922-6.98,6.228-6.98h567.74c3.306,0,6.032,3.432,6.032,6.98V1562.122z"/>
	</g>
	<g id="text_1_">
		<path fill="#636666" d="M2506,1301.857c0,3.55-1.332,6.143-2.714,6.143h-237.171c-1.381,0-3.115-2.593-3.115-6.143v-2.143
			c0-3.548,1.734-6.715,3.115-6.715h237.171c1.382,0,2.714,3.167,2.714,6.715V1301.857z"/>
		<path fill="#636666" d="M2506,1333.989c0,3.549-1.332,6.011-2.714,6.011h-237.171c-1.381,0-3.115-2.462-3.115-6.011v-2.142
			c0-3.55,1.734-6.848,3.115-6.848h237.171c1.382,0,2.714,3.298,2.714,6.848V1333.989z"/>
		<path fill="#636666" d="M2506,1366.656c0,3.549-1.332,6.344-2.714,6.344h-237.171c-1.381,0-3.115-2.795-3.115-6.344v-2.143
			c0-3.548,1.734-6.514,3.115-6.514h237.171c1.382,0,2.714,2.966,2.714,6.514V1366.656z"/>
		<path fill="#636666" d="M2506,1399.323c0,3.549-1.332,6.677-2.714,6.677h-237.171c-1.381,0-3.115-3.128-3.115-6.677v-2.142
			c0-3.55,1.734-6.182,3.115-6.182h237.171c1.382,0,2.714,2.632,2.714,6.182V1399.323z"/>
		<path fill="#636666" d="M2506,1432.525c0,3.549-1.332,6.475-2.714,6.475h-237.171c-1.381,0-3.115-2.926-3.115-6.475v-2.142
			c0-3.549,1.734-6.384,3.115-6.384h237.171c1.382,0,2.714,2.835,2.714,6.384V1432.525z"/>
		<path fill="#636666" d="M2506,1465.193c0,3.548-1.332,6.807-2.714,6.807h-237.171c-1.381,0-3.115-3.259-3.115-6.807v-2.143
			c0-3.549,1.734-6.051,3.115-6.051h237.171c1.382,0,2.714,2.502,2.714,6.051V1465.193z"/>
		<path fill="#636666" d="M2506,1497.859c0,3.55-1.332,6.141-2.714,6.141h-237.171c-1.381,0-3.115-2.591-3.115-6.141v-2.143
			c0-3.549,1.734-6.717,3.115-6.717h237.171c1.382,0,2.714,3.168,2.714,6.717V1497.859z"/>
		<path fill="#636666" d="M2506,1530.526c0,3.549-1.332,6.474-2.714,6.474h-237.171c-1.381,0-3.115-2.925-3.115-6.474v-2.142
			c0-3.549,1.734-6.385,3.115-6.385h237.171c1.382,0,2.714,2.836,2.714,6.385V1530.526z"/>
	</g>
	<path id="shadow" opacity="0.4" fill="#A5D2D3" d="M2508.935,1658.456c-33.593-1.6-67.042-4.526-99.741-12.701
		c-20.462-5.115-42.1-10.605-60.078-22.049c-18.277-11.634-33.093-28.589-40.949-48.884c-9.164-23.672-14.426-49.236-20.048-73.929
		c-3.816-16.759-7.39-33.603-10.386-50.53c-2.342-13.229-3.969-26.579-5.945-39.866c-5.133-34.501-10.015-68.98-14.429-103.582
		c-4.452-34.906-8.857-69.804-12.94-104.757c-3.233-27.676-6.5-55.344-9.558-83.04c-1.4-12.678-2.831-25.351-4.194-38.032
		c-0.008-0.071-0.17-0.936-0.186-0.936c-2.98,0-5.48,2.878-5.48,6.427v623.351c0,3.548,2.583,6.072,5.563,6.072h1100.954
		c2.98,0,5.482-2.524,5.482-6.072v-22.551C3313,1693.804,2745.124,1669.703,2508.935,1658.456z"/>
	<g>
		<path fill="#B1DDDC" d="M2629.996,1272.871c14.912-0.066,24.457,7.355,30.264,14.75c7.51-7.645,12.143-18.124,12.143-29.688
			c0-23.4-18.969-42.369-42.369-42.369s-42.369,18.969-42.369,42.369c0,11.543,4.617,22.004,12.103,29.645
			C2605.576,1280.198,2615.113,1272.805,2629.996,1272.871z M2630.023,1231.175c10.473,0,18.964,8.49,18.964,18.965
			c0,10.473-8.491,18.964-18.964,18.964c-10.475,0-18.966-8.491-18.966-18.964
			C2611.058,1239.665,2619.549,1231.175,2630.023,1231.175z"/>
		<circle fill="#878787" cx="2630.023" cy="1250.139" r="18.964"/>
		<path fill="#878787" d="M2630.033,1300.304c11.837,0,22.539-4.856,30.227-12.683c-5.807-7.395-15.352-14.816-30.264-14.75
			c-14.883-0.066-24.42,7.327-30.229,14.707C2607.457,1295.43,2618.176,1300.304,2630.033,1300.304z"/>
	</g>
	<path fill="#636666" d="M2505,1266.574c0,3.549-2.877,6.426-6.426,6.426h-229.148c-3.549,0-6.426-2.877-6.426-6.426v-29.148
		c0-3.549,2.877-6.426,6.426-6.426h229.148c3.549,0,6.426,2.877,6.426,6.426V1266.574z"/>
	<g>
		<circle fill="#1389A5" cx="3336.868" cy="1703.119" r="112.015"/>
		<polygon fill="#FCFCFC" points="3316.952,1737.506 3275.655,1696.21 3261.124,1710.739 3316.188,1765.804 3413.058,1668.934 
			3399.291,1655.168 		"/>
	</g>
</g>
</svg>
