<?xml version="1.0" encoding="utf-8"?>
<!-- Generator: Adobe Illustrator 16.0.0, SVG Export Plug-In . SVG Version: 6.00 Build 0)  -->
<!DOCTYPE svg PUBLIC "-//W3C//DTD SVG 1.1//EN" "http://www.w3.org/Graphics/SVG/1.1/DTD/svg11.dtd" [
	<!ENTITY ns_flows "http://ns.adobe.com/Flows/1.0/">
	<!ENTITY ns_extend "http://ns.adobe.com/Extensibility/1.0/">
	<!ENTITY ns_ai "http://ns.adobe.com/AdobeIllustrator/10.0/">
	<!ENTITY ns_graphs "http://ns.adobe.com/Graphs/1.0/">
]>
<svg version="1.1" id="Layer_1" xmlns:x="&ns_extend;" xmlns:i="&ns_ai;" xmlns:graph="&ns_graphs;"
	 xmlns="http://www.w3.org/2000/svg" xmlns:xlink="http://www.w3.org/1999/xlink" xmlns:a="http://ns.adobe.com/AdobeSVGViewerExtensions/3.0/"
	 x="0px" y="0px" width="3800px" height="2000px" viewBox="0 0 3800 2000" enable-background="new 0 0 3800 2000"
	 xml:space="preserve">
<rect fill="#FFFFFF" stroke="#000000" stroke-miterlimit="10" width="3800" height="2000"/>
<g>
	<path fill="#EBF2F9" d="M3058.334,752.765c-96.407-86.411-212.634-607.53-610.784-336.114
		c-205.707,140.228-552.572-120.384-839.674-30.369c-263.668,82.668-289.084,355.033-263.573,443.784
		c51.534,179.274-108.836,205.952-257.606,282.979c-233.362,120.822-61.76,545.439,158.699,547.471
		c220.459,2.029,1556.043-4.043,1556.043-4.043s320.264,0.852,453.443-184.881C3398.2,1271.725,3307.351,975.961,3058.334,752.765z"
		/>
	<g>
		<g>
			<g>
				<path id="SVGID_1_" fill="#F3D39C" d="M1354.588,1024.854c0,195.947-158.848,354.789-354.798,354.789
					s-354.801-158.842-354.801-354.789c0-195.959,158.851-354.813,354.801-354.813
					C1195.741,670.04,1354.588,828.894,1354.588,1024.854z"/>
			</g>
			<g>
				<defs>
					<path id="SVGID_2_" d="M1354.588,1024.854c0,195.947-158.848,354.789-354.798,354.789s-354.801-158.842-354.801-354.789
						c0-195.959,158.851-354.813,354.801-354.813C1195.741,670.04,1354.588,828.894,1354.588,1024.854z"/>
				</defs>
				<clipPath id="SVGID_3_">
					<use xlink:href="#SVGID_2_"  overflow="visible"/>
				</clipPath>
				<g clip-path="url(#SVGID_3_)">
					<path fill="#202C31" d="M1196.306,1232.268c-22.291-27.79-198.787-88.818-198.787-88.818s-172.764,67.494-198.779,88.818
						c-26.008,21.338-35.753,156.133-35.753,156.133h463.97C1226.957,1388.399,1218.599,1260.069,1196.306,1232.268z"/>
					<path fill="#D89D72" d="M1052.238,1176.028c0,0-6.769,32.752-54.666,32.752c-47.901,0-54.646-32.752-54.646-32.752
						s13.317-26.487,0-57.576c-13.323-31.09,125.604-37.39,109.313,0C1035.938,1155.841,1052.238,1176.028,1052.238,1176.028z"/>
					<path fill="#3D2527" d="M1111.683,1053.226c3.479-46.646,33.074-113.881,33.074-113.881
						c42.098-94.134-1.582-236.069-83.18-192.446c-101.01-92.25-260.805,36.77-206.749,191.168c0,0,25.639,62.515,28.12,108.659
						c2.486,46.141,85.387,138.399,112.027,139.873C1021.596,1188.097,1108.211,1099.86,1111.683,1053.226z"/>
					<path fill="#FAB587" d="M1152.035,966.298c0,24.66-17.511,58.556-29.286,58.556c-11.782,0-21.34-20.012-21.34-44.673
						c0-24.659,12.064-37.389,21.34-44.653C1134.166,926.599,1152.035,935.526,1152.035,966.298z"/>
					<path fill="#FAB587" d="M846.555,966.298c0,24.66,17.493,58.556,29.275,58.556c11.794,0,21.346-20.012,21.346-44.673
						c0-24.659-12.063-37.389-21.346-44.653C864.416,926.599,846.555,935.526,846.555,966.298z"/>
					<path fill="#FAB587" d="M999.79,770.757c-82.859,0-119.48,58.066-119.48,144.658c0,44.118,0,78.596,0,108.442
						c0,75.419,87.131,139.921,114.666,139.921c27.517,0,124.303-75.42,124.303-146.863c0-28.248,0-60.752,0-101.5
						C1119.278,828.823,1082.649,770.757,999.79,770.757z"/>
					<path fill="#3D2527" d="M1119.278,977.217l7.444-63.187c0-86.599-44.073-151.116-126.933-151.116
						s-127.92,73.811-127.92,160.415l8.438,67.771c0,0,19.596-13.301,18.728-37.707c-1.986-55.592,27.124-63.794,72.45-72.456
						c71.447-13.636,91.526-56.504,91.526-56.504s23.438,7.943,38.396,42.869c9.685,22.563-2.974,47.135-3.722,61.267
						C1096.944,942.716,1119.278,977.217,1119.278,977.217z"/>
					<path fill="#3D2527" d="M1007.542,1118.575c-7.286,0.482-20.677,1.721-25.146,0c13.399,20.577,0,49.733,0,49.733h25.146
						C1007.542,1168.311,996.584,1143.431,1007.542,1118.575z"/>
				</g>
			</g>
		</g>
		<g>
			<path fill="#AE1116" d="M936.676,919.97c-31.373,0-50.98,11.659-50.98,24.035c0,19.664,7.172,51.587,38.319,55.354
				c30.138,3.642,69.472-7.285,69.472-57.534C993.486,930.17,968.053,919.97,936.676,919.97z M926.251,993.688
				c-26.661-3.22-32.797-30.549-32.797-47.38c0-10.599,16.785-20.579,43.648-20.579c26.852,0,48.633,8.729,48.633,18.699
				C985.737,987.462,952.07,996.809,926.251,993.688z"/>
			<path fill="#AE1116" d="M1013.142,954.567c0,0-1.451-7.654-11.819-7.654c-7.091,0-8.896,8.393-8.896,8.393l-3.754-22.123
				c0,0,5.179,4.453,8.638,4.453c1.73,0,5.938,0.863,9.484,0c3.521-0.866,6.348-4.453,6.348-4.453V954.567z"/>
			<path fill="#AE1116" d="M890.065,966.581c0,0-11.291-0.807-11.291-6.593s0-8.329,0-17.435c0-9.104,11.291-6.204,11.291-6.204
				V966.581z"/>
			<path fill="#AE1116" d="M1008.097,941.825c0,50.249,39.329,61.176,69.473,57.534c31.146-3.769,38.319-35.69,38.319-55.354
				c0-12.376-19.604-24.035-50.993-24.035C1033.531,919.97,1008.097,930.17,1008.097,941.825z M1015.858,944.429
				c0-9.97,21.765-18.698,48.623-18.698c26.869,0,43.641,9.979,43.641,20.578c0,16.831-6.128,44.16-32.803,47.381
				C1049.537,996.809,1015.858,987.462,1015.858,944.429z"/>
			<path fill="#AE1116" d="M1111.519,966.581c0,0,11.285-0.807,11.285-6.593s0-8.329,0-17.435c0-9.104-11.285-6.204-11.285-6.204
				V966.581z"/>
		</g>
	</g>
</g>
</svg>
