<?xml version="1.0" encoding="utf-8"?>
<!-- Generator: Adobe Illustrator 16.0.0, SVG Export Plug-In . SVG Version: 6.00 Build 0)  -->
<!DOCTYPE svg PUBLIC "-//W3C//DTD SVG 1.1//EN" "http://www.w3.org/Graphics/SVG/1.1/DTD/svg11.dtd">
<svg version="1.1" id="Layer_1" xmlns="http://www.w3.org/2000/svg" xmlns:xlink="http://www.w3.org/1999/xlink" x="0px" y="0px"
	 width="3800px" height="2000px" viewBox="0 0 3800 2000" enable-background="new 0 0 3800 2000" xml:space="preserve">
<rect y="1.763" fill="#FFFFFF" width="3800" height="2000"/>
<path fill="#EBF2F9" d="M2818.978,734.241c-97.438-83.114-214.902-584.357-617.309-323.296
	c-207.902,134.88-558.473-115.792-848.643-29.21c-266.484,79.516-292.172,341.491-266.391,426.855
	c52.084,172.438-110,198.101-260.355,272.188c-235.854,116.216-62.42,524.64,160.394,526.592s1572.662-3.89,1572.662-3.89
	s323.685,0.814,458.287-177.829C3162.473,1233.407,3070.653,948.924,2818.978,734.241z"/>
<g>
	<g>
		
			<rect x="2259.998" y="1211.078" transform="matrix(-0.9617 -0.2742 0.2742 -0.9617 4287.5435 3246.3745)" fill="#BABABA" width="221.312" height="224.923"/>
		
			<rect x="2475.891" y="1273.016" transform="matrix(-0.9617 -0.2742 0.2742 -0.9617 4694.0752 3427.0688)" fill="#BABABA" width="221.313" height="224.922"/>
	</g>
	<g>
		
			<rect x="2663.523" y="1351.185" transform="matrix(-0.9617 -0.2742 0.2742 -0.9617 5040.7148 3631.8613)" fill="#ADD8E6" width="221.313" height="224.923"/>
		<polygon fill="#9BC0C9" points="2849.693,1601.475 2940.693,1557.404 3003.833,1336.109 2911.358,1385.189 		"/>
		<polyline fill="#9BC0C9" points="2698.545,1325.114 2911.358,1385.189 3003.833,1336.109 2814.41,1288.001 		"/>
	</g>
	<g>
		
			<rect x="2944.358" y="1405.309" transform="matrix(-0.9617 -0.2742 0.2742 -0.9617 5576.7842 3815.0325)" fill="#BABABA" width="221.314" height="224.922"/>
		
			<rect x="3160.247" y="1467.253" transform="matrix(-0.9617 -0.2742 0.2742 -0.9617 5983.3003 3995.7444)" fill="#BABABA" width="221.313" height="224.921"/>
	</g>
	<path fill="#BFE3E8" d="M3018.781,1310.816c0,0-130.656,55.054-245.914-62.797c0,0,38.303-31.398,132.676-7.302
		C2905.543,1240.72,2977.798,1259.171,3018.781,1310.816z"/>
	<path fill="#6D99C9" d="M2886.59,1327.77c-1.437,5.03-8.265,7.521-15.178,5.543l-0.011-0.002
		c-6.913-1.977-11.271-7.658-9.829-12.689l10.639-37.224c1.437-5.028,8.137-7.548,15.046-5.573l0.015,0.004
		c6.912,1.975,11.395,7.688,9.955,12.72L2886.59,1327.77z"/>
	<path fill="#C7D1D3" d="M2773.062,1244.913c0,0,93.018,124.281,245.606,62.717
		C3018.668,1307.63,2844.448,1425.444,2773.062,1244.913z"/>
	<g>
		<g>
			
				<path opacity="0.2" fill="none" stroke="#8AACDA" stroke-width="7" stroke-linecap="round" stroke-linejoin="round" enable-background="new    " d="
				M2805.363,1161.597c0,0,144.414-41.069,246.198,76.619"/>
			
				<path opacity="0.25" fill="none" stroke="#709CD2" stroke-width="6" stroke-linecap="round" stroke-linejoin="round" enable-background="new    " d="
				M2805.363,1161.597c0,0,144.414-41.069,246.198,76.619"/>
			
				<path opacity="0.3" fill="none" stroke="#5E93CD" stroke-width="5" stroke-linecap="round" stroke-linejoin="round" enable-background="new    " d="
				M2805.363,1161.597c0,0,144.414-41.069,246.198,76.619"/>
			<path fill="none" stroke="#0073BC" stroke-width="4" stroke-linecap="round" stroke-linejoin="round" d="M2805.363,1161.597
				c0,0,144.414-41.069,246.198,76.619"/>
			<path fill="none" stroke="#3081C4" stroke-width="3.25" stroke-linecap="round" stroke-linejoin="round" d="M2805.363,1161.597
				c0,0,144.414-41.069,246.198,76.619"/>
			<path fill="none" stroke="#578FCB" stroke-width="2.5" stroke-linecap="round" stroke-linejoin="round" d="M2805.363,1161.597
				c0,0,144.414-41.069,246.198,76.619"/>
			<path fill="none" stroke="#7EA4D6" stroke-width="1.65" stroke-linecap="round" stroke-linejoin="round" d="M2805.363,1161.597
				c0,0,144.414-41.069,246.198,76.619"/>
			<path fill="none" stroke="#A9C0E4" stroke-width="0.65" stroke-linecap="round" stroke-linejoin="round" d="M2805.363,1161.597
				c0,0,144.414-41.069,246.198,76.619"/>
		</g>
		<g>
			
				<path opacity="0.2" fill="none" stroke="#8AACDA" stroke-width="7" stroke-linecap="round" stroke-linejoin="round" enable-background="new    " d="
				M2792.927,1124.38c0,0,172.715-49.12,294.443,91.635"/>
			
				<path opacity="0.25" fill="none" stroke="#709CD2" stroke-width="6" stroke-linecap="round" stroke-linejoin="round" enable-background="new    " d="
				M2792.927,1124.38c0,0,172.715-49.12,294.443,91.635"/>
			
				<path opacity="0.3" fill="none" stroke="#5E93CD" stroke-width="5" stroke-linecap="round" stroke-linejoin="round" enable-background="new    " d="
				M2792.927,1124.38c0,0,172.715-49.12,294.443,91.635"/>
			<path fill="none" stroke="#0073BC" stroke-width="4" stroke-linecap="round" stroke-linejoin="round" d="M2792.927,1124.38
				c0,0,172.715-49.12,294.443,91.635"/>
			<path fill="none" stroke="#3081C4" stroke-width="3.25" stroke-linecap="round" stroke-linejoin="round" d="M2792.927,1124.38
				c0,0,172.715-49.12,294.443,91.635"/>
			<path fill="none" stroke="#578FCB" stroke-width="2.5" stroke-linecap="round" stroke-linejoin="round" d="M2792.927,1124.38
				c0,0,172.715-49.12,294.443,91.635"/>
			<path fill="none" stroke="#7EA4D6" stroke-width="1.65" stroke-linecap="round" stroke-linejoin="round" d="M2792.927,1124.38
				c0,0,172.715-49.12,294.443,91.635"/>
			<path fill="none" stroke="#A9C0E4" stroke-width="0.65" stroke-linecap="round" stroke-linejoin="round" d="M2792.927,1124.38
				c0,0,172.715-49.12,294.443,91.635"/>
		</g>
		<g>
			
				<path opacity="0.2" fill="none" stroke="#8AACDA" stroke-width="7" stroke-linecap="round" stroke-linejoin="round" enable-background="new    " d="
				M2774.188,1087.732c0,0,207.436-58.995,353.639,110.056"/>
			
				<path opacity="0.25" fill="none" stroke="#709CD2" stroke-width="6" stroke-linecap="round" stroke-linejoin="round" enable-background="new    " d="
				M2774.188,1087.732c0,0,207.436-58.995,353.639,110.056"/>
			
				<path opacity="0.3" fill="none" stroke="#5E93CD" stroke-width="5" stroke-linecap="round" stroke-linejoin="round" enable-background="new    " d="
				M2774.188,1087.732c0,0,207.436-58.995,353.639,110.056"/>
			<path fill="none" stroke="#0073BC" stroke-width="4" stroke-linecap="round" stroke-linejoin="round" d="M2774.188,1087.732
				c0,0,207.436-58.995,353.639,110.056"/>
			<path fill="none" stroke="#3081C4" stroke-width="3.25" stroke-linecap="round" stroke-linejoin="round" d="M2774.188,1087.732
				c0,0,207.436-58.995,353.639,110.056"/>
			<path fill="none" stroke="#578FCB" stroke-width="2.5" stroke-linecap="round" stroke-linejoin="round" d="M2774.188,1087.732
				c0,0,207.436-58.995,353.639,110.056"/>
			<path fill="none" stroke="#7EA4D6" stroke-width="1.65" stroke-linecap="round" stroke-linejoin="round" d="M2774.188,1087.732
				c0,0,207.436-58.995,353.639,110.056"/>
			<path fill="none" stroke="#A9C0E4" stroke-width="0.65" stroke-linecap="round" stroke-linejoin="round" d="M2774.188,1087.732
				c0,0,207.436-58.995,353.639,110.056"/>
		</g>
	</g>
</g>
<g>
	<path fill="#C89A81" d="M390.362,807.435c4.391,10.645,10.013,20.949,18.085,29.153c8.073,8.204,18.813,14.167,30.3,14.855
		c17.85,1.065,34.742-11.097,42.875-27.013c3.583-7.012,5.732-14.656,7.463-22.345c4.232-18.793,6.074-38.078,6.363-57.343
		c0.203-13.538-0.662-28.026-8.715-38.91c-7.38-9.974-19.687-15.196-31.904-17.352c-14.509-2.559-29.92-1.284-43.185,5.147
		C367.119,715.238,374.647,769.337,390.362,807.435z"/>
	<path fill="#323232" d="M426.187,773.112c-3.586,2.646-4.252,8.434-1.377,11.834c1.602,1.88,4.082,3.104,4.954,5.412
		c0.983,2.618-0.511,5.426-1.409,8.07c-1.35,3.99-1.36,8.289-1.354,12.503c0,5.133,0.007,10.258,0.007,15.389
		c0,1.087,0.015,2.214,0.435,3.217c0.418,1.015,1.225,1.813,1.709,2.798c0.84,1.671,0.67,3.644,0.778,5.518
		c0.186,3.188,1.232,6.261,1.812,9.396c0.576,3.146,0.635,6.579-1.003,9.317c-1.632,2.744-5.427,4.369-8.179,2.76
		c-2.229-1.313-3.196-4.239-5.545-5.327c-2.285-1.063-5.091,0.006-7.438-0.904c-1.121-0.433-2.02-1.271-3.021-1.933
		c-5.496-3.601-13.257-1.271-19.01-4.456c-1.461-0.808-2.73-1.946-4.246-2.647c-1.938-0.896-4.142-1.016-6.276-1.111
		c-7.184-0.334-14.377-0.678-21.565-1.012c-1.363-0.063-2.786-0.144-3.991-0.783c-4.011-2.123-3.054-8.351-5.845-11.929
		c-1.947-2.487-5.321-3.224-8.342-4.151c-3.021-0.938-6.316-2.66-6.945-5.762c-0.373-1.834,0.196-4.074-1.16-5.365
		c-0.852-0.809-2.162-0.888-3.188-1.448c-1.719-0.943-2.387-3.041-2.813-4.947c-1.271-5.646-1.743-11.474-1.415-17.253
		c0.104-1.828,0.321-3.734,1.353-5.255c0.813-1.206,2.058-2.038,3.274-2.837c3.289-2.145,6.625-4.221,10-6.232
		c3.133-1.859,6.305-3.669,9.477-5.472c1.19-0.681,2.386-1.363,3.577-2.038c2.457-1.4,4.93-2.805,7.597-3.729
		c2.162-0.753,4.462-1.192,6.428-2.381c1.658-0.986,2.994-2.477,4.718-3.354c2.792-1.422,6.193-1.075,9.082-2.3
		c4.766-2.025,7.077-7.808,11.821-9.869c2.916-1.266,6.343-0.924,9.252-2.202c2.372-1.042,4.181-3.053,6.479-4.246
		c1.679-0.865,3.545-1.265,5.395-1.645c6.54-1.377,13.079-2.753,19.619-4.122c4.572-0.964,9.199-1.927,13.872-1.736
		c5.745,0.229,11.33,2.208,17.083,2.313c3.427,0.063,6.854-0.538,10.271-0.36c9.438,0.479,17.635,6.704,26.912,8.46
		c0.61,4.58,2.348,9.01,5.014,12.791c1.906,2.692,4.425,5.701,3.479,8.858c-0.833,2.799-4.03,4.128-6.919,4.565
		c-0.388-3.617-0.839-7.411-2.923-10.397c-3.361-4.815-9.812-6.112-15.608-7.02c-3.893-0.604-7.792-1.212-11.684-1.822
		c-2.045-0.318-4.136-0.642-6.188-0.357c-1.678,0.229-3.264,0.852-4.837,1.468c-5.908,2.32-11.813,4.632-17.719,6.946
		c-0.483,3.041-0.196,13.157-3.125,14.703C434.37,774.658,430.287,769.966,426.187,773.112z"/>
	<path fill="#5E625E" d="M561.166,1173.766c-2.896-10.425-13.735-17.417-22.726-20.785c-11.221-4.197-23.216-5.441-35.098-6.048
		c-27.542-1.396-55.299,0.498-82.211,6.9c-13.8,3.282-27.508,7.817-39.598,15.621c-12.097,7.811-22.548,19.154-27.687,33.196
		c-3.369,9.206-4.232,19.128-3.328,28.98c-0.604,3.475-0.32,7.109,0.014,10.654c5.021,52.316,43.432,173.146,48.451,225.454
		c1.297,13.491,2.588,27.102,1.021,40.565c-1.277,10.948-4.424,21.577-7.556,32.153c-9.908,33.419-19.816,66.845-29.73,100.271
		c8.809,4.276,19.058,5.49,28.617,3.395c15.398-42.121,37.455-71.357,53.883-107.465c10.667-23.445,18.859-58.712,20.838-84.393
		c0.648-8.43-2.051-128.289-0.479-165.98c5.367,92.662,22.651,267.706,24.704,357.523c7.228,0.014,14.462,0.023,21.688,0.039
		c0.141-34.384,8.244-68.154,14.816-101.908c15.248-78.312,33.327-210.717,32.188-290.496l-0.063,0.046
		c0.563-17.082,1.016-34.165,1.219-51.255C560.222,1192.212,563.302,1181.472,561.166,1173.766z"/>
	<path fill="#736357" d="M341.006,1092.932c-6.932,34.595-14.756,70.402-6.723,104.762c0.693,2.969,1.571,6.041,3.663,8.25
		c2.916,3.093,7.477,3.824,11.688,4.39c60.285,8.066,122.512,16.021,181.157-0.098c13.826-3.804,28.769-10.288,34.035-23.623
		c2.182-5.514,2.396-11.572,2.448-17.502c0.514-60.892-14.065-120.78-28.558-179.92c-10.517-42.939-21.184-86.294-40.979-125.818
		c-1.232-2.457-2.627-5.032-5.026-6.369c-2.005-1.106-4.402-1.173-6.695-1.212c-23.492-0.367-47.26-1.009-70.729,0.236
		c-10.708,0.563-11.625,4.207-15.996,13.817c-4.429,9.75-8.473,19.681-12.183,29.726c-14.729,39.873-24.142,81.457-32.438,123.064
		C350.003,1046.046,345.679,1069.524,341.006,1092.932z"/>
	<path fill="#1A1A1A" d="M507.065,1660.124c3.008,2.522-1.08,4.521-3.041,4.712c-3.57,0.34-7.278,0.137-10.771-0.702
		c-0.931-0.223-1.868-0.504-2.614-1.101c-0.584-0.465-1.009-1.095-1.429-1.717c-1.146-1.727-3.879-4.443-4.313-6.438
		c-0.354-1.646,0.637-3.244,1.407-4.744c1.642-3.188,4.443-6.468,4.302-10.256c7.744,0.854,15.168-1.818,21.591,0.271
		c0.536,2.697,2.556,4.905,1.618,7.019c0.613-1.396,19.314,3.315,21.539,3.748c3.563,0.694,7.146,1.291,10.771,1.612
		c2.824,0.249,8.229-1.057,9.815,1.763c0.563,1.002,0.748,2.169,0.832,3.312c0.064,0.869,0.071,1.77-0.209,2.596
		c-0.492,1.422-1.795,2.449-3.211,2.968C537.988,1668.813,522.675,1659.895,507.065,1660.124z"/>
	<path fill="#1A1A1A" d="M377.826,1661.979c2.68,3.282-2.063,4.58-4.181,4.38c-3.859-0.354-7.746-1.323-11.277-2.925
		c-0.938-0.42-1.88-0.908-2.549-1.688c-0.524-0.615-0.848-1.369-1.168-2.116c-0.87-2.051-3.218-5.49-3.27-7.69
		c-0.04-1.814,1.33-3.312,2.451-4.744c2.384-3.047,6.525-8.564,7.142-12.607c8.041,2.471,19.923,4.797,26.305,8.312
		c-2.405,2.771-2.255,4.673-3.678,6.724c0.938-1.351,19.814,7.424,22.075,8.335c3.646,1.461,7.32,2.816,11.104,3.893
		c2.935,0.832,8.931,0.553,10.045,3.854c0.393,1.173,0.354,2.449,0.209,3.683c-0.105,0.938-0.282,1.889-0.748,2.706
		c-0.805,1.409-2.398,2.229-4.003,2.497C408.849,1677.455,394.417,1664.901,377.826,1661.979z"/>
	<path fill="#393939" d="M522.426,807.356c11.86-0.917,23.74-1.828,35.647-1.828c4.082,0,8.242,0.124,12.102,1.445
		c5.905,2.032,10.569,6.726,13.932,11.979c8.996,14.082,9.549,31.768,9.815,48.471c0.36,22.319,0.728,44.631,1.088,66.942
		c0.046,2.917,0.039,6.036-1.6,8.455c-1.351,1.991-3.591,3.163-5.767,4.187c-31.709,14.98-67.959,16.073-103.018,16.899
		c-33.395,0.78-66.785,1.563-100.179,2.352c-4.907,0.112-10.32,0.063-14.023-3.165c-1.898-1.644-3.099-3.931-4.107-6.225
		c-3.538-8.053-5.223-16.808-6.237-25.549c-1.409-12.104-1.585-24.317-1.763-36.505c-0.235-16.345-0.472-32.688-0.707-49.028
		c-0.079-5.425-2.472-16.749,0.826-21.466c2.646-3.794,7.979-2.798,12.188-3.205c32.573-3.093,65.063-6.802,97.682-9.488
		C486.339,810.146,504.379,808.752,522.426,807.356z"/>
	<path fill="#323232" d="M614.644,845.113c6.23,18.692,4.976,38.946,3.649,58.611c-0.118,1.783-0.249,3.611-1.009,5.226
		c-1.088,2.326-3.316,3.896-5.596,5.063c-5.734,2.938-12.412,3.975-18.754,2.91c-1.232-0.203-2.537-0.538-3.338-1.486
		c-0.727-0.853-0.896-2.03-1.015-3.139c-0.571-5.137-0.741-10.313-0.905-15.484c-0.301-9.271-0.603-18.545-0.902-27.814
		c-0.195-6.153-3.164-19.082-0.248-24.468C589.828,838.423,612.604,839,614.644,845.113z"/>
	<path fill="#393939" d="M613.993,910.982c0.158,4.648,0.57,9.825,3.992,12.99c2.955,2.738,7.324,3.158,11.354,3.243
		c11.126,0.243,22.279-0.996,33.071-3.676c2.063-0.505,4.214-1.121,5.731-2.608c1.939-1.897,2.444-4.789,2.771-7.486
		c2.902-24.317-1.146-48.978-7.411-72.657c-0.583-2.221-1.237-4.515-2.759-6.231c-2.758-3.1-7.432-3.382-11.578-3.29
		c-8.734,0.19-21.618-0.318-29.756,3.227c-7.262,3.165-6.146,7.899-6.219,15.458C612.985,870.289,613.286,890.648,613.993,910.982z"
		/>
	<path fill="#6B5C51" d="M475.128,1023.341c9.102-53.641,6.409-75.906,14.619-114.333c-7.66-4.632-16.801-7.692-26.034-8.708
		c-1.901-0.21-3.938-0.313-5.505,0.386c-2.063,0.927-2.719,2.956-3.217,4.813c-8.729,32.604-15.235,65.756-19.489,99.268
		c-1.979,15.55-11.139,26.43-5.157,42.059c1.901,4.982,4.83,10.146,10.295,13.393c8.838,5.242,17.299,5.164,24.521-0.157
		c6.251-4.604,9.868-11.467,12.667-17.836C480.764,1035.521,473.844,1030.884,475.128,1023.341z"/>
	<path fill="#C89A81" d="M459.938,876.77c-0.445-1.435-0.949-2.968-0.553-4.423c0.787-2.89,4.394-3.729,6.798-5.511
		c4.696-3.473,4.593-10.373,6.604-15.854c0.432-1.166,1.035-2.365,2.116-2.978c1.062-0.596,2.364-0.511,3.577-0.413
		c7.019,0.598,15.013,1.736,18.918,7.595c2.183,3.271,2.596,7.438,2.201,11.352c-0.388,3.827-1.469,7.542-2.541,11.229
		c-2.287,7.847-4.573,15.694-6.86,23.545c-0.714,2.45-1.527,5.061-3.492,6.696c-3.133,2.614-7.791,1.737-11.75,0.722
		c-9.515-2.443-11.958-1.134-12.338-10.348C462.312,890.917,462.192,884.023,459.938,876.77z"/>
	<path fill="#323232" d="M527.063,868.048c3.563-0.262,8.748-1.868,11.813-0.026c2.713,1.625,4.331,4.574,5.55,7.497
		c2.682,6.455,2.615,10.684,2.451,17.676c-0.04,1.5-0.156,3.07-0.931,4.368c-1.673,2.794-5.484,3.174-8.742,3.23
		c-36.079,0.729-72.165,1.343-108.251,1.841c-6.686,0.092-14.167-0.131-18.846-4.899c-4.006-4.091-4.698-10.28-5.18-15.978
		c-0.195-2.307-0.373-4.711,0.531-6.841c2.444-5.747,19.908-3.656,25.301-4.049c10.902-0.793,21.81-1.592,32.709-2.388
		C484.662,866.934,505.874,869.588,527.063,868.048z"/>
	<path fill="#662E2A" d="M560.596,744.096c-0.806-2.339-4.921-3.388-8.479-3.998c-16.31-2.804-33.15-4.282-50.023-4.429
		c0.661-10.413,0.458-20.877-0.655-31.243c-0.354-3.296-0.813-6.638-2.193-9.65c-1.834-4.006-5.17-7.131-8.741-9.711
		c-5.25-3.788-11.188-6.611-17.438-8.299c-14.961-4.033-30.783-1.438-46.28-1.104c-6.47,0.145-13.08-0.1-19.229,1.894
		c-4.771,1.541-9.018,4.338-13.188,7.11c-4.003,2.654-8.009,5.308-12.014,7.968c-2.068,1.376-4.221,2.824-5.466,4.98
		c-1.079,1.874-1.362,4.088-1.585,6.235c-0.963,9.2-1.238,18.468-0.824,27.705c0.178,4.069,0.483,8.142,0.496,12.224
		c0.016,3.644-1.322,7.947-0.981,11.461c0.806,8.145,11.14,2.091,15.767,0.688c15.11-4.573,30.853-6.67,46.563-7.745
		c8.771-0.603,17.566-0.878,26.354-1.062c11.153-0.243,22.587-0.314,33.094,3.434c1.205,0.436,2.606,0.897,3.709,0.242
		c0.535-0.313,0.877-0.832,1.102-1.422c3.406,0.407,6.926,0.57,9.711,0.793c12.876,1.035,25.948,1.042,38.825,0.013
		c2.776-0.223,5.642-0.511,8.001-1.484C559.476,747.713,561.211,745.872,560.596,744.096z"/>
</g>
</svg>
