<?xml version="1.0" encoding="utf-8"?>
<!-- Generator: Adobe Illustrator 16.0.0, SVG Export Plug-In . SVG Version: 6.00 Build 0)  -->
<!DOCTYPE svg PUBLIC "-//W3C//DTD SVG 1.1//EN" "http://www.w3.org/Graphics/SVG/1.1/DTD/svg11.dtd" [
	<!ENTITY ns_flows "http://ns.adobe.com/Flows/1.0/">
	<!ENTITY ns_extend "http://ns.adobe.com/Extensibility/1.0/">
	<!ENTITY ns_ai "http://ns.adobe.com/AdobeIllustrator/10.0/">
	<!ENTITY ns_graphs "http://ns.adobe.com/Graphs/1.0/">
]>
<svg version="1.1" id="Layer_1" xmlns:x="&ns_extend;" xmlns:i="&ns_ai;" xmlns:graph="&ns_graphs;"
	 xmlns="http://www.w3.org/2000/svg" xmlns:xlink="http://www.w3.org/1999/xlink" xmlns:a="http://ns.adobe.com/AdobeSVGViewerExtensions/3.0/"
	 x="0px" y="0px" width="3800px" height="2000px" viewBox="0 0 3800 2000" enable-background="new 0 0 3800 2000"
	 xml:space="preserve">
<rect y="-1.764" fill="#FFFFFF" width="3800" height="2000"/>
<g>
	<path fill="#EBF2F9" d="M3007.406,759.37c-107.465-91.667-237.019-644.488-680.827-356.562
		c-229.295,148.758-615.939-127.708-935.965-32.216c-293.905,87.697-322.236,376.631-293.799,470.781
		c57.443,190.182-121.317,218.482-287.148,300.193c-260.124,128.175-68.843,578.624,176.897,580.777s1734.486-4.289,1734.486-4.289
		s356.99,0.902,505.444-196.129C3386.248,1309.898,3284.98,996.142,3007.406,759.37z"/>
	<g opacity="0.3"  a:adobe-knockout="true"  a:adobe-blending-mode="multiply">
		<g opacity="0"  a:adobe-knockout="false"  a:adobe-blending-mode="normal">
			<g>
				<path fill="#89D1D7" d="M2960,1523.842l-38-18.287v-52.234l38,18.282V1523.842z M2917,1443.378v66.963l51,23.438v-66.962
					L2917,1443.378z"/>
				<path fill="#89D1D7" d="M2966.971,1462.13l-40.189-18.692l40.341-18.244l39.149,18.244L2966.971,1462.13z M2967.271,1420.505
					l-50.582,22.873l50.395,23.439l49.279-23.439L2967.271,1420.505z"/>
				<path fill="#89D1D7" d="M3011,1504.936l-37,17.617v-50.33l37-17.617V1504.936z M2968,1466.817v66.962l49-23.438v-66.963
					L2968,1466.817z"/>
			</g>
			<rect x="2798" y="1559" fill="#89D1D7" width="332" height="41"/>
			<rect x="2938.403" y="1545.635" fill="#89D1D7" width="59.463" height="13.514"/>
			<path fill="#89D1D7" d="M3237.062,1321H3187v-13h48.586c0.563-3,0.5-7.807,0.393-10.51c-0.065-1.615,0.021-3.239,0.021-4.563
				V1192h-247.594c-1.322,0-2.616-0.272-4.232-0.335c-2.702-0.111-8.174-0.535-10.174,0.032V1294h-14v-103.778
				c0-3.17,1.186-5.973,3.405-8.105c5.007-4.808,13.541-4.498,21.072-4.198c1.422,0.057,2.765,0.082,3.929,0.082h248.655
				c1.446,0,2.47-0.065,3.182-0.129c1.628-0.143,4.636-0.402,7.097,2.058s2.078,5.481,1.932,7.103
				c-0.064,0.713-0.271,1.741-0.271,3.19v102.705c0,1.164,0.166,2.502,0.225,3.922c0.303,7.526,0.696,15.905-4.113,20.909
				C3242.979,1319.98,3240.231,1321,3237.062,1321z"/>
			<rect x="2879" y="1535" fill="#89D1D7" width="173" height="11"/>
			<path fill="#89D1D7" d="M3130,1600h-332v-330h332V1600z M2738,1219v494h449v-494H2738z"/>
			<g>
				<rect x="2798" y="1627" fill="#89D1D7" width="32" height="27"/>
				<rect x="2798" y="1665" fill="#89D1D7" width="32" height="16"/>
				<rect x="2838" y="1627" fill="#89D1D7" width="27" height="27"/>
				<rect x="2838" y="1665" fill="#89D1D7" width="27" height="16"/>
				<rect x="2879" y="1627" fill="#89D1D7" width="27" height="27"/>
				<rect x="2879" y="1665" fill="#89D1D7" width="27" height="16"/>
				<rect x="2917" y="1627" fill="#89D1D7" width="30" height="27"/>
				<rect x="2917" y="1665" fill="#89D1D7" width="30" height="16"/>
			</g>
			<path fill="#89D1D7" d="M3106.417,1654.662c0,7.37,5.973,13.342,13.337,13.342c7.372,0,13.349-5.972,13.349-13.342
				c0-7.369-5.977-13.343-13.349-13.343C3112.39,1641.319,3106.417,1647.293,3106.417,1654.662z"/>
			<path fill="#89D1D7" d="M3061.459,1654.662c0,7.37,5.98,13.342,13.345,13.342c7.367,0,13.342-5.972,13.342-13.342
				c0-7.369-5.975-13.343-13.342-13.343C3067.439,1641.319,3061.459,1647.293,3061.459,1654.662z"/>
			<rect x="2798" y="1308" fill="#89D1D7" width="332" height="13"/>
			<polygon fill="#89D1D7" points="3003.27,1334.819 3003.27,1318.603 2989.758,1318.603 2989.758,1294.278 2946.513,1294.278 
				2946.513,1318.603 2933,1318.603 2933,1334.819 2924.892,1334.819 2924.892,1353.738 2933,1353.738 2933,1367.252 
				2955.83,1367.252 2953.155,1375.329 2958.986,1379.408 2959.461,1384.752 2968.129,1399.451 2976.482,1385.067 
				2976.851,1380.037 2982.563,1375.329 2979.891,1367.252 3003.27,1367.252 3003.27,1353.738 3008.676,1353.738 3008.676,1334.819 
							"/>
			<polygon fill="#89D1D7" points="2968,1294 2947,1294 2947,1319 2933,1319 2933,1335 2925,1335 2925,1354 2933,1354 2933,1367 
				2955.83,1367 2953.155,1375.203 2958.986,1379.346 2959.461,1384.721 2968.061,1399.436 2968,1399.438 			"/>
			<rect x="3187" y="1302" fill="#89D1D7" width="11" height="25"/>
		</g>
		<g opacity="0.0476"  a:adobe-knockout="false"  a:adobe-blending-mode="normal">
			<g>
				<path fill="#84C9CE" d="M2956,1519.852l-38-18.287v-52.234l38,18.282V1519.852z M2913,1439.389v66.963l51,23.438v-66.962
					L2913,1439.389z"/>
				<path fill="#84C9CE" d="M2963.238,1458.14l-40.189-18.692l40.341-18.244l39.149,18.244L2963.238,1458.14z M2963.539,1416.515
					l-50.582,22.874l50.395,23.439l49.279-23.439L2963.539,1416.515z"/>
				<path fill="#84C9CE" d="M3008,1500.945l-38,17.617v-50.33l38-17.617V1500.945z M2964,1462.828v66.962l49-23.438v-66.963
					L2964,1462.828z"/>
			</g>
			<rect x="2794" y="1555" fill="#84C9CE" width="333" height="41"/>
			<rect x="2934.671" y="1541.646" fill="#84C9CE" width="59.463" height="13.514"/>
			<path fill="#84C9CE" d="M3233.329,1317H3183v-13h48.854c0.563-3,0.366-7.801,0.259-10.504c-0.065-1.615-0.112-3.235-0.112-4.56
				V1188h-247.326c-1.322,0-2.75-0.268-4.365-0.33c-2.703-0.111-8.309-0.53-10.309,0.037V1290h-14v-103.769
				c0-3.169,1.319-5.973,3.539-8.105c5.007-4.807,13.607-4.503,21.139-4.204c1.422,0.057,2.832,0.078,3.996,0.078h248.655
				c1.446,0,2.47-0.061,3.182-0.125c1.628-0.143,4.636-0.398,7.097,2.062c2.461,2.459,1.943,5.481,1.797,7.104
				c-0.064,0.713-0.404,1.743-0.404,3.191v102.705c0,1.165,0.301,2.502,0.357,3.923c0.303,7.526,0.764,15.9-4.046,20.904
				C3239.179,1315.985,3236.498,1317,3233.329,1317z"/>
			<rect x="2875" y="1531" fill="#84C9CE" width="173" height="11"/>
			<path fill="#84C9CE" d="M3127,1596h-333v-330h333V1596z M2735,1215v494h448v-494H2735z"/>
			<g>
				<rect x="2794" y="1623" fill="#84C9CE" width="33" height="27"/>
				<rect x="2794" y="1661" fill="#84C9CE" width="33" height="16"/>
				<rect x="2835" y="1623" fill="#84C9CE" width="27" height="27"/>
				<rect x="2835" y="1661" fill="#84C9CE" width="27" height="16"/>
				<rect x="2875" y="1623" fill="#84C9CE" width="27" height="27"/>
				<rect x="2875" y="1661" fill="#84C9CE" width="27" height="16"/>
				<rect x="2913" y="1623" fill="#84C9CE" width="30" height="27"/>
				<rect x="2913" y="1661" fill="#84C9CE" width="30" height="16"/>
			</g>
			<path fill="#84C9CE" d="M3102.686,1650.672c0,7.371,5.972,13.343,13.336,13.343c7.372,0,13.349-5.972,13.349-13.343
				c0-7.369-5.977-13.342-13.349-13.342C3108.657,1637.33,3102.686,1643.303,3102.686,1650.672z"/>
			<path fill="#84C9CE" d="M3057.727,1650.672c0,7.371,5.98,13.343,13.345,13.343c7.367,0,13.341-5.972,13.341-13.343
				c0-7.369-5.974-13.342-13.341-13.342C3063.707,1637.33,3057.727,1643.303,3057.727,1650.672z"/>
			<rect x="2794" y="1304" fill="#84C9CE" width="333" height="13"/>
			<polygon fill="#84C9CE" points="2999.537,1330.83 2999.537,1314.612 2986.025,1314.612 2986.025,1290.288 2942.78,1290.288 
				2942.78,1314.612 2929.268,1314.612 2929.268,1330.83 2921.159,1330.83 2921.159,1349.749 2929.268,1349.749 2929.268,1363.262 
				2952.098,1363.262 2949.423,1371.339 2955.254,1375.418 2955.729,1380.762 2964.396,1395.461 2972.75,1381.077 
				2973.118,1376.048 2978.83,1371.339 2976.158,1363.262 2999.537,1363.262 2999.537,1349.749 3004.943,1349.749 3004.943,1330.83 
							"/>
			<polygon fill="#84C9CE" points="2964,1290 2943,1290 2943,1315 2929,1315 2929,1331 2921,1331 2921,1350 2929,1350 2929,1363 
				2952.098,1363 2949.423,1371.208 2955.254,1375.353 2955.729,1380.729 2964.194,1395.444 2964,1395.448 			"/>
			<rect x="3183" y="1298" fill="#84C9CE" width="11" height="25"/>
		</g>
		<g opacity="0.0952"  a:adobe-knockout="false"  a:adobe-blending-mode="normal">
			<g>
				<path fill="#7FC0C6" d="M2953,1515.862l-38-18.287v-52.234l38,18.282V1515.862z M2909,1435.398v66.963l52,23.438v-66.962
					L2909,1435.398z"/>
				<path fill="#7FC0C6" d="M2959.506,1454.15l-40.189-18.692l40.341-18.244l39.149,18.244L2959.506,1454.15z M2959.807,1412.525
					l-50.582,22.873l50.395,23.439l49.279-23.439L2959.807,1412.525z"/>
				<path fill="#7FC0C6" d="M3004,1496.956l-38,17.617v-50.33l38-17.617V1496.956z M2961,1458.838v66.962l48-23.438v-66.963
					L2961,1458.838z"/>
			</g>
			<rect x="2790" y="1551" fill="#7FC0C6" width="333" height="41"/>
			<rect x="2930.938" y="1537.655" fill="#7FC0C6" width="59.463" height="13.514"/>
			<path fill="#7FC0C6" d="M3229.597,1313H3180v-13h48.121c0.564-3,0.232-7.796,0.125-10.499c-0.066-1.615-0.246-3.229-0.246-4.554
				V1184h-247.06c-1.321,0-2.883-0.262-4.498-0.324c-2.703-0.111-7.442-0.525-10.442,0.042V1286h-13v-103.758
				c0-3.17,0.953-5.973,3.173-8.105c5.007-4.808,13.425-4.508,20.956-4.209c1.422,0.057,2.648,0.072,3.812,0.072h248.656
				c1.447,0,2.47-0.055,3.182-0.119c1.628-0.143,4.636-0.396,7.097,2.063s2.31,5.483,2.163,7.105
				c-0.064,0.712-0.038,1.743-0.038,3.192v102.705c0,1.164-0.066,2.502-0.008,3.922c0.302,7.526,0.58,15.896-4.23,20.899
				C3235.629,1311.991,3232.766,1313,3229.597,1313z"/>
			<rect x="2871" y="1527" fill="#7FC0C6" width="173" height="11"/>
			<path fill="#7FC0C6" d="M3123,1592h-333v-330h333V1592z M2731,1211v494h449v-494H2731z"/>
			<g>
				<rect x="2790" y="1619" fill="#7FC0C6" width="33" height="27"/>
				<rect x="2790" y="1657" fill="#7FC0C6" width="33" height="16"/>
				<rect x="2831" y="1619" fill="#7FC0C6" width="27" height="27"/>
				<rect x="2831" y="1657" fill="#7FC0C6" width="27" height="16"/>
				<rect x="2871" y="1619" fill="#7FC0C6" width="28" height="27"/>
				<rect x="2871" y="1657" fill="#7FC0C6" width="28" height="16"/>
				<rect x="2909" y="1619" fill="#7FC0C6" width="30" height="27"/>
				<rect x="2909" y="1657" fill="#7FC0C6" width="30" height="16"/>
			</g>
			<path fill="#7FC0C6" d="M3098.953,1646.683c0,7.37,5.972,13.342,13.336,13.342c7.372,0,13.349-5.972,13.349-13.342
				c0-7.369-5.977-13.343-13.349-13.343C3104.925,1633.34,3098.953,1639.313,3098.953,1646.683z"/>
			<path fill="#7FC0C6" d="M3053.994,1646.683c0,7.37,5.98,13.342,13.345,13.342c7.367,0,13.341-5.972,13.341-13.342
				c0-7.369-5.974-13.343-13.341-13.343C3059.975,1633.34,3053.994,1639.313,3053.994,1646.683z"/>
			<rect x="2790" y="1300" fill="#7FC0C6" width="333" height="13"/>
			<polygon fill="#7FC0C6" points="2995.805,1326.84 2995.805,1310.623 2982.293,1310.623 2982.293,1286.299 2939.048,1286.299 
				2939.048,1310.623 2925.535,1310.623 2925.535,1326.84 2917.427,1326.84 2917.427,1345.759 2925.535,1345.759 2925.535,1359.272 
				2948.365,1359.272 2945.69,1367.35 2951.521,1371.428 2951.996,1376.772 2960.664,1391.472 2969.018,1377.088 2969.386,1372.058 
				2975.098,1367.35 2972.426,1359.272 2995.805,1359.272 2995.805,1345.759 3001.211,1345.759 3001.211,1326.84 			"/>
			<polygon fill="#7FC0C6" points="2961,1286 2939,1286 2939,1311 2926,1311 2926,1327 2917,1327 2917,1346 2926,1346 2926,1359 
				2948.365,1359 2945.69,1367.213 2951.521,1371.359 2951.996,1376.738 2960.828,1391.455 2961,1391.458 			"/>
			<rect x="3180" y="1294" fill="#7FC0C6" width="10" height="25"/>
		</g>
		<g opacity="0.1429"  a:adobe-knockout="false"  a:adobe-blending-mode="normal">
			<g>
				<path fill="#7AB8BD" d="M2949,1511.872l-38-18.286v-52.235l38,18.282V1511.872z M2906,1431.409v66.962l51,23.439v-66.963
					L2906,1431.409z"/>
				<path fill="#7AB8BD" d="M2955.773,1450.16l-40.189-18.692l40.341-18.244l39.149,18.244L2955.773,1450.16z M2956.074,1408.536
					l-50.582,22.873l50.395,23.438l49.279-23.438L2956.074,1408.536z"/>
				<path fill="#7AB8BD" d="M3000,1492.967l-38,17.617v-50.33l38-17.618V1492.967z M2957,1454.848v66.963l49-23.439v-66.962
					L2957,1454.848z"/>
			</g>
			<rect x="2787" y="1547" fill="#7AB8BD" width="332" height="41"/>
			<rect x="2927.206" y="1533.665" fill="#7AB8BD" width="59.463" height="13.515"/>
			<path fill="#7AB8BD" d="M3225.864,1309H3176v-13h48.389c0.563-3,0.599-7.791,0.491-10.493c-0.065-1.616,0.12-3.226,0.12-4.55
				V1180h-247.791c-1.322,0-3.018-0.256-4.634-0.32c-2.702-0.111-7.575-0.52-10.575,0.048V1282h-13v-103.748
				c0-3.17,1.087-5.973,3.307-8.105c5.007-4.808,13.492-4.514,21.023-4.214c1.422,0.057,2.715,0.067,3.879,0.067h248.655
				c1.446,0,2.47-0.051,3.182-0.114c1.628-0.143,4.636-0.395,7.097,2.065s2.176,5.484,2.029,7.107
				c-0.064,0.713-0.172,1.744-0.172,3.193v102.705c0,1.164,0.068,2.502,0.125,3.922c0.303,7.527,0.647,15.891-4.162,20.895
				C3231.83,1307.996,3229.034,1309,3225.864,1309z"/>
			<rect x="2868" y="1523" fill="#7AB8BD" width="173" height="11"/>
			<path fill="#7AB8BD" d="M3119,1588h-332v-330h332V1588z M2727,1207v494h449v-494H2727z"/>
			<g>
				<rect x="2787" y="1615" fill="#7AB8BD" width="32" height="27"/>
				<rect x="2787" y="1653" fill="#7AB8BD" width="32" height="16"/>
				<rect x="2827" y="1615" fill="#7AB8BD" width="27" height="27"/>
				<rect x="2827" y="1653" fill="#7AB8BD" width="27" height="16"/>
				<rect x="2868" y="1615" fill="#7AB8BD" width="27" height="27"/>
				<rect x="2868" y="1653" fill="#7AB8BD" width="27" height="16"/>
				<rect x="2906" y="1615" fill="#7AB8BD" width="29" height="27"/>
				<rect x="2906" y="1653" fill="#7AB8BD" width="29" height="16"/>
			</g>
			<path fill="#7AB8BD" d="M3095.22,1642.692c0,7.37,5.973,13.343,13.337,13.343c7.372,0,13.349-5.973,13.349-13.343
				c0-7.369-5.977-13.343-13.349-13.343C3101.192,1629.35,3095.22,1635.323,3095.22,1642.692z"/>
			<path fill="#7AB8BD" d="M3050.262,1642.692c0,7.37,5.98,13.343,13.345,13.343c7.367,0,13.342-5.973,13.342-13.343
				c0-7.369-5.975-13.343-13.342-13.343C3056.242,1629.35,3050.262,1635.323,3050.262,1642.692z"/>
			<rect x="2787" y="1296" fill="#7AB8BD" width="332" height="13"/>
			<polygon fill="#7AB8BD" points="2992.072,1322.85 2992.072,1306.633 2978.561,1306.633 2978.561,1282.309 2935.315,1282.309 
				2935.315,1306.633 2921.803,1306.633 2921.803,1322.85 2913.694,1322.85 2913.694,1341.77 2921.803,1341.77 2921.803,1355.282 
				2944.633,1355.282 2941.958,1363.359 2947.789,1367.438 2948.264,1372.782 2956.932,1387.482 2965.285,1373.098 
				2965.653,1368.068 2971.365,1363.359 2968.693,1355.282 2992.072,1355.282 2992.072,1341.77 2997.479,1341.77 2997.479,1322.85 
							"/>
			<polygon fill="#7AB8BD" points="2957,1282 2935,1282 2935,1307 2922,1307 2922,1323 2914,1323 2914,1342 2922,1342 2922,1355 
				2944.633,1355 2941.958,1363.219 2947.789,1367.368 2948.264,1372.747 2956.962,1387.465 2957,1387.469 			"/>
			<rect x="3176" y="1290" fill="#7AB8BD" width="11" height="25"/>
		</g>
		<g opacity="0.1905"  a:adobe-knockout="false"  a:adobe-blending-mode="normal">
			<g>
				<path fill="#76AFB4" d="M2945,1507.883l-38-18.287v-52.235l38,18.283V1507.883z M2902,1427.419v66.963l51,23.438v-66.962
					L2902,1427.419z"/>
				<path fill="#76AFB4" d="M2952.041,1446.17l-40.189-18.692l40.341-18.243l39.149,18.243L2952.041,1446.17z M2952.342,1404.546
					l-50.582,22.873l50.395,23.439l49.279-23.439L2952.342,1404.546z"/>
				<path fill="#76AFB4" d="M2996,1488.977l-37,17.617v-50.33l37-17.617V1488.977z M2953,1450.858v66.962l49-23.438v-66.963
					L2953,1450.858z"/>
			</g>
			<rect x="2783" y="1543" fill="#76AFB4" width="332" height="41"/>
			<rect x="2923.474" y="1529.676" fill="#76AFB4" width="59.463" height="13.514"/>
			<path fill="#76AFB4" d="M3222.132,1305H3172v-13h48.656c0.563-3,0.465-7.785,0.357-10.488c-0.065-1.615-0.014-3.22-0.014-4.544
				V1176h-247.523c-1.322,0-2.651-0.252-4.268-0.314c-2.702-0.111-8.209-0.516-10.209,0.053V1278h-14v-103.737
				c0-3.171,1.221-5.974,3.44-8.106c5.007-4.807,13.559-4.518,21.09-4.218c1.422,0.057,2.782,0.062,3.946,0.062h248.655
				c1.446,0,2.47-0.046,3.182-0.108c1.628-0.143,4.636-0.392,7.097,2.067s2.043,5.486,1.896,7.108
				c-0.064,0.712-0.307,1.746-0.307,3.195v102.705c0,1.164,0.201,2.502,0.26,3.922c0.303,7.526,0.714,15.884-4.096,20.89
				C3228.031,1304,3225.302,1305,3222.132,1305z"/>
			<rect x="2864" y="1519" fill="#76AFB4" width="173" height="11"/>
			<path fill="#76AFB4" d="M3115,1584h-332v-330h332V1584z M2723,1203v494h449v-494H2723z"/>
			<g>
				<rect x="2783" y="1611" fill="#76AFB4" width="32" height="27"/>
				<rect x="2783" y="1649" fill="#76AFB4" width="32" height="16"/>
				<rect x="2823" y="1611" fill="#76AFB4" width="27" height="27"/>
				<rect x="2823" y="1649" fill="#76AFB4" width="27" height="16"/>
				<rect x="2864" y="1611" fill="#76AFB4" width="27" height="27"/>
				<rect x="2864" y="1649" fill="#76AFB4" width="27" height="16"/>
				<rect x="2902" y="1611" fill="#76AFB4" width="30" height="27"/>
				<rect x="2902" y="1649" fill="#76AFB4" width="30" height="16"/>
			</g>
			<path fill="#76AFB4" d="M3091.487,1638.703c0,7.369,5.973,13.342,13.337,13.342c7.372,0,13.349-5.973,13.349-13.342
				s-5.977-13.343-13.349-13.343C3097.46,1625.36,3091.487,1631.334,3091.487,1638.703z"/>
			<path fill="#76AFB4" d="M3046.529,1638.703c0,7.369,5.98,13.342,13.345,13.342c7.368,0,13.342-5.973,13.342-13.342
				s-5.974-13.343-13.342-13.343C3052.51,1625.36,3046.529,1631.334,3046.529,1638.703z"/>
			<rect x="2783" y="1292" fill="#76AFB4" width="332" height="13"/>
			<polygon fill="#76AFB4" points="2988.341,1318.86 2988.341,1302.644 2974.828,1302.644 2974.828,1278.318 2931.583,1278.318 
				2931.583,1302.644 2918.07,1302.644 2918.07,1318.86 2909.962,1318.86 2909.962,1337.779 2918.07,1337.779 2918.07,1351.293 
				2940.9,1351.293 2938.227,1359.37 2944.057,1363.449 2944.531,1368.793 2953.199,1383.492 2961.553,1369.107 2961.921,1364.078 
				2967.633,1359.37 2964.961,1351.293 2988.341,1351.293 2988.341,1337.779 2993.746,1337.779 2993.746,1318.86 			"/>
			<polygon fill="#76AFB4" points="2953,1278 2932,1278 2932,1303 2918,1303 2918,1319 2910,1319 2910,1338 2918,1338 2918,1351 
				2940.9,1351 2938.227,1359.224 2944.057,1363.376 2944.531,1368.756 2953.096,1383.474 2953,1383.479 			"/>
			<rect x="3172" y="1286" fill="#76AFB4" width="11" height="25"/>
		</g>
		<g opacity="0.2381"  a:adobe-knockout="false"  a:adobe-blending-mode="normal">
			<g>
				<path fill="#71A7AB" d="M2941,1503.893l-37-18.287v-52.234l37,18.282V1503.893z M2898,1423.43v66.963l51,23.438v-66.962
					L2898,1423.43z"/>
				<path fill="#71A7AB" d="M2948.309,1442.181l-40.189-18.692l40.341-18.244l39.149,18.244L2948.309,1442.181z M2948.609,1400.556
					l-50.582,22.874l50.395,23.438l49.279-23.438L2948.609,1400.556z"/>
				<path fill="#71A7AB" d="M2993,1484.986l-38,17.618v-50.331l38-17.617V1484.986z M2949,1446.868v66.962l49-23.438v-66.963
					L2949,1446.868z"/>
			</g>
			<rect x="2779" y="1539" fill="#71A7AB" width="333" height="41"/>
			<rect x="2919.741" y="1525.686" fill="#71A7AB" width="59.463" height="13.515"/>
			<path fill="#71A7AB" d="M3218.399,1301H3168v-13h48.924c0.564-3,0.331-7.781,0.224-10.484c-0.065-1.615-0.147-3.214-0.147-4.538
				V1172h-247.256c-1.322,0-2.785-0.246-4.4-0.31c-2.703-0.111-8.344-0.51-10.344,0.058V1274h-14v-103.728
				c0-3.17,1.354-5.973,3.574-8.105c5.007-4.808,13.625-4.523,21.156-4.224c1.422,0.057,2.85,0.057,4.014,0.057h248.655
				c1.447,0,2.47-0.04,3.182-0.104c1.628-0.143,4.636-0.39,7.097,2.07s2.408,5.488,2.262,7.109
				c-0.064,0.713,0.061,1.747,0.061,3.196v102.705c0,1.164-0.164,2.502-0.105,3.923c0.301,7.526,0.529,15.879-4.281,20.883
				C3224.481,1300.006,3221.569,1301,3218.399,1301z"/>
			<rect x="2860" y="1515" fill="#71A7AB" width="173" height="11"/>
			<path fill="#71A7AB" d="M3112,1580h-333v-330h333V1580z M2720,1199v494h448v-494H2720z"/>
			<g>
				<rect x="2779" y="1607" fill="#71A7AB" width="33" height="27"/>
				<rect x="2779" y="1645" fill="#71A7AB" width="33" height="16"/>
				<rect x="2820" y="1607" fill="#71A7AB" width="27" height="27"/>
				<rect x="2820" y="1645" fill="#71A7AB" width="27" height="16"/>
				<rect x="2860" y="1607" fill="#71A7AB" width="27" height="27"/>
				<rect x="2860" y="1645" fill="#71A7AB" width="27" height="16"/>
				<rect x="2898" y="1607" fill="#71A7AB" width="30" height="27"/>
				<rect x="2898" y="1645" fill="#71A7AB" width="30" height="16"/>
			</g>
			<path fill="#71A7AB" d="M3087.756,1634.713c0,7.37,5.972,13.342,13.336,13.342c7.372,0,13.349-5.972,13.349-13.342
				c0-7.369-5.977-13.343-13.349-13.343C3093.728,1621.37,3087.756,1627.344,3087.756,1634.713z"/>
			<path fill="#71A7AB" d="M3042.797,1634.713c0,7.37,5.98,13.342,13.345,13.342c7.367,0,13.342-5.972,13.342-13.342
				c0-7.369-5.975-13.343-13.342-13.343C3048.777,1621.37,3042.797,1627.344,3042.797,1634.713z"/>
			<rect x="2779" y="1288" fill="#71A7AB" width="333" height="13"/>
			<polygon fill="#71A7AB" points="2984.607,1314.87 2984.607,1298.653 2971.096,1298.653 2971.096,1274.329 2927.851,1274.329 
				2927.851,1298.653 2914.338,1298.653 2914.338,1314.87 2906.229,1314.87 2906.229,1333.789 2914.338,1333.789 2914.338,1347.303 
				2937.168,1347.303 2934.494,1355.38 2940.324,1359.459 2940.799,1364.803 2949.467,1379.502 2957.82,1365.118 2958.188,1360.088 
				2963.9,1355.38 2961.229,1347.303 2984.607,1347.303 2984.607,1333.789 2990.014,1333.789 2990.014,1314.87 			"/>
			<polygon fill="#71A7AB" points="2949,1274 2928,1274 2928,1299 2914,1299 2914,1315 2906,1315 2906,1334 2914,1334 2914,1347 
				2937.168,1347 2934.494,1355.229 2940.324,1359.383 2940.799,1364.765 2949.229,1379.483 2949,1379.488 			"/>
			<rect x="3168" y="1282" fill="#71A7AB" width="11" height="25"/>
		</g>
		<g opacity="0.2857"  a:adobe-knockout="false"  a:adobe-blending-mode="normal">
			<g>
				<path fill="#6C9EA3" d="M2938,1499.903l-38-18.287v-52.235l38,18.283V1499.903z M2894,1419.439v66.963l52,23.438v-66.962
					L2894,1419.439z"/>
				<path fill="#6C9EA3" d="M2944.576,1438.191l-40.189-18.693l40.341-18.244l39.149,18.244L2944.576,1438.191z M2944.877,1396.566
					l-50.582,22.873l50.395,23.439l49.279-23.439L2944.877,1396.566z"/>
				<path fill="#6C9EA3" d="M2989,1480.997l-38,17.617v-50.33l38-17.618V1480.997z M2946,1442.879v66.962l48-23.438v-66.963
					L2946,1442.879z"/>
			</g>
			<rect x="2775" y="1535" fill="#6C9EA3" width="333" height="41"/>
			<rect x="2916.01" y="1521.696" fill="#6C9EA3" width="59.462" height="13.514"/>
			<path fill="#6C9EA3" d="M3214.667,1297H3165v-13h48.191c0.564-3,0.197-7.775,0.09-10.479c-0.065-1.614-0.281-3.208-0.281-4.532
				V1168h-246.988c-1.322,0-2.919-0.241-4.534-0.304c-2.703-0.111-7.478-0.506-10.478,0.062V1270h-13v-103.717
				c0-3.171,0.988-5.974,3.208-8.106c5.007-4.808,13.442-4.528,20.974-4.228c1.422,0.055,2.666,0.051,3.83,0.051h248.655
				c1.447,0,2.47-0.035,3.182-0.1c1.628-0.143,4.636-0.386,7.098,2.074c2.46,2.46,2.274,5.489,2.126,7.11
				c-0.063,0.713-0.072,1.749-0.072,3.198v102.705c0,1.164-0.031,2.502,0.027,3.922c0.303,7.526,0.598,15.875-4.212,20.879
				C3220.683,1296.012,3217.837,1297,3214.667,1297z"/>
			<rect x="2857" y="1511" fill="#6C9EA3" width="173" height="11"/>
			<path fill="#6C9EA3" d="M3108,1576h-333v-330h333V1576z M2716,1195v494h449v-494H2716z"/>
			<g>
				<rect x="2775" y="1603" fill="#6C9EA3" width="33" height="27"/>
				<rect x="2775" y="1641" fill="#6C9EA3" width="33" height="16"/>
				<rect x="2816" y="1603" fill="#6C9EA3" width="27" height="27"/>
				<rect x="2816" y="1641" fill="#6C9EA3" width="27" height="16"/>
				<rect x="2857" y="1603" fill="#6C9EA3" width="27" height="27"/>
				<rect x="2857" y="1641" fill="#6C9EA3" width="27" height="16"/>
				<rect x="2894" y="1603" fill="#6C9EA3" width="30" height="27"/>
				<rect x="2894" y="1641" fill="#6C9EA3" width="30" height="16"/>
			</g>
			<path fill="#6C9EA3" d="M3084.023,1630.723c0,7.371,5.972,13.343,13.336,13.343c7.372,0,13.349-5.972,13.349-13.343
				c0-7.369-5.977-13.342-13.349-13.342C3089.995,1617.381,3084.023,1623.354,3084.023,1630.723z"/>
			<path fill="#6C9EA3" d="M3039.065,1630.723c0,7.371,5.979,13.343,13.344,13.343c7.368,0,13.341-5.972,13.341-13.343
				c0-7.369-5.973-13.342-13.341-13.342C3045.045,1617.381,3039.065,1623.354,3039.065,1630.723z"/>
			<rect x="2775" y="1284" fill="#6C9EA3" width="333" height="13"/>
			<polygon fill="#6C9EA3" points="2980.876,1310.881 2980.876,1294.664 2967.363,1294.664 2967.363,1270.339 2924.119,1270.339 
				2924.119,1294.664 2910.605,1294.664 2910.605,1310.881 2902.497,1310.881 2902.497,1329.8 2910.605,1329.8 2910.605,1343.313 
				2933.436,1343.313 2930.762,1351.391 2936.592,1355.469 2937.066,1360.813 2945.734,1375.512 2954.088,1361.129 
				2954.456,1356.099 2960.168,1351.391 2957.496,1343.313 2980.876,1343.313 2980.876,1329.8 2986.281,1329.8 2986.281,1310.881 
							"/>
			<polygon fill="#6C9EA3" points="2946,1270 2924,1270 2924,1295 2911,1295 2911,1311 2902,1311 2902,1330 2911,1330 2911,1343 
				2933.436,1343 2930.762,1351.234 2936.592,1355.391 2937.066,1360.774 2945.863,1375.492 2946,1375.499 			"/>
			<rect x="3165" y="1278" fill="#6C9EA3" width="10" height="25"/>
		</g>
		<g opacity="0.3333"  a:adobe-knockout="false"  a:adobe-blending-mode="normal">
			<g>
				<path fill="#67969A" d="M2934,1495.913l-38-18.287v-52.235l38,18.283V1495.913z M2891,1415.449v66.963l51,23.438v-66.962
					L2891,1415.449z"/>
				<path fill="#67969A" d="M2940.844,1434.201l-40.189-18.692l40.341-18.244l39.149,18.244L2940.844,1434.201z M2941.145,1392.577
					l-50.582,22.872l50.395,23.439l49.279-23.439L2941.145,1392.577z"/>
				<path fill="#67969A" d="M2985,1477.007l-38,17.618v-50.331l38-17.617V1477.007z M2942,1438.889v66.962l49-23.438v-66.963
					L2942,1438.889z"/>
			</g>
			<rect x="2772" y="1531" fill="#67969A" width="332" height="41"/>
			<rect x="2912.276" y="1517.706" fill="#67969A" width="59.463" height="13.515"/>
			<path fill="#67969A" d="M3210.934,1293H3161v-13h48.459c0.564-3,0.564-7.771,0.457-10.474c-0.066-1.615,0.084-3.204,0.084-4.528
				V1164h-247.721c-1.322,0-3.053-0.236-4.669-0.299c-2.702-0.111-7.61-0.5-10.61,0.066V1266h-13v-103.707
				c0-3.17,1.122-5.973,3.342-8.105c5.007-4.808,13.51-4.533,21.041-4.234c1.422,0.057,2.732,0.047,3.896,0.047h248.654
				c1.448,0,2.471-0.029,3.183-0.094c1.628-0.143,4.636-0.384,7.098,2.076c2.46,2.46,2.141,5.489,1.993,7.11
				c-0.064,0.713-0.207,1.751-0.207,3.2v102.705c0,1.164,0.103,2.502,0.161,3.922c0.301,7.527,0.664,15.87-4.146,20.874
				C3216.884,1292.017,3214.104,1293,3210.934,1293z"/>
			<rect x="2853" y="1507" fill="#67969A" width="173" height="11"/>
			<path fill="#67969A" d="M3104,1572h-332v-330h332V1572z M2712,1191v494h449v-494H2712z"/>
			<g>
				<rect x="2772" y="1599" fill="#67969A" width="32" height="27"/>
				<rect x="2772" y="1637" fill="#67969A" width="32" height="16"/>
				<rect x="2812" y="1599" fill="#67969A" width="27" height="27"/>
				<rect x="2812" y="1637" fill="#67969A" width="27" height="16"/>
				<rect x="2853" y="1599" fill="#67969A" width="27" height="27"/>
				<rect x="2853" y="1637" fill="#67969A" width="27" height="16"/>
				<rect x="2891" y="1599" fill="#67969A" width="29" height="27"/>
				<rect x="2891" y="1637" fill="#67969A" width="29" height="16"/>
			</g>
			<path fill="#67969A" d="M3080.291,1626.733c0,7.37,5.973,13.343,13.336,13.343c7.372,0,13.349-5.973,13.349-13.343
				c0-7.369-5.977-13.343-13.349-13.343C3086.264,1613.391,3080.291,1619.364,3080.291,1626.733z"/>
			<path fill="#67969A" d="M3035.332,1626.733c0,7.37,5.98,13.343,13.345,13.343c7.368,0,13.341-5.973,13.341-13.343
				c0-7.369-5.973-13.343-13.341-13.343C3041.313,1613.391,3035.332,1619.364,3035.332,1626.733z"/>
			<rect x="2772" y="1280" fill="#67969A" width="332" height="13"/>
			<polygon fill="#67969A" points="2977.144,1306.891 2977.144,1290.674 2963.631,1290.674 2963.631,1266.35 2920.386,1266.35 
				2920.386,1290.674 2906.873,1290.674 2906.873,1306.891 2898.764,1306.891 2898.764,1325.81 2906.873,1325.81 2906.873,1339.323 
				2929.703,1339.323 2927.029,1347.4 2932.859,1351.479 2933.334,1356.823 2942.002,1371.522 2950.356,1357.139 2950.724,1352.108 
				2956.436,1347.4 2953.764,1339.323 2977.144,1339.323 2977.144,1325.81 2982.55,1325.81 2982.55,1306.891 			"/>
			<polygon fill="#67969A" points="2942,1266 2920,1266 2920,1291 2907,1291 2907,1307 2899,1307 2899,1326 2907,1326 2907,1339 
				2929.703,1339 2927.029,1347.238 2932.859,1351.397 2933.334,1356.783 2941.997,1371.502 2942,1371.509 			"/>
			<rect x="3161" y="1274" fill="#67969A" width="11" height="25"/>
		</g>
		<g opacity="0.381"  a:adobe-knockout="false"  a:adobe-blending-mode="normal">
			<g>
				<path fill="#628D91" d="M2930,1491.924l-38-18.287v-52.235l38,18.282V1491.924z M2887,1411.46v66.963l51,23.438v-66.963
					L2887,1411.46z"/>
				<path fill="#628D91" d="M2937.111,1430.211l-40.189-18.692l40.341-18.244l39.149,18.244L2937.111,1430.211z M2937.412,1388.587
					l-50.582,22.873l50.395,23.438l49.279-23.438L2937.412,1388.587z"/>
				<path fill="#628D91" d="M2982,1473.018l-38,17.617v-50.33l38-17.618V1473.018z M2938,1434.898v66.963l49-23.438v-66.963
					L2938,1434.898z"/>
			</g>
			<rect x="2768" y="1527" fill="#628D91" width="332" height="41"/>
			<rect x="2908.545" y="1513.717" fill="#628D91" width="59.462" height="13.515"/>
			<path fill="#628D91" d="M3207.201,1289H3157v-13h48.727c0.564-3,0.43-7.765,0.322-10.468c-0.066-1.615-0.049-3.199-0.049-4.523
				V1160h-247.453c-1.322,0-2.687-0.23-4.303-0.293c-2.702-0.111-8.244-0.496-10.244,0.071V1262h-14v-103.697
				c0-3.17,1.256-5.973,3.477-8.105c5.006-4.807,13.575-4.538,21.106-4.238c1.422,0.056,2.8,0.041,3.964,0.041h248.654
				c1.448,0,2.471-0.025,3.183-0.088c1.628-0.144,4.636-0.383,7.097,2.078c2.461,2.459,2.008,5.491,1.859,7.112
				c-0.063,0.713-0.34,1.751-0.34,3.2v102.706c0,1.163,0.236,2.502,0.295,3.922c0.301,7.526,0.73,15.864-4.078,20.868
				C3213.084,1288.021,3210.372,1289,3207.201,1289z"/>
			<rect x="2849" y="1503" fill="#628D91" width="173" height="11"/>
			<path fill="#628D91" d="M3100,1568h-332v-330h332V1568z M2709,1187v494h448v-494H2709z"/>
			<g>
				<rect x="2768" y="1595" fill="#628D91" width="32" height="27"/>
				<rect x="2768" y="1633" fill="#628D91" width="32" height="16"/>
				<rect x="2809" y="1595" fill="#628D91" width="27" height="27"/>
				<rect x="2809" y="1633" fill="#628D91" width="27" height="16"/>
				<rect x="2849" y="1595" fill="#628D91" width="27" height="27"/>
				<rect x="2849" y="1633" fill="#628D91" width="27" height="16"/>
				<rect x="2887" y="1595" fill="#628D91" width="30" height="27"/>
				<rect x="2887" y="1633" fill="#628D91" width="30" height="16"/>
			</g>
			<path fill="#628D91" d="M3076.558,1622.744c0,7.369,5.973,13.342,13.337,13.342c7.372,0,13.349-5.973,13.349-13.342
				c0-7.37-5.977-13.343-13.349-13.343C3082.53,1609.401,3076.558,1615.374,3076.558,1622.744z"/>
			<path fill="#628D91" d="M3031.601,1622.744c0,7.369,5.979,13.342,13.344,13.342c7.368,0,13.341-5.973,13.341-13.342
				c0-7.37-5.973-13.343-13.341-13.343C3037.58,1609.401,3031.601,1615.374,3031.601,1622.744z"/>
			<rect x="2768" y="1276" fill="#628D91" width="332" height="13"/>
			<polygon fill="#628D91" points="2973.411,1302.901 2973.411,1286.684 2959.898,1286.684 2959.898,1262.359 2916.654,1262.359 
				2916.654,1286.684 2903.141,1286.684 2903.141,1302.901 2895.031,1302.901 2895.031,1321.82 2903.141,1321.82 2903.141,1335.333 
				2925.971,1335.333 2923.297,1343.411 2929.127,1347.488 2929.602,1352.834 2938.27,1367.532 2946.624,1353.148 
				2946.991,1348.119 2952.703,1343.411 2950.031,1335.333 2973.411,1335.333 2973.411,1321.82 2978.817,1321.82 2978.817,1302.901 
							"/>
			<polygon fill="#628D91" points="2938,1262 2917,1262 2917,1287 2903,1287 2903,1303 2895,1303 2895,1322 2903,1322 2903,1335 
				2925.971,1335 2923.297,1343.244 2929.127,1347.405 2929.602,1352.792 2938.131,1367.512 2938,1367.52 			"/>
			<rect x="3157" y="1270" fill="#628D91" width="11" height="25"/>
		</g>
		<g opacity="0.4286"  a:adobe-knockout="false"  a:adobe-blending-mode="normal">
			<g>
				<path fill="#5D8589" d="M2926,1487.934l-37-18.287v-52.235l37,18.283V1487.934z M2883,1407.471v66.962l52,23.438v-66.962
					L2883,1407.471z"/>
				<path fill="#5D8589" d="M2933.379,1426.222l-40.189-18.693l40.341-18.243l39.149,18.243L2933.379,1426.222z M2933.68,1384.598
					l-50.582,22.873l50.395,23.438l49.279-23.438L2933.68,1384.598z"/>
				<path fill="#5D8589" d="M2978,1469.027l-38,17.618v-50.331l38-17.617V1469.027z M2935,1430.909v66.962l48-23.438v-66.962
					L2935,1430.909z"/>
			</g>
			<rect x="2764" y="1523" fill="#5D8589" width="333" height="41"/>
			<rect x="2904.812" y="1509.727" fill="#5D8589" width="59.463" height="13.515"/>
			<path fill="#5D8589" d="M3203.47,1285H3153v-13h48.994c0.564-3,0.297-7.76,0.189-10.463c-0.066-1.615-0.184-3.194-0.184-4.519
				V1156h-247.186c-1.322,0-2.82-0.227-4.437-0.289c-2.702-0.111-8.378-0.49-10.378,0.077V1258h-14v-103.687
				c0-3.171,1.391-5.974,3.611-8.106c5.006-4.807,13.642-4.543,21.173-4.243c1.422,0.056,2.866,0.036,4.03,0.036h248.655
				c1.447,0,2.47-0.021,3.183-0.083c1.627-0.143,4.635-0.38,7.097,2.081c2.46,2.459,2.372,5.493,2.225,7.114
				c-0.063,0.712,0.026,1.752,0.026,3.201v102.705c0,1.164-0.13,2.502-0.071,3.922c0.301,7.526,0.548,15.86-4.263,20.864
				C3209.534,1284.027,3206.64,1285,3203.47,1285z"/>
			<rect x="2845" y="1499" fill="#5D8589" width="173" height="11"/>
			<path fill="#5D8589" d="M3097,1564h-333v-330h333V1564z M2705,1183v494h448v-494H2705z"/>
			<g>
				<rect x="2764" y="1591" fill="#5D8589" width="33" height="27"/>
				<rect x="2764" y="1629" fill="#5D8589" width="33" height="16"/>
				<rect x="2805" y="1591" fill="#5D8589" width="27" height="27"/>
				<rect x="2805" y="1629" fill="#5D8589" width="27" height="16"/>
				<rect x="2845" y="1591" fill="#5D8589" width="27" height="27"/>
				<rect x="2845" y="1629" fill="#5D8589" width="27" height="16"/>
				<rect x="2883" y="1591" fill="#5D8589" width="30" height="27"/>
				<rect x="2883" y="1629" fill="#5D8589" width="30" height="16"/>
			</g>
			<path fill="#5D8589" d="M3072.825,1618.754c0,7.37,5.974,13.342,13.337,13.342c7.372,0,13.349-5.972,13.349-13.342
				c0-7.369-5.977-13.342-13.349-13.342C3078.799,1605.412,3072.825,1611.385,3072.825,1618.754z"/>
			<path fill="#5D8589" d="M3027.867,1618.754c0,7.37,5.98,13.342,13.346,13.342c7.367,0,13.34-5.972,13.34-13.342
				c0-7.369-5.973-13.342-13.34-13.342C3033.848,1605.412,3027.867,1611.385,3027.867,1618.754z"/>
			<rect x="2764" y="1272" fill="#5D8589" width="333" height="13"/>
			<polygon fill="#5D8589" points="2969.679,1298.911 2969.679,1282.694 2956.166,1282.694 2956.166,1258.369 2912.921,1258.369 
				2912.921,1282.694 2899.408,1282.694 2899.408,1298.911 2891.3,1298.911 2891.3,1317.83 2899.408,1317.83 2899.408,1331.343 
				2922.238,1331.343 2919.564,1339.421 2925.395,1343.499 2925.869,1348.844 2934.537,1363.543 2942.892,1349.159 
				2943.259,1344.129 2948.971,1339.421 2946.299,1331.343 2969.679,1331.343 2969.679,1317.83 2975.085,1317.83 2975.085,1298.911 
							"/>
			<polygon fill="#5D8589" points="2935,1258 2913,1258 2913,1283 2899,1283 2899,1299 2891,1299 2891,1318 2899,1318 2899,1331 
				2922.238,1331 2919.564,1339.25 2925.395,1343.413 2925.869,1348.801 2934.765,1363.521 2935,1363.529 			"/>
			<rect x="3153" y="1266" fill="#5D8589" width="11" height="25"/>
		</g>
		<g opacity="0.4762"  a:adobe-knockout="false"  a:adobe-blending-mode="normal">
			<g>
				<path fill="#587C80" d="M2923,1483.943l-38-18.286v-52.236l38,18.283V1483.943z M2879,1403.48v66.963l52,23.438v-66.962
					L2879,1403.48z"/>
				<path fill="#587C80" d="M2929.646,1422.232l-40.189-18.693l40.341-18.244l39.149,18.244L2929.646,1422.232z M2929.947,1380.607
					l-50.582,22.873l50.395,23.438l49.279-23.438L2929.947,1380.607z"/>
				<path fill="#587C80" d="M2974,1465.038l-38,17.618v-50.331l38-17.618V1465.038z M2931,1426.919v66.962l48-23.438v-66.963
					L2931,1426.919z"/>
			</g>
			<rect x="2761" y="1519" fill="#587C80" width="332" height="41"/>
			<rect x="2901.08" y="1505.736" fill="#587C80" width="59.462" height="13.516"/>
			<path fill="#587C80" d="M3199.736,1281H3150v-13h48.262c0.564-3,0.162-7.756,0.055-10.459c-0.066-1.614-0.316-3.188-0.316-4.513
				V1152h-246.918c-1.322,0-2.954-0.221-4.569-0.283c-2.703-0.112-7.513-0.485-10.513,0.082V1254h-13v-103.676
				c0-3.171,1.023-5.974,3.244-8.106c5.006-4.808,13.459-4.548,20.99-4.249c1.422,0.057,2.684,0.031,3.848,0.031h248.654
				c1.448,0,2.471-0.016,3.184-0.078c1.627-0.143,4.635-0.376,7.097,2.083c2.46,2.461,2.239,5.494,2.091,7.115
				c-0.063,0.712-0.107,1.754-0.107,3.204v102.704c0,1.165,0.004,2.502,0.063,3.923c0.301,7.526,0.615,15.854-4.195,20.858
				C3205.736,1280.032,3202.907,1281,3199.736,1281z"/>
			<rect x="2842" y="1495" fill="#587C80" width="173" height="11"/>
			<path fill="#587C80" d="M3093,1560h-332v-330h332V1560z M2701,1179v494h449v-494H2701z"/>
			<g>
				<rect x="2761" y="1587" fill="#587C80" width="32" height="27"/>
				<rect x="2761" y="1625" fill="#587C80" width="32" height="16"/>
				<rect x="2801" y="1587" fill="#587C80" width="27" height="27"/>
				<rect x="2801" y="1625" fill="#587C80" width="27" height="16"/>
				<rect x="2842" y="1587" fill="#587C80" width="27" height="27"/>
				<rect x="2842" y="1625" fill="#587C80" width="27" height="16"/>
				<rect x="2879" y="1587" fill="#587C80" width="30" height="27"/>
				<rect x="2879" y="1625" fill="#587C80" width="30" height="16"/>
			</g>
			<path fill="#587C80" d="M3069.094,1614.764c0,7.37,5.973,13.342,13.336,13.342c7.372,0,13.349-5.972,13.349-13.342
				c0-7.369-5.977-13.342-13.349-13.342C3075.066,1601.422,3069.094,1607.395,3069.094,1614.764z"/>
			<path fill="#587C80" d="M3024.136,1614.764c0,7.37,5.979,13.342,13.345,13.342c7.367,0,13.34-5.972,13.34-13.342
				c0-7.369-5.973-13.342-13.34-13.342C3030.115,1601.422,3024.136,1607.395,3024.136,1614.764z"/>
			<rect x="2761" y="1268" fill="#587C80" width="332" height="13"/>
			<polygon fill="#587C80" points="2965.947,1294.922 2965.947,1278.704 2952.434,1278.704 2952.434,1254.38 2909.189,1254.38 
				2909.189,1278.704 2895.676,1278.704 2895.676,1294.922 2887.566,1294.922 2887.566,1313.841 2895.676,1313.841 
				2895.676,1327.354 2918.506,1327.354 2915.832,1335.432 2921.662,1339.51 2922.137,1344.854 2930.805,1359.553 
				2939.159,1345.169 2939.526,1340.14 2945.238,1335.432 2942.566,1327.354 2965.947,1327.354 2965.947,1313.841 
				2971.353,1313.841 2971.353,1294.922 			"/>
			<polygon fill="#587C80" points="2931,1254 2909,1254 2909,1279 2896,1279 2896,1295 2888,1295 2888,1314 2896,1314 2896,1327 
				2918.506,1327 2915.832,1335.255 2921.662,1339.422 2922.137,1344.81 2930.898,1359.53 2931,1359.54 			"/>
			<rect x="3150" y="1262" fill="#587C80" width="11" height="25"/>
		</g>
		<g opacity="0.5238"  a:adobe-knockout="false"  a:adobe-blending-mode="normal">
			<g>
				<path fill="#547477" d="M2919,1479.953l-38-18.285v-52.236l38,18.283V1479.953z M2876,1399.491v66.962l51,23.439v-66.963
					L2876,1399.491z"/>
				<path fill="#547477" d="M2925.914,1418.242l-40.189-18.693l40.341-18.244l39.149,18.244L2925.914,1418.242z M2926.215,1376.617
					l-50.582,22.874l50.395,23.438l49.279-23.438L2926.215,1376.617z"/>
				<path fill="#547477" d="M2970,1461.048l-38,17.618v-50.331l38-17.618V1461.048z M2927,1422.93v66.963l49-23.439v-66.962
					L2927,1422.93z"/>
			</g>
			<rect x="2757" y="1515" fill="#547477" width="332" height="41"/>
			<rect x="2897.348" y="1501.748" fill="#547477" width="59.462" height="13.514"/>
			<path fill="#547477" d="M3196.004,1277H3146v-13h48.529c0.564-3,0.529-7.75,0.422-10.453c-0.066-1.615,0.049-3.184,0.049-4.508
				V1148h-247.65c-1.322,0-3.088-0.215-4.703-0.279c-2.703-0.111-7.646-0.479-10.646,0.088V1250h-13v-103.666
				c0-3.17,1.157-5.974,3.378-8.106c5.006-4.807,13.526-4.554,21.058-4.253c1.422,0.055,2.75,0.025,3.914,0.025h248.654
				c1.448,0,2.471-0.012,3.184-0.074c1.627-0.143,4.635-0.373,7.097,2.087c2.46,2.46,2.105,5.495,1.957,7.116
				c-0.063,0.713-0.241,1.756-0.241,3.205v102.705c0,1.164,0.138,2.502,0.196,3.922c0.301,7.527,0.682,15.85-4.129,20.854
				C3201.937,1276.037,3199.175,1277,3196.004,1277z"/>
			<rect x="2838" y="1491" fill="#547477" width="173" height="11"/>
			<path fill="#547477" d="M3089,1556h-332v-330h332V1556z M2697,1175v494h449v-494H2697z"/>
			<g>
				<rect x="2757" y="1583" fill="#547477" width="32" height="27"/>
				<rect x="2757" y="1621" fill="#547477" width="32" height="16"/>
				<rect x="2797" y="1583" fill="#547477" width="27" height="27"/>
				<rect x="2797" y="1621" fill="#547477" width="27" height="16"/>
				<rect x="2838" y="1583" fill="#547477" width="27" height="27"/>
				<rect x="2838" y="1621" fill="#547477" width="27" height="16"/>
				<rect x="2876" y="1583" fill="#547477" width="29" height="27"/>
				<rect x="2876" y="1621" fill="#547477" width="29" height="16"/>
			</g>
			<path fill="#547477" d="M3065.361,1610.773c0,7.371,5.973,13.344,13.336,13.344c7.372,0,13.349-5.973,13.349-13.344
				c0-7.369-5.977-13.342-13.349-13.342C3071.334,1597.432,3065.361,1603.404,3065.361,1610.773z"/>
			<path fill="#547477" d="M3020.403,1610.773c0,7.371,5.979,13.344,13.345,13.344c7.367,0,13.34-5.973,13.34-13.344
				c0-7.369-5.973-13.342-13.34-13.342C3026.383,1597.432,3020.403,1603.404,3020.403,1610.773z"/>
			<rect x="2757" y="1264" fill="#547477" width="332" height="13"/>
			<polygon fill="#547477" points="2962.215,1290.932 2962.215,1274.715 2948.701,1274.715 2948.701,1250.39 2905.457,1250.39 
				2905.457,1274.715 2891.943,1274.715 2891.943,1290.932 2883.834,1290.932 2883.834,1309.852 2891.943,1309.852 
				2891.943,1323.363 2914.773,1323.363 2912.1,1331.441 2917.931,1335.52 2918.404,1340.864 2927.072,1355.563 2935.427,1341.179 
				2935.794,1336.149 2941.506,1331.441 2938.834,1323.363 2962.215,1323.363 2962.215,1309.852 2967.621,1309.852 
				2967.621,1290.932 			"/>
			<polygon fill="#547477" points="2927,1250 2905,1250 2905,1275 2892,1275 2892,1291 2884,1291 2884,1310 2892,1310 2892,1323 
				2914.773,1323 2912.1,1331.26 2917.931,1335.429 2918.404,1340.818 2927.032,1355.541 2927,1355.55 			"/>
			<rect x="3146" y="1258" fill="#547477" width="11" height="25"/>
		</g>
		<g opacity="0.5714"  a:adobe-knockout="false"  a:adobe-blending-mode="normal">
			<g>
				<path fill="#4F6B6E" d="M2915,1475.964l-38-18.286v-52.236l38,18.283V1475.964z M2872,1395.501v66.963l51,23.438v-66.963
					L2872,1395.501z"/>
				<path fill="#4F6B6E" d="M2922.182,1414.252l-40.189-18.693l40.341-18.243l39.149,18.243L2922.182,1414.252z M2922.482,1372.628
					l-50.582,22.873l50.395,23.438l49.279-23.438L2922.482,1372.628z"/>
				<path fill="#4F6B6E" d="M2967,1457.059l-38,17.617v-50.33l38-17.619V1457.059z M2923,1418.939v66.963l49-23.438v-66.963
					L2923,1418.939z"/>
			</g>
			<rect x="2753" y="1511" fill="#4F6B6E" width="333" height="41"/>
			<rect x="2893.614" y="1497.758" fill="#4F6B6E" width="59.463" height="13.515"/>
			<path fill="#4F6B6E" d="M3192.271,1273H3142v-13h48.797c0.564-3,0.395-7.745,0.287-10.448c-0.064-1.614-0.084-3.178-0.084-4.503
				V1144h-247.383c-1.322,0-2.722-0.211-4.338-0.273c-2.702-0.111-8.279-0.476-10.279,0.092V1246h-14v-103.656
				c0-3.17,1.291-5.973,3.512-8.105c5.006-4.808,13.593-4.56,21.124-4.259c1.422,0.055,2.817,0.021,3.981,0.021h248.654
				c1.448,0,2.471-0.006,3.184-0.068c1.627-0.143,4.635-0.371,7.097,2.088c2.46,2.461,1.972,5.498,1.823,7.118
				c-0.063,0.713-0.375,1.757-0.375,3.206v102.705c0,1.164,0.271,2.502,0.33,3.923c0.301,7.526,0.748,15.843-4.063,20.849
				C3198.137,1272.041,3195.442,1273,3192.271,1273z"/>
			<rect x="2834" y="1487" fill="#4F6B6E" width="173" height="11"/>
			<path fill="#4F6B6E" d="M3086,1552h-333v-330h333V1552z M2694,1171v494h448v-494H2694z"/>
			<g>
				<rect x="2753" y="1579" fill="#4F6B6E" width="33" height="27"/>
				<rect x="2753" y="1617" fill="#4F6B6E" width="33" height="16"/>
				<rect x="2794" y="1579" fill="#4F6B6E" width="27" height="27"/>
				<rect x="2794" y="1617" fill="#4F6B6E" width="27" height="16"/>
				<rect x="2834" y="1579" fill="#4F6B6E" width="27" height="27"/>
				<rect x="2834" y="1617" fill="#4F6B6E" width="27" height="16"/>
				<rect x="2872" y="1579" fill="#4F6B6E" width="30" height="27"/>
				<rect x="2872" y="1617" fill="#4F6B6E" width="30" height="16"/>
			</g>
			<path fill="#4F6B6E" d="M3061.628,1606.784c0,7.37,5.974,13.343,13.337,13.343c7.372,0,13.349-5.973,13.349-13.343
				c0-7.369-5.977-13.342-13.349-13.342C3067.602,1593.442,3061.628,1599.415,3061.628,1606.784z"/>
			<circle fill="#4F6B6E" cx="3030.013" cy="1606.784" r="13.342"/>
			<rect x="2753" y="1260" fill="#4F6B6E" width="333" height="13"/>
			<polygon fill="#4F6B6E" points="2958.482,1286.941 2958.482,1270.725 2944.969,1270.725 2944.969,1246.4 2901.725,1246.4 
				2901.725,1270.725 2888.211,1270.725 2888.211,1286.941 2880.102,1286.941 2880.102,1305.861 2888.211,1305.861 
				2888.211,1319.374 2911.041,1319.374 2908.368,1327.451 2914.197,1331.529 2914.672,1336.875 2923.34,1351.573 
				2931.694,1337.189 2932.062,1332.16 2937.773,1327.451 2935.102,1319.374 2958.482,1319.374 2958.482,1305.861 
				2963.888,1305.861 2963.888,1286.941 			"/>
			<polygon fill="#4F6B6E" points="2923,1246 2902,1246 2902,1271 2888,1271 2888,1287 2880,1287 2880,1306 2888,1306 2888,1319 
				2911.041,1319 2908.368,1327.264 2914.197,1331.436 2914.672,1336.828 2923.166,1351.55 2923,1351.561 			"/>
			<rect x="3142" y="1255" fill="#4F6B6E" width="11" height="24"/>
		</g>
		<g opacity="0.619"  a:adobe-knockout="false"  a:adobe-blending-mode="normal">
			<g>
				<path fill="#4A6366" d="M2912,1471.975l-38-18.287v-52.236l38,18.284V1471.975z M2868,1391.512v66.963l52,23.438v-66.962
					L2868,1391.512z"/>
				<path fill="#4A6366" d="M2918.449,1410.262l-40.19-18.692l40.342-18.243l39.149,18.243L2918.449,1410.262z M2918.75,1368.639
					l-50.582,22.873l50.395,23.438l49.279-23.438L2918.75,1368.639z"/>
				<path fill="#4A6366" d="M2963,1453.068l-38,17.618v-50.331l38-17.618V1453.068z M2920,1414.95v66.962l48-23.438v-66.963
					L2920,1414.95z"/>
			</g>
			<rect x="2749" y="1507" fill="#4A6366" width="333" height="41"/>
			<rect x="2889.883" y="1493.768" fill="#4A6366" width="59.462" height="13.516"/>
			<path fill="#4A6366" d="M3188.539,1269H3139v-13h48.064c0.564-3,0.26-7.739,0.154-10.442c-0.066-1.615-0.219-3.174-0.219-4.498
				V1140h-247.115c-1.322,0-2.855-0.205-4.471-0.268c-2.702-0.111-7.414-0.471-10.414,0.097V1242h-13v-103.646
				c0-3.17,0.926-5.973,3.146-8.105c5.007-4.807,13.409-4.563,20.94-4.264c1.422,0.056,2.635,0.016,3.799,0.016h248.654
				c1.449,0,2.472-0.001,3.184-0.063c1.627-0.143,4.636-0.37,7.097,2.091c2.461,2.459,2.338,5.497,2.189,7.118
				c-0.063,0.713-0.009,1.759-0.009,3.207v102.706c0,1.163-0.095,2.502-0.035,3.922c0.3,7.527,0.564,15.839-4.246,20.843
				C3194.588,1268.047,3191.71,1269,3188.539,1269z"/>
			<rect x="2830" y="1483" fill="#4A6366" width="173" height="11"/>
			<path fill="#4A6366" d="M3082,1548h-333v-330h333V1548z M2690,1167v494h449v-494H2690z"/>
			<g>
				<rect x="2749" y="1575" fill="#4A6366" width="33" height="27"/>
				<rect x="2749" y="1613" fill="#4A6366" width="33" height="16"/>
				<rect x="2790" y="1575" fill="#4A6366" width="27" height="27"/>
				<rect x="2790" y="1613" fill="#4A6366" width="27" height="16"/>
				<rect x="2830" y="1575" fill="#4A6366" width="27" height="27"/>
				<rect x="2830" y="1613" fill="#4A6366" width="27" height="16"/>
				<rect x="2868" y="1575" fill="#4A6366" width="30" height="27"/>
				<rect x="2868" y="1613" fill="#4A6366" width="30" height="16"/>
			</g>
			<path fill="#4A6366" d="M3057.896,1602.795c0,7.369,5.973,13.342,13.336,13.342c7.372,0,13.349-5.973,13.349-13.342
				s-5.977-13.343-13.349-13.343C3063.869,1589.452,3057.896,1595.426,3057.896,1602.795z"/>
			<path fill="#4A6366" d="M3012.938,1602.795c0,7.369,5.979,13.342,13.345,13.342c7.367,0,13.34-5.973,13.34-13.342
				s-5.973-13.343-13.34-13.343C3018.918,1589.452,3012.938,1595.426,3012.938,1602.795z"/>
			<rect x="2749" y="1256" fill="#4A6366" width="333" height="13"/>
			<polygon fill="#4A6366" points="2954.75,1282.952 2954.75,1266.735 2941.236,1266.735 2941.236,1242.41 2897.992,1242.41 
				2897.992,1266.735 2884.478,1266.735 2884.478,1282.952 2876.369,1282.952 2876.369,1301.871 2884.478,1301.871 
				2884.478,1315.384 2907.309,1315.384 2904.636,1323.462 2910.465,1327.539 2910.939,1332.885 2919.607,1347.584 
				2927.962,1333.199 2928.329,1328.17 2934.041,1323.462 2931.369,1315.384 2954.75,1315.384 2954.75,1301.871 2960.155,1301.871 
				2960.155,1282.952 			"/>
			<polygon fill="#4A6366" points="2920,1242 2898,1242 2898,1267 2884,1267 2884,1283 2876,1283 2876,1302 2884,1302 2884,1315 
				2907.309,1315 2904.636,1323.27 2910.465,1327.443 2910.939,1332.837 2919.8,1347.561 2920,1347.57 			"/>
			<rect x="3139" y="1251" fill="#4A6366" width="10" height="24"/>
		</g>
		<g opacity="0.6667"  a:adobe-knockout="false"  a:adobe-blending-mode="normal">
			<g>
				<path fill="#455A5D" d="M2908,1467.984l-38-18.286v-52.237l38,18.284V1467.984z M2865,1387.521v66.963l51,23.438v-66.963
					L2865,1387.521z"/>
				<path fill="#455A5D" d="M2914.717,1406.272l-40.19-18.693l40.342-18.243l39.149,18.243L2914.717,1406.272z M2915.018,1364.648
					l-50.583,22.873l50.396,23.438l49.279-23.438L2915.018,1364.648z"/>
				<path fill="#455A5D" d="M2959,1449.078l-38,17.618v-50.331l38-17.618V1449.078z M2916,1410.96v66.963l49-23.438v-66.963
					L2916,1410.96z"/>
			</g>
			<rect x="2746" y="1503" fill="#455A5D" width="332" height="41"/>
			<rect x="2886.15" y="1489.777" fill="#455A5D" width="59.462" height="13.516"/>
			<path fill="#455A5D" d="M3184.807,1265H3135v-13h48.331c0.565-3,0.128-7.734,0.021-10.438c-0.064-1.615-0.352-3.168-0.352-4.493
				V1136h-246.848c-1.322,0-2.989-0.2-4.604-0.263c-2.702-0.111-7.548-0.466-10.548,0.102V1238h-13v-103.636
				c0-3.171,1.061-5.974,3.279-8.106c5.006-4.807,13.477-4.567,21.008-4.269c1.422,0.056,2.702,0.011,3.865,0.011h248.654
				c1.449,0,2.472,0.005,3.184-0.058c1.627-0.143,4.636-0.366,7.097,2.093c2.461,2.461,2.201,5.5,2.055,7.12
				c-0.064,0.713-0.142,1.76-0.142,3.209v102.705c0,1.164,0.039,2.502,0.099,3.923c0.3,7.527,0.632,15.833-4.179,20.838
				C3190.789,1264.052,3187.978,1265,3184.807,1265z"/>
			<rect x="2827" y="1479" fill="#455A5D" width="173" height="11"/>
			<path fill="#455A5D" d="M3078,1544h-332v-330h332V1544z M2686,1163v494h449v-494H2686z"/>
			<g>
				<rect x="2746" y="1571" fill="#455A5D" width="32" height="27"/>
				<rect x="2746" y="1609" fill="#455A5D" width="32" height="16"/>
				<rect x="2786" y="1571" fill="#455A5D" width="27" height="27"/>
				<rect x="2786" y="1609" fill="#455A5D" width="27" height="16"/>
				<rect x="2827" y="1571" fill="#455A5D" width="27" height="27"/>
				<rect x="2827" y="1609" fill="#455A5D" width="27" height="16"/>
				<rect x="2865" y="1571" fill="#455A5D" width="29" height="27"/>
				<rect x="2865" y="1609" fill="#455A5D" width="29" height="16"/>
			</g>
			<path fill="#455A5D" d="M3054.164,1598.805c0,7.37,5.973,13.343,13.336,13.343c7.372,0,13.349-5.973,13.349-13.343
				c0-7.369-5.977-13.342-13.349-13.342C3060.137,1585.463,3054.164,1591.436,3054.164,1598.805z"/>
			<circle fill="#455A5D" cx="3022.548" cy="1598.805" r="13.342"/>
			<rect x="2746" y="1252" fill="#455A5D" width="332" height="13"/>
			<polygon fill="#455A5D" points="2951.018,1278.963 2951.018,1262.745 2937.504,1262.745 2937.504,1238.42 2894.26,1238.42 
				2894.26,1262.745 2880.746,1262.745 2880.746,1278.963 2872.637,1278.963 2872.637,1297.882 2880.746,1297.882 
				2880.746,1311.395 2903.576,1311.395 2900.903,1319.473 2906.732,1323.55 2907.207,1328.896 2915.875,1343.594 2924.23,1329.209 
				2924.597,1324.18 2930.309,1319.473 2927.637,1311.395 2951.018,1311.395 2951.018,1297.882 2956.423,1297.882 
				2956.423,1278.963 			"/>
			<polygon fill="#455A5D" points="2916,1238 2894,1238 2894,1263 2881,1263 2881,1279 2873,1279 2873,1298 2881,1298 2881,1311 
				2903.576,1311 2900.903,1319.275 2906.732,1323.451 2907.207,1328.846 2915.934,1343.569 2916,1343.58 			"/>
			<rect x="3135" y="1247" fill="#455A5D" width="11" height="24"/>
		</g>
		<g opacity="0.7143"  a:adobe-knockout="false"  a:adobe-blending-mode="normal">
			<g>
				<path fill="#405254" d="M2904,1463.994l-38-18.286v-52.236l38,18.283V1463.994z M2861,1383.532v66.962l51,23.438v-66.963
					L2861,1383.532z"/>
				<path fill="#405254" d="M2910.984,1402.283l-40.19-18.693l40.342-18.244l39.149,18.244L2910.984,1402.283z M2911.285,1360.659
					l-50.583,22.873l50.396,23.438l49.279-23.438L2911.285,1360.659z"/>
				<path fill="#405254" d="M2955,1445.089l-37,17.618v-50.331l37-17.618V1445.089z M2912,1406.97v66.963l49-23.438v-66.962
					L2912,1406.97z"/>
			</g>
			<rect x="2742" y="1499" fill="#405254" width="332" height="41"/>
			<rect x="2882.418" y="1485.788" fill="#405254" width="59.462" height="13.516"/>
			<path fill="#405254" d="M3181.074,1261H3131v-13h48.599c0.565-3,0.495-7.729,0.388-10.434c-0.066-1.614,0.014-3.162,0.014-4.486
				V1132h-247.58c-1.322,0-2.623-0.194-4.238-0.258c-2.703-0.111-8.182-0.461-10.182,0.107V1234h-14v-103.626
				c0-3.17,1.193-5.973,3.414-8.105c5.006-4.808,13.543-4.573,21.074-4.274c1.422,0.057,2.769,0.006,3.932,0.006h248.654
				c1.449,0,2.471,0.01,3.184-0.053c1.627-0.143,4.635-0.363,7.098,2.096c2.459,2.461,2.07,5.501,1.921,7.122
				c-0.063,0.712-0.276,1.76-0.276,3.209v102.706c0,1.164,0.173,2.502,0.232,3.922c0.299,7.527,0.698,15.829-4.112,20.833
				C3186.989,1260.058,3184.245,1261,3181.074,1261z"/>
			<rect x="2823" y="1475" fill="#405254" width="173" height="11"/>
			<path fill="#405254" d="M3074,1540h-332v-330h332V1540z M2682,1159v494h449v-494H2682z"/>
			<g>
				<rect x="2742" y="1567" fill="#405254" width="32" height="27"/>
				<rect x="2742" y="1605" fill="#405254" width="32" height="16"/>
				<rect x="2782" y="1567" fill="#405254" width="27" height="27"/>
				<rect x="2782" y="1605" fill="#405254" width="27" height="16"/>
				<rect x="2823" y="1567" fill="#405254" width="27" height="27"/>
				<rect x="2823" y="1605" fill="#405254" width="27" height="16"/>
				<rect x="2861" y="1567" fill="#405254" width="30" height="27"/>
				<rect x="2861" y="1605" fill="#405254" width="30" height="16"/>
			</g>
			<path fill="#405254" d="M3050.432,1594.814c0,7.371,5.973,13.343,13.336,13.343c7.372,0,13.349-5.972,13.349-13.343
				c0-7.369-5.977-13.342-13.349-13.342C3056.404,1581.473,3050.432,1587.445,3050.432,1594.814z"/>
			<circle fill="#405254" cx="3018.816" cy="1594.814" r="13.342"/>
			<rect x="2742" y="1248" fill="#405254" width="332" height="13"/>
			<polygon fill="#405254" points="2947.285,1274.973 2947.285,1258.756 2933.771,1258.756 2933.771,1234.431 2890.527,1234.431 
				2890.527,1258.756 2877.013,1258.756 2877.013,1274.973 2868.904,1274.973 2868.904,1293.892 2877.013,1293.892 
				2877.013,1307.404 2899.844,1307.404 2897.171,1315.482 2903,1319.56 2903.475,1324.905 2912.143,1339.604 2920.498,1325.22 
				2920.864,1320.19 2926.576,1315.482 2923.904,1307.404 2947.285,1307.404 2947.285,1293.892 2952.69,1293.892 2952.69,1274.973 
							"/>
			<polygon fill="#405254" points="2912,1234 2891,1234 2891,1259 2877,1259 2877,1275 2869,1275 2869,1294 2877,1294 2877,1307 
				2899.844,1307 2897.171,1315.28 2903,1319.459 2903.475,1324.854 2912.067,1339.578 2912,1339.591 			"/>
			<rect x="3131" y="1243" fill="#405254" width="11" height="24"/>
		</g>
		<g opacity="0.7619"  a:adobe-knockout="false"  a:adobe-blending-mode="normal">
			<g>
				<path fill="#3B494C" d="M2900,1460.005l-38-18.286v-52.236l38,18.283V1460.005z M2857,1379.543v66.962l51,23.438v-66.963
					L2857,1379.543z"/>
				<path fill="#3B494C" d="M2907.252,1398.293l-40.19-18.693l40.342-18.243l39.149,18.243L2907.252,1398.293z M2907.553,1356.669
					l-50.583,22.874l50.396,23.438l49.279-23.438L2907.553,1356.669z"/>
				<path fill="#3B494C" d="M2952,1441.1l-38,17.617v-50.33l38-17.619V1441.1z M2908,1402.98v66.963l49-23.438v-66.962L2908,1402.98
					z"/>
			</g>
			<rect x="2738" y="1495" fill="#3B494C" width="333" height="41"/>
			<rect x="2878.686" y="1481.799" fill="#3B494C" width="59.462" height="13.515"/>
			<path fill="#3B494C" d="M3177.342,1257H3127v-13h48.866c0.565-3,0.36-7.725,0.253-10.428c-0.066-1.614-0.119-3.158-0.119-4.482
				V1128h-247.313c-1.322,0-2.757-0.189-4.372-0.252c-2.702-0.111-8.315-0.456-10.315,0.111V1230h-14v-103.615
				c0-3.171,1.327-5.974,3.547-8.106c5.006-4.807,13.61-4.578,21.142-4.279c1.422,0.056,2.836,0.001,3.999,0.001h248.654
				c1.449,0,2.472,0.014,3.184-0.048c1.627-0.143,4.636-0.361,7.098,2.099c2.46,2.46,2.433,5.502,2.286,7.123
				c-0.064,0.711,0.091,1.762,0.091,3.211v102.705c0,1.164-0.193,2.502-0.134,3.923c0.299,7.526,0.515,15.823-4.296,20.827
				C3183.439,1256.063,3180.513,1257,3177.342,1257z"/>
			<rect x="2819" y="1471" fill="#3B494C" width="173" height="11"/>
			<path fill="#3B494C" d="M3071,1536h-333v-330h333V1536z M2679,1155v494h448v-494H2679z"/>
			<g>
				<rect x="2738" y="1563" fill="#3B494C" width="33" height="27"/>
				<rect x="2738" y="1601" fill="#3B494C" width="33" height="16"/>
				<rect x="2779" y="1563" fill="#3B494C" width="27" height="27"/>
				<rect x="2779" y="1601" fill="#3B494C" width="27" height="16"/>
				<rect x="2819" y="1563" fill="#3B494C" width="27" height="27"/>
				<rect x="2819" y="1601" fill="#3B494C" width="27" height="16"/>
				<rect x="2857" y="1563" fill="#3B494C" width="30" height="27"/>
				<rect x="2857" y="1601" fill="#3B494C" width="30" height="16"/>
			</g>
			<path fill="#3B494C" d="M3046.699,1590.825c0,7.37,5.973,13.343,13.336,13.343c7.372,0,13.349-5.973,13.349-13.343
				c0-7.369-5.977-13.343-13.349-13.343C3052.672,1577.482,3046.699,1583.456,3046.699,1590.825z"/>
			<circle fill="#3B494C" cx="3015.084" cy="1590.825" r="13.342"/>
			<rect x="2738" y="1244" fill="#3B494C" width="333" height="13"/>
			<polygon fill="#3B494C" points="2943.553,1270.983 2943.553,1254.766 2930.039,1254.766 2930.039,1230.44 2886.795,1230.44 
				2886.795,1254.766 2873.281,1254.766 2873.281,1270.983 2865.172,1270.983 2865.172,1289.902 2873.281,1289.902 
				2873.281,1303.414 2896.111,1303.414 2893.439,1311.492 2899.269,1315.57 2899.742,1320.915 2908.41,1335.614 2916.765,1321.229 
				2917.132,1316.201 2922.844,1311.492 2920.172,1303.414 2943.553,1303.414 2943.553,1289.902 2948.959,1289.902 
				2948.959,1270.983 			"/>
			<polygon fill="#3B494C" points="2908,1230 2887,1230 2887,1255 2873,1255 2873,1271 2865,1271 2865,1290 2873,1290 2873,1303 
				2896.111,1303 2893.439,1311.285 2899.269,1315.467 2899.742,1320.863 2908.201,1335.588 2908,1335.602 			"/>
			<rect x="3127" y="1239" fill="#3B494C" width="11" height="24"/>
		</g>
		<g opacity="0.8095"  a:adobe-knockout="false"  a:adobe-blending-mode="normal">
			<g>
				<path fill="#364143" d="M2897,1456.015l-38-18.286v-52.236l38,18.283V1456.015z M2853,1375.553v66.962l52,23.438v-66.963
					L2853,1375.553z"/>
				<path fill="#364143" d="M2903.52,1394.303l-40.19-18.693l40.342-18.243l39.149,18.243L2903.52,1394.303z M2903.82,1352.68
					l-50.583,22.873l50.396,23.438l49.279-23.438L2903.82,1352.68z"/>
				<path fill="#364143" d="M2948,1437.109l-38,17.618v-50.331l38-17.618V1437.109z M2905,1398.99v66.963l48-23.438v-66.962
					L2905,1398.99z"/>
			</g>
			<rect x="2734" y="1491" fill="#364143" width="333" height="41"/>
			<rect x="2874.953" y="1477.809" fill="#364143" width="59.462" height="13.516"/>
			<path fill="#364143" d="M3173.609,1253H3124v-13h48.134c0.566-3,0.227-7.72,0.119-10.422c-0.065-1.615-0.253-3.153-0.253-4.479
				V1124h-247.046c-1.321,0-2.89-0.184-4.505-0.248c-2.702-0.111-7.449-0.45-10.449,0.117V1226h-13v-103.605
				c0-3.17,0.961-5.974,3.182-8.106c5.006-4.807,13.427-4.583,20.958-4.283c1.422,0.056,2.652-0.005,3.814-0.005h248.655
				c1.449,0,2.472,0.02,3.184-0.042c1.628-0.144,4.636-0.36,7.098,2.101c2.46,2.459,2.298,5.503,2.152,7.123
				c-0.064,0.713-0.043,1.764-0.043,3.213V1225.1c0,1.164-0.06,2.502,0,3.923c0.299,7.527,0.582,15.817-4.229,20.823
				C3179.641,1252.066,3176.78,1253,3173.609,1253z"/>
			<rect x="2815" y="1467" fill="#364143" width="173" height="11"/>
			<path fill="#364143" d="M3067,1532h-333v-330h333V1532z M2675,1151v494h449v-494H2675z"/>
			<g>
				<rect x="2734" y="1559" fill="#364143" width="33" height="27"/>
				<rect x="2734" y="1597" fill="#364143" width="33" height="16"/>
				<rect x="2775" y="1559" fill="#364143" width="27" height="27"/>
				<rect x="2775" y="1597" fill="#364143" width="27" height="16"/>
				<rect x="2815" y="1559" fill="#364143" width="28" height="27"/>
				<rect x="2815" y="1597" fill="#364143" width="28" height="16"/>
				<rect x="2853" y="1559" fill="#364143" width="30" height="27"/>
				<rect x="2853" y="1597" fill="#364143" width="30" height="16"/>
			</g>
			<path fill="#364143" d="M3042.967,1586.835c0,7.37,5.973,13.343,13.336,13.343c7.372,0,13.349-5.973,13.349-13.343
				c0-7.369-5.977-13.342-13.349-13.342C3048.939,1573.493,3042.967,1579.466,3042.967,1586.835z"/>
			<circle fill="#364143" cx="3011.352" cy="1586.835" r="13.342"/>
			<rect x="2734" y="1240" fill="#364143" width="333" height="13"/>
			<polygon fill="#364143" points="2939.82,1266.993 2939.82,1250.775 2926.307,1250.775 2926.307,1226.45 2883.063,1226.45 
				2883.063,1250.775 2869.548,1250.775 2869.548,1266.993 2861.439,1266.993 2861.439,1285.912 2869.548,1285.912 
				2869.548,1299.425 2892.379,1299.425 2889.706,1307.503 2895.536,1311.58 2896.01,1316.926 2904.678,1331.625 2913.033,1317.239 
				2913.399,1312.211 2919.111,1307.503 2916.439,1299.425 2939.82,1299.425 2939.82,1285.912 2945.227,1285.912 2945.227,1266.993 
							"/>
			<polygon fill="#364143" points="2905,1226 2883,1226 2883,1251 2870,1251 2870,1267 2861,1267 2861,1286 2870,1286 2870,1299 
				2892.379,1299 2889.706,1307.291 2895.536,1311.474 2896.01,1316.873 2904.835,1331.599 2905,1331.611 			"/>
			<rect x="3124" y="1235" fill="#364143" width="10" height="24"/>
		</g>
		<g opacity="0.8571"  a:adobe-knockout="false"  a:adobe-blending-mode="normal">
			<g>
				<path fill="#32383A" d="M2893,1452.025l-38-18.286v-52.237l38,18.284V1452.025z M2850,1371.563v66.962l51,23.438v-66.962
					L2850,1371.563z"/>
				<path fill="#32383A" d="M2899.787,1390.313l-40.19-18.693l40.342-18.243l39.149,18.243L2899.787,1390.313z M2900.088,1348.69
					l-50.583,22.873l50.396,23.438l49.279-23.438L2900.088,1348.69z"/>
				<path fill="#32383A" d="M2944,1433.12l-38,17.617v-50.33l38-17.619V1433.12z M2901,1395.001v66.962l49-23.438v-66.962
					L2901,1395.001z"/>
			</g>
			<rect x="2731" y="1487" fill="#32383A" width="332" height="41"/>
			<rect x="2871.221" y="1473.819" fill="#32383A" width="59.462" height="13.515"/>
			<path fill="#32383A" d="M3169.877,1249H3120v-13h48.401c0.566-3,0.593-7.715,0.485-10.418c-0.065-1.615,0.113-3.147,0.113-4.472
				V1120h-247.778c-1.321,0-3.023-0.18-4.639-0.242c-2.702-0.112-7.583-0.445-10.583,0.122V1222h-13v-103.595
				c0-3.171,1.096-5.974,3.314-8.106c5.008-4.807,13.494-4.588,21.025-4.289c1.422,0.055,2.72-0.01,3.882-0.01h248.655
				c1.449,0,2.472,0.023,3.184-0.037c1.628-0.143,4.636-0.357,7.098,2.104c2.46,2.46,2.165,5.505,2.019,7.125
				c-0.064,0.712-0.177,1.765-0.177,3.214v102.705c0,1.163,0.074,2.502,0.134,3.922c0.299,7.527,0.649,15.813-4.161,20.818
				C3175.842,1248.072,3173.048,1249,3169.877,1249z"/>
			<rect x="2812" y="1463" fill="#32383A" width="173" height="11"/>
			<path fill="#32383A" d="M3063,1528h-332v-330h332V1528z M2671,1147v494h449v-494H2671z"/>
			<g>
				<rect x="2731" y="1555" fill="#32383A" width="32" height="27"/>
				<rect x="2731" y="1593" fill="#32383A" width="32" height="16"/>
				<rect x="2771" y="1555" fill="#32383A" width="27" height="27"/>
				<rect x="2771" y="1593" fill="#32383A" width="27" height="16"/>
				<rect x="2812" y="1555" fill="#32383A" width="27" height="27"/>
				<rect x="2812" y="1593" fill="#32383A" width="27" height="16"/>
				<rect x="2850" y="1555" fill="#32383A" width="29" height="27"/>
				<rect x="2850" y="1593" fill="#32383A" width="29" height="16"/>
			</g>
			<path fill="#32383A" d="M3039.234,1582.846c0,7.37,5.973,13.343,13.336,13.343c7.372,0,13.349-5.973,13.349-13.343
				c0-7.369-5.977-13.342-13.349-13.342C3045.207,1569.504,3039.234,1575.477,3039.234,1582.846z"/>
			<circle fill="#32383A" cx="3007.619" cy="1582.846" r="13.342"/>
			<rect x="2731" y="1236" fill="#32383A" width="332" height="13"/>
			<polygon fill="#32383A" points="2936.089,1263.004 2936.089,1246.786 2922.574,1246.786 2922.574,1222.461 2879.33,1222.461 
				2879.33,1246.786 2865.815,1246.786 2865.815,1263.004 2857.707,1263.004 2857.707,1281.923 2865.815,1281.923 
				2865.815,1295.435 2888.646,1295.435 2885.975,1303.514 2891.804,1307.59 2892.277,1312.936 2900.945,1327.635 2909.301,1313.25 
				2909.667,1308.222 2915.379,1303.514 2912.707,1295.435 2936.089,1295.435 2936.089,1281.923 2941.494,1281.923 
				2941.494,1263.004 			"/>
			<polygon fill="#32383A" points="2901,1222 2879,1222 2879,1247 2866,1247 2866,1263 2858,1263 2858,1282 2866,1282 2866,1295 
				2888.646,1295 2885.975,1303.297 2891.804,1307.481 2892.277,1312.881 2900.969,1327.607 2901,1327.622 			"/>
			<rect x="3120" y="1231" fill="#32383A" width="11" height="24"/>
		</g>
		<g opacity="0.9048"  a:adobe-knockout="false"  a:adobe-blending-mode="normal">
			<g>
				<path fill="#2D3031" d="M2889,1448.035l-38-18.286v-52.237l38,18.284V1448.035z M2846,1367.573v66.962l51,23.438v-66.963
					L2846,1367.573z"/>
				<path fill="#2D3031" d="M2896.055,1386.323l-40.19-18.693l40.342-18.243l39.149,18.243L2896.055,1386.323z M2896.355,1344.7
					l-50.583,22.873l50.396,23.438l49.279-23.438L2896.355,1344.7z"/>
				<path fill="#2D3031" d="M2940,1429.13l-37,17.618v-50.331l37-17.619V1429.13z M2897,1391.011v66.963l49-23.438v-66.962
					L2897,1391.011z"/>
			</g>
			<rect x="2727" y="1483" fill="#2D3031" width="332" height="41"/>
			<rect x="2867.488" y="1469.829" fill="#2D3031" width="59.462" height="13.516"/>
			<path fill="#2D3031" d="M3166.145,1246H3116v-14h48.669c0.566-3,0.458-7.709,0.352-10.412c-0.065-1.615-0.021-3.143-0.021-4.468
				V1116h-247.511c-1.321,0-2.657-0.174-4.272-0.237c-2.702-0.111-8.217-0.44-10.217,0.127V1218h-14v-103.585
				c0-3.171,1.229-5.974,3.449-8.106c5.006-4.807,13.561-4.594,21.092-4.293c1.422,0.055,2.785-0.016,3.948-0.016h248.655
				c1.449,0,2.472,0.029,3.184-0.033c1.628-0.143,4.636-0.354,7.098,2.106c2.46,2.46,2.031,5.507,1.885,7.127
				c-0.064,0.712-0.311,1.766-0.311,3.215v102.705c0,1.164,0.208,2.502,0.268,3.923c0.299,7.527,0.716,16.308-4.095,21.313
				C3172.042,1244.577,3169.315,1246,3166.145,1246z"/>
			<rect x="2808" y="1459" fill="#2D3031" width="173" height="11"/>
			<path fill="#2D3031" d="M3059,1524h-332v-330h332V1524z M2667,1143v494h449v-494H2667z"/>
			<g>
				<rect x="2727" y="1551" fill="#2D3031" width="32" height="27"/>
				<rect x="2727" y="1589" fill="#2D3031" width="32" height="16"/>
				<rect x="2767" y="1551" fill="#2D3031" width="28" height="27"/>
				<rect x="2767" y="1589" fill="#2D3031" width="28" height="16"/>
				<rect x="2808" y="1551" fill="#2D3031" width="27" height="27"/>
				<rect x="2808" y="1589" fill="#2D3031" width="27" height="16"/>
				<rect x="2846" y="1551" fill="#2D3031" width="30" height="27"/>
				<rect x="2846" y="1589" fill="#2D3031" width="30" height="16"/>
			</g>
			<path fill="#2D3031" d="M3035.502,1578.855c0,7.37,5.973,13.343,13.336,13.343c7.373,0,13.349-5.973,13.349-13.343
				c0-7.369-5.976-13.342-13.349-13.342C3041.475,1565.514,3035.502,1571.486,3035.502,1578.855z"/>
			<circle fill="#2D3031" cx="3003.886" cy="1578.855" r="13.342"/>
			<rect x="2727" y="1232" fill="#2D3031" width="332" height="14"/>
			<polygon fill="#2D3031" points="2932.355,1259.014 2932.355,1242.796 2918.842,1242.796 2918.842,1218.471 2875.598,1218.471 
				2875.598,1242.796 2862.084,1242.796 2862.084,1259.014 2853.975,1259.014 2853.975,1277.933 2862.084,1277.933 
				2862.084,1291.444 2884.914,1291.444 2882.242,1299.523 2888.071,1303.6 2888.545,1308.946 2897.213,1323.645 2905.568,1309.26 
				2905.935,1304.231 2911.646,1299.523 2908.975,1291.444 2932.355,1291.444 2932.355,1277.933 2937.762,1277.933 
				2937.762,1259.014 			"/>
			<polygon fill="#2D3031" points="2897,1218 2876,1218 2876,1243 2862,1243 2862,1259 2854,1259 2854,1278 2862,1278 2862,1291 
				2884.914,1291 2882.242,1299.301 2888.071,1303.488 2888.545,1308.891 2897.103,1323.617 2897,1323.632 			"/>
			<rect x="3116" y="1227" fill="#2D3031" width="11" height="24"/>
		</g>
		<g opacity="0.9524"  a:adobe-knockout="false"  a:adobe-blending-mode="normal">
			<g>
				<path fill="#282729" d="M2885,1444.045l-37-18.285v-52.238l37,18.284V1444.045z M2842,1363.584v66.962l51,23.438v-66.963
					L2842,1363.584z"/>
				<path fill="#282729" d="M2892.322,1382.334l-40.189-18.693l40.341-18.244l39.149,18.244L2892.322,1382.334z M2892.623,1340.71
					l-50.583,22.874l50.396,23.438l49.279-23.438L2892.623,1340.71z"/>
				<path fill="#282729" d="M2937,1425.14l-38,17.618v-50.33l38-17.619V1425.14z M2893,1387.021v66.963l49-23.438v-66.962
					L2893,1387.021z"/>
			</g>
			<rect x="2723" y="1479" fill="#282729" width="333" height="41"/>
			<rect x="2863.756" y="1465.84" fill="#282729" width="59.462" height="13.516"/>
			<path fill="#282729" d="M3162.412,1242H3112v-14h48.937c0.566-2,0.325-7.704,0.218-10.408c-0.064-1.613-0.154-3.137-0.154-4.462
				V1112h-247.242c-1.322,0-2.792-0.17-4.407-0.232c-2.702-0.111-8.351-0.435-10.351,0.133V1214h-14v-103.574
				c0-3.171,1.363-5.974,3.582-8.106c5.008-4.807,13.628-4.599,21.159-4.3c1.422,0.056,2.854-0.02,4.017-0.02h248.654
				c1.449,0,2.472,0.034,3.184-0.028c1.628-0.142,4.636-0.351,7.098,2.11c2.46,2.459,2.397,5.507,2.251,7.127
				c-0.064,0.712,0.056,1.768,0.056,3.217v102.704c0,1.165-0.158,2.502-0.099,3.924c0.299,7.527,0.532,16.302-4.278,21.308
				C3168.492,1240.582,3165.583,1242,3162.412,1242z"/>
			<rect x="2804" y="1455" fill="#282729" width="173" height="11"/>
			<path fill="#282729" d="M3056,1520h-333v-330h333V1520z M2664,1139v494h448v-494H2664z"/>
			<g>
				<rect x="2723" y="1547" fill="#282729" width="33" height="27"/>
				<rect x="2723" y="1585" fill="#282729" width="33" height="16"/>
				<rect x="2764" y="1547" fill="#282729" width="27" height="27"/>
				<rect x="2764" y="1585" fill="#282729" width="27" height="16"/>
				<rect x="2804" y="1547" fill="#282729" width="27" height="27"/>
				<rect x="2804" y="1585" fill="#282729" width="27" height="16"/>
				<rect x="2842" y="1547" fill="#282729" width="30" height="27"/>
				<rect x="2842" y="1585" fill="#282729" width="30" height="16"/>
			</g>
			<path fill="#282729" d="M3031.77,1574.865c0,7.371,5.973,13.344,13.336,13.344c7.372,0,13.349-5.973,13.349-13.344
				c0-7.368-5.977-13.341-13.349-13.341C3037.742,1561.524,3031.77,1567.497,3031.77,1574.865z"/>
			<circle fill="#282729" cx="3000.154" cy="1574.865" r="13.342"/>
			<rect x="2723" y="1228" fill="#282729" width="333" height="14"/>
			<polygon fill="#282729" points="2928.624,1255.024 2928.624,1238.806 2915.109,1238.806 2915.109,1214.481 2871.865,1214.481 
				2871.865,1238.806 2858.351,1238.806 2858.351,1255.024 2850.242,1255.024 2850.242,1273.943 2858.351,1273.943 
				2858.351,1287.455 2881.182,1287.455 2878.51,1295.533 2884.339,1299.61 2884.813,1304.956 2893.48,1319.655 2901.836,1305.271 
				2902.202,1300.242 2907.914,1295.533 2905.242,1287.455 2928.624,1287.455 2928.624,1273.943 2934.029,1273.943 
				2934.029,1255.024 			"/>
			<polygon fill="#282729" points="2893,1214 2872,1214 2872,1239 2858,1239 2858,1255 2850,1255 2850,1274 2858,1274 2858,1287 
				2881.182,1287 2878.51,1295.306 2884.339,1299.496 2884.813,1304.899 2893.236,1319.627 2893,1319.643 			"/>
			<rect x="3112" y="1223" fill="#282729" width="11" height="24"/>
		</g>
		<g  a:adobe-knockout="false"  a:adobe-blending-mode="normal">
			<g>
				<path fill="#231F20" d="M2882,1440.056l-38-18.286v-52.237l38,18.284V1440.056z M2838,1359.594v66.962l52,23.438v-66.963
					L2838,1359.594z"/>
				<path fill="#231F20" d="M2888.59,1378.344l-40.19-18.693l40.342-18.243l39.149,18.243L2888.59,1378.344z M2888.891,1336.721
					l-50.583,22.873l50.396,23.438l49.279-23.438L2888.891,1336.721z"/>
				<path fill="#231F20" d="M2933,1421.15l-38,17.618v-50.331l38-17.619V1421.15z M2890,1383.031v66.963l48-23.438v-66.962
					L2890,1383.031z"/>
			</g>
			<rect x="2719" y="1475" fill="#231F20" width="333" height="41"/>
			<rect x="2860.023" y="1461.85" fill="#231F20" width="59.462" height="13.516"/>
			<path fill="#231F20" d="M3158.68,1238H3109v-14h48.204c0.566-2,0.191-7.699,0.084-10.402c-0.065-1.614-0.288-3.132-0.288-4.457
				V1108h-246.976c-1.321,0-2.925-0.164-4.54-0.227c-2.702-0.111-7.484-0.431-10.484,0.137V1210h-13v-103.564
				c0-3.171,0.996-5.974,3.217-8.106c5.006-4.807,13.444-4.604,20.976-4.304c1.422,0.055,2.67-0.025,3.832-0.025h248.655
				c1.449,0,2.472,0.039,3.184-0.022c1.628-0.143,4.636-0.349,7.098,2.111c2.46,2.46,2.268,5.509,2.117,7.129
				c-0.063,0.712-0.078,1.769-0.078,3.218v102.705c0,1.164-0.024,2.502,0.035,3.923c0.299,7.527,0.6,16.298-4.211,21.302
				C3164.693,1236.588,3161.851,1238,3158.68,1238z"/>
			<rect x="2801" y="1451" fill="#231F20" width="173" height="11"/>
			<path fill="#231F20" d="M3052,1516h-333v-330h333V1516z M2660,1135v494h449v-494H2660z"/>
			<g>
				<rect x="2719" y="1543" fill="#231F20" width="33" height="27"/>
				<rect x="2719" y="1581" fill="#231F20" width="33" height="16"/>
				<rect x="2760" y="1543" fill="#231F20" width="27" height="27"/>
				<rect x="2760" y="1581" fill="#231F20" width="27" height="16"/>
				<rect x="2801" y="1543" fill="#231F20" width="27" height="27"/>
				<rect x="2801" y="1581" fill="#231F20" width="27" height="16"/>
				<rect x="2838" y="1543" fill="#231F20" width="30" height="27"/>
				<rect x="2838" y="1581" fill="#231F20" width="30" height="16"/>
			</g>
			<path fill="#231F20" d="M3028.037,1570.876c0,7.37,5.973,13.343,13.336,13.343c7.372,0,13.349-5.973,13.349-13.343
				c0-7.369-5.977-13.342-13.349-13.342C3034.01,1557.534,3028.037,1563.507,3028.037,1570.876z"/>
			<circle fill="#231F20" cx="2996.422" cy="1570.876" r="13.342"/>
			<rect x="2719" y="1224" fill="#231F20" width="333" height="14"/>
			<polygon fill="#231F20" points="2924.892,1251.034 2924.892,1234.816 2911.377,1234.816 2911.377,1210.491 2868.133,1210.491 
				2868.133,1234.816 2854.618,1234.816 2854.618,1251.034 2846.51,1251.034 2846.51,1269.953 2854.618,1269.953 2854.618,1283.465 
				2877.449,1283.465 2874.777,1291.544 2880.606,1295.62 2881.08,1300.967 2889.748,1315.665 2898.104,1301.28 2898.47,1296.252 
				2904.182,1291.544 2901.51,1283.465 2924.892,1283.465 2924.892,1269.953 2930.297,1269.953 2930.297,1251.034 			"/>
			<polygon fill="#231F20" points="2890,1210 2868,1210 2868,1235 2855,1235 2855,1251 2847,1251 2847,1270 2855,1270 2855,1283 
				2877.449,1283 2874.777,1291.312 2880.606,1295.504 2881.08,1300.908 2889.87,1315.636 2890,1315.652 			"/>
			<rect x="3109" y="1219" fill="#231F20" width="10" height="24"/>
		</g>
	</g>
	<g>
		<path fill="#CCD4CF" d="M2839,1359.594v66.962l52,23.438v-66.963L2839,1359.594z M2883,1440.056l-40-18.286v-52.237l40,18.284
			V1440.056z"/>
		<path fill="#EEEEEE" d="M2888.891,1336.721l-50.583,22.873l50.396,23.438l49.279-23.438L2888.891,1336.721z M2888.59,1378.344
			l-40.19-18.693l40.342-18.243l39.149,18.243L2888.59,1378.344z"/>
		<path fill="#999999" d="M2891,1383.031v66.963l47-23.438v-66.962L2891,1383.031z M2933,1421.15l-38,17.618v-50.331l38-17.619
			V1421.15z"/>
	</g>
	<rect x="2719" y="1475" fill="#CCD4CF" width="334" height="42"/>
	<rect x="2860.023" y="1461.85" fill="#2C2E32" width="59.462" height="13.516"/>
	<path fill="#012670" d="M3158.68,1237H3109v-13h48.204c0.566-3,0.192-7.699,0.085-10.402c-0.065-1.615-0.289-3.132-0.289-4.457
		V1108h-246.976c-1.321,0-2.926-0.164-4.54-0.229c-2.702-0.111-8.484-0.429-10.484,0.139V1210h-12v-103.564
		c0-3.171,0.497-5.974,2.716-8.106c5.006-4.807,13.196-4.604,20.728-4.304c1.422,0.058,2.419-0.025,3.581-0.025h248.655
		c1.449,0,2.472,0.042,3.184-0.022c1.628-0.142,4.636-0.349,7.098,2.11c2.46,2.461,1.77,5.51,1.619,7.131
		c-0.063,0.712-0.58,1.768-0.58,3.217v102.705c0,1.164,0.475,2.502,0.535,3.923c0.301,7.527,0.852,15.798-3.961,20.803
		C3164.443,1236.088,3161.851,1237,3158.68,1237z"/>
	<rect x="2800" y="1452" fill="#999999" width="173" height="10"/>
	<path fill="#58B7E0" d="M2660,1134v496h449v-496H2660z M3053,1517h-334v-331h334V1517z"/>
	<g>
		<rect x="2719" y="1543" fill="#999999" width="34" height="27"/>
		<rect x="2719" y="1581" fill="#999999" width="34" height="17"/>
		<rect x="2760" y="1543" fill="#999999" width="27" height="27"/>
		<rect x="2760" y="1581" fill="#999999" width="27" height="17"/>
		<rect x="2800" y="1543" fill="#999999" width="28" height="27"/>
		<rect x="2800" y="1581" fill="#999999" width="28" height="17"/>
		<rect x="2839" y="1543" fill="#999999" width="29" height="27"/>
		<rect x="2839" y="1581" fill="#999999" width="29" height="17"/>
	</g>
	<path fill="#FF9648" d="M3028.037,1570.876c0,7.37,5.973,13.343,13.336,13.343c7.372,0,13.349-5.973,13.349-13.343
		c0-7.369-5.977-13.342-13.349-13.342C3034.01,1557.534,3028.037,1563.507,3028.037,1570.876z"/>
	<circle fill="#4EC659" cx="2996.422" cy="1570.876" r="13.342"/>
	<rect x="2719" y="1224" fill="#999999" width="334" height="13"/>
	<polygon fill="#2C2E32" points="2924.892,1251.034 2924.892,1234.816 2911.377,1234.816 2911.377,1210.491 2868.133,1210.491 
		2868.133,1234.816 2854.618,1234.816 2854.618,1251.034 2846.51,1251.034 2846.51,1269.953 2854.618,1269.953 2854.618,1283.465 
		2877.449,1283.465 2874.777,1291.544 2880.606,1295.62 2881.08,1300.967 2889.748,1315.665 2898.104,1301.28 2898.47,1296.252 
		2904.182,1291.544 2901.51,1283.465 2924.892,1283.465 2924.892,1269.953 2930.297,1269.953 2930.297,1251.034 	"/>
	<polygon fill="#73767A" points="2891,1210 2868,1210 2868,1234 2855,1234 2855,1252 2848,1252 2848,1270 2855,1270 2855,1284 
		2877.449,1284 2874.777,1291.809 2880.606,1295.755 2881.08,1301.033 2890.369,1315.696 2891,1315.652 	"/>
	<rect x="3109" y="1219" fill="#999999" width="11" height="22"/>
	<g id="XMLID_214_">
		<path id="XMLID_232_" fill="#A08B75" d="M606.653,1136.541c-7.356,21.867-7.728,46.29-1.049,68.401
			c0.64,2.109,1.354,4.288,1.101,6.489c-0.491,4.272-4.329,7.129-7.951,9.081c-18.229,9.807-39.433,10.819-59.878,10.863
			c-32.902,0.073-65.806-1.838-98.5-5.728c-3.755-4.597-1.228-11.558,0.513-17.352c5.229-17.448,1.303-36.257-0.542-54.464
			c-0.208-2.075-0.364-4.292,0.558-6.136c0.84-1.696,2.455-2.781,4.009-3.76c23.101-14.529,49.935-22.338,76.807-22.356
			c10.933-0.012,21.844,1.242,32.657,2.952C572.018,1127.326,589.495,1131.339,606.653,1136.541z"/>
		<g id="XMLID_228_">
			<path id="XMLID_231_" fill="#666666" d="M663.601,846.869c-4.105,7.349-8.166,14.637-11.364,22.45
				c-1.317,3.231-5.832,1.16-4.879-2.035c2.381-8.035,4.619-16.172,7.624-24.004C657.19,837.531,666.486,841.711,663.601,846.869z"
				/>
			<path id="XMLID_230_" fill="#666666" d="M692.175,920.83c-3.554-0.776-6.797-2.629-10.033-4.272
				c-3.399-1.733-7.653-3.206-10.375-5.934c-1.347-1.351-1.287-4.49,1.242-4.523c3.742-0.052,7.341,1.502,10.881,2.611
				c3.897,1.221,8.033,2.232,11.512,4.399C699.056,915.39,696.311,921.738,692.175,920.83z"/>
			<path id="XMLID_229_" fill="#666666" d="M695.493,879.512c-3.889,2.453-8.226,3.919-12.524,5.481
				c-3.823,1.391-7.609,3.034-11.706,2.931c-1.919-0.053-2.841-2.715-1.681-4.08c2.32-2.71,5.54-4.25,8.657-5.901
				c4.173-2.213,8.374-4.816,12.933-6.099C695.627,870.594,700.06,876.637,695.493,879.512z"/>
		</g>
		<path id="XMLID_227_" fill="#A08B75" d="M531.356,858.947c-6.195,1.473-12.636,1.808-19.181,0.681
			c-35.841-6.169-47.718-50.273-48.983-77.463c-1.249-26.745,0.007-54.394,12.094-78.8c9.37-18.913,26.595-30.274,49.66-31.019
			c4.722-0.152,9.431,0.499,14.034,1.433c55.171,11.156,54.3,85.21,47.376,125.134C582.311,822.248,559.411,852.28,531.356,858.947z
			"/>
		<path id="XMLID_226_" fill="#333333" d="M542.49,1778.545c14.711-1.186,29.556-0.557,44.104,1.859
			c11.223,8.353,23.51,15.259,36.473,20.501c3.771,1.521,7.734,2.998,10.509,5.957c2.782,2.965,3.904,7.944,1.31,11.067
			c-2.27,2.727-6.286,3.02-9.833,3.061c-27.178,0.282-54.375-2.029-81.12-6.898c-1.6-0.294-3.302-0.643-4.462-1.791
			c-0.923-0.919-1.354-2.21-1.696-3.47C535.045,1798.672,536.809,1787.393,542.49,1778.545z"/>
		<path id="XMLID_225_" fill="#333333" d="M416.925,1769.294c13.186,1.521,26.18,4.662,38.593,9.337
			c8.45,9.33,18.088,17.57,28.612,24.461c3.057,1.997,6.299,3.994,8.233,7.092c1.935,3.103,2.06,7.691-0.781,9.993
			c-2.477,2.012-6.07,1.569-9.208,0.985c-24.03-4.492-47.635-11.283-70.379-20.248c-1.362-0.541-2.804-1.149-3.63-2.362
			c-0.654-0.971-0.811-2.187-0.893-3.354C406.84,1785.752,410.358,1776.105,416.925,1769.294z"/>
		<g id="XMLID_221_">
			<g id="XMLID_223_">
				<path id="XMLID_224_" fill="#FBAE17" d="M462.434,712.438c9.728-25.801,36.681-42.988,64.2-44.777
					c7.065-0.458,14.25-0.015,21.048,1.974c18.779,5.493,32.546,22.302,39.427,40.62c6.878,18.315,7.935,38.225,8.917,57.766
					c0.133,2.704,0.238,5.553-1.012,7.951c-1.264,2.398-4.396,4.035-6.76,2.711c-3.042-18.081-6.21-36.514-14.793-52.716
					c-8.589-16.199-23.68-30.078-41.872-32.323c-16.719-2.064-33.595,6.129-44.944,18.572
					c-11.409,12.509-16.347,25.786-17.642,41.683c-0.81,9.902-5.518,22.591-10.107,5.224
					C455.182,745.039,457.37,725.866,462.434,712.438z"/>
			</g>
			<path id="XMLID_222_" fill="#FBAE17" d="M491.128,667.617c5.578,3.18,12.301,3.447,18.72,3.357
				c12.019-0.159,24.022-1.278,35.854-3.343c6.278-1.096,12.659-2.513,18.044-5.923c5.384-3.406,9.653-9.181,9.668-15.552
				c0-5.957-3.63-11.349-7.915-15.48c-11.223-10.807-27.421-15.361-42.994-14.957c-9.126,0.238-18.393,2.117-26.218,6.828
				c-7.824,4.712-14.057,12.51-15.536,21.521C479.273,653.077,483.192,663.094,491.128,667.617z"/>
		</g>
		<path id="XMLID_220_" fill="#4D4D4D" d="M428.794,1514.479c3.63-80.282-3.993-162.161-3.331-242.942
			c-2.388-28.002,1.48-56.52,11.327-82.846c0.61-1.632,1.272-3.305,2.484-4.559c3.778-3.882,10.234-1.817,15.239,0.245
			c48.016,19.791,104.726,15.137,148.502-12.81c8.65,13.17,11.133,29.329,13.268,44.939c3.451,25.243,7.229,50.426,8.151,75.776
			c0,0.048,0.008,0.097,0.008,0.097v0.049c0.201,5.443,0.306,10.892,0.201,16.351c-0.603,31.598-6.701,62.731-11.469,93.875
			c-3.109,20.315-5.846,40.775-6.106,61.354c-0.208,16.85,2.149,32.245-1.614,48.737c-9.281,40.62-9.311,84.868-13.231,126.365
			c-4.202,44.438-8.352,88.889-11.788,133.394c-0.142,1.771-0.275,3.544-0.409,5.317c-2.239,0.599-36.48,8.479-36.48-0.387
			c-2.737-86.385-5.489-172.771-8.233-259.155c-1.153-36.354-2.388-73.237-11.595-107.869c-3.8,0.379-7.601,0.759-11.394,1.142
			c-20.876,114.313-41.753,228.627-62.623,342.943c-1.844,10.066-4.067,20.925-10.703,27.41c-6.641,6.485-19.025,4.671-20.988-5.363
			C424.139,1689.197,424.837,1601.877,428.794,1514.479z"/>
		<path id="XMLID_219_" fill="#AFD9C4" d="M575.096,858.059c-5.801,3.187-11.988,5.969-18.57,8.055
			c-25.995,8.229-57.715,4.399-79.216-9.568c-17.412,4.582-29.84,16.559-36.228,29.884c-6.389,13.32-7.541,27.745-8.634,41.928
			c-5.088,66.374-10.175,132.75-15.262,199.125c-0.253,3.317-0.468,6.806,1.429,9.783c3.845,6.052,14.13,7.278,22.839,7.657
			c58.875,2.559,118.009,1.525,176.676-3.093c2.424-0.19,4.938-0.41,7.006-1.407c4.544-2.182,5.146-7.021,5.235-11.151
			c1.39-63.056-2.782-126.18-12.48-188.795c-3.555-22.929-7.989-46.186-20.668-67.097c-2.581-4.262-5.69-8.571-10.74-11.189
			C581.425,859.565,580.057,855.332,575.096,858.059z"/>
		<path id="XMLID_218_" fill="#B3B3B3" d="M514.065,903.512c41.463-2.358,83.217-4.701,124.368,1.477
			c2.321,44.353,1.963,88.884-1.078,133.186c-62.244-5.906-127.573-5.813-190.047-5.724c0.014-39.771,3.026-85.549,3.034-125.32
			C471.583,905.922,492.823,904.717,514.065,903.512z"/>
		<path id="XMLID_217_" fill="#A08B75" d="M630.558,1060.055c3.651,6.054,7.429,11.245,11.044,13.723
			c4.618,3.164,11.558,2.309,15.246-1.909c9.848-11.245-7.979-46.579-12.397-57.997c-8.13-21.006-17.91-41.336-27.645-61.637
			c-3.458-7.21-9.134-15.667-17.025-14.354c-1.985,0.331-3.814,1.301-5.391,2.55c-9.096,7.245-8.01,21.25-5.102,32.506
			c5.355,20.758,14.049,40.642,25.592,58.703C618.961,1038.026,624.593,1050.186,630.558,1060.055z"/>
		<path id="XMLID_216_" fill="#A08B75" d="M356.941,972.747c0.104-2.647,1.101-5.169,2.143-7.608
			c11.662-27.355,29.415-52.099,51.601-71.901c8.671-7.743,20.624-15.125,31.229-10.357c1.837,0.822,3.533,2.008,4.738,3.618
			c4.782,6.412-0.133,15.336-4.954,21.713c-16.295,21.546-32.761,43.182-51.288,62.768c1.918,1.589,3.287,3.868,4.565,6.062
			c14.585,25.031,33.35,47.733,44.9,74.304c1.912,4.392,3.645,9.129,2.946,13.871c-0.699,4.741-4.671,9.326-9.453,9.051
			c-3.897-0.227-6.902-3.377-9.475-6.307c-11.61-13.201-23.22-26.402-34.829-39.608c-10.874-12.372-22.045-25.543-26.195-41.344
			C360.021,982.412,356.749,978.012,356.941,972.747z"/>
		<path id="XMLID_215_" fill="#1A5E73" d="M429.926,749.989c2.714-5.024,5.808-10.04,10.419-13.409
			c1.294-0.945,2.744-1.711,4.254-2.298c-1.607-19.754,8.657-39.307,18.639-56.941c3.733-6.604,7.541-13.297,12.912-18.653
			c11.899-11.859,29.697-15.469,46.476-16.277c21.784-1.052,44.588,1.986,62.779,14.017c9.103,6.02,17.017,14.562,19.977,25.067
			c1.726,6.102,1.71,12.543,1.682,18.883c-0.045,10.64-0.089,21.275-0.143,31.91c4.262,3.355,7.237,8.092,9.817,12.878
			c4.902,9.081,8.993,18.898,9.417,29.206c0.423,10.312-3.362,21.234-11.67,27.352c-3.361,2.473-7.288,4.063-11.253,5.369
			c-5.697,1.882-12.398,3.095-17.336-0.305c-6.121-4.209-6.344-13.012-5.801-20.42c0.773-10.706,1.822-21.412,1.808-32.147
			c-0.008-4.552-0.202-9.163,0.825-13.603c1.019-4.432,3.466-8.776,7.482-10.926c2.818-1.51,6.084-1.703,9.223-1.019
			c0.625-9.635-0.12-19.263-3.429-28.273c-6.917-18.854-24.916-32.634-44.632-36.454c-19.716-3.823-40.638,1.685-57.252,12.966
			c-19.486,13.235-33.291,34.448-37.827,57.533c0,0,0.112,0.041,0.164,0.067c4.016,2.15,6.463,6.493,7.482,10.933
			c1.026,4.432,0.833,9.044,0.825,13.599c-0.014,10.736,1.034,21.438,1.807,32.149c0.544,7.407,0.32,16.209-5.801,20.418
			c-4.938,3.399-11.64,2.187-17.336,0.309c-3.964-1.31-7.892-2.9-11.253-5.377c-8.307-6.113-12.093-17.035-11.662-27.348
			C420.934,768.887,425.024,759.07,429.926,749.989z"/>
	</g>
</g>
</svg>
