<?xml version="1.0" encoding="utf-8"?>
<!-- Generator: Adobe Illustrator 16.0.0, SVG Export Plug-In . SVG Version: 6.00 Build 0)  -->
<!DOCTYPE svg PUBLIC "-//W3C//DTD SVG 1.1//EN" "http://www.w3.org/Graphics/SVG/1.1/DTD/svg11.dtd">
<svg version="1.1" id="fullBg" xmlns="http://www.w3.org/2000/svg" xmlns:xlink="http://www.w3.org/1999/xlink" x="0px" y="0px"
	 width="3800px" height="2000px" viewBox="0 0 3800 2000" enable-background="new 0 0 3800 2000" xml:space="preserve">
<rect y="-0.001" fill="#FFFFFF" width="3800" height="2000.001"/>
<g>
	<path fill="#EBF2F9" d="M2776.68,786.987c-90.493-77.192-199.592-542.72-573.319-300.259
		c-193.09,125.268-518.68-107.543-788.172-27.13c-247.496,73.85-271.353,317.159-247.406,396.442
		c48.373,160.15-102.16,183.982-241.806,252.792c-219.048,107.934-57.972,487.253,148.966,489.067
		c206.937,1.813,1460.6-3.611,1460.6-3.611s300.619,0.76,425.631-165.158C3095.699,1250.585,3010.422,986.373,2776.68,786.987z"/>
	<g>
		<path fill="#E58638" d="M834.505,918.505c0,0-60.097,62.04-62.98,85.433c-2.885,23.396,28.593,59.99,28.593,59.99L834.505,918.505
			z"/>
		<path fill="#163560" d="M860.199,1562.092c0,0,2.045,32.981,8.426,33.454c0.849,0.063,32.363,0.063,32.363,0.063l40.229-0.233
			c0,0-0.263-9.693-12.021-11.743c-11.759-2.049-31.442-10.313-38.565-25.854C883.135,1541.426,860.199,1562.092,860.199,1562.092z"
			/>
		<path fill="#163560" d="M770.595,1562.092c0,0,2.044,32.981,8.426,33.454c0.849,0.063,32.362,0.063,32.362,0.063l40.353-0.145
			c0,0-0.386-9.783-12.145-11.833c-11.76-2.049-31.441-10.313-38.566-25.854C793.53,1541.426,770.595,1562.092,770.595,1562.092z"/>
		<path fill="#163560" d="M904.753,1208.414c0,0-10.521,67.293-49.771,186.75c-39.252,119.457-44.6,171.186-44.6,171.186
			s-10.617,1.539-21.831,1.539c-7.095,0-20.274-2.72-20.274-2.72s-0.359-130.552,17.729-190.622
			c18.089-60.07,3.905-216.561,3.905-216.561L904.753,1208.414z"/>
		<path fill="#1C468A" d="M925.243,1161.673c0,0,1.49,101.407-16.055,225.917s-11.599,177.363-11.599,177.363
			s-14.444,2.587-19.519,2.756c-5.433,0.18-22.504-1.359-22.504-1.359s-25.112-124.557-17.912-186.877
			c7.199-62.318-34.389-213.848-34.389-213.848L925.243,1161.673z"/>
		<path fill="#FFB27D" d="M843.896,924.367l19.818,14.679l28.645-6.03c-0.396-2.611-2.287-13.438-4.01-23.243
			c-0.104-0.578-0.207-1.156-0.306-1.723c-1.476-8.344-2.749-15.512-2.749-15.512l-26.753-13.334l-9.976-4.973
			c0.027,0.177,0.773,9.262,0.879,10.587C851.315,908.368,843.896,924.367,843.896,924.367z"/>
		<path fill="#E58638" d="M890.354,916.96c-0.627-0.265-38.966-11.577-43.131-10.202c-4.164,1.375-6.63,9.435-6.63,9.435
			l62.706,14.176C903.3,930.367,898.366,920.333,890.354,916.96z"/>
		<path fill="#EE9849" d="M787.12,1174.192c6.498,29.645,114.648,33.159,142.525,6.251c3.17-3.067,3.328-17.338,2.131-36.579
			c-2.34-37.593-9.852-94.141-10.144-123.03c-0.143-13.952-2.06-28.223-4.614-41.18c-5.432-27.617-13.717-49.289-13.717-49.289
			s-52.824-17.078-62.708-14.173C792.976,930.183,780.622,1144.547,787.12,1174.192z"/>
		<path fill="#E58638" d="M931.776,1143.864c-2.34-37.593-9.852-94.141-10.144-123.03c-0.143-13.952-2.06-28.223-4.614-41.18
			l-31.775-5.608C885.243,974.046,854.175,1100.944,931.776,1143.864z"/>
		<path fill="#FFB27D" d="M914.569,1091.467c0,0-2.168,5.178,2.383,8.652c4.549,3.477,7.499,9.109,6.457,13.225
			s-11.021,10.829-14.479,9.747c-3.459-1.083-10.499-6.504-9.74-8.675c0.758-2.17-4.734-19.052,3.696-25.55
			C911.321,1082.368,914.569,1091.467,914.569,1091.467z"/>
		<path fill="#EE9849" d="M879.037,922.759c0,0,30.991,5.8,55.685,42.189c24.693,36.391,40.938,63.444,36.391,76.561
			c-4.549,13.116-46.012,58.604-53.161,58.604c-7.148,0-18.685-5.197-19.333-16.896c0,0,29.191-43.752,23.441-50.306
			c-2.457-2.8-37.898-31.572-42.959-18.575C870.728,1035.839,879.037,922.759,879.037,922.759z"/>
		<path fill="#FCA56B" d="M851.453,885.234c5.875,11.241,27.766,20.964,36.897,24.538c-0.104-0.579-0.209-1.157-0.307-1.724
			c-1.475-8.344-2.749-15.512-2.749-15.512l-26.753-13.334C852.628,879.113,849.029,880.607,851.453,885.234z"/>
		<path fill="#FFB27D" d="M893.916,893.146c0,0-39.604,12.354-46.917-12.427c-7.314-24.78-17.352-39.877,7.625-48.813
			c24.977-8.937,32.703-0.937,37.156,6.742C896.231,846.328,904.029,889.295,893.916,893.146z"/>
		<path fill="#163560" d="M890.224,836.263c0,0-2.525,28.837-8.49,27.586c-5.963-1.252-11.371-2.181-10.498,6.513
			c0.873,8.692,9.144,18.73-9.236,20.269c-18.379,1.538-44.801-45.861-39.751-54.836C836.815,809.9,911.28,804.674,890.224,836.263z
			"/>
	</g>
	<g>
		<polygon fill="#FFB27D" points="2953.813,1508.314 2941.756,1559.096 2923.695,1558.994 2923.033,1508.314 		"/>
		<polygon fill="#FFB27D" points="2801.899,1510.48 2767.596,1559.096 2754.226,1541.928 2774.873,1503.796 		"/>
		<path fill="#163560" d="M2891.09,841.021c6.234-3.545,13.707-3.932,18.933-3.621c-1.347-1.391-3.992-1.896-3.992-1.896
			c3.24-0.48,10.475,2.732,10.475,2.732c45.076-17.369,52.16,49.003,51.215,64.423c-0.94,15.418,15.146,20.454,38.599,32.603
			c44.748,23.183,48.678,54.223,48.678,54.223c-0.348,0.205-0.713,0.438-1.101,0.706c-2.221-3.762-6.789-10.824-10.643-11.891
			c0.145,0.343,4.553,9.725,6.197,15.102c-13.199,10.042-37.896,32.292-55.105,48.066c0.076-3.082-0.047-7.461-1.174-9.771
			l-2.125,12.804c-9.211,8.467-15.561,14.423-15.561,14.423c1.137-12.46-56.357-78.218-86.354-97.912
			c-7.303-10.75-9.896-29.74-10.092-31.233c1.26,15.057,3.836,23.503,6.139,28.259
			C2859.777,934.658,2874.565,850.411,2891.09,841.021z"/>
		<path fill="#FFB27D" d="M2890.906,961.992c-0.15,0.066,14.481,7.665,25.489,4.654c10.354-2.822,17.119-16.248,16.976-16.277
			c-4.383-0.87-5.646-6.896-5.555-32.787l-1.982,0.391l-33.327,6.601c0,0,0.758,10.487,0.78,20.369
			C2893.31,953.238,2892.807,961.105,2890.906,961.992z"/>
		<path fill="#E37970" d="M2928.596,851.89c0,0-16.44-17.503-37.082-0.896C2891.514,850.994,2903.527,848.916,2928.596,851.89z"/>
		<path fill="#D68D5D" d="M2892.506,924.572c0,0,0.759,10.488,0.781,20.369c18.647-0.525,28.508-17.539,32.547-26.97
			L2892.506,924.572z"/>
		<path fill="#163560" d="M2929.277,914.344c0,0,9.772-15.441,12.116-28.646c1.677-9.428-3.125-44.372-38.239-39.339
			c0,0-10.199,1.005-19.787,7.479c-7.625,5.149-18.627,16.268-6.324,46.76l3.195,10.302L2929.277,914.344z"/>
		<path fill="#80BDCC" d="M2759.668,1528.602l17.666,0.541l19.123,0.587c0,0,44.17-49.18,68.947-128.014
			c0.577-1.832,1.186-3.687,1.832-5.563c13.559-39.537,41.668-89.166,56.481-134.087c2.357-7.155,4.476-13.891,6.375-20.266
			c0.607-2.041,1.201-4.047,1.764-6.021c10.916-37.932,14.078-62.835,16.992-89.444l-106.969,0.856
			C2841.881,1147.192,2824.613,1328.887,2759.668,1528.602z"/>
		<path fill="#E7F1FD" d="M2856.854,1085.729c0.271,50.9-7.467,72.738-7.467,72.738s45.799,23.271,100.232,6.143
			c0.643-0.202,45.072-10.344,45.072-10.344c-0.912-2.06-9.013-36.362-9.9-38.254c-11.492-24.68-20.219-35.501-21.582-43.088
			c-2.529-14.165-2.584-28.822-1.324-42.646c3.322-36.595,13.199-66.972,13.199-66.972c-14.83-3.375-29.105-9.146-44.541-14.937
			c-3.551,4.422-14.021,8.891-23.438,8.68c-10.843-0.239-14.229-4.823-13.83-9.989c-11.556,6.43-20.74,12.545-20.74,12.545
			c-9.82,17.058-29.738,33.623-31.18,59.79C2841.002,1025.83,2856.848,1084.302,2856.854,1085.729z"/>
		<path fill="#5F9AA8" d="M2948.851,1091.401c4.676,6.618,13.641,46.842,35.942,51.897c-11.491-28.668-20.219-41.236-21.582-50.052
			c-2.528-16.454-2.584-33.479-1.323-49.536c-7.466-13.086-13.037-22.058-13.037-22.058c-0.588-2.116-11.865-36.99-15.48-5.818
			C2929.764,1047.017,2943.627,1083.999,2948.851,1091.401z"/>
		<path fill="#FFB27D" d="M2886.277,933.928c0,0,44.125,0.729,44.155-26.758c0.029-27.486,5.746-45.904-22.426-47.531
			s-33.658,8.855-35.897,18.027C2869.867,886.838,2874.799,933.03,2886.277,933.928z"/>
		<path fill="#163560" d="M2873.42,862.384c6.812-8.254,11.959-6.459,14.851-3.979c9.537-14.249,39.674,6.356,39.674,6.356
			c2.953,19.723,17.174,31.021,17.174,31.021s-8.043,4.968-26.584,0.2c-14.592-3.753-25.182-24.521-29.031-33.199
			c-2.623,2.332-8.16,7.723-9.82,13.001c-2.198,6.999-3.188,21.408-7.387,20.918C2872.295,896.7,2863.19,874.782,2873.42,862.384z"
			/>
		<path fill="#FFB27D" d="M2942.361,1556.258c0,0-1.455,10.059,2.299,20.818c0,0,2.957,13.469-10.307,13.719
			c-13.265,0.25-16.519-1.002-15.019-9.26c1.502-8.259,4.359-22.541,4.359-22.541L2942.361,1556.258z"/>
		<path fill="#C45446" d="M2918.086,1597.403c0,0,0.014,0.008,0.043,0.029h27.443c0.028-0.021,0.045-0.029,0.045-0.029
			c1.5-7.044-0.953-20.313-0.953-20.313c-15.021,14.36-24.422-0.359-24.422-0.359
			C2917.803,1582.871,2918.086,1597.403,2918.086,1597.403z"/>
		<path fill="#FFB27D" d="M2722.26,1583.512c0,0,24.457-27.771,31.966-41.584l18.184,9.316l-40.646,38.174l-9.512-1.251
			L2722.26,1583.512z"/>
		<path fill="#C45446" d="M2707.262,1597.355h33.931c2.985-2.69,5.836-8.115,9.327-15.229c1.998-4.075,6.479-6.319,11.074-7.554
			v22.784h7.021l6.502-24.228c4.327-8.116,1.075-15.562-1.968-21.975c-3.543-0.007-13.819,2.553-31.885,23.309
			c-5.938,6.818-12.488,9.249-19.004,9.048c-0.086,0.058-0.18,0.107-0.267,0.145
			C2711.705,1588.374,2708.351,1594.174,2707.262,1597.355z"/>
		<path fill="#E37970" d="M2708.906,979.545c0,0,28.967,16.196,39.313,20.864c3.681,1.659,10.347,4.762,17.156,7.942
			c4.111,1.92,8.272,3.875,11.875,5.569c6.082,2.857,13.318,1.291,17.688-3.815c15.685-18.313,56.273-58.007,98.193-62.981
			l0.146-0.063c0,0-0.009,0.018-0.021,0.048c0.019-0.002,0.035-0.005,0.053-0.007l-0.231,0.45
			c-2.354,5.859-25.336,63.274-26.047,75.385c-0.752,12.764-3.004,208.724-3.004,208.724s1.502,9.01-15.769,5.255
			c-17.268-3.754-21.771-7.508-21.771-7.508s16.516-120.879,12.012-162.925c-0.883-8.25-0.086-17.522,1.76-27.098
			c-25.528,15.463-55.629,22.342-55.629,22.342s-11.227-4.898-28.672-15.707c-7.322-4.545-15.813-11.789-24.176-19.451
			c-10.101-9.261-27.48-31.627-27.48-31.627L2708.906,979.545z"/>
		<path fill="#5F9AA8" d="M2777.334,1529.143l19.123,0.586c0,0,44.17-49.179,68.947-128.013c0.577-1.832,1.186-3.687,1.832-5.563
			c13.559-39.537,41.668-89.166,56.481-134.087c2.357-7.155,4.476-13.891,6.375-20.266c0.607-2.041,1.201-4.047,1.764-6.021
			l-15.752-11.954c0,0-47.293,76.584-61.934,148.652C2841.453,1435.082,2790.521,1510.409,2777.334,1529.143z"/>
		<path fill="#80BDCC" d="M2914.461,1379.191c-0.271,35.047,1.502,115.623,6.065,148.981h16.939c9.361,0,14.033-0.135,14.033-0.135
			c11.449-58,19.596-105.992,25.527-147.347c4.862-33.937,9.188-63.03,12.516-88.077c3.348-25.204,5.676-46.311,6.51-64.142
			c0.127-2.809,0.226-5.541,0.277-8.19c0.051-2.666,0.066-5.256,0.045-7.771l-92.426-9.01
			C2905.113,1264.911,2914.611,1358.822,2914.461,1379.191z"/>
		<path fill="#5F9AA8" d="M2937.467,1528.174c9.361,0,14.033-0.135,14.033-0.135c11.449-58,19.596-105.992,25.527-147.348
			c4.862-33.936,9.188-63.029,12.516-88.076c3.349-25.204,5.677-46.311,6.511-64.142l-33.914,19.948c0,0,21.645,7.636,13.385,65.448
			C2967.267,1371.683,2948.961,1519.99,2937.467,1528.174z"/>
		<path fill="#E37970" d="M2933.103,1227.905c0,0,6.51,23.521,29.032,20.52c22.525-3.004,54.556-16.519,54.556-16.519
			s-9.625-30.414-21.595-70.373c-14.489-48.374-32.428-110.736-40.881-150.07c-2.373-11.021-3.994-20.227-4.596-26.819
			l-19.074-36.271c0,0-27.476,62.551-28.978,78.317S2933.103,1227.905,2933.103,1227.905z"/>
		<path fill="#FFB27D" d="M2852.658,1044.289c10.842,1.424,14.998,7.186,16.336,14.958c0.723,4.192,2.883,8.337,4.721,11.267
			c10.799,0.578,36.517,1.979,58.121,3.348l1.781,28.339c-17.748-2.209-39.56-6.713-64.66-15.306c-1.928-0.33-4.34-1.526-7.358-4
			c-15.556-12.739-24.386-34.072-24.41-37.129C2837.158,1042.71,2841.818,1042.864,2852.658,1044.289z"/>
		<path fill="#C45446" d="M2934.101,1059.725c1.008,25.527,7.014,75.08,60.567,101.606c0.144,0.067,0.285,0.143,0.429,0.202
			c-14.49-48.374-32.429-110.736-40.882-150.07C2944.379,1026.163,2933.553,1045.67,2934.101,1059.725z"/>
		<path fill="#E37970" d="M2930.545,948.371c0,0,45.812,3.248,56.822,27.775c11.012,24.524,14.516,106.112,0.5,130.14
			c0,0-19.295,5.495-53.423-0.887c-0.418-0.078-0.838-0.157-1.262-0.239c0,0-10.887-26.654-1.125-31.91
			c0,0,28.779,1.502,25.777-8.008C2954.832,1055.73,2930.545,948.371,2930.545,948.371z"/>
		<g>
			<path fill="#FFB27D" d="M2677.853,960.295c24.645-3.167,30.866,19.251,30.866,19.251l-4.604,15.397
				c-7.597,1.049-14.244-0.932-20.369-9.695c-6.125-8.766-7.813-5.4-11.707-11.923
				C2666.756,964.479,2675.022,961.181,2677.853,960.295z"/>
			<path fill="#FFB27D" d="M2748.219,1000.409c3.681,1.659,10.347,4.762,17.156,7.942c-3.646,6.473-8.203,18.23-9.416,37.668
				c-7.322-4.546-16.803-12.11-24.896-20.056c-12.986-12.745-26.761-31.024-26.761-31.024l4.604-15.396
				C2708.906,979.545,2737.873,995.741,2748.219,1000.409z"/>
		</g>
	</g>
	<path fill="#202F4E" d="M2958.149,1598.152H747.163c-1.186,0-2.157-0.972-2.157-2.156l0,0c0-1.188,0.972-2.158,2.157-2.158
		h2210.986c1.187,0,2.156,0.971,2.156,2.158l0,0C2960.307,1597.182,2959.336,1598.152,2958.149,1598.152z"/>
</g>
</svg>
