<?xml version="1.0" encoding="utf-8"?>
<!-- Generator: Adobe Illustrator 16.0.0, SVG Export Plug-In . SVG Version: 6.00 Build 0)  -->
<!DOCTYPE svg PUBLIC "-//W3C//DTD SVG 1.1//EN" "http://www.w3.org/Graphics/SVG/1.1/DTD/svg11.dtd" [
	<!ENTITY ns_flows "http://ns.adobe.com/Flows/1.0/">
	<!ENTITY ns_extend "http://ns.adobe.com/Extensibility/1.0/">
	<!ENTITY ns_ai "http://ns.adobe.com/AdobeIllustrator/10.0/">
	<!ENTITY ns_graphs "http://ns.adobe.com/Graphs/1.0/">
]>
<svg version="1.1" id="Layer_1" xmlns:x="&ns_extend;" xmlns:i="&ns_ai;" xmlns:graph="&ns_graphs;"
	 xmlns="http://www.w3.org/2000/svg" xmlns:xlink="http://www.w3.org/1999/xlink" xmlns:a="http://ns.adobe.com/AdobeSVGViewerExtensions/3.0/"
	 x="0px" y="0px" width="3800px" height="2000px" viewBox="0 0 3800 2000" enable-background="new 0 0 3800 2000"
	 xml:space="preserve">
<rect fill="#FFFFFF" width="3800" height="2000"/>
<path fill="#EBF2F9" d="M2770.977,762.194c-97.438-83.115-214.905-584.358-617.308-323.296
	c-207.902,134.879-558.473-115.793-848.642-29.21c-266.485,79.515-292.172,341.492-266.388,426.858
	c52.084,172.438-110,198.098-260.359,272.186c-235.854,116.216-62.42,524.64,160.394,526.592
	c222.813,1.952,1572.662-3.889,1572.662-3.889s323.684,0.817,458.287-177.83C3114.473,1261.359,3022.653,976.876,2770.977,762.194z"
	/>
<g>
	<g>
		<g opacity="0.1">
			<polygon points="2359.443,1624.016 2629.236,1780.817 3252.206,1421.15 2975.908,1258.721 			"/>
		</g>
		<g opacity="0.1">
			<polygon points="2728.915,1194.528 2935.006,1314.298 3410.873,1039.563 3199.806,915.483 			"/>
		</g>
		<g>
			<g>
				<polygon fill="#3EE2FD" points="3079.177,985.469 3079.187,998.399 2939.025,1079.34 2938.988,1066.402 				"/>
			</g>
			<g>
				<polygon fill="#3EE2FD" points="3373.138,851.366 3373.396,943.718 3174.132,1058.762 3173.859,966.422 				"/>
			</g>
			<g>
				<path fill="#1CBEC6" d="M3153.517,955.507l234.771-135.544l0.572,205.172l-234.777,135.533L3153.517,955.507z M3373.388,943.718
					l-0.25-92.352l-199.278,115.056l0.272,92.34L3373.388,943.718L3373.388,943.718z"/>
			</g>
			<g>
				<polygon fill="#1CBEC6" points="3388.18,783.094 3388.202,798.631 3153.452,934.168 3153.403,918.632 				"/>
			</g>
			<g>
				<polygon fill="#3EE2FD" points="3079.499,1101.913 3079.745,1193.489 2939.583,1274.424 2939.296,1182.842 				"/>
			</g>
			<g>
				<path fill="#1CBEC6" d="M2923.526,987.196l179.049-103.368l0.896,315.238l-179.033,103.376L2923.526,987.196z
					 M3079.745,1193.489l-0.246-91.576l-140.203,80.929l0.287,91.582L3079.745,1193.489L3079.745,1193.489z M3079.022,934.37
					l-0.037-12.954l-140.188,80.941l0.021,12.942L3079.022,934.37L3079.022,934.37z M3079.187,998.399l-0.01-12.931l-140.188,80.934
					l0.037,12.938L3079.187,998.399L3079.187,998.399z M3079.284,1027.526l-0.034-12.937l-140.182,80.938l0.027,12.927
					L3079.284,1027.526L3079.284,1027.526z M3079.081,963.473l-0.01-12.931l-140.169,80.934l0.013,12.927L3079.081,963.473
					L3079.081,963.473z"/>
			</g>
			<g opacity="0.7">
				<g>
					<path fill="#3EE2FD" d="M2904.778,933.76l504.982-291.548l1.112,396.18l-504.955,291.548L2904.778,933.76z M3103.472,1199.066
						l-0.896-315.238l-179.049,103.368l0.912,315.246L3103.472,1199.066L3103.472,1199.066z M3388.859,1025.135l-0.572-205.172
						l-234.771,135.544l0.565,205.161L3388.859,1025.135L3388.859,1025.135z M3387.925,701.577l-0.105-34.921l-471.186,272.041
						l0.096,34.943L3387.925,701.577L3387.925,701.577z M3388.026,734.572l-0.037-15.534l-234.761,135.547l0.033,15.526
						L3388.026,734.572L3388.026,734.572z M3388.106,763.693l-0.038-15.526l-234.771,135.543l0.048,15.52L3388.106,763.693
						L3388.106,763.693z M3388.202,798.631l-0.022-15.537l-234.776,135.538l0.049,15.536L3388.202,798.631L3388.202,798.631z"/>
				</g>
			</g>
			<g>
				<polygon fill="#1CBEC6" points="3388.068,748.167 3388.106,763.693 3153.345,899.23 3153.297,883.711 				"/>
			</g>
			<g>
				<polygon fill="#3EE2FD" points="2923.469,960.033 3179.343,812.293 3179.284,795.809 2923.4,943.546 				"/>
			</g>
			<g>
				<path fill="#00FFE0" d="M3387.925,701.577l-0.105-34.921l-471.186,272.041l0.096,34.943L3387.925,701.577z M3378.567,680.77
					l0.059,16.475l-101.323,58.495l-0.059-16.479L3378.567,680.77L3378.567,680.77z M3179.284,795.809l0.059,16.484l-255.874,147.74
					l-0.068-16.486L3179.284,795.809L3179.284,795.809z"/>
			</g>
			<g>
				<polygon fill="#3EE2FD" points="3378.567,680.77 3378.626,697.244 3277.303,755.739 3277.244,739.26 				"/>
			</g>
			<g>
				<polygon fill="#1CBEC6" points="3387.989,719.038 3388.026,734.572 3153.262,870.111 3153.229,854.585 				"/>
			</g>
			<g>
				<polygon fill="#3EE2FD" points="3079.25,1014.59 3079.284,1027.526 2939.096,1108.455 2939.068,1095.528 				"/>
			</g>
			<g>
				<polygon fill="#3EE2FD" points="3079.071,950.542 3079.081,963.473 2938.915,1044.402 2938.902,1031.476 				"/>
			</g>
			<g>
				<polygon fill="#3EE2FD" points="3078.985,921.416 3079.022,934.37 2938.819,1015.299 2938.798,1002.356 				"/>
			</g>
		</g>
		<g>
			<g>
				<polygon fill="#3EE2FD" points="2841.203,1363.194 2841.256,1379.665 2662.791,1482.699 2662.747,1466.23 				"/>
			</g>
			<g>
				<polygon fill="#3EE2FD" points="3215.467,1192.471 3215.796,1310.045 2962.108,1456.506 2961.778,1338.944 				"/>
			</g>
			<g>
				<path fill="#1CBEC6" d="M2935.865,1325.05l298.886-172.567l0.716,261.213l-298.864,172.547L2935.865,1325.05z
					 M3215.792,1310.045l-0.325-117.574l-253.688,146.474l0.33,117.562L3215.792,1310.045L3215.792,1310.045z"/>
			</g>
			<g>
				<polygon fill="#1CBEC6" points="3234.609,1105.551 3234.663,1125.328 2935.774,1297.883 2935.724,1278.104 				"/>
			</g>
			<g>
				<polygon fill="#3EE2FD" points="2841.623,1511.438 2841.955,1628.025 2663.479,1731.061 2663.149,1614.483 				"/>
			</g>
			<g>
				<path fill="#1CBEC6" d="M2643.064,1365.391l227.952-131.593l1.131,401.332l-227.941,131.595L2643.064,1365.391z
					 M2841.955,1628.025l-0.332-116.587l-178.474,103.045l0.329,116.577L2841.955,1628.025L2841.955,1628.025z M2841.028,1298.144
					l-0.068-16.499l-178.457,103.049l0.054,16.479L2841.028,1298.144L2841.028,1298.144z M2841.256,1379.665l-0.053-16.471
					l-178.456,103.036l0.044,16.469L2841.256,1379.665L2841.256,1379.665z M2841.361,1416.738l-0.054-16.47l-178.472,103.047
					l0.05,16.458L2841.361,1416.738L2841.361,1416.738z M2841.124,1335.188l-0.051-16.468l-178.447,103.047l0.037,16.456
					L2841.124,1335.188L2841.124,1335.188z"/>
			</g>
			<g opacity="0.7">
				<g>
					<path fill="#3EE2FD" d="M2619.209,1297.351l642.887-371.174l1.411,504.391l-642.875,371.163L2619.209,1297.351z
						 M2872.147,1635.13l-1.131-401.332l-227.952,131.593l1.142,401.334L2872.147,1635.13L2872.147,1635.13z M3235.467,1413.695
						l-0.716-261.213l-298.886,172.567l0.737,261.192L3235.467,1413.695L3235.467,1413.695z M3234.3,1001.773l-0.131-44.459
						l-599.883,346.346l0.114,44.467L3234.3,1001.773L3234.3,1001.773z M3234.417,1043.783l-0.029-19.779l-298.895,172.56
						l0.076,19.769L3234.417,1043.783L3234.417,1043.783z M3234.536,1080.852l-0.055-19.768l-298.894,172.555l0.071,19.767
						L3234.536,1080.852L3234.536,1080.852z M3234.663,1125.328l-0.054-19.777l-298.886,172.553l0.051,19.779L3234.663,1125.328
						L3234.663,1125.328z"/>
				</g>
			</g>
			<g>
				<polygon fill="#1CBEC6" points="3234.481,1061.084 3234.536,1080.852 2935.659,1253.405 2935.588,1233.639 				"/>
			</g>
			<g>
				<polygon fill="#3EE2FD" points="2642.974,1330.818 2968.738,1142.725 2968.682,1121.742 2642.911,1309.821 				"/>
			</g>
			<g>
				<path fill="#00FFE0" d="M3234.3,1001.773l-0.131-44.459l-599.883,346.346l0.114,44.467L3234.3,1001.773z M3222.382,975.272
					l0.063,20.987l-128.99,74.469l-0.067-20.99L3222.382,975.272L3222.382,975.272z M2968.682,1121.742l0.057,20.982
					l-325.765,188.094l-0.063-20.997L2968.682,1121.742L2968.682,1121.742z"/>
			</g>
			<g>
				<polygon fill="#3EE2FD" points="3222.382,975.266 3222.445,996.259 3093.455,1070.729 3093.388,1049.738 				"/>
			</g>
			<g>
				<polygon fill="#1CBEC6" points="3234.388,1024.004 3234.417,1043.783 2935.569,1216.332 2935.493,1196.563 				"/>
			</g>
			<g>
				<polygon fill="#3EE2FD" points="2841.308,1400.269 2841.361,1416.738 2662.886,1519.773 2662.836,1503.315 				"/>
			</g>
			<g>
				<polygon fill="#3EE2FD" points="2841.073,1318.72 2841.124,1335.188 2662.663,1438.223 2662.626,1421.767 				"/>
			</g>
			<g>
				<polygon fill="#3EE2FD" points="2840.96,1281.645 2841.028,1298.144 2662.557,1401.172 2662.503,1384.693 				"/>
			</g>
		</g>
	</g>
	<g>
		<path fill="#F1B287" d="M3215.981,1118.271c0,0-18.824-8.176-20.646-13.162c-1.834-4.983-9.3-3.996-6.575,1.693
			c2.737,5.681,8.498,9.867,8.498,9.867s-23.232-6.626-22.942-13.993c0.296-7.362-8.521,16.974,0.119,25.075
			c8.631,8.141,16.585,18.616,45.083,9.548C3219.518,1137.299,3222.62,1126.042,3215.981,1118.271z"/>
		<g>
			<path fill="#EFB185" d="M3306.646,987.552c0,0-11.64-20.827-15.706-23.968c-4.071-3.142-20.993-16.918-38.169-12.898
				c-9.298,2.146-0.565,9.215,11.79,16.066c5.601,3.09,10.414,4.188,13.443,14.563c2.178,7.516,8.732,17.694,12.526,22.096
				C3294.329,1007.785,3306.646,987.552,3306.646,987.552z"/>
			<path fill="#E6A376" d="M3289.643,1002.687c-3.809-4.387-9.184-14.753-15.876-18.823c-7.983-4.933-3.604-14.021-9.205-17.111
				c-9.602-5.335-17.057-11.104-15.482-14.18c6.993,4.609,16.511-1.809,30.123,15.155c4.952,6.186,13.463,23.351,16.183,32.163
				C3291.916,1003.004,3291.132,1004.393,3289.643,1002.687z"/>
			<path fill="#EFB185" d="M3295.921,998.994c0,0-23.438-13.161-29.928-18.213c-6.5-5.033-8.977-11.253-6.963-11.479
				c2.005-0.211,22.091,13.609,24.88,5.37C3285.41,970.289,3292.987,996.354,3295.921,998.994z"/>
		</g>
		<path fill="#779F29" d="M3484.741,1027.791c0,0,9.709,28.193-28.945,33.293c-38.654,5.107-111.72,6.06-126.748-7.244
			c-15.016-13.312-42.116-54.759-42.116-54.759s19.224-1.529,19.715-17.918l50.911,44.032
			C3357.558,1025.194,3478.372,1007.95,3484.741,1027.791z"/>
		<path fill="#9CBC35" d="M3484.741,1027.791c-6.369-19.841-127.184-2.597-127.184-2.597l-50.911-44.032
			c-0.175,6.087-2.944,10.115-6.342,12.785c8.898,13.012,25.325,36.124,35.854,45.445c15.033,13.319,88.098,12.359,126.758,7.249
			c11.23-1.48,18.286-4.942,22.789-9.05C3486.177,1032.071,3484.741,1027.791,3484.741,1027.791z"/>
		<g opacity="0.1">
			<path d="M3522.021,1512.964c58.699,33.894,58.988,88.848,0.68,122.739c-58.263,33.873-153.115,33.873-211.818-0.021
				c-58.664-33.87-58.966-88.824-0.668-122.664C3368.513,1479.113,3463.361,1479.113,3522.021,1512.964z"/>
		</g>
		<path fill="#111114" d="M3426.96,1515.743c0,0-14.123,2.142-10.699,10.267c3.432,8.144,19.671,20.53,21.803,25.684
			c2.148,5.132,15.398,23.521,19.677,21.803c4.303-1.718,15.41,0.849,14.126-20.105
			C3470.595,1532.436,3445.78,1514.885,3426.96,1515.743z"/>
		<path fill="#111114" d="M3400.025,1592.734c0,0,6.841,20.105-10.266,24.813c-17.108,4.707-11.999-5.982-49.193,3.416
			c-37.235,9.405-41.497-9.821-40.64-14.125c0.852-4.265,25.648-11.974,33.793-14.104c8.113-2.123,23.521-5.993,23.521-5.993h44.109
			L3400.025,1592.734z"/>
		<path fill="#24323D" d="M3470.323,1239.725c0,0,0.224,121.446,0.224,135.125c0,13.67,15.275,121.425,6.098,168.486
			c0,0-26.48,26.555-49.899,0c0,0-7.489-134.879-14.263-165.347c-6.78-30.437-4.497-123.567-4.497-123.567L3470.323,1239.725z"/>
		<path fill="#2B3C4B" d="M3423.864,1256.99c0,0-6.034,78.41-12.258,156.162c0,0-3.914,154.331-7.55,176.548
			c0,0-49.78,12.346-54.743-11.103c0,0,1.252-135.813,0-164.203c-1.26-28.39-4.193-107.563,7.031-153.238
			C3367.56,1215.481,3423.864,1256.99,3423.864,1256.99z"/>
		<path fill="#314656" d="M3404.057,1589.7c3.636-22.217,7.55-176.548,7.55-176.548c4.194-52.344,8.276-104.943,10.509-133.765
			l-30.748,7.549c0,0-22.144,58.179-18.77,145.413c2.617,67.53,3.717,133.958,4.069,160.596
			C3390.385,1593.084,3404.057,1589.7,3404.057,1589.7z"/>
		<path fill="#2A3944" d="M3476.645,1543.336c9.178-47.062-6.098-154.816-6.098-168.486c0-13.033-0.196-123.756-0.224-134.232
			l-26.725,20.539c0,0-8.494,86.823,0,136.282c7.729,44.983,2.748,132.579,6.512,157.69
			C3464.89,1555.129,3476.645,1543.336,3476.645,1543.336z"/>
		<path fill="#9CBC35" d="M3477.766,1019.191c0,0,25.659,12.827,11.106,56.457c-14.523,43.63-24.803,71.853-23.957,88.102
			c0.876,16.249,6.839,70.991,10.281,82.126c0,0,4.27,35.929-77.842,57.329c0,0-67.584,6.827-56.472-37.647
			c11.119-44.485,15.415-116.327,13.697-133.452c-1.719-17.108-11.979-51.317,30.784-74.42
			C3428.165,1034.589,3450.398,1017.494,3477.766,1019.191z"/>
		<path fill="#779F29" d="M3354.58,1132.105c1.718,17.125-2.578,88.967-13.697,133.452c-7.682,30.817,22.402,36.989,41.603,37.881
			c6.157-19.862-4.235-55.271,10.022-98.624c17.608-53.563,15.138-88.944,5.698-117.479c-6.116-18.517-17.236-19.003-25.132-21.602
			C3344.797,1088.152,3353.057,1116.893,3354.58,1132.105z"/>
		<path fill="#9CBC35" d="M3475.196,1245.876c-3.442-11.135-9.405-65.877-10.281-82.126c-0.846-16.249,9.788-44.361,23.957-88.102
			c13.402-41.357-2.27-52.179-11.106-56.457c-4.52,21.385-78.614,30.461-76.849,44.757c1.993,15.916,21.798,30.786,22.947,59.317
			c1.151,28.516-2.543,70.711-7.533,91.813c-4.364,18.325-2.189,62.655,1.924,81.731
			C3478.702,1275.367,3475.196,1245.876,3475.196,1245.876z"/>
		<g>
			<path fill="#EFB185" d="M3447.388,997.647c0,0-2.727,22.794,5.099,37.067c7.117,12.944-46.618,24.743-47.869,12.76
				c-0.128-1.279,10.17-20.892-2.811-44.18C3395.024,991.126,3447.388,997.647,3447.388,997.647z"/>
			<path fill="#DD9569" d="M3452.205,1035.491c-5.821-10.585-5.821-25.913-5.397-33.066l-39.222,19.461
				c0,0.034,0.027,0.068,0.027,0.088c1.422,0.362,27.906,7.063,33.626,26.11C3449.316,1044.786,3454.789,1040.209,3452.205,1035.491
				z"/>
			<path fill="#EFB185" d="M3390.825,937.09c0,0-8.346,20.716-6.676,38.517c1.768,19.193-1.082,23.066,0.135,31.585
				c0.492,3.633,0.773,9.152,4.33,12.577c5.948,5.723,18.136,7.825,34.678,1.782c20.002-7.316,41.066-34.816,32.504-59.54
				C3447.222,937.285,3420.916,916.946,3390.825,937.09z"/>
			<path fill="#E6A376" d="M3454.899,988.744c-8.016-22.243-27.916-48.935-27.73-50.347c0.117-0.858-6.49-5.016-14.01-9.432
				c-7.029,0.424-14.549,2.922-22.334,8.124c0,0-2.237,5.551-4.156,13.335c4.768,5.335,14.492,11.395,15.955,15.93
				c3.416,10.65,1.473,26.776-1.68,33.924c-3.183,7.127,9.65,17.576,6.95,23.885c-0.122,0.304-0.122,0.578-0.08,0.854
				c4.608-0.322,9.776-1.385,15.478-3.468C3436.088,1016.869,3449.257,1003.919,3454.899,988.744z"/>
			<path fill="#221101" d="M3384.899,928.604c0,0-2.887,17.744,14.602,26.308c10.494,5.137,9.564,22.056,9.046,25.207
				c-0.488,3.144-3.585,17.417-2.296,19.24c2.469,3.522,10.673-7.459,14.592-6.702c9.916,1.929,6.043,11.19-2.99,20.928
				c-9.602,10.304,15.694,14.549,27.392,6.023c6.204-4.527,8.473-7.229,16.638-23.467c11.884-23.66,12.482-52.084-15.498-67.257
				C3418.436,913.739,3402.265,935.493,3384.899,928.604z"/>
			<path fill="#341C09" d="M3445.244,1019.609c6.204-4.527,8.473-7.229,16.638-23.467c11.884-23.66,12.482-52.084-15.498-67.257
				c-27.948-15.146-44.119,6.607-61.484-0.281c0,0-0.478,3.031,0.151,7.145c8.877,1.432,33.124,6.191,39.383,16.628
				c7.698,12.837,16.244,8.701,15.593,24.656c-0.614,15.39,3.363,35.52-22.466,44.2
				C3427.169,1028.125,3440.7,1022.923,3445.244,1019.609z"/>
		</g>
		<path fill="#DEF0F9" d="M3407.646,1040.375l-17.508,14.722c0,0,54.453,15.617,70.409-11.091
			c2.249-3.775-0.483-16.443-9.979-18.812C3450.567,1025.194,3448.729,1046.928,3407.646,1040.375z"/>
		<path fill="#779F29" d="M3388.091,1066.323c0,0,21.697,18.858-8.123,41.788c-29.814,22.921-82.188,59.27-101.174,55.424
			c-18.957-3.865-70.107-20.795-70.107-20.795s13.903-12.673,6.399-26.59l69.371,7.799
			C3284.457,1123.949,3373.179,1052.823,3388.091,1066.323z"/>
		<path fill="#9CBC35" d="M3388.091,1066.323c-14.912-13.5-103.634,57.626-103.634,57.626l-69.371-7.799
			c1.648,3.031,2.215,6.007,2.185,8.817c22.545,4.853,64.376,13.393,74.052,12.094c11.825-1.568,84.911-51.422,102.166-63.299
			C3391.247,1069.092,3388.091,1066.323,3388.091,1066.323z"/>
	</g>
</g>
</svg>
