<?xml version="1.0" encoding="utf-8"?>
<!-- Generator: Adobe Illustrator 16.0.0, SVG Export Plug-In . SVG Version: 6.00 Build 0)  -->
<!DOCTYPE svg PUBLIC "-//W3C//DTD SVG 1.1//EN" "http://www.w3.org/Graphics/SVG/1.1/DTD/svg11.dtd">
<svg version="1.1" id="Layer_1" xmlns="http://www.w3.org/2000/svg" xmlns:xlink="http://www.w3.org/1999/xlink" x="0px" y="0px"
	 width="3800px" height="2000px" viewBox="0 0 3800 2000" enable-background="new 0 0 3800 2000" xml:space="preserve">
<rect y="1.763" fill="#FFFFFF" width="3800" height="2000"/>
<path fill="#EBF2F9" d="M2818.978,734.241c-97.438-83.114-214.903-584.357-617.309-323.296
	c-207.902,134.88-558.473-115.792-848.643-29.21c-266.484,79.516-292.172,341.491-266.39,426.856
	c52.084,172.438-110,198.1-260.356,272.188c-235.854,116.216-62.42,524.64,160.394,526.592s1572.662-3.89,1572.662-3.89
	s323.685,0.815,458.287-177.829C3162.473,1233.407,3070.653,948.924,2818.978,734.241z"/>
<g>
	<g id="Baselayer">
		<g>
			<path fill="#ADD8E6" d="M3250.496,1637.369c0,3.015-1.729,5.312-4.262,5.312h-935.253c-2.532,0-4.848-2.297-4.848-5.312v-529.532
				c0-3.014,2.314-5.279,4.848-5.279h935.253c2.532,0,4.262,2.266,4.262,5.279V1637.369z"/>
			<g>
				<g>
					<path fill="#EE4036" d="M2654.751,1448.242c1.847-24.753,4.874-63.292,4.874-63.292
						c22.341-49.962-13.521-122.961-44.146-102.129c-32.789-43.747-142.877,5.238-109.722,101.449c0,0,1.412,32.291-4.392,62.158
						c-8.296,42.751-23.273,88.91-9.434,99.501c19.48,14.906,162.816,16.569,171.553,5.429
						C2677.646,1533.306,2652.91,1472.993,2654.751,1448.242z"/>
					<path fill="#013D37" d="M2686.985,1540.411c-11.837-14.751-105.491-47.142-105.491-47.142s-91.697,35.823-105.498,47.142
						c-13.801,11.319-18.979,82.858-18.979,82.858h246.235C2703.252,1623.271,2698.812,1555.165,2686.985,1540.411z"/>
					<path fill="#D89D72" d="M2610.521,1510.555c0,0-3.582,17.381-29.01,17.381c-25.41,0-29.002-17.381-29.002-17.381
						s7.07-14.054,0-30.551c-7.07-16.498,66.664-19.846,58.012,0C2601.871,1499.848,2610.521,1510.555,2610.521,1510.555z"/>
					<path fill="#FAB587" d="M2663.487,1399.251c0,13.09-9.281,31.078-15.536,31.078c-6.259,0-11.33-10.614-11.33-23.706
						c0-13.087,6.397-19.844,11.33-23.697C2654.008,1378.186,2663.487,1382.927,2663.487,1399.251z"/>
					<path fill="#FAB587" d="M2501.367,1399.251c0,13.09,9.291,31.078,15.542,31.078c6.255,0,11.32-10.614,11.32-23.706
						c0-13.087-6.396-19.844-11.32-23.697C2510.854,1378.186,2501.367,1382.927,2501.367,1399.251z"/>
					<path fill="#FAB587" d="M2582.69,1295.485c-43.975,0-63.412,30.813-63.412,76.764c0,23.414,0,41.714,0,57.552
						c0,40.027,46.248,74.264,60.858,74.264c14.604,0,65.966-40.03,65.966-77.95c0-14.982,0-32.244,0-53.863
						C2646.104,1326.298,2626.664,1295.485,2582.69,1295.485z"/>
					<path fill="#EE4036" d="M2646.104,1405.045l1.85-23.867c9.582-46.458-20.884-91.406-64.852-91.406
						c-43.97,0-78.069,49.039-66.305,95.494l2.479,27.152c0,0,8.471-7.135,9.939-20.013c1.134-9.857,4.931-49.695,4.931-49.695
						l4.824,23.521l53.041,3.483l9.068-18.617l3.646,19.459l16.855,1.102l10.857-32.563c0,0,1.515,28.273,4.89,49.579
						C2639.442,1401.997,2646.104,1405.045,2646.104,1405.045z"/>
				</g>
			</g>
			<path fill="#A5D2D3" d="M2547.257,1593.645c-28.535-1.357-56.852-3.845-84.63-10.788c-17.382-4.347-35.713-9.011-50.985-18.73
				c-15.526-9.883-28.088-24.286-34.761-41.526c-7.784-20.109-12.241-41.825-17.02-62.802c-3.242-14.235-6.271-28.545-8.816-42.925
				c-1.989-11.239-3.366-22.579-5.047-33.867c-4.358-29.308-8.506-58.599-12.255-87.992c-3.782-29.651-7.523-59.299-10.992-88.988
				c-2.747-23.512-5.521-47.017-8.119-70.543c-1.188-10.771-2.403-21.535-3.563-32.309c-0.007-0.062-0.206-0.795-0.219-0.795
				c-2.532,0-4.717,2.443-4.717,5.458v529.532c0,3.015,2.315,5.313,4.849,5.313h935.252c2.532,0,4.262-2.298,4.262-5.313v-19.156
				C3230.839,1623.672,2747.897,1603.199,2547.257,1593.645z"/>
			<path fill="#4C4CCC" d="M3250.496,1152.665c0,0.283-1.729,0.315-4.262,0.315h-935.253c-2.532,0-4.848-0.032-4.848-0.315v-49.772
				c0-0.284,2.314-0.334,4.848-0.334h935.253c2.532,0,4.262,0.05,4.262,0.334V1152.665z"/>
		</g>
		<g id="lines1">
			<path fill="#80A7CE" d="M3206.055,1319.832c0,3.015-1.707,5.782-4.239,5.782h-367.91c-2.532,0-4.739-2.768-4.739-5.782V1210.65
				c0-3.016,2.207-5.538,4.739-5.538h367.91c2.532,0,4.239,2.522,4.239,5.538V1319.832z"/>
			<g>
				<path fill="#5D7EDB" d="M3181.948,1237.161c0,3.015-2.217,5.555-4.947,5.555h-322.484c-2.732,0-4.948-2.54-4.948-5.555l0,0
					c0-3.015,2.216-5.556,4.948-5.556h322.484C3179.731,1231.605,3181.948,1234.146,3181.948,1237.161L3181.948,1237.161z"/>
				<path fill="#5D7EDB" d="M3181.948,1260.235c0,3.015-2.217,5.556-4.947,5.556h-322.484c-2.732,0-4.948-2.541-4.948-5.556l0,0
					c0-3.015,2.216-5.556,4.948-5.556h322.484C3179.731,1254.681,3181.948,1257.222,3181.948,1260.235L3181.948,1260.235z"/>
				<path fill="#5D7EDB" d="M3181.948,1283.311c0,3.016-2.217,5.556-4.947,5.556h-322.484c-2.732,0-4.948-2.54-4.948-5.556l0,0
					c0-3.015,2.216-5.555,4.948-5.555h322.484C3179.731,1277.756,3181.948,1280.296,3181.948,1283.311L3181.948,1283.311z"/>
			</g>
		</g>
		<g id="Lines2">
			<path fill="#80A7CE" d="M3206.055,1457.674c0,3.016-1.707,5.535-4.239,5.535h-367.91c-2.532,0-4.739-2.521-4.739-5.535v-109.182
				c0-3.015,2.207-5.785,4.739-5.785h367.91c2.532,0,4.239,2.771,4.239,5.785V1457.674z"/>
			<g>
				<path fill="#5D7EDB" d="M3181.948,1375.611c0,3.015-2.217,5.554-4.947,5.554h-322.484c-2.732,0-4.948-2.539-4.948-5.554l0,0
					c0-3.017,2.216-5.558,4.948-5.558h322.484C3179.731,1370.055,3181.948,1372.596,3181.948,1375.611L3181.948,1375.611z"/>
				<path fill="#5D7EDB" d="M3181.948,1398.686c0,3.015-2.217,5.556-4.947,5.556h-322.484c-2.732,0-4.948-2.541-4.948-5.556l0,0
					c0-3.016,2.216-5.556,4.948-5.556h322.484C3179.731,1393.13,3181.948,1395.67,3181.948,1398.686L3181.948,1398.686z"/>
				<path fill="#5D7EDB" d="M3181.948,1421.76c0,3.016-2.217,5.557-4.947,5.557h-322.484c-2.732,0-4.948-2.541-4.948-5.557l0,0
					c0-3.015,2.216-5.555,4.948-5.555h322.484C3179.731,1416.205,3181.948,1418.745,3181.948,1421.76L3181.948,1421.76z"/>
			</g>
		</g>
		<g id="Lines3">
			<path fill="#80A7CE" d="M3206.055,1595.063c0,3.014-1.707,5.741-4.239,5.741h-367.91c-2.532,0-4.739-2.728-4.739-5.741V1485.88
				c0-3.016,2.207-5.578,4.739-5.578h367.91c2.532,0,4.239,2.563,4.239,5.578V1595.063z"/>
			<g>
				<path fill="#5D7EDB" d="M3181.948,1511.495c0,3.016-2.217,5.556-4.947,5.556h-322.484c-2.732,0-4.948-2.54-4.948-5.556l0,0
					c0-3.015,2.216-5.556,4.948-5.556h322.484C3179.731,1505.939,3181.948,1508.48,3181.948,1511.495L3181.948,1511.495z"/>
				<path fill="#5D7EDB" d="M3181.948,1534.998c0,3.015-2.217,5.128-4.947,5.128h-322.484c-2.732,0-4.948-2.113-4.948-5.128l0,0
					c0-3.015,2.216-5.128,4.948-5.128h322.484C3179.731,1529.87,3181.948,1531.983,3181.948,1534.998L3181.948,1534.998z"/>
				<path fill="#5D7EDB" d="M3181.948,1558.5c0,3.015-2.217,5.556-4.947,5.556h-322.484c-2.732,0-4.948-2.541-4.948-5.556l0,0
					c0-3.015,2.216-5.555,4.948-5.555h322.484C3179.731,1552.945,3181.948,1555.485,3181.948,1558.5L3181.948,1558.5z"/>
			</g>
		</g>
	</g>
	<g id="buttons">
		<circle fill="#9999AD" cx="2333.303" cy="1127.987" r="11.602"/>
		<circle fill="#9999AD" cx="2360.598" cy="1127.987" r="11.603"/>
		<circle fill="#9999AD" cx="2387.894" cy="1127.987" r="11.602"/>
	</g>
	<g>
		<path fill="none" d="M3250.837,1527.355c-25.371,0-46.175,18.753-48.189,44.392h96.379
			C3297.013,1546.108,3276.208,1527.355,3250.837,1527.355z"/>
		<path fill="#2742E2" d="M3315.021,1571.747c-2.045-34.187-30-60.343-64.184-60.343s-62.138,26.156-64.184,60.343h-2.819v113.665
			h135.03v-113.665H3315.021z M3250.837,1527.355c25.371,0,46.175,18.753,48.189,44.392h-96.379
			C3204.662,1546.108,3225.467,1527.355,3250.837,1527.355z M3261.604,1639.703v25.463c-3.418,0.879-6.649,1.351-10.188,1.351
			c-3.587,0-7.759-0.482-10.322-1.387v-25.539c-4.272-2.939-5.822-7.333-5.822-12.239c0-8.855,7.104-16.036,15.963-16.036
			c8.857,0,16.108,7.18,16.108,16.036C3267.343,1632.32,3265.024,1636.762,3261.604,1639.703z"/>
		<path fill="#FFFFFF" d="M3251.16,1611.314c-8.855,0-15.892,7.18-15.892,16.035c0,4.907,1.551,9.301,5.824,12.24v25.539
			c2.564,0.903,6.735,1.387,10.322,1.387c3.539,0,6.771-0.472,10.188-1.351v-25.463c3.419-2.94,5.7-7.384,5.7-12.353
			C3267.306,1618.494,3260.019,1611.314,3251.16,1611.314z"/>
	</g>
	<g>
		<path fill="#42CBEA" d="M2925.738,1137.266c0,3.016-2.443,5.459-5.46,5.459h-497.584c-3.016,0-5.46-2.442-5.46-5.459v-20.703
			c0-3.016,2.442-5.459,5.46-5.459h497.584c3.016,0,5.46,2.443,5.46,5.459V1137.266z"/>
		<rect x="2426.042" y="1117.694" fill="none" width="371.218" height="22.442"/>
		<text transform="matrix(1 0 0 1 2426.043 1134.2549)" fill="#252626" font-family="'ArialRoundedMTBold'" font-size="22.7462">https://simarmannsingh.de/</text>
	</g>
</g>
<g>
	<path fill="#ADD8E6" d="M969.342,1089.297c0-36.257-2.932-71.827-8.554-106.496c-44.852,22.73-99.531,36.086-158.548,36.086
		c-95.239,0-179.201-34.762-228.75-87.623c-49.548,52.861-133.511,87.623-228.75,87.623c-52.604,0-101.762-10.605-143.587-29.01
		c-4.897,32.428-7.442,65.626-7.442,99.42c0,267.512,159.089,497.862,387.816,601.614
		C810.253,1587.159,969.342,1356.809,969.342,1089.297z"/>
	<g>
		<circle fill="#1389A5" cx="585.868" cy="1301.119" r="183.74"/>
		<polygon fill="#FCFCFC" points="553.2,1357.525 485.46,1289.786 461.625,1313.619 551.946,1403.941 710.843,1245.044 
			688.263,1222.464 		"/>
	</g>
</g>
</svg>
