<?xml version="1.0" encoding="utf-8"?>
<!-- Generator: Adobe Illustrator 16.0.0, SVG Export Plug-In . SVG Version: 6.00 Build 0)  -->
<!DOCTYPE svg PUBLIC "-//W3C//DTD SVG 1.1//EN" "http://www.w3.org/Graphics/SVG/1.1/DTD/svg11.dtd">
<svg version="1.1" id="Layer_1" xmlns="http://www.w3.org/2000/svg" xmlns:xlink="http://www.w3.org/1999/xlink" x="0px" y="0px"
	 width="3800px" height="2000px" viewBox="0 0 3800 2000" enable-background="new 0 0 3800 2000" xml:space="preserve">
<rect fill="#FFFFFF" width="3800" height="2000"/>
<path id="Cloud" fill="#EBF2F9" d="M2818.978,732.479c-97.438-83.113-214.904-584.356-617.309-323.296
	c-207.902,134.88-558.473-115.792-848.643-29.21c-266.484,79.517-292.172,341.492-266.389,426.858
	c52.084,172.438-110,198.098-260.357,272.187c-235.854,116.217-62.42,524.641,160.394,526.593s1572.662-3.891,1572.662-3.891
	s323.685,0.817,458.287-177.829C3162.473,1231.645,3070.653,947.161,2818.978,732.479z"/>
<g>
	<polygon opacity="0.1" enable-background="new    " points="2814.327,1226.436 3317.635,1517.058 3014.192,1693.413 
		2510.842,1402.808 	"/>
	<g>
		<g opacity="0.1">
			<g>
				<path d="M3249.949,1288.722c32.814,18.938,32.914,49.595,0.446,68.456c-32.519,18.912-85.278,18.912-118.103-0.058
					c-32.707-18.87-32.847-49.462-0.38-68.332C3164.397,1269.926,3217.283,1269.874,3249.949,1288.722z"/>
			</g>
		</g>
		<g>
			<g>
				<path fill="#E53399" d="M3257.188,1163.893c25.271,14.59,25.394,38.237,0.3,52.818c-25.112,14.588-65.912,14.588-91.173,0
					c-25.293-14.599-25.416-38.229-0.307-52.818C3191.097,1149.319,3231.914,1149.303,3257.188,1163.893z"/>
			</g>
			<path fill="#FF76C4" d="M3257.188,1163.893c-25.274-14.59-66.093-14.572-91.18,0c-25.109,14.59-24.986,38.221,0.307,52.818
				c25.261,14.588,66.061,14.588,91.172,0C3282.582,1202.13,3282.459,1178.48,3257.188,1163.893z M3249.205,1211.965
				c-20.599,11.971-54.074,11.971-74.806,0c-20.729-11.968-20.846-31.359-0.23-43.328c20.565-11.961,54.059-11.978,74.788,0
				C3269.67,1180.605,3269.786,1200.013,3249.205,1211.965z"/>
			<g>
				<path fill="#73C139" d="M3174.235,1095.816c-0.033,0.031-0.033,0.064-0.033,0.105c-0.033,0.231-0.133,0.447-0.23,0.679
					c-0.018,0.041-0.051,0.091-0.066,0.142c-0.116,0.23-0.28,0.444-0.463,0.677c-0.132,0.141-0.298,0.281-0.454,0.43
					c-0.125,0.116-0.231,0.231-0.389,0.349c-0.587,0.455-1.273,0.827-2.019,1.115c-0.106,0.041-0.214,0.092-0.33,0.142
					c-0.744,0.264-1.538,0.471-2.355,0.578c-0.032,0-0.064,0.016-0.09,0.016c-0.859,0.116-1.736,0.124-2.58,0.067
					c-0.024-0.018-0.058-0.018-0.091-0.018c-0.852-0.091-1.645-0.281-2.373-0.562c-1.472-0.604-2.307-1.563-2.43-2.597
					l24.747,188.192c0.141,1.026,0.977,1.985,2.447,2.579c0.339,0.15,0.693,0.257,1.058,0.355c0.298,0.059,0.578,0.125,0.901,0.166
					c0.124,0.017,0.271,0.041,0.421,0.05c0.024,0.008,0.05,0.008,0.099,0.008c0.067,0.017,0.15,0.034,0.232,0.034
					c0.215,0.016,0.447,0.016,0.693,0.016l-0.017-0.064l0,0l0.017,0.064c0.231,0,0.463,0,0.694,0
					c0.231-0.016,0.446-0.05,0.694-0.064c0.064-0.019,0.148-0.025,0.239-0.041c0.034,0,0.075-0.01,0.1-0.01
					c0.132-0.017,0.239-0.032,0.363-0.051c0.248-0.049,0.521-0.099,0.769-0.156c0.299-0.074,0.571-0.141,0.868-0.239
					c0.125-0.05,0.24-0.1,0.356-0.147c0.115-0.042,0.23-0.075,0.33-0.116c0.197-0.084,0.404-0.165,0.586-0.248
					c0.538-0.23,1.002-0.536,1.431-0.877c0.033-0.016,0.05-0.032,0.083-0.064c0.123-0.091,0.198-0.183,0.297-0.28
					c0.149-0.148,0.348-0.29,0.455-0.447c0.018,0,0.033-0.016,0.042-0.031c0.123-0.176,0.265-0.349,0.38-0.53
					c0.018-0.033,0.023-0.082,0.049-0.115c0.018-0.041,0.034-0.082,0.051-0.116c0.05-0.081,0.064-0.147,0.115-0.214
					c0.05-0.141,0.101-0.265,0.133-0.414c0-0.023,0-0.049,0-0.065c0-0.032,0-0.059,0.018-0.091c0.017-0.091,0.031-0.173,0.049-0.257
					c0-0.132,0-0.28-0.018-0.396c0-0.024,0-0.049,0-0.073l-24.764-188.187C3174.274,1095.337,3174.259,1095.568,3174.235,1095.816z"
					/>
				<g>
					<path fill="#4D9B12" d="M3171.788,1092.525c2.95,1.19,3.307,3.735,0.811,5.671c-2.487,1.959-6.894,2.545-9.836,1.34
						c-2.936-1.207-3.289-3.762-0.793-5.704C3164.456,1091.896,3168.879,1091.303,3171.788,1092.525z"/>
				</g>
			</g>
			<g>
				<path fill="#73C139" d="M3214.638,1087.069c-0.016,0.034-0.016,0.066-0.016,0.101c-0.051,0.23-0.125,0.446-0.233,0.678
					c-0.016,0.033-0.049,0.082-0.081,0.133c-0.115,0.239-0.272,0.464-0.455,0.679c-0.141,0.147-0.289,0.297-0.455,0.438
					c-0.115,0.107-0.23,0.239-0.396,0.348c-0.579,0.446-1.265,0.818-2,1.115c-0.116,0.033-0.216,0.091-0.323,0.132
					c-0.751,0.267-1.554,0.479-2.372,0.589c-0.024,0-0.065,0.016-0.091,0.016c-0.852,0.107-1.729,0.125-2.555,0.042
					c-0.032,0-0.073,0-0.099,0c-0.86-0.1-1.67-0.265-2.38-0.555c-1.488-0.604-2.309-1.578-2.448-2.597l24.765,188.195
					c0.149,1.017,0.968,1.976,2.432,2.57c0.347,0.148,0.711,0.266,1.074,0.347c0.28,0.083,0.595,0.15,0.893,0.182
					c0.141,0.019,0.281,0.025,0.422,0.042c0.042,0.017,0.059,0.017,0.106,0.017c0.058,0.01,0.142,0.018,0.216,0.018
					c0.247,0.018,0.479,0.024,0.719,0.024l-0.024-0.074l0,0l0.024,0.074c0.225,0,0.445,0,0.688-0.009
					c0.23-0.017,0.463-0.033,0.677-0.065c0.083-0.008,0.183-0.008,0.257-0.025c0.042,0,0.059,0,0.092,0
					c0.123-0.03,0.248-0.03,0.371-0.064c0.257-0.033,0.506-0.082,0.77-0.148c0.271-0.065,0.587-0.148,0.857-0.23
					c0.134-0.049,0.25-0.116,0.373-0.158c0.108-0.057,0.225-0.091,0.322-0.14c0.199-0.074,0.413-0.142,0.579-0.232
					c0.528-0.23,1.017-0.536,1.438-0.858c0.033-0.032,0.065-0.05,0.083-0.066c0.116-0.1,0.207-0.197,0.298-0.288
					c0.156-0.157,0.331-0.307,0.463-0.455c0.018-0.008,0.018-0.017,0.018-0.032c0.155-0.166,0.265-0.347,0.396-0.513
					c0.01-0.05,0.034-0.083,0.051-0.133c0.018-0.033,0.033-0.083,0.065-0.133c0.017-0.058,0.065-0.115,0.092-0.197
					c0.059-0.133,0.124-0.281,0.14-0.414c0-0.018,0-0.033,0-0.049c0.018-0.034,0.018-0.084,0.018-0.115
					c0.008-0.084,0.024-0.158,0.042-0.249c0-0.123,0-0.264-0.018-0.404c0-0.018,0-0.024,0-0.059l-24.765-188.194
					C3214.695,1086.574,3214.68,1086.814,3214.638,1087.069z"/>
				<g>
					<path fill="#4D9B12" d="M3212.216,1083.765c2.936,1.189,3.299,3.752,0.785,5.679c-2.479,1.941-6.895,2.537-9.818,1.339
						c-2.927-1.215-3.291-3.77-0.804-5.702C3204.884,1083.153,3209.299,1082.55,3212.216,1083.765z"/>
				</g>
			</g>
			<g>
				<path fill="#73C139" d="M3281.664,1106.941c-0.032,0.032-0.058,0.064-0.09,0.099c-0.116,0.183-0.282,0.354-0.479,0.513
					c-0.033,0.019-0.084,0.066-0.115,0.083c-0.216,0.166-0.446,0.299-0.703,0.414c-0.182,0.082-0.404,0.14-0.604,0.205
					c-0.166,0.06-0.307,0.125-0.504,0.158c-0.712,0.164-1.496,0.198-2.29,0.133c-0.114,0-0.239,0-0.354-0.018
					c-0.794-0.066-1.604-0.214-2.373-0.464c-0.051-0.016-0.082-0.016-0.115-0.031c-0.811-0.267-1.604-0.612-2.33-1.042
					c-0.018-0.018-0.066-0.032-0.092-0.05c-0.728-0.445-1.363-0.95-1.894-1.521c-1.1-1.183-1.438-2.396-1.106-3.389l-57.959,180.737
					c-0.314,0.991,0.022,2.216,1.083,3.39c0.255,0.271,0.536,0.537,0.835,0.775c0.23,0.184,0.463,0.349,0.727,0.529
					c0.116,0.074,0.231,0.157,0.348,0.215c0.05,0.032,0.065,0.032,0.1,0.051c0.064,0.049,0.133,0.091,0.198,0.133
					c0.198,0.105,0.414,0.214,0.61,0.313l0.034-0.064l0,0l-0.034,0.064c0.216,0.108,0.431,0.199,0.646,0.291
					c0.206,0.073,0.429,0.164,0.645,0.239c0.066,0.032,0.148,0.049,0.248,0.065c0.017,0.018,0.051,0.018,0.084,0.032
					c0.114,0.034,0.23,0.083,0.347,0.115c0.265,0.066,0.512,0.116,0.761,0.182c0.306,0.061,0.611,0.116,0.893,0.15
					c0.134,0.032,0.257,0.016,0.381,0.032c0.114,0.008,0.248,0.018,0.363,0.018c0.198,0.008,0.42,0.04,0.628,0.04
					c0.563,0,1.132-0.058,1.67-0.181c0.031,0,0.05-0.01,0.1-0.01c0.133-0.051,0.264-0.115,0.396-0.148
					c0.199-0.058,0.413-0.115,0.587-0.214c0.024,0,0.041,0,0.059,0c0.198-0.083,0.381-0.199,0.546-0.322
					c0.058-0.018,0.083-0.067,0.1-0.075c0.049-0.032,0.1-0.05,0.133-0.083c0.05-0.058,0.116-0.106,0.164-0.147
					c0.125-0.107,0.231-0.216,0.322-0.331c0-0.008,0.01-0.025,0.01-0.041c0.017-0.032,0.049-0.075,0.065-0.091
					c0.05-0.074,0.106-0.133,0.132-0.215c0.065-0.116,0.133-0.248,0.165-0.363c0.017-0.01,0.017-0.042,0.033-0.067l57.943-180.737
					C3281.904,1106.545,3281.789,1106.76,3281.664,1106.941z"/>
				<g>
					<path fill="#4D9B12" d="M3280.879,1102.924c2.147,2.348,1.373,4.812-1.71,5.489c-3.075,0.692-7.316-0.653-9.448-2.992
						c-2.147-2.364-1.389-4.811,1.702-5.497C3274.498,1099.246,3278.738,1100.577,3280.879,1102.924z"/>
				</g>
			</g>
			<g>
				
					<linearGradient id="SVGID_1_" gradientUnits="userSpaceOnUse" x1="1775.5894" y1="1501.9668" x2="1817.6924" y2="1501.9668" gradientTransform="matrix(1 0 0 -1 1402.3721 2703.3398)">
					<stop  offset="0" style="stop-color:#FFDF02"/>
					<stop  offset="0.1253" style="stop-color:#F9D402"/>
					<stop  offset="0.4425" style="stop-color:#ECBD01"/>
					<stop  offset="0.7411" style="stop-color:#E4AF00"/>
					<stop  offset="1" style="stop-color:#E1AA00"/>
				</linearGradient>
				<path fill="url(#SVGID_1_)" d="M3219.82,1107.701c0,0.01,0,0.041-0.019,0.066c-0.123,0.205-0.255,0.396-0.42,0.596
					c-0.043,0.033-0.065,0.082-0.1,0.106c-0.182,0.184-0.405,0.354-0.646,0.521c-0.157,0.106-0.354,0.198-0.562,0.297
					c-0.15,0.084-0.282,0.166-0.447,0.239c-0.688,0.266-1.472,0.423-2.248,0.505c-0.116,0.008-0.249,0.018-0.364,0.033
					c-0.784,0.05-1.603,0.017-2.43-0.082c-0.017,0-0.065-0.01-0.101-0.01c-0.843-0.124-1.702-0.362-2.463-0.669
					c-0.032,0-0.073-0.018-0.099-0.018c-0.786-0.33-1.513-0.727-2.126-1.207c-1.264-0.991-1.775-2.14-1.635-3.156l-28.18,187.698
					c-0.141,1.041,0.39,2.165,1.629,3.157c0.298,0.24,0.619,0.445,0.942,0.628c0.247,0.147,0.504,0.281,0.801,0.414
					c0.134,0.058,0.267,0.114,0.414,0.165c0.019,0,0.033,0.016,0.058,0.033c0.084,0.032,0.157,0.064,0.23,0.082
					c0.225,0.082,0.439,0.164,0.653,0.231c0.23,0.058,0.446,0.115,0.687,0.164c0.225,0.058,0.446,0.106,0.67,0.132
					c0.082,0.034,0.165,0.034,0.266,0.051c0.032,0,0.049,0.017,0.082,0.017c0.115,0.018,0.248,0.032,0.362,0.05
					c0.257,0.023,0.529,0.041,0.777,0.059c0.307,0.008,0.611,0.032,0.91,0.008c0.147-0.008,0.264-0.041,0.396-0.041
					c0.116,0,0.232-0.009,0.342-0.024c0.196-0.017,0.42-0.032,0.618-0.065c0.578-0.1,1.14-0.248,1.619-0.445
					c0.05-0.018,0.065-0.025,0.099-0.033c0.134-0.066,0.267-0.148,0.383-0.215c0.188-0.092,0.389-0.165,0.545-0.298
					c0.017-0.009,0.049-0.009,0.049-0.018c0.184-0.124,0.348-0.265,0.497-0.396c0.033-0.033,0.049-0.066,0.099-0.101
					c0.033-0.049,0.051-0.065,0.084-0.105c0.064-0.05,0.114-0.108,0.164-0.174c0.092-0.116,0.166-0.231,0.231-0.364
					c0.033-0.017,0.033-0.033,0.05-0.05c0-0.033,0.01-0.049,0.024-0.083c0.042-0.082,0.083-0.166,0.106-0.239
					c0.051-0.124,0.083-0.257,0.108-0.405c0-0.008,0-0.023,0.008-0.058l28.178-187.706
					C3220.026,1107.239,3219.943,1107.454,3219.82,1107.701z"/>
				<g>
					<path fill="#FFE85F" d="M3218.432,1103.834c2.487,1.967,2.125,4.512-0.802,5.693c-2.936,1.167-7.34,0.521-9.829-1.446
						c-2.495-1.982-2.123-4.521,0.804-5.693C3211.547,1101.205,3215.928,1101.865,3218.432,1103.834z"/>
				</g>
			</g>
			<g>
				
					<linearGradient id="SVGID_2_" gradientUnits="userSpaceOnUse" x1="1855.9951" y1="1579.1006" x2="1898.0791" y2="1579.1006" gradientTransform="matrix(0.9906 -0.137 -0.137 -0.9906 1588.7393 3005.917)">
					<stop  offset="0" style="stop-color:#FFDF02"/>
					<stop  offset="0.1253" style="stop-color:#F9D402"/>
					<stop  offset="0.4425" style="stop-color:#ECBD01"/>
					<stop  offset="0.7411" style="stop-color:#E4AF00"/>
					<stop  offset="1" style="stop-color:#E1AA00"/>
				</linearGradient>
				<path fill="url(#SVGID_2_)" d="M3239.584,1088.864c0,0.024,0,0.058-0.017,0.091c-0.084,0.216-0.198,0.43-0.33,0.628
					c-0.051,0.051-0.075,0.091-0.101,0.132c-0.149,0.19-0.34,0.397-0.554,0.604c-0.142,0.125-0.322,0.248-0.514,0.372
					c-0.141,0.091-0.257,0.197-0.422,0.299c-0.645,0.347-1.389,0.61-2.147,0.792c-0.134,0.034-0.231,0.066-0.349,0.083
					c-0.775,0.166-1.604,0.257-2.431,0.257c-0.023,0-0.064,0-0.099,0c-0.859,0-1.736-0.108-2.545-0.322
					c-0.026,0-0.067,0-0.084-0.018c-0.835-0.182-1.604-0.487-2.266-0.894c-1.396-0.81-2.065-1.857-2.065-2.908l-2.182,189.799
					c-0.018,1.041,0.678,2.099,2.05,2.916c0.313,0.183,0.66,0.339,1,0.487c0.271,0.115,0.555,0.199,0.867,0.298
					c0.133,0.041,0.257,0.084,0.406,0.116c0.023,0,0.049,0,0.082,0.018c0.073,0.016,0.148,0.049,0.223,0.049
					c0.23,0.058,0.463,0.1,0.693,0.133c0.232,0.032,0.465,0.05,0.68,0.083c0.248,0.032,0.479,0.032,0.71,0.032
					c0.075,0.017,0.167,0.017,0.266,0c0.018,0,0.023,0.017,0.073,0c0.107,0.017,0.249,0.017,0.355,0c0.272,0,0.537,0,0.785-0.032
					c0.322-0.033,0.604-0.059,0.917-0.108c0.124-0.031,0.248-0.073,0.39-0.091c0.106-0.031,0.215-0.064,0.306-0.082
					c0.215-0.051,0.413-0.091,0.629-0.148c0.562-0.174,1.073-0.396,1.537-0.661c0.05-0.032,0.05-0.032,0.1-0.05
					c0.115-0.082,0.214-0.183,0.338-0.266c0.184-0.115,0.372-0.223,0.504-0.363c0-0.017,0.033-0.017,0.033-0.032
					c0.182-0.148,0.313-0.298,0.446-0.464c0.05-0.032,0.059-0.064,0.074-0.106c0.032-0.025,0.059-0.074,0.082-0.108
					c0.06-0.063,0.092-0.131,0.133-0.197c0.083-0.133,0.125-0.264,0.189-0.396c0.018-0.018,0.018-0.033,0.018-0.066
					c0.017-0.031,0.033-0.042,0.033-0.084c0.024-0.081,0.05-0.163,0.065-0.247c0.032-0.133,0.05-0.264,0.05-0.396
					c0-0.034,0-0.042,0-0.076l2.198-189.788C3239.708,1088.377,3239.658,1088.616,3239.584,1088.864z"/>
				<g>
					<path fill="#FFE85F" d="M3237.666,1085.229c2.729,1.619,2.729,4.198-0.017,5.762c-2.744,1.554-7.184,1.521-9.92-0.102
						c-2.752-1.595-2.728-4.182,0.018-5.753C3230.481,1083.582,3234.922,1083.616,3237.666,1085.229z"/>
				</g>
			</g>
			<path fill="#FF76C4" d="M3166.315,1216.711c25.261,14.588,66.061,14.588,91.172,0c17.342-10.076,22.632-24.482,15.91-37.229
				h-12.315c7.149,10.928,3.216,23.696-11.877,32.482c-20.6,11.971-54.074,11.971-74.806,0
				c-15.218-8.794-19.275-21.572-12.232-32.482h-12.191C3143.403,1192.229,3148.853,1206.626,3166.315,1216.711z"/>
			
				<linearGradient id="SVGID_3_" gradientUnits="userSpaceOnUse" x1="1809.1924" y1="1489.5264" x2="1809.1924" y2="1329.114" gradientTransform="matrix(1 0 0 -1 1402.3721 2703.3398)">
				<stop  offset="0" style="stop-color:#FF4CAA"/>
				<stop  offset="1" style="stop-color:#E53399"/>
			</linearGradient>
			<path fill="url(#SVGID_3_)" d="M3276.06,1192.393c-0.064,0.66-0.106,1.34-0.23,2.018c-0.1,0.546-0.264,1.082-0.404,1.62
				c-0.182,0.645-0.332,1.307-0.579,1.95c-0.173,0.513-0.421,1.024-0.636,1.555c-0.289,0.678-0.604,1.354-0.951,2.017
				c-0.264,0.48-0.562,0.959-0.858,1.438c-0.462,0.752-0.977,1.521-1.521,2.265c-0.544,0.703-1.073,1.422-1.686,2.101
				c-0.148,0.164-0.271,0.338-0.431,0.513c-0.826,0.893-1.735,1.784-2.711,2.645c-0.646,0.579-1.339,1.124-2.033,1.662
				c-0.578,0.479-1.133,0.958-1.752,1.413c-0.735,0.527-1.537,1.033-2.331,1.554c-0.793,0.529-1.578,1.06-2.445,1.571
				c-1.937,1.123-3.978,2.123-6.085,3.074c-0.604,0.28-1.23,0.528-1.852,0.793c-1.645,0.678-3.323,1.321-5.06,1.919
				c-0.62,0.196-1.224,0.438-1.851,0.627c-1.093,0.348-2.217,0.652-3.324,0.959c-0.844,0.215-1.687,0.463-2.537,0.678
				c-1.157,0.28-2.354,0.513-3.528,0.735c-0.827,0.189-1.646,0.371-2.472,0.513c-2.406,0.43-4.854,0.77-7.315,1.018
				c-0.753,0.082-1.521,0.132-2.29,0.197c-1.445,0.115-2.918,0.23-4.373,0.299c-0.908,0.032-1.851,0.058-2.769,0.065
				c-1.175,0.032-2.356,0.032-3.528,0.032c-0.993-0.032-1.985-0.059-2.984-0.099c-1.092-0.033-2.174-0.102-3.265-0.174
				c-0.993-0.075-1.969-0.158-2.952-0.24c-1.082-0.116-2.141-0.23-3.216-0.363c-0.982-0.125-1.95-0.257-2.909-0.396
				c-1.14-0.198-2.28-0.389-3.42-0.611c-0.877-0.165-1.754-0.347-2.646-0.529c-1.355-0.297-2.695-0.645-4.034-0.99
				c-0.728-0.189-1.454-0.381-2.182-0.597c-2.363-0.686-4.679-1.454-6.927-2.322c-1.142-0.454-2.266-0.95-3.355-1.43
				c-0.521-0.23-1.059-0.446-1.57-0.693c-1.619-0.771-3.215-1.588-4.729-2.463c-12.73-7.357-19.095-16.979-19.044-26.601
				l-0.364,126.548c-0.017,9.621,6.315,19.242,19.044,26.601c1.505,0.859,3.093,1.686,4.729,2.463
				c0.579,0.256,1.149,0.487,1.72,0.734c0.96,0.432,1.876,0.877,2.877,1.267c0.091,0.022,0.206,0.057,0.314,0.091
				c2.239,0.883,4.578,1.66,6.968,2.354c0.174,0.051,0.354,0.134,0.537,0.2c0.528,0.131,1.058,0.23,1.604,0.388
				c1.339,0.354,2.703,0.687,4.075,0.991c0.355,0.083,0.694,0.19,1.051,0.256c0.503,0.116,1.04,0.166,1.553,0.273
				c1.142,0.215,2.291,0.429,3.455,0.604c0.455,0.066,0.901,0.183,1.383,0.231c0.503,0.074,1.015,0.099,1.512,0.182
				c1.074,0.132,2.165,0.247,3.273,0.363c0.479,0.034,0.976,0.115,1.471,0.157c0.463,0.042,0.926,0.042,1.389,0.091
				c1.124,0.066,2.248,0.124,3.34,0.166c0.537,0.017,1.082,0.064,1.619,0.082c0.446,0.017,0.86,0,1.29,0
				c1.198,0.017,2.38,0,3.554-0.018c0.588-0.017,1.174,0.018,1.744-0.017c0.348-0.017,0.686-0.049,1.033-0.058
				c1.486-0.065,2.951-0.174,4.431-0.307c0.562-0.049,1.123-0.049,1.687-0.1c0.183-0.024,0.332-0.057,0.528-0.074
				c2.464-0.272,4.927-0.604,7.356-1.033c0.107-0.016,0.215-0.016,0.34-0.049c0.686-0.114,1.348-0.298,2.023-0.43
				c1.225-0.24,2.432-0.488,3.639-0.777c0.826-0.197,1.652-0.445,2.479-0.678c1.15-0.298,2.273-0.604,3.373-0.959
				c0.231-0.058,0.479-0.124,0.687-0.198c0.403-0.115,0.743-0.288,1.133-0.413c1.735-0.596,3.438-1.248,5.106-1.942
				c0.613-0.256,1.225-0.521,1.82-0.77c2.098-0.959,4.165-1.967,6.083-3.073c0.265-0.165,0.528-0.331,0.785-0.479
				c0.586-0.364,1.099-0.735,1.661-1.091c0.785-0.514,1.587-1.034,2.331-1.555c0.645-0.479,1.207-0.958,1.825-1.454
				c0.653-0.529,1.341-1.075,1.928-1.604c0.141-0.133,0.298-0.23,0.43-0.348c0.825-0.744,1.604-1.538,2.313-2.331
				c0.149-0.148,0.281-0.331,0.423-0.495c0.422-0.479,0.851-0.959,1.248-1.472c0.183-0.206,0.298-0.446,0.446-0.662
				c0.563-0.735,1.059-1.487,1.521-2.239c0.197-0.322,0.463-0.62,0.646-0.942c0.082-0.157,0.133-0.339,0.224-0.487
				c0.339-0.661,0.644-1.322,0.917-1.983c0.189-0.405,0.43-0.793,0.57-1.191c0.049-0.146,0.065-0.288,0.115-0.429
				c0.224-0.611,0.355-1.215,0.521-1.835c0.132-0.446,0.313-0.908,0.413-1.371c0.018-0.133,0.018-0.249,0.05-0.364
				c0.116-0.646,0.148-1.307,0.216-1.95c0.05-0.464,0.147-0.927,0.147-1.39c0.017-0.189,0.017-0.38,0.017-0.569l0.349-126.523
				C3276.218,1191.12,3276.119,1191.765,3276.06,1192.393z"/>
		</g>
	</g>
	<g>
		<g enable-background="new    ">
			<g>
				<polygon fill="#323A3B" points="2739.283,1252.779 2739.258,1274.716 2669.479,1315.284 2669.495,1293.429 				"/>
			</g>
			<g>
				<polygon fill="#232829" points="2825.089,1302.274 2825.022,1324.194 2739.258,1274.716 2739.283,1252.779 				"/>
			</g>
			<g>
				<polygon fill="#1D1F1F" points="2825.089,1302.274 2825.022,1324.194 2755.243,1364.813 2755.295,1342.858 				"/>
			</g>
			<g>
				<polygon fill="#141515" points="2755.295,1342.858 2755.243,1364.813 2669.479,1315.284 2669.495,1293.429 				"/>
			</g>
			<g>
				<polygon fill="#323A3B" points="2524.021,1377.938 2524.002,1399.826 2500.94,1413.184 2501.006,1391.345 				"/>
			</g>
			<g>
				<polygon fill="#232829" points="2609.742,1427.483 2609.668,1449.354 2524.002,1399.826 2524.021,1377.938 				"/>
			</g>
			<g>
				<polygon fill="#A9D6EA" points="2609.742,1427.483 2586.722,1440.782 2501.006,1391.345 2524.021,1377.938 				"/>
			</g>
			<g>
				<polygon fill="#141515" points="2586.722,1440.782 2586.688,1462.729 2500.94,1413.184 2501.006,1391.345 				"/>
			</g>
			<g>
				<polygon fill="#1D1F1F" points="2609.742,1427.483 2609.668,1449.354 2586.688,1462.729 2586.722,1440.782 				"/>
			</g>
			<g>
				<polygon fill="#323A3B" points="2845.374,1313.961 2845.333,1335.924 2601.502,1477.581 2601.526,1455.669 				"/>
			</g>
			<g>
				<polygon fill="#232829" points="3168.149,1500.37 3168.101,1522.275 2845.333,1335.924 2845.374,1313.961 				"/>
			</g>
			<g>
				<polygon fill="#303637" points="2924.345,1641.986 2924.245,1663.916 2601.502,1477.581 2601.526,1455.669 				"/>
			</g>
			<g>
				<polygon fill="#454E4F" points="3168.149,1500.37 3168.101,1522.275 2924.245,1663.916 2924.345,1641.986 				"/>
			</g>
			<g>
				<g>
					<polygon fill="#A9D6EA" points="3168.149,1500.37 2924.345,1641.986 2601.526,1455.669 2845.374,1313.961 					"/>
				</g>
			</g>
			<g>
				<path fill="#F2F7F9" d="M2739.604,1233.768l467.699,270.041l-281.969,163.894l-467.732-270.059L2739.604,1233.768z
					 M2924.345,1641.986l243.805-141.616l-322.774-186.409l-243.848,141.708L2924.345,1641.986L2924.345,1641.986z
					 M2755.295,1342.858l69.794-40.584l-85.806-49.495l-69.788,40.648L2755.295,1342.858L2755.295,1342.858z M2586.722,1440.782
					l23.021-13.299l-85.723-49.546l-23.015,13.406L2586.722,1440.782L2586.722,1440.782z"/>
			</g>
			<g>
				<g>
					<polygon fill="#A9D6EA" points="2825.089,1302.274 2755.295,1342.858 2669.495,1293.429 2739.283,1252.779 					"/>
				</g>
			</g>
			<g>
				<g>
					<polygon fill="#A9D6EA" points="3207.305,1503.809 3207.229,1525.688 2925.253,1689.572 2925.336,1667.701 					"/>
				</g>
			</g>
			<g>
				<polygon fill="#A9D6EA" points="2925.336,1667.701 2925.253,1689.572 2457.587,1419.523 2457.604,1397.645 				"/>
			</g>
		</g>
	</g>
	<g>
		<path opacity="0.1" enable-background="new    " d="M2837.389,1436.162c-51.577,29.772-51.835,78.095-0.595,107.884
			c51.247,29.758,134.632,29.758,186.227-0.016c51.578-29.773,51.859-78.095,0.596-107.852
			C2972.367,1406.382,2888.967,1406.382,2837.389,1436.162z"/>
		<g>
			<g>
				<path fill="#EFB185" d="M2808.541,1226.361c0,0-11.291,14.695-12.3,18.572c-0.975,3.86-5.604,20.178,2.529,31.203
					c4.389,5.969,6.754-2.431,7.854-13.35c0.495-4.943-0.216-8.72,6.249-14.061c4.694-3.869,9.943-11.672,11.901-15.721
					C2826.769,1228.941,2808.541,1226.361,2808.541,1226.361z"/>
				<path fill="#E6A376" d="M2824.553,1233.867c-1.983,4.05-7.714,11.107-8.571,17.094c-1.066,7.225-8.861,6.884-9.356,11.827
					c-0.868,8.498-2.711,15.573-5.374,15.399c1.126-6.397-6.355-11.232,1.571-26.152c2.893-5.423,12.53-16.755,17.985-21.425
					C2824.049,1232.146,2825.305,1232.279,2824.553,1233.867z"/>
				<path fill="#EFB185" d="M2820.014,1230.528c0,0-2.248,20.745-3.835,26.944c-1.57,6.176-5.281,9.82-6.033,8.464
					c-0.802-1.354,2.927-19.937-3.827-19.391C2802.756,1246.828,2819.014,1233.422,2820.014,1230.528z"/>
			</g>
			<path fill="#5FB9E6" d="M2868.277,1062.7c0,0-20.871-4.597-29.037,36.864c-8.149,41.461-7.952,57.579-13.87,71.829
				c-5.936,14.25-21.656,60.406-21.656,60.406s13.191,0.513,18.359,10.332c0,0,33.435-57.165,39.882-82.261
				C2868.385,1134.777,2890.06,1073.908,2868.277,1062.7z"/>
			<path fill="#77D2FF" d="M2825.37,1171.395c5.918-14.25,5.721-30.367,13.87-71.828c4.455-22.532,12.613-31.46,19.218-34.914
				c19.78,12.777-1.175,71.846-7.497,96.477c-4.817,18.781-24.118,57.215-33.608,75.5c-7.032-5.066-13.639-4.827-13.639-4.827
				S2819.437,1185.645,2825.37,1171.395z"/>
		</g>
		<path fill="#111114" d="M2926.055,1443.52c0,0,5.515,12.901,0,16.233c-5.546,3.314-6.28,6.992-15.125,6.267
			c-8.871-0.735-7.589,2.215-10.639,5.527c-3.019,3.282-34.353,16.979-40.254,10.316c-5.902-6.637,10.695-14.406,16.563-18.274
			c5.918-3.836,19.937-19.342,20.302-23.765C2897.272,1435.41,2926.055,1443.52,2926.055,1443.52z"/>
		<path fill="#0A0A0A" d="M2926.055,1459.753c-5.546,3.314-6.28,6.992-15.125,6.267c-8.871-0.735-7.589,2.215-10.639,5.527
			c-3.019,3.282-34.353,16.979-40.254,10.316c-2.034-2.266-1.422-4.67,0.495-7.001c2.175,0.396,5.209,0.959,9.191,1.636
			c9.226,1.621,21.11-9.018,25.689-12.968c4.563-3.959,10.365-2.422,18.284-3.729c7.909-1.307,6.811-13.407,6.811-13.407
			l5.868-2.032C2927.469,1447.222,2930.733,1456.909,2926.055,1459.753z"/>
		<path fill="#111114" d="M2981.957,1485.409c0,0,2.339,15.259-3.547,23.524c-5.827,8.25-18.739,22.55-24.294,21.929
			c-5.57-0.652-6.455-3.184-6.455-3.184s-2.354-12.39,1.745-24.778c4.132-12.383,4.396-17.491,4.396-17.491H2981.957z"/>
		<path fill="#0A0A0A" d="M2978.41,1508.934c-5.142,7.268-15.729,19.178-21.979,21.532c8.25-10.654-4.165-8.456,5.176-13.497
			c12.818-6.96,4.619-12.763,10.34-14.398c5.712-1.629,1.529-15.756,1.529-15.756l3.091-1.404h5.391
			C2981.957,1485.409,2984.296,1500.668,2978.41,1508.934z"/>
		<path fill="#EA49BD" d="M2914.128,1237.207c0,0-26.352-2.861-35.146-22.352c0,0-2.396,43.03,2.927,92.906
			c5.323,49.908,9.745,137.642,9.745,137.642s17.035,16.067,34.642,0c0,0,4.959-57.927,0-90.03c0,0,3.306-56.206-2.198-84.313
			C2918.592,1242.968,2914.128,1237.207,2914.128,1237.207z"/>
		<path fill="#FF61CB" d="M2891.653,1445.403c0,0-4.422-87.732-9.745-137.642c-5.323-49.876-3.505-99.429-3.505-99.429
			c6.432,14.299,22.896,26.162,30.904,28.013c-0.645,19.036-2.43,75.169-2.141,93.815c0.265,17.755,3.762,91.286,5.225,122.176
			C2900.654,1453.9,2891.653,1445.403,2891.653,1445.403z"/>
		<path fill="#EA49BD" d="M2975.997,1234.205c0,0,2.554,29.187,3.1,74.523c0.563,45.321,3.86,62.416,4.969,69.358
			c1.074,6.959,4.934,82.821,2.752,104.976c0,0-14.316,22.117-36.873,0c0,0-3.836-77.772-7.688-95.486
			c-3.877-17.705-25.407-103.701-34.112-134.565c-3.834-13.623-4.744-18.806-4.744-18.806S2941.354,1261.508,2975.997,1234.205z"/>
		<path fill="#FF61CB" d="M2949.943,1483.063c0,0-3.836-77.771-7.688-95.485c-3.877-17.705-25.408-103.701-34.111-134.565
			c-3.836-13.623-12.729-24.129-12.729-24.129s24.945,17.5,46.511,17.449c0.936,6.654,10.109,70.16,12.241,97.9
			c2.103,27.539,20.955,124.364,15.888,148.657C2964.499,1493.046,2957.712,1490.675,2949.943,1483.063z"/>
		<path fill="#77D2FF" d="M2917.079,1056.997c0,0,42.891,14.498,44.329,17.424c1.454,2.91,12.896,8.803,3.215,46.031
			c0,0-14.225,40.998,1.289,77.616c9.019,21.218,15.829,31.964,15.829,31.964s-13.836,28.879-66.324,17.87
			c-10.571-2.216-29.457-13.457-36.179-23.707c0,0-0.124-33.229-11.928-70.35c-11.812-37.122-22.565-85.956-1.935-95.709
			C2865.377,1058.138,2869.889,1050.73,2917.079,1056.997z"/>
		<g>
			<path fill="#EFB185" d="M2906.59,1024.711c0,0-4.729,21.938,8.959,30.204c7.622,4.579,1.737,24.862-19.259,31.557
				c0,0-10.02,1.307-10.365-2.379c-0.81-8.333-5.472-11.416-10.977-15.937C2869.459,1063.659,2906.59,1024.711,2906.59,1024.711z"/>
			<path fill="#DD9569" d="M2915.549,1054.915c0.902,0.544,1.621,1.306,2.134,2.281c-10.729-4.845-25.656,0.278-25.656,0.278
				l11.093-29.062c0.629-0.661,1.156-1.239,1.603-1.728l1.34,1.687C2905.383,1034.979,2905.341,1048.747,2915.549,1054.915z"/>
			<g>
				<path fill="#EFB185" d="M2907.062,1013.271c0,0,3.977,25.045-7.879,41.675c-10.496,14.796-24.516,27.245-34.078,11.589
					c-7.58-12.432-27.334-43.957-18.193-55.363c11.82-14.688,13.177-27.73,33.312-28.054
					C2880.222,983.118,2903.919,984.557,2907.062,1013.271z"/>
				<path fill="#E6A376" d="M2907.062,1013.271c0,0,5.852,20.563-7.695,41.98c-2.877,4.571-7.19,9.01-10.59,12.258
					c5.299-8.314,5.406-10.313,8.572-19.226c3.156-8.91-10.15-0.777-7.019-21.689c1.065-7.107-12.308,6.729-15.993,8.051
					c-21.912,7.836-25.111-5.198-27.575-10.266c-0.43-2.497-0.678-4.894-0.678-7.126l0.521-4.734
					c0.106-0.447,0.207-0.91,0.306-1.349c1.249-3.885,2.546-7.349,4.051-10.446c9.39-3.398,36.005-13.077,36.552-13.144
					c0.421-0.042,7.34,4.355,13.854,8.587C2904.108,1000.377,2906.274,1005.914,2907.062,1013.271z"/>
				<path fill="#341C09" d="M2906.2,1039.357c0,0,11.316-22.945-3.744-43.709c0,0-10.497-17.325-32.071-11.786
					c-10.34,2.628-27.069,10.927-26.871,33.757c0.074,7.134,4.918,19.813,26.871,4.001c3.144-2.266,11.938-7.075,16.367-5.374
					c4.447,1.688,6.96,7.109,7.207,12.449c0.24,4.661,4.033,3.678,4.199,2.628c0.157-1.074,0.248-14.713,6.497-11.803
					C2910.242,1022.133,2906.325,1038.374,2906.2,1039.357z"/>
				<path fill="#221101" d="M2906.2,1039.357c0.125-0.983,4.042-17.226-1.545-19.837c-6.249-2.91-6.34,10.729-6.497,11.803
					c-0.166,1.05-3.959,2.033-4.199-2.628c-0.247-5.34-2.76-10.763-7.207-12.449c-4.024-1.563-11.621,2.977-16.367,5.374
					c3.034-4.149,10.771-8.2,11.044-16.053c0.297-10.53,4.1-16.847,8.613-20.435c8.322,3.754,12.414,10.516,12.414,10.516
					C2917.519,1016.412,2906.2,1039.357,2906.2,1039.357z"/>
			</g>
			<path fill="#341C09" d="M2871.741,1021.917c0,0,12.695-9.249,13.299-24.606c0.125-3.291,1.613-9.199,6.225-11.548
				c0,0-11.721-7.786-30.697,1.175c-8.911,4.183-15.476,16.515-16.764,19.178
				C2837.091,1019.982,2846.515,1040.962,2871.741,1021.917z"/>
		</g>
		<path fill="#5FB9E6" d="M2961.408,1074.421c1.454,2.91,12.895,8.803,3.215,46.031c0,0-14.226,40.998,1.289,77.616
			c9.019,21.218,15.829,31.964,15.829,31.964s-6.927,14.266-29.311,18.902c-12.646-31.584-18.911-90.915-24.565-131.517
			c-3.629-26.152,5.819-42.419,14.382-51.479C2951.886,1069.511,2960.763,1073.114,2961.408,1074.421z"/>
		<path fill="#77D2FF" d="M2935.387,1081.588c1.472-11.397,16.614-24.674,29.956-2.148c13.332,22.508,38.203,93.955,29.063,104.329
			c-3.57,4.051-9.969,8.985-15.902,4.992c-9.273-6.224-18.523-25.434-22.128-36.312
			C2950.414,1134.579,2934.015,1092.258,2935.387,1081.588z"/>
		<g>
			<g>
				<polygon fill="#AAC6C3" points="2707.799,1461.762 2793.135,1400.421 2774.521,1411.323 				"/>
			</g>
			<g>
				<polygon fill="#DEF6FF" points="2707.799,1461.762 2774.521,1411.323 2731.505,1370.499 				"/>
			</g>
			<g>
				<g>
					<polygon fill="#C2E7F2" points="2981.294,1114.544 2774.521,1411.323 2793.135,1400.421 2999.687,1103.5 					"/>
				</g>
			</g>
			<g>
				<g>
					<polygon fill="#DEF6FF" points="2950.341,1099.748 2743.598,1396.453 2774.521,1411.323 2981.294,1114.544 					"/>
				</g>
			</g>
			<g>
				<g>
					<polygon fill="#C2E7F2" points="2938.049,1073.569 2731.505,1370.499 2743.598,1396.453 2950.341,1099.748 					"/>
				</g>
			</g>
			<g>
				<g>
					<polygon fill="#A9D5E0" points="2950.341,1099.748 2981.294,1114.544 2999.687,1103.5 2987.403,1077.513 2956.498,1062.52 
						2938.049,1073.569 					"/>
				</g>
			</g>
			<g>
				<g>
					<polygon fill="#DEF6FF" points="2962.962,1093.564 2976.533,1100.12 2984.634,1095.4 2979.088,1083.827 2965.606,1077.165 
						2957.515,1082.009 					"/>
				</g>
			</g>
			<g>
				<polygon fill="#C2E7F2" points="2707.799,1461.762 2743.598,1396.453 2731.505,1370.499 				"/>
			</g>
			<g>
				<polygon fill="#5A5C5D" points="2715.238,1448.495 2707.799,1461.762 2712.585,1443.395 				"/>
			</g>
			<g>
				<polygon fill="#6D6F70" points="2715.238,1448.495 2721.776,1451.892 2707.799,1461.762 				"/>
			</g>
		</g>
		<path fill="#E6A376" d="M2914.838,1200.655c0,0-15.82,1.752-19.151-0.597c-3.33-2.313-7.611,1.547-3.412,3.951
			c4.198,2.397,9.703,2.529,9.703,2.529s-17.591,5.969-20.614,1.19c-3.024-4.777,2.034,14.424,11.06,15.763
			c8.978,1.372,18.598,4.497,32.615-13.695C2925.037,1209.798,2922.427,1202.672,2914.838,1200.655z"/>
		<path fill="#77D2FF" d="M2995.363,1180.537c0,0-23.145,31.027-77.086,37.154c0,0,1.94-8.176-6.001-16.392
			C2912.276,1201.301,3000.853,1126.099,2995.363,1180.537z"/>
	</g>
</g>
<g id="finalPrototype">
	<g>
		<path fill="#424242" d="M402.763,1712.01c0,14.503,12.755,26.95,28.592,26.95h430.074c15.837,0,27.614-12.447,27.614-26.95
			v-282.197c0-14.498-11.778-26.283-27.614-26.283H431.354c-15.836,0-28.591,11.785-28.591,26.283L402.763,1712.01L402.763,1712.01z
			"/>
		<g>
			
				<image overflow="visible" enable-background="new    " width="1325" height="1004" xlink:href="../../../New folder/5EDC98C0.png"  transform="matrix(0.476 0 0 0.4759 329.3223 1334.5879)">
			</image>
		</g>
		<path fill="#666668" d="M402.763,1429.813c0-14.498,12.755-26.282,28.592-26.282h430.074c15.837,0,27.614,11.784,27.614,26.282
			v17.383h-486.28V1429.813z"/>
		<circle fill="#2A4872" cx="866.976" cy="1427.095" r="11.257"/>
		<circle fill="#2A4872" cx="835.663" cy="1427.095" r="11.254"/>
		<circle fill="#2A4872" cx="804.352" cy="1427.095" r="11.257"/>
	</g>
	
		<linearGradient id="SVGID_4_" gradientUnits="userSpaceOnUse" x1="-2409.4336" y1="425.5264" x2="-2216.9072" y2="425.5264" gradientTransform="matrix(1 0 0 1 2958.0801 1219.1543)">
		<stop  offset="0" style="stop-color:#C7B299"/>
		<stop  offset="0.0655" style="stop-color:#BEB19C"/>
		<stop  offset="0.1744" style="stop-color:#A4ADA6"/>
		<stop  offset="0.3133" style="stop-color:#7BA8B5"/>
		<stop  offset="0.4751" style="stop-color:#42A1CA"/>
		<stop  offset="0.5674" style="stop-color:#1E9CD7"/>
		<stop  offset="0.8652" style="stop-color:#0075BE"/>
		<stop  offset="0.9944" style="stop-color:#005B97"/>
	</linearGradient>
	<path fill="url(#SVGID_4_)" d="M741.173,1644.681c0,7.916-6.418,14.887-14.336,14.887H562.982c-7.918,0-14.336-6.971-14.336-14.887
		l0,0c0-7.92,6.418-14.887,14.336-14.887h163.854C734.755,1629.794,741.173,1636.761,741.173,1644.681L741.173,1644.681z"/>
	
		<linearGradient id="SVGID_5_" gradientUnits="userSpaceOnUse" x1="-2409.4336" y1="471.1777" x2="-2216.9072" y2="471.1777" gradientTransform="matrix(1 0 0 1 2958.0801 1219.1543)">
		<stop  offset="0" style="stop-color:#C7B299"/>
		<stop  offset="0.0655" style="stop-color:#BEB19C"/>
		<stop  offset="0.1744" style="stop-color:#A4ADA6"/>
		<stop  offset="0.3133" style="stop-color:#7BA8B5"/>
		<stop  offset="0.4751" style="stop-color:#42A1CA"/>
		<stop  offset="0.5674" style="stop-color:#1E9CD7"/>
		<stop  offset="0.8652" style="stop-color:#0075BE"/>
		<stop  offset="0.9944" style="stop-color:#005B97"/>
	</linearGradient>
	<path fill="url(#SVGID_5_)" d="M741.173,1690.332c0,7.916-6.418,14.886-14.336,14.886H562.982c-7.918,0-14.336-6.97-14.336-14.886
		l0,0c0-7.92,6.418-14.886,14.336-14.886h163.854C734.755,1675.446,741.173,1682.412,741.173,1690.332L741.173,1690.332z"/>
	<path fill="#595857" d="M881.103,1594.692c0,2.946-5.113,5.334-10.295,5.334H419.587c-5.182,0-8.886-2.388-8.886-5.334v-134.227
		c0-2.946,3.704-5.335,8.886-5.335h451.221c5.182,0,10.295,2.385,10.295,5.335V1594.692z"/>
	<rect x="601.035" y="1636.432" fill="none" width="89.736" height="19.848"/>
	<text transform="matrix(1 0 0 1 619.0264 1650.8838)" fill="#FFFFFF" font-family="'ArialRoundedMTBold'" font-size="19.8482">Login</text>
	<rect x="601.035" y="1680.408" fill="none" width="89.736" height="19.848"/>
	<text transform="matrix(1 0 0 1 608.1719 1694.8594)" fill="#FFFFFF" font-family="'ArialRoundedMTBold'" font-size="19.8482">Sign Up</text>
	
		<linearGradient id="SVGID_6_" gradientUnits="userSpaceOnUse" x1="-2252.373" y1="283.4351" x2="-2343.8174" y2="336.2304" gradientTransform="matrix(1 0 0 1 2958.0801 1219.1543)">
		<stop  offset="0" style="stop-color:#998675"/>
		<stop  offset="0.1868" style="stop-color:#A2816C"/>
		<stop  offset="0.4972" style="stop-color:#BC7555"/>
		<stop  offset="0.8909" style="stop-color:#E5602F"/>
		<stop  offset="0.9944" style="stop-color:#F15A24"/>
	</linearGradient>
	<path fill="url(#SVGID_6_)" d="M659.984,1476.199c29.154,0,52.787,23.632,52.787,52.788c0,29.152-23.632,52.785-52.787,52.785
		c-29.152,0-52.786-23.633-52.786-52.785C607.199,1499.832,630.833,1476.199,659.984,1476.199z"/>
	<g>
		<g id="Fire">
			<path fill="#E5CF35" d="M644.571,1567.39c8.002-8.006,8.652-20.577,1.901-29.334l0.008-0.008c-0.002,0-0.026-0.019-0.039-0.028
				c-0.009-0.011-0.029-0.038-0.027-0.038l-0.008,0.008c-8.69-6.683-21.303-6.077-29.307,1.928c-2.483,2.48-4.253,5.412-5.316,8.523
				c3.658-2.911,7.951-4.64,12.361-5.194c-2.417,1.683-4.728,3.799-6.802,6.303c-4.118,4.986-6.534,10.61-7.149,15.763
				c1.307-2.771,3.033-5.509,5.169-8.095c3.175-3.842,6.856-6.854,10.65-8.932c-5.046,5.45-9.59,10.989-13.562,16.476
				c-4.47,6.184-8.217,12.3-11.149,18.158c-0.01,0.008-0.021,0.015-0.034,0.022c0.009-0.003,0.018-0.008,0.026-0.011
				c-0.016,0.034-0.034,0.064-0.047,0.097c0.032-0.039,0.065-0.083,0.097-0.12c6.757-3.299,13.869-7.688,21.037-13.022
				c4.859-3.612,9.744-7.664,14.563-12.105c-2.079,4.12-5.269,8.151-9.428,11.591c-2.584,2.136-5.323,3.86-8.094,5.167
				c5.152-0.617,10.779-3.031,15.759-7.152c2.353-1.942,4.359-4.102,5.99-6.361c-0.638,4.179-2.345,8.215-5.112,11.688
				C639.17,1571.654,642.087,1569.871,644.571,1567.39z"/>
			<g>
				<path fill="#D6BA18" d="M626.252,1550.968c-2.354,1.291-4.668,2.919-6.859,4.861c-2.475,2.978-4.795,5.963-6.943,8.932
					c-4.469,6.184-8.22,12.301-11.148,18.159c-0.011,0.008-0.023,0.015-0.035,0.022c0.008-0.004,0.018-0.008,0.026-0.012
					c-0.016,0.035-0.034,0.065-0.048,0.097c0.032-0.038,0.065-0.081,0.098-0.119c0.552-0.271,1.107-0.548,1.662-0.831
					c2.528-4.423,5.453-8.942,8.744-13.49C615.998,1562.722,620.853,1556.799,626.252,1550.968z"/>
				<path fill="#D6BA18" d="M624.257,1545.583c-1.333,0.171-2.658,0.442-3.959,0.807c-1.026,0.974-2.015,2.027-2.953,3.163
					c-3.946,4.769-6.329,10.13-7.063,15.103c1.232-4.17,3.48-8.435,6.703-12.335
					C619.199,1549.643,621.674,1547.383,624.257,1545.583z"/>
				<path fill="#D6BA18" d="M647.556,1539.595c-0.335-0.52-0.682-1.021-1.085-1.539l0.007-0.009c-0.001,0-0.025-0.02-0.038-0.027
					c-0.01-0.011-0.03-0.038-0.028-0.038l-0.007,0.008c-8.69-6.683-21.303-6.078-29.308,1.927c-2.483,2.48-4.251,5.412-5.315,8.523
					c0.199-0.154,0.404-0.306,0.607-0.457c1.102-2.145,2.546-4.16,4.343-5.954C625.132,1533.628,638.247,1532.818,647.556,1539.595z
					"/>
			</g>
		</g>
		<g id="Rocket">
			<path fill="#6B6BDD" d="M659.923,1548.561l-3.342-3.341c10.029-3.246,22.095-11.898,32.72-24.271
				c13.771-16.038,21.108-33.635,19.124-44.473v-0.005c0,0,0,0.005-0.001,0.005c0-0.005,0.001-0.005,0.001-0.005v0.005
				c-11.909-1.779-28.373,5.415-44.411,19.188c-12.371,10.622-21.001,22.749-24.244,32.78l-3.323-3.341
				c-0.29-0.291-0.762-0.318-1.052-0.031l-13.911,13.917c-0.077,0.078-0.122-0.209-0.157-0.111l17.29-0.385h7.109h0.08l1.089,0.803
				v7.106l-0.582,17.274c0.098-0.035-0.107-0.101-0.029-0.18l13.772-13.916C660.346,1549.294,660.213,1548.852,659.923,1548.561z
				 M648.196,1536.834l-0.011-0.012l50.277-50.257l-50.257,50.276L648.196,1536.834z"/>
			<path fill="#5656C1" d="M637.096,1528.363l3.559,3.56c3.481-10.712,12.682-23.612,25.861-34.929
				c14.47-12.425,30.152-19.81,41.612-20.639c-10.885-1.318-28.03,5.846-43.687,19.29c-12.372,10.626-21.021,22.748-24.264,32.776
				l-3.341-3.341c-0.29-0.287-0.774-0.276-1.063,0.019l-13.917,13.913c-0.077,0.082-0.121,0.183-0.158,0.279l3.417,0.012
				l10.904-10.901C636.331,1528.089,636.789,1528.054,637.096,1528.363z"/>
			<circle fill="#50CCB4" cx="665.883" cy="1519.13" r="9.145"/>
			<path fill="#50CCB4" d="M680.59,1496.951c4.127,0,7.473,3.346,7.473,7.475c0,4.125-3.346,7.471-7.473,7.471
				c-4.128,0-7.473-3.346-7.473-7.471C673.116,1500.297,676.461,1496.951,680.59,1496.951z"/>
			<circle fill="#50CCB4" cx="691.966" cy="1493.048" r="4.927"/>
			<circle fill="#2ECE5F" stroke="#677572" stroke-width="0.1477" stroke-miterlimit="10" cx="665.883" cy="1519.153" r="7.92"/>
			<path fill="#2ECE5F" stroke="#677572" stroke-width="0.1477" stroke-miterlimit="10" d="M680.59,1498.048
				c3.534,0,6.398,2.865,6.398,6.401c0,3.531-2.865,6.396-6.398,6.396c-3.535,0-6.399-2.864-6.399-6.396
				C674.19,1500.913,677.055,1498.048,680.59,1498.048z"/>
			<path fill="#2ECE5F" stroke="#677572" stroke-width="0.1477" stroke-miterlimit="10" d="M691.968,1488.834
				c2.338,0,4.233,1.896,4.233,4.232c0,2.343-1.896,4.233-4.233,4.233s-4.233-1.892-4.233-4.233
				C687.734,1490.73,689.63,1488.834,691.968,1488.834z"/>
			<path fill="#39B75A" d="M678.726,1499.015c0.353-0.354,0.733-0.663,1.129-0.931c-1.371,0.162-2.699,0.771-3.753,1.825
				c-2.501,2.502-2.5,6.556,0,9.061c1.053,1.046,2.382,1.659,3.753,1.826c-0.398-0.272-0.777-0.582-1.129-0.935
				C675.729,1506.868,675.729,1502.011,678.726,1499.015z"/>
			<path fill="#39B75A" d="M690.708,1489.501c0.232-0.229,0.479-0.435,0.742-0.612c-0.901,0.112-1.773,0.508-2.463,1.198
				c-1.642,1.643-1.642,4.303,0,5.942c0.69,0.693,1.562,1.089,2.463,1.202c-0.263-0.183-0.51-0.384-0.742-0.616
				C688.741,1494.652,688.741,1491.467,690.708,1489.501z"/>
			<path fill="#39B75A" d="M663.543,1512.423c0.436-0.437,0.906-0.825,1.401-1.159c-1.698,0.211-3.346,0.962-4.65,2.269
				c-3.1,3.102-3.1,8.125,0,11.223c1.304,1.307,2.952,2.059,4.65,2.27c-0.495-0.335-0.965-0.723-1.401-1.156
				C659.832,1522.153,659.832,1516.133,663.543,1512.423z"/>
		</g>
		<polygon fill="#6B6BDD" points="641.074,1532.899 627.642,1556.76 654.268,1543.347 		"/>
	</g>
</g>
</svg>
