<?xml version="1.0" encoding="utf-8"?>
<!-- Generator: Adobe Illustrator 16.0.0, SVG Export Plug-In . SVG Version: 6.00 Build 0)  -->
<!DOCTYPE svg PUBLIC "-//W3C//DTD SVG 1.1//EN" "http://www.w3.org/Graphics/SVG/1.1/DTD/svg11.dtd" [
	<!ENTITY ns_flows "http://ns.adobe.com/Flows/1.0/">
	<!ENTITY ns_extend "http://ns.adobe.com/Extensibility/1.0/">
	<!ENTITY ns_ai "http://ns.adobe.com/AdobeIllustrator/10.0/">
	<!ENTITY ns_graphs "http://ns.adobe.com/Graphs/1.0/">
]>
<svg version="1.1" id="Layer_1" xmlns:x="&ns_extend;" xmlns:i="&ns_ai;" xmlns:graph="&ns_graphs;"
	 xmlns="http://www.w3.org/2000/svg" xmlns:xlink="http://www.w3.org/1999/xlink" xmlns:a="http://ns.adobe.com/AdobeSVGViewerExtensions/3.0/"
	 x="0px" y="0px" width="3800px" height="2000px" viewBox="0 0 3800 2000" enable-background="new 0 0 3800 2000"
	 xml:space="preserve">
<rect y="1" fill="#FFFFFF" width="3800" height="2000"/>
<path fill="#EBF2F9" d="M2818.978,733.479c-97.438-83.114-214.905-584.357-617.309-323.296
	c-207.902,134.88-558.473-115.792-848.643-29.21c-266.484,79.516-292.172,341.492-266.388,426.858
	c52.084,172.438-110,198.098-260.358,272.187c-235.854,116.216-62.42,524.64,160.394,526.592s1572.662-3.89,1572.662-3.89
	s323.685,0.817,458.287-177.829C3162.473,1232.645,3070.653,948.161,2818.978,733.479z"/>
<g>
	<g>
		<path fill="#E49963" d="M603.529,1223.002c0,0,24.292,6.239,39.734,1.587c15.443-4.652,42.021,2.988,46.301,8.619
			s2.708,7.868-4.93,9.812s-34.696,13.484-52.479,6.805s-40.978-6.923-40.978-6.923L603.529,1223.002z"/>
		<path fill="#4A75CB" d="M393.581,1011.979c0,0,27.29,193.955,72.477,211.328c22.297,8.571,120.836,28.002,149.984,29.954
			c0,0,7.141-5.793,5.401-29.371c0,0-103.24-37.902-117.906-58.515c-21.828-30.677,13.551-125.324-13.839-154.136
			C462.308,982.429,416.177,970.046,393.581,1011.979z"/>
	</g>
	<path fill="#2B478B" d="M397.067,1759.304v-42.287H330.49c-1.798,0-3.267-1.47-3.267-3.267v-6.775c0-1.796,1.469-3.267,3.267-3.267
		h66.577v-240.725c0-6.755,5.526-12.281,12.281-12.281h13.175c6.755,0,12.281,5.526,12.281,12.281v240.725h66.577
		c1.797,0,3.268,1.471,3.268,3.267v6.775c0,1.797-1.471,3.267-3.268,3.267h-66.577v42.287c48.171,3.642,86.765,20.983,97.592,43.391
		H299.476C310.302,1780.287,348.896,1762.945,397.067,1759.304z"/>
	<path fill="#163560" d="M402.778,1420.605c7.96,13.504,17.167,26.157,26.657,38.141c29.33,37.026,61.257,67.556,66.819,96.414
		c1.105,5.751,2.861,11.945,5.156,18.471c2.322,6.61,5.193,13.561,8.508,20.746c12.446,27.036,31.059,57.329,49.643,84.865
		c32.125,47.603,62.333,87.323,62.333,87.323l55.399-2.361c-2.219-5.552-26.381-71.279-58.704-151.602
		c-13.126-32.607-27.083-67.291-40.549-100.738c-1.794-4.467-3.588-8.915-5.363-13.324c-4.117-10.237-8.169-20.313-12.125-30.124
		c-30.351-75.422-54.524-135.479-54.524-135.479s-121.305-45.952-133.902-16.176
		C361.738,1341.313,370.199,1365.364,402.778,1420.605z"/>
	<path fill="#163560" d="M623.626,1756.493c0,0,2.834,45.715,11.679,46.37c1.177,0.087,44.858,0.087,44.858,0.087l55.762-0.323
		c0,0-0.365-13.436-16.664-16.276c-16.3-2.84-43.582-14.295-53.455-35.838C655.418,1727.849,623.626,1756.493,623.626,1756.493z"/>
	<path fill="#163560" d="M495.345,1625.895c0,0-38.533,24.761-34.794,32.802c0.497,1.07,21.792,39.21,21.792,39.21l27.466,48.529
		c0,0,11.554-6.868,6.088-22.485c-5.466-15.615-8.765-45.021,5.232-64.144C535.853,1639.688,495.345,1625.895,495.345,1625.895z"/>
	<path fill="#1C468A" d="M547.481,1311.126c0,0,152.261,94.844,169.258,158.581c16.996,63.737-202.544,199.711-202.544,199.711
		s-24.079-21.246-28.328-36.826c0,0,99.235-118.891,120.762-145.541c13.22-16.368-195.474-56.661-220.968-96.319
		c-25.495-39.659-16.368-73.027-16.368-73.027L547.481,1311.126z"/>
	<path fill="#EE9849" d="M260.125,1432.915h311.622c6.232,0,11.331,5.099,11.331,11.331v62.324c0,6.232-5.099,11.332-11.331,11.332
		H260.125c-6.232,0-11.332-5.1-11.332-11.332v-62.324C248.793,1438.014,253.893,1432.915,260.125,1432.915z"/>
	<path fill="#E49963" d="M477.073,978.732c14.955,9.263,23.195,21.021,23.195,21.021c-36.477,9.436-96.947-24.366-96.947-24.366
		s23.479-15.776,32.178-50.441c0.44-1.749,0.842-3.542,1.195-5.377c1.14-5.838,1.848-12.159,1.975-18.98l16.757,15.011
		l27.863,24.962c0,0-0.632,10.358-4.118,28.175C478.565,971.845,477.87,975.181,477.073,978.732z"/>
	<path fill="#739AF0" d="M364.867,1150.817c5.225,70.274-3.563,177.111,2.364,195.621c5.116,15.97,65.315,6.518,88.58,1.185
		c8.611-1.973,19.042-4.792,29.814-8.124c30.047-9.305,62.788-22.59,66.301-32.453c0.136-0.387,0.252-0.766,0.324-1.135
		c0.324-1.432,0.252-2.773-0.063-4.134c-1.172-5.026-5.684-10.467-6.215-22.914c-0.595-13.898-0.505-30.265-1.027-47.864
		c-0.027-1.981-0.054-4.143-0.27-6.115l-0.01-0.721c-0.009-0.379-0.018-0.748-0.026-1.126c-0.505-19.627-1.531-40.262-2.721-60.727
		c-0.757-12.853-1.63-25.58-2.639-37.775c-2.621-31.479-6.152-59.474-10.826-77.173c-7.639-28.85-24.481-47.666-39.813-61.456
		l-11.088-9.511c-12.375,2.701-27.003,0.909-40.234-5.359c-14.321-6.801-19.266-11.674-21.761-9.836
		C382.485,986.717,358.697,1064.908,364.867,1150.817z"/>
	<path fill="#4A75CB" d="M485.454,1339.64c30.047-9.305,62.788-22.59,66.301-32.453c0.136-0.387,0.252-0.766,0.324-1.135
		c-0.018-1.378-0.035-2.756-0.063-4.134c-1.171-5.026-5.684-10.467-6.215-22.914c-0.595-13.898-0.505-30.265-1.027-47.864
		c-0.027-1.981-0.054-4.143-0.271-6.115l-0.009-0.721c-0.009-0.379-0.018-0.748-0.026-1.126l-113.499-51.476
		C430.97,1171.702,424.431,1263.179,485.454,1339.64z"/>
	<path fill="#D68D5D" d="M483.289,940.561c0,0-0.632,10.358-4.118,28.175c-27.207-8.791-39.551-33.366-43.672-43.79
		c-1.172-2.945-1.681-4.765-1.681-4.765s1.056-0.228,2.876-0.612c3.824-0.813,11.026-2.341,18.731-3.97L483.289,940.561z"/>
	<path fill="#E49963" d="M494.304,940.287c0,0-59.775,6.742-63.401-30.547c-3.625-37.29-13.782-61.534,24.229-67.416
		c38.012-5.881,46.822,7.626,51.06,19.778S509.76,937.572,494.304,940.287z"/>
	<path fill="#2B478B" d="M431.16,912.313c0,0,3.79-49.499,58.202-54.625c37.27-3.512,16.491-35.589,12.519-40.705
		c0,0-28.555,3.915-57.823,8.751C382.624,835.884,425.127,904.607,431.16,912.313z"/>
	<g>
		
			<rect x="742.629" y="1131.922" transform="matrix(-0.9511 -0.309 0.309 -0.9511 1082.2168 2579.3193)" fill="#4A75CB" width="5.502" height="144.061"/>
		
			<rect x="574.676" y="1262.651" transform="matrix(-0.9998 -0.0214 0.0214 -0.9998 1273.3159 2547.9438)" fill="#4A75CB" width="151.174" height="9.043"/>
	</g>
	<g>
		<path fill="#E49963" d="M591.027,1252.82c0,0,23.457,8.88,39.318,5.958c15.861-2.921,41.435,7.603,45.067,13.672
			c3.633,6.067,1.825,8.118-5.98,9.207c-7.806,1.09-35.972,9.578-52.91,0.979c-16.939-8.6-39.965-11.398-39.965-11.398
			L591.027,1252.82z"/>
		<path fill="#739AF0" d="M405.624,1019.938c0,0,5.74,195.781,48.737,218.029c21.215,10.979,117.012,41.154,145.767,46.308
			c0,0,7.736-4.97,8.606-28.597c0,0-98.432-49.053-110.736-71.157c-18.313-32.896,27.285-123.065,3.238-154.722
			C477.19,998.145,432.705,980.751,405.624,1019.938z"/>
	</g>
</g>
<g>
	<rect x="2475.218" y="1246.176" fill="#AED3FF" width="760.151" height="427.944"/>
	<rect x="2499.936" y="1246.176" fill="#D2E4FF" width="760.152" height="427.944"/>
	<circle fill="#F3F9FF" cx="2707.83" cy="1450.48" r="137.444"/>
	<g>
		<path fill="#F3F9FF" d="M3174.637,1373.7h-227.691c-8.252,0-15.002,6.751-15.002,15.003l0,0c0,8.252,6.75,15.002,15.002,15.002
			h227.691c8.251,0,15.002-6.75,15.002-15.002l0,0C3189.639,1380.451,3182.888,1373.7,3174.637,1373.7z"/>
		<path fill="#F3F9FF" d="M3174.637,1435.477h-227.691c-8.252,0-15.002,6.752-15.002,15.003l0,0c0,8.252,6.75,15.002,15.002,15.002
			h227.691c8.251,0,15.002-6.75,15.002-15.002l0,0C3189.639,1442.229,3182.888,1435.477,3174.637,1435.477z"/>
		<path fill="#F3F9FF" d="M3174.637,1497.253h-227.691c-8.252,0-15.002,6.752-15.002,15.003c0,8.252,6.75,15.004,15.002,15.004
			h227.691c8.251,0,15.002-6.752,15.002-15.004C3189.639,1504.005,3182.888,1497.253,3174.637,1497.253z"/>
	</g>
	<path fill="#A8D29F" d="M2581.991,1448.482h125.842v-125.842C2638.336,1322.641,2581.991,1378.985,2581.991,1448.482z"/>
	<path fill="#F1A34F" d="M2833.672,1452.534h-125.839h-0.003h-125.839c0,69.495,56.342,125.839,125.839,125.841l0,0
		c0.001,0,0.001,0,0.001,0c0.001,0,0.001,0,0.002,0l0,0C2777.328,1578.373,2833.672,1522.029,2833.672,1452.534z"/>
	<g>
		<path fill="#82B378" d="M2686.096,1383.786H2617.8c-3.886,0-7.065,3.179-7.065,7.065c0,3.886,3.18,7.064,7.065,7.064h68.296
			c3.887,0,7.066-3.179,7.066-7.064C2693.162,1386.965,2689.982,1383.786,2686.096,1383.786z"/>
		<path fill="#82B378" d="M2633.354,1409.496H2617.8c-3.886,0-7.065,3.178-7.065,7.063s3.18,7.066,7.065,7.066h15.555
			c3.886,0,7.065-3.181,7.065-7.066S2637.24,1409.496,2633.354,1409.496z"/>
	</g>
	<g>
		<path fill="#DD8936" d="M2787.491,1483.298h-68.296c-3.886,0-7.066,3.179-7.066,7.064s3.181,7.065,7.066,7.065h68.296
			c3.886,0,7.065-3.18,7.065-7.065S2791.377,1483.298,2787.491,1483.298z"/>
		<path fill="#DD8936" d="M2734.749,1509.007h-15.554c-3.886,0-7.066,3.179-7.066,7.064l0,0c0,3.886,3.181,7.066,7.066,7.066h15.554
			c3.886,0,7.065-3.181,7.065-7.066l0,0C2741.814,1512.186,2738.635,1509.007,2734.749,1509.007z"/>
	</g>
</g>
</svg>
