<?xml version="1.0" encoding="utf-8"?>
<!-- Generator: Adobe Illustrator 16.0.0, SVG Export Plug-In . SVG Version: 6.00 Build 0)  -->
<!DOCTYPE svg PUBLIC "-//W3C//DTD SVG 1.1//EN" "http://www.w3.org/Graphics/SVG/1.1/DTD/svg11.dtd" [
	<!ENTITY ns_flows "http://ns.adobe.com/Flows/1.0/">
	<!ENTITY ns_extend "http://ns.adobe.com/Extensibility/1.0/">
	<!ENTITY ns_ai "http://ns.adobe.com/AdobeIllustrator/10.0/">
	<!ENTITY ns_graphs "http://ns.adobe.com/Graphs/1.0/">
]>
<svg version="1.1" id="Layer_1" xmlns:x="&ns_extend;" xmlns:i="&ns_ai;" xmlns:graph="&ns_graphs;"
	 xmlns="http://www.w3.org/2000/svg" xmlns:xlink="http://www.w3.org/1999/xlink" xmlns:a="http://ns.adobe.com/AdobeSVGViewerExtensions/3.0/"
	 x="0px" y="0px" width="3800px" height="2000px" viewBox="0 0 3800 2000" enable-background="new 0 0 3800 2000"
	 xml:space="preserve">
<rect y="0.82" fill="#FFFFFF" width="3800" height="2000"/>
<path fill="#EBF2F9" d="M3008.406,764.134c-107.466-91.667-237.02-644.488-680.827-356.563
	c-229.295,148.759-615.939-127.708-935.965-32.216c-293.905,87.697-322.236,376.631-293.799,470.781
	c57.442,190.182-121.317,218.482-287.148,300.193c-260.124,128.175-68.843,578.623,176.896,580.776
	c245.74,2.153,1734.486-4.289,1734.486-4.289s356.99,0.902,505.444-196.129C3387.248,1314.662,3285.979,1000.905,3008.406,764.134z"
	/>
<g>
	<g>
		<path fill="#E49963" d="M573.984,1236.467c0,0,24.292,6.239,39.734,1.587c15.443-4.652,42.021,2.988,46.301,8.619
			s2.708,7.868-4.93,9.812s-34.696,13.484-52.479,6.805s-40.978-6.923-40.978-6.923L573.984,1236.467z"/>
		<path fill="#4A75CB" d="M364.036,1025.444c0,0,27.29,193.955,72.477,211.328c22.297,8.571,120.836,28.002,149.984,29.954
			c0,0,7.141-5.793,5.401-29.371c0,0-103.24-37.902-117.906-58.515c-21.828-30.677,13.551-125.324-13.839-154.136
			C432.762,995.894,386.631,983.511,364.036,1025.444z"/>
	</g>
	<path fill="#2B478B" d="M367.522,1772.769v-42.287h-66.577c-1.798,0-3.267-1.47-3.267-3.267v-6.775
		c0-1.796,1.469-3.267,3.267-3.267h66.577v-240.725c0-6.755,5.526-12.281,12.281-12.281h13.175c6.755,0,12.281,5.526,12.281,12.281
		v240.725h66.577c1.797,0,3.268,1.471,3.268,3.267v6.775c0,1.797-1.471,3.267-3.268,3.267h-66.577v42.287
		c48.171,3.642,86.765,20.983,97.592,43.391H269.93C280.756,1793.752,319.351,1776.41,367.522,1772.769z"/>
	<path fill="#163560" d="M373.233,1434.07c7.96,13.504,17.167,26.157,26.657,38.141c29.33,37.026,61.257,67.556,66.819,96.414
		c1.105,5.751,2.861,11.945,5.156,18.471c2.322,6.61,5.193,13.561,8.508,20.746c12.446,27.036,31.059,57.329,49.643,84.865
		c32.125,47.603,62.333,87.323,62.333,87.323l55.399-2.361c-2.219-5.552-26.381-71.279-58.704-151.602
		c-13.126-32.607-27.083-67.291-40.549-100.738c-1.794-4.467-3.588-8.915-5.363-13.324c-4.117-10.237-8.169-20.313-12.125-30.124
		c-30.351-75.422-54.524-135.479-54.524-135.479s-121.305-45.952-133.902-16.176C332.193,1354.777,340.654,1378.829,373.233,1434.07
		z"/>
	<path fill="#163560" d="M594.081,1769.958c0,0,2.834,45.715,11.679,46.37c1.177,0.087,44.858,0.087,44.858,0.087l55.762-0.323
		c0,0-0.365-13.436-16.664-16.276c-16.3-2.84-43.582-14.295-53.455-35.838C625.873,1741.313,594.081,1769.958,594.081,1769.958z"/>
	<path fill="#163560" d="M465.799,1639.359c0,0-38.533,24.761-34.794,32.802c0.497,1.07,21.792,39.21,21.792,39.21l27.466,48.529
		c0,0,11.554-6.868,6.088-22.485c-5.466-15.615-8.765-45.021,5.232-64.144C506.307,1653.153,465.799,1639.359,465.799,1639.359z"/>
	<path fill="#1C468A" d="M517.936,1324.591c0,0,152.261,94.844,169.258,158.581c16.996,63.737-202.544,199.711-202.544,199.711
		s-24.079-21.246-28.328-36.826c0,0,99.235-118.891,120.762-145.541c13.22-16.368-195.474-56.661-220.968-96.319
		c-25.495-39.659-16.368-73.027-16.368-73.027L517.936,1324.591z"/>
	<path fill="#EE9849" d="M230.58,1446.38h311.622c6.232,0,11.331,5.099,11.331,11.331v62.324c0,6.232-5.099,11.332-11.331,11.332
		H230.58c-6.232,0-11.332-5.1-11.332-11.332v-62.324C219.248,1451.479,224.347,1446.38,230.58,1446.38z"/>
	<path fill="#E49963" d="M447.528,992.197c14.955,9.263,23.195,21.021,23.195,21.021c-36.477,9.436-96.947-24.366-96.947-24.366
		s23.479-15.776,32.178-50.441c0.44-1.749,0.842-3.542,1.195-5.378c1.14-5.838,1.848-12.159,1.975-18.98l16.757,15.011
		l27.863,24.963c0,0-0.632,10.358-4.118,28.175C449.02,985.31,448.325,988.646,447.528,992.197z"/>
	<path fill="#739AF0" d="M335.322,1164.282c5.225,70.274-3.563,177.111,2.364,195.621c5.116,15.97,65.315,6.518,88.58,1.185
		c8.611-1.973,19.042-4.792,29.814-8.124c30.047-9.305,62.788-22.59,66.301-32.453c0.136-0.387,0.252-0.766,0.324-1.135
		c0.324-1.432,0.252-2.773-0.063-4.134c-1.172-5.026-5.684-10.467-6.215-22.914c-0.595-13.898-0.505-30.265-1.027-47.864
		c-0.027-1.981-0.054-4.143-0.27-6.115l-0.01-0.721c-0.009-0.379-0.018-0.748-0.026-1.126c-0.505-19.627-1.531-40.262-2.721-60.727
		c-0.757-12.853-1.63-25.58-2.639-37.775c-2.621-31.479-6.152-59.474-10.826-77.173c-7.639-28.85-24.481-47.666-39.813-61.456
		l-11.088-9.511c-12.375,2.701-27.003,0.909-40.234-5.359c-14.321-6.801-19.266-11.674-21.761-9.836
		C352.94,1000.182,329.152,1078.373,335.322,1164.282z"/>
	<path fill="#4A75CB" d="M455.909,1353.104c30.047-9.305,62.788-22.59,66.301-32.453c0.136-0.387,0.252-0.766,0.324-1.135
		c-0.018-1.378-0.035-2.756-0.063-4.134c-1.171-5.026-5.684-10.467-6.215-22.914c-0.595-13.898-0.505-30.265-1.027-47.864
		c-0.027-1.981-0.054-4.143-0.271-6.115l-0.009-0.721c-0.009-0.379-0.018-0.748-0.026-1.126l-113.499-51.476
		C401.424,1185.167,394.885,1276.644,455.909,1353.104z"/>
	<path fill="#D68D5D" d="M453.744,954.025c0,0-0.632,10.358-4.118,28.175c-27.207-8.791-39.551-33.366-43.672-43.79
		c-1.172-2.945-1.681-4.766-1.681-4.766s1.056-0.228,2.876-0.612c3.824-0.813,11.026-2.341,18.731-3.97L453.744,954.025z"/>
	<path fill="#E49963" d="M464.758,953.752c0,0-59.775,6.742-63.401-30.548c-3.625-37.29-13.782-61.533,24.229-67.415
		s46.822,7.626,51.06,19.778S480.214,951.037,464.758,953.752z"/>
	<path fill="#2B478B" d="M401.615,925.777c0,0,3.79-49.498,58.202-54.625c37.27-3.512,16.491-35.589,12.519-40.705
		c0,0-28.555,3.915-57.823,8.751C353.079,849.349,395.582,918.072,401.615,925.777z"/>
	<g>
		
			<rect x="713.083" y="1145.387" transform="matrix(-0.9511 -0.309 0.309 -0.9511 1020.4111 2596.4595)" fill="#4A75CB" width="5.502" height="144.061"/>
		
			<rect x="545.131" y="1276.116" transform="matrix(-0.9998 -0.0214 0.0214 -0.9998 1213.9443 2574.2397)" fill="#4A75CB" width="151.174" height="9.043"/>
	</g>
	<g>
		<path fill="#E49963" d="M561.482,1266.285c0,0,23.457,8.88,39.318,5.958c15.861-2.921,41.435,7.603,45.067,13.672
			c3.633,6.067,1.825,8.118-5.98,9.207c-7.806,1.09-35.972,9.578-52.91,0.979c-16.939-8.6-39.965-11.398-39.965-11.398
			L561.482,1266.285z"/>
		<path fill="#739AF0" d="M376.079,1033.403c0,0,5.74,195.781,48.737,218.029c21.215,10.979,117.012,41.154,145.767,46.308
			c0,0,7.736-4.97,8.606-28.597c0,0-98.432-49.053-110.736-71.157c-18.313-32.896,27.285-123.065,3.238-154.722
			C447.645,1011.609,403.16,994.216,376.079,1033.403z"/>
	</g>
</g>
<g>
	<path fill="#AED3FF" d="M2763.482,1192.683v411.148h714.111v-411.148H2763.482z"/>
	<path fill="#D2E4FF" d="M2786.702,1192.683v411.148h714.111v-411.148H2786.702z"/>
	<circle fill="#F3F9FF" cx="2981.997" cy="1385.561" r="129.119"/>
	<g>
		<path fill="#F3F9FF" d="M3206.63,1341.62h213.899c7.752,0,14.095-6.343,14.095-14.095s-6.343-14.095-14.095-14.095H3206.63
			c-7.752,0-14.095,6.343-14.095,14.095S3198.878,1341.62,3206.63,1341.62z"/>
		<path fill="#F3F9FF" d="M3420.529,1371.466H3206.63c-7.752,0-14.095,6.343-14.095,14.095s6.343,14.094,14.095,14.094h213.899
			c7.752,0,14.095-6.342,14.095-14.094S3428.281,1371.466,3420.529,1371.466z"/>
		<path fill="#F3F9FF" d="M3420.529,1429.501H3206.63c-7.752,0-14.095,6.343-14.095,14.095l0,0c0,7.751,6.343,14.094,14.095,14.094
			h213.899c7.752,0,14.095-6.343,14.095-14.094l0,0C3434.624,1435.844,3428.281,1429.501,3420.529,1429.501z"/>
	</g>
	<path fill="#F1A34F" d="M2982,1387.657l-118.209-1.504c-0.012,0.498-0.012,1.006-0.012,1.504
		c0,65.288,52.932,118.221,118.221,118.221c23.34,0,45.1-6.771,63.429-18.452L2982,1387.657z"/>
	<g>
		<path fill="#DD8936" d="M2986.354,1424.882h-64.16c-3.65,0-6.638,2.986-6.638,6.637v0.001c0,3.65,2.987,6.637,6.638,6.637h64.16
			c3.65,0,6.637-2.986,6.637-6.637v-0.001C2992.99,1427.868,2990.004,1424.882,2986.354,1424.882z"/>
		<path fill="#DD8936" d="M2936.806,1449.034h-14.612c-3.65,0-6.638,2.986-6.638,6.637s2.987,6.638,6.638,6.638h14.612
			c3.65,0,6.638-2.987,6.638-6.638S2940.456,1449.034,2936.806,1449.034z"/>
	</g>
</g>
</svg>
