<?xml version="1.0" encoding="utf-8"?>
<!-- Generator: Adobe Illustrator 16.0.0, SVG Export Plug-In . SVG Version: 6.00 Build 0)  -->
<!DOCTYPE svg PUBLIC "-//W3C//DTD SVG 1.1//EN" "http://www.w3.org/Graphics/SVG/1.1/DTD/svg11.dtd">
<svg version="1.1" id="Layer_1" xmlns="http://www.w3.org/2000/svg" xmlns:xlink="http://www.w3.org/1999/xlink" x="0px" y="0px"
	 width="3800px" height="2000px" viewBox="0 0 3800 2000" enable-background="new 0 0 3800 2000" xml:space="preserve">
<rect y="-0.237" fill="#FFFFFF" width="3800" height="2000"/>
<path fill="#EBF2F9" d="M2818.978,732.241c-97.438-83.114-214.905-584.357-617.309-323.296
	c-207.902,134.88-558.473-115.792-848.643-29.21c-266.484,79.516-292.172,341.492-266.388,426.858
	c52.084,172.438-110,198.098-260.358,272.187c-235.854,116.216-62.42,524.64,160.394,526.592s1572.662-3.89,1572.662-3.89
	s323.685,0.817,458.287-177.829C3162.473,1231.407,3070.653,946.924,2818.978,732.241z"/>
<g>
	<path fill="#F22020" d="M3202.715,1348.573c7.983-72.41-44.241-137.582-116.65-145.567c-34.353-3.786-67.024,6.027-92.776,25.072
		l-68.701,110.728l46.879,142.911l-50.544,63.944l24.836,64.491l-36.021,34.888l9.759,23.481c4.646,7.118,7.412,11.338,7.715,11.85
		l-0.05,0.45c0,0,243.197-235.332,259.117-281.107l-0.218-0.14C3194.776,1384.342,3200.668,1367.131,3202.715,1348.573z"/>
	<path fill="#F22020" d="M2895.712,1641.588l32.9-37.846l-30.271-62.129l44.886-68.036l-58.947-138.371l58.97-116.202
		c-6.506,5.729-12.478,12.055-17.751,18.957c-23.176-33.564-61.521-55.97-105.415-57.029
		c-72.83-1.752-133.29,55.865-135.047,128.691c-0.595,24.796,5.565,48.145,16.989,68.243
		c30.919,62.746,169.159,239.966,205.418,286.279L2895.712,1641.588z"/>
</g>
<g>
	<g>
		<path fill="#989B79" d="M670.173,1487.915c2.908-0.099,6.332,0.049,7.962,2.465c1.204,1.795,0.903,4.168,0.553,6.302
			c-8.533,52.379-17.066,104.745-25.605,157.124c11.374,2.987,23.257,4.033,34.975,3.067
			c20.238-64.41,40.477-128.813,60.715-193.224c2.803-8.92,5.645-18.246,4.162-27.48c-1.918-11.933-10.758-21.628-20.516-28.753
			c-25.488-18.628-58.323-24.13-89.885-24.462c-31.569-0.326-63.101,3.947-94.633,2.447c-28.747-1.365-60.137-6.91-84.273,8.754
			c-11.146,30.426,2.035,67.859,29.78,84.587c23.22,13.992,52.047,13.482,79.134,12.548
			C605.087,1490.165,637.633,1489.04,670.173,1487.915z"/>
		<path fill="#989B79" d="M572.528,1651.942c13.181-2.76,26.682-3.726,40.083-2.864c0.677-67.521,1.341-135.042,2.017-202.563
			c-21.093,0.8-42.229,0.117-63.235-2.053C558.438,1513.625,565.483,1582.78,572.528,1651.942z"/>
		<path fill="#403F44" d="M682.069,1634.336c-6.111,3.946-12.222,7.888-18.339,11.834c-2.183,1.408-4.371,2.815-6.554,4.229
			c-3.769,2.435-7.856,5.312-8.779,9.701c-0.78,3.695,1.045,7.593,3.886,10.089c2.834,2.489,6.535,3.78,10.224,4.586
			c19.703,4.272,41.626-5.231,51.973-22.537c0.757-1.267,1.476-2.626,1.574-4.101c0.056-0.849-0.092-1.697-0.332-2.515
			c-2.017-7.063-9.565-10.876-16.563-13.15c-3.571-1.168-7.42-2.151-11.06-1.192
			C685.911,1631.864,683.969,1633.112,682.069,1634.336z"/>
		<path fill="#403F44" d="M600.63,1620.583c-6.117,3.94-12.222,7.888-18.333,11.828c-2.188,1.414-4.371,2.822-6.56,4.229
			c-3.769,2.435-7.856,5.313-8.778,9.701c-0.775,3.701,1.045,7.599,3.885,10.089c2.834,2.496,6.535,3.787,10.229,4.593
			c19.698,4.266,41.621-5.238,51.968-22.538c0.756-1.272,1.475-2.625,1.573-4.101c0.056-0.849-0.092-1.703-0.325-2.521
			c-2.023-7.063-9.572-10.875-16.563-13.15c-3.578-1.161-7.427-2.151-11.065-1.187
			C604.472,1618.105,602.529,1619.354,600.63,1620.583z"/>
		<path fill="#EDD5BE" d="M658.117,1000.853c2.379,0.271,4.795,0.652,6.959,1.691c6.548,3.142,8.977,11.109,10.39,18.234
			c2.066,10.414,3.455,21.129,1.949,31.643c-1.506,10.506-6.185,20.89-14.472,27.523c-10.74,8.588-25.514,9.67-39.266,9.799
			c-4.021,0.043-8.146,0.006-11.896-1.444c-4.592-1.776-8.164-5.539-10.838-9.671c-7.931-12.258-8.847-27.683-8.484-42.277
			c0.123-4.838,0.394-9.836,2.539-14.177c2.859-5.792,8.613-9.554,14.393-12.431c12.049-6,25.451-9.363,38.915-9.425
			C651.582,1000.3,654.859,1000.484,658.117,1000.853z"/>
		<path fill="#BBBCBF" d="M631.252,959.983c-10.292-1.07-20.786-1.457-30.887,0.768c-16.562,3.652-31.372,14.59-39.732,29.332
			c-8.435,14.871-13.716,49.07-0.339,62.473c7.199,7.218,14.398,14.436,21.604,21.646c4.979,4.992,10.968,10.365,17.982,9.676
			c3.953-0.393,7.427-2.698,10.715-4.93c4.876-3.314,9.751-6.634,14.632-9.947c5.128-3.486,10.354-7.063,14.072-12.031
			c8.238-11.023,0.658-25.636,16.003-32.693c7.106-3.265,15.265-3.074,23.072-2.564c1.955,0.13,4.027,0.246,5.748-0.682
			c3.093-1.66,3.677-5.81,3.529-9.32c-0.812-20.047-14.184-39.044-32.78-46.588C647.377,962.085,639.293,960.819,631.252,959.983z"
			/>
		<g>
			<path fill="#662E2A" d="M655.013,953.731c-11.361-10.311-26.195-16.322-41.355-18.702c-8.331-1.304-16.956-1.556-25.133,0.522
				c-14.25,3.627-26.109,14.257-33.247,27.111c-7.131,12.855-9.892,27.775-10.119,42.475c-0.062,3.604,0.068,7.371,1.783,10.537
				c7.869,14.553,41.307,10.04,54.433,10.906c6,0.4,12.049,0.793,18.013,0.007c16.636-2.201,38.091-13.956,48.795-27.075
				c1.653-2.028,2.827-4.174,3.584-6.393C676.382,979.526,665.415,963.174,655.013,953.731z M590.382,1002.925
				c-1.906-1.623-7.477-0.836-9.714-0.756c-3.72,0.141-7.433,0.442-11.152,0.486c-8.103,0.092-8.097-12.469,0-12.561
				c9.677-0.111,21.689-2.89,29.749,3.947C605.449,999.292,596.517,1008.132,590.382,1002.925z"/>
			<path fill="#662E2A" d="M627.661,987.617c1.992-5.944,5.539-11.22,9.044-16.408c3.271-4.845,6.67-9.824,11.576-13.003
				c2.649-1.715,5.637-2.834,8.644-3.799c8.238-2.631,16.826-4.174,25.464-4.563c2.306-0.104,4.666-0.116,6.843,0.634
				c2.397,0.837,4.396,2.546,6.099,4.427c9.817,10.82,10.592,28.74,1.739,40.365c-7.623,10.01-20.337,14.521-32.479,17.786
				c-8.638,2.317-17.552,4.284-26.46,3.511c-1.967-0.173-3.965-0.486-5.729-1.384c-5.127-2.612-6.731-9.19-6.707-14.945
				C625.706,995.96,626.309,991.669,627.661,987.617z"/>
		</g>
		<path fill="#EDD5BE" d="M701.767,1391.026c5.692-2.502,9.271-8.472,10.476-14.57c1.205-6.104,0.394-12.406-0.529-18.561
			c-4.666-31.23-12-62.055-21.897-92.037c-2.275-6.904-4.759-13.9-9.197-19.661c-8.521-11.054-24.197-15.972-37.495-11.767
			c-1.912,0.603-3.897,1.476-4.937,3.19c-1.07,1.771-0.879,4.003-0.64,6.056c4.918,41.7,16.729,82.343,31.648,121.584
			c2.767,7.285,5.785,14.742,11.287,20.264C685.985,1391.045,694.635,1394.168,701.767,1391.026z"/>
		<path fill="#E0C74E" d="M655.043,1355.147c-2.606-30.443-7.629-60.702-15-90.439c19.279-5.127,38.564-10.254,57.851-15.381
			c9.94-2.644,5.084-54.125,3.769-61.595c-3.806-21.615-12.923-42.395-26.792-59.455c-30.708-37.79-93.913-48.13-136.997-25.15
			c-15.338,8.177-27.677,21.075-38.072,34.999c-46.662,62.505-56.535,144.318-62.897,222.063
			c-2.767,33.813,4.776,46.661,35.49,51.93c36.174,6.209,70.287,13.027,107.34,11.072c29.275-1.537,63.304-10.685,73.066-36.788
			C656.513,1376.48,655.941,1365.636,655.043,1355.147z"/>
		<path fill="#EDD5BE" d="M754.145,1301.688c9.553-10.796,19.814-21.364,23.436-18.646c4.174,3.129,2.693,9.701,4.537,14.582
			c2.57-1.881,6.455-1.684,8.828,0.449s2.98,5.976,1.383,8.736c-1.223,2.114-3.43,3.424-5.49,4.739
			c-20.27,12.91-33.438,33.34-47.553,52.194c-8.6,11.484-25.249,39.782-42.493,36.456c-9.941-1.918-18.253-10.487-19.852-20.49
			c-2.348-14.662,8.705-28.292,21.18-36.346c12.479-8.053,27.026-12.836,38.516-22.242
			C739.772,1318.557,746.749,1310.055,754.145,1301.688z"/>
	</g>
	<g>
		<path fill="#534741" d="M374.066,1556.21c6.394,22.716,5.496,49.262,7.574,72.746c0.8,9.111,13.347,9.111,14.158,0
			c2.072-23.484,1.175-50.03,7.574-72.746C410.259,1531.748,367.175,1531.748,374.066,1556.21z"/>
		<path fill="#534741" d="M880.137,1519.231c-12.646,0-22.814,15.191-15.172,26.447c4.549,6.714,2.869,21.843,3.404,29.719
			c0.75,11.041,1.875,22.058,2.865,33.081c1.039,11.453,16.766,11.453,17.805,0c0.822-9.191,1.646-18.376,2.482-27.566
			c0.836-9.32-1.592-27.29,3.787-35.233C902.952,1534.423,892.784,1519.231,880.137,1519.231z"/>
		<path fill="#736357" d="M1166.69,1455.946c-357.971-6.074-716.378-0.91-1073.606,15.48c-1.685,25.328-3.369,50.663-5.047,75.998
			c359.581,4.912,719.176,9.83,1078.756,14.742C1166.764,1526.763,1166.727,1491.357,1166.69,1455.946z"/>
		<path fill="#736357" d="M1166.69,1269.264c-357.971-3.491-716.378-0.522-1073.606,8.89c-1.685,14.552-3.369,29.104-5.047,43.655
			c359.581,2.822,719.176,5.644,1078.756,8.466C1166.764,1309.938,1166.727,1289.601,1166.69,1269.264z"/>
		<path fill="#534741" d="M313.112,1343.209c-1.015-52.969-35.639-43.458-31.772,9.757c7.9,108.778,14.355,218.005,22.176,326.808
			c1.629,22.636,17.927,17.122,17.483-5.367C318.799,1563.938,315.232,1453.684,313.112,1343.209z"/>
		<path fill="#534741" d="M948.913,1330.741c5.23,119.758,6.779,240.894,8.021,361.119c0.172,15.854,10.328,19.857,11.988,3.799
			c12.506-121.006,16.285-240.192,15.143-364.918C983.567,1276.881,946.637,1278.646,948.913,1330.741z"/>
	</g>
</g>
</svg>
