<?xml version="1.0" encoding="utf-8"?>
<!-- Generator: Adobe Illustrator 16.0.0, SVG Export Plug-In . SVG Version: 6.00 Build 0)  -->
<!DOCTYPE svg PUBLIC "-//W3C//DTD SVG 1.1//EN" "http://www.w3.org/Graphics/SVG/1.1/DTD/svg11.dtd">
<svg version="1.1" id="Layer_1" xmlns="http://www.w3.org/2000/svg" xmlns:xlink="http://www.w3.org/1999/xlink" x="0px" y="0px"
	 width="3800px" height="2000px" viewBox="0 0 3800 2000" enable-background="new 0 0 3800 2000" xml:space="preserve">
<g>
	<path fill="#F22020" d="M2350.521,948.251c2.805-25.435-15.54-48.327-40.975-51.132c-12.066-1.331-23.543,2.117-32.589,8.807
		l-24.132,38.895l16.467,50.199l-17.754,22.461l8.724,22.653l-12.652,12.255l3.428,8.248c1.632,2.5,2.604,3.982,2.71,4.162
		l-0.018,0.158c0,0,85.426-82.663,91.018-98.742l-0.076-0.049C2347.733,960.815,2349.803,954.77,2350.521,948.251z"/>
	<path fill="#F22020" d="M2242.684,1051.176l11.557-13.294l-10.633-21.823l15.767-23.898l-20.706-48.604l20.714-40.817
		c-2.285,2.013-4.383,4.234-6.235,6.659c-8.141-11.79-21.609-19.66-37.028-20.032c-25.582-0.616-46.819,19.623-47.437,45.204
		c-0.209,8.71,1.955,16.911,5.968,23.972c10.86,22.04,59.419,84.29,72.155,100.559L2242.684,1051.176z"/>
</g>
</svg>
