<?xml version="1.0" encoding="utf-8"?>
<!-- Generator: Adobe Illustrator 16.0.0, SVG Export Plug-In . SVG Version: 6.00 Build 0)  -->
<!DOCTYPE svg PUBLIC "-//W3C//DTD SVG 1.1//EN" "http://www.w3.org/Graphics/SVG/1.1/DTD/svg11.dtd">
<svg version="1.1" id="Layer_1" xmlns="http://www.w3.org/2000/svg" xmlns:xlink="http://www.w3.org/1999/xlink" x="0px" y="0px"
	 width="668.02px" height="668.981px" viewBox="0 0 668.02 668.981" enable-background="new 0 0 668.02 668.981"
	 xml:space="preserve">
<g>
	<g id="background">
		<path fill="#EA8686" d="M287.537,434.649h-0.27c-74.671,0-139.207,44.327-167.5,108.882
			c-44.719-50.488-71.882-117.427-71.882-190.175c0-158.026,128.104-286.403,286.126-286.403
			c158.017,0,286.126,127.965,286.126,285.992c0,109.081-61.052,204.927-150.845,253.195
			C463.916,510.362,384.608,434.649,287.537,434.649z"/>
		<path fill="#565F66" d="M119.766,543.531c28.294-64.552,92.829-108.882,167.5-108.882h0.27c97.071,0,176.38,75.647,181.757,171.43
			c-40.28,21.65-86.345,33.949-135.282,33.949C248.735,640.028,172.183,602.707,119.766,543.531z"/>
	</g>
	<g id="neck">
		<path fill="#9EB58F" d="M298.667,412.231v30.908c0,16.439,10.926,32.023,24.578,36.879c-7.189-5.432-10.442-13.992-10.442-22.232
			c-0.011-31.193,28.864-22.453,54.864-21.314v-24.24H298.667L298.667,412.231z"/>
		<path fill="#B3D69F" d="M310.517,457.786c0,8.24,4.316,16.115,11.82,21.547c2.938,1,5.165,0.898,8.293,0.898h0.036
			c18.286,0,37-17.271,37-37.092v-6.67C339.667,435.333,310.507,426.592,310.517,457.786z"/>
	</g>
	<path fill="#C0EDA9" d="M511.459,239.701c0,104.325-74.924,188.899-167.349,188.899c-92.43,0-167.348-84.574-167.348-188.899
		c0-104.325,74.918-188.898,167.348-188.898C436.536,50.803,511.459,135.376,511.459,239.701z"/>
	<g id="eyes">
		<path fill="#1E1E1E" d="M360.447,257.958c-1.052,7.908-8.322,13.471-16.229,12.419c-7.917-1.054-13.472-8.323-12.42-16.231
			c1.052-7.907,8.314-13.473,16.232-12.419C355.936,242.78,361.499,250.052,360.447,257.958z"/>
		<path fill="#1E1E1E" d="M461.15,271.356c-1.052,7.908-8.324,13.471-16.231,12.419c-7.915-1.053-13.47-8.323-12.416-16.23
			c1.052-7.907,8.313-13.473,16.228-12.42C456.637,256.177,462.202,263.45,461.15,271.356z"/>
	</g>
	<path fill="#1E1E1E" d="M247.502,148.292c0,0,30.391,76.521,107.53,50.134c0,0,93.508-36.065,109.871-29.025
		c0,0,48.313-3.004,58.439,34.561c0,0,57.664-166.49-161.297-169.129c0,0-104.417-12.314-141.034,34.303
		c0,0-89.611-42.221-88.833,147.762c0,0-5.891,53.654,11.858,87.958c0,0,19.311,52.778,63.729,64.208
		c0,0,30.381,15.826,21.811-62.451c0,0-35.061-110.818,1.562-85.313c0,0,10.127,10.452,13.244,22.815c0,0,7.793,7.086,17.92-6.107
		C262.304,238.005,263.87,180.394,247.502,148.292z"/>
	<g id="Mouth">
		<path fill="#2C2D2D" d="M330.919,388.661c-12.993-9.74-22.161-24.525-24.331-41.898c-0.84-6.797-0.535-13.466,0.737-19.832
			l122.572,16.595c-0.617,8.771-3.105,17.121-7.086,24.613c-12.389-9.291-28.246-14.002-44.83-11.936
			C357.167,358.801,340.066,371.442,330.919,388.661z"/>
		<path fill="#DD5E5E" d="M375.745,400.596c-16.584,2.063-32.438-2.639-44.826-11.936c9.147-17.219,26.248-29.859,47.063-32.457
			c16.584-2.066,32.44,2.645,44.831,11.936C413.665,385.354,396.565,398.004,375.745,400.596z"/>
	</g>
</g>
</svg>
