<?xml version="1.0" encoding="utf-8"?>
<!-- Generator: Adobe Illustrator 16.0.0, SVG Export Plug-In . SVG Version: 6.00 Build 0)  -->
<!DOCTYPE svg PUBLIC "-//W3C//DTD SVG 1.1//EN" "http://www.w3.org/Graphics/SVG/1.1/DTD/svg11.dtd">
<svg version="1.1" id="Layer_1" xmlns="http://www.w3.org/2000/svg" xmlns:xlink="http://www.w3.org/1999/xlink" x="0px" y="0px"
	 width="227.25px" height="275.522px" viewBox="0 0 227.25 275.522" enable-background="new 0 0 227.25 275.522"
	 xml:space="preserve">
<g>
	<path fill="#F4737C" d="M132.08,193.529h0.108c29.652,0,55.28,18.039,66.517,43.673c17.759-20.049,28.546-46.414,28.546-75.303
		c0-62.754-50.871-113.626-113.626-113.626C50.873,48.273,0,99.146,0,161.899c0,43.319,24.245,80.971,59.902,100.141
		C62.038,224.006,93.532,193.529,132.08,193.529z"/>
	<g>
		<path fill="#2F5C89" d="M198.705,237.202c-11.236-25.634-36.864-43.673-66.517-43.673h-0.108
			c-38.548,0-70.042,30.477-72.178,68.511c15.997,8.6,34.289,13.482,53.723,13.482C147.49,275.522,177.888,260.703,198.705,237.202z
			"/>
		<path fill="#43A862" d="M107.778,189.973c0,8.697,6.276,15.557,13.965,15.557h0.016c7.689,0,14.02-6.859,14.02-15.557v-14.443h-28
			V189.973z"/>
		<g>
			<ellipse fill="#C0EDA9" cx="112.791" cy="108.602" rx="67.837" ry="82.025"/>
			<g id="Mouth">
				<path fill="#2C2D2D" d="M104.083,172.656c-4.425-3.318-7.55-8.355-8.288-14.275c-0.288-2.316-0.184-4.589,0.25-6.757
					l41.763,5.653c-0.21,2.99-1.058,5.835-2.413,8.387c-4.222-3.167-9.626-4.769-15.275-4.066
					C113.027,162.481,107.202,166.791,104.083,172.656z"/>
				<path fill="#DD5E5E" d="M119.358,176.723c-5.651,0.703-11.054-0.899-15.274-4.066c3.118-5.866,8.943-10.175,16.036-11.059
					c5.649-0.703,11.054,0.899,15.275,4.066C132.277,171.529,126.451,175.839,119.358,176.723z"/>
			</g>
			<g>
				<circle fill="#0C0C0C" cx="86.627" cy="126.438" r="6.863"/>
				<circle fill="#0C0C0C" cx="135.627" cy="126.438" r="6.863"/>
			</g>
			<path fill="#333333" d="M181.217,57.427c0.605-2.596,0.959-5.289,0.959-8.07c0-19.57-15.864-35.436-35.436-35.436
				c-5.096,0-9.93,1.097-14.309,3.033C123.297,6.565,109.916,0,94.993,0c-27.531,0-49.85,22.319-49.85,49.849
				c0,1.256,0.062,2.498,0.153,3.729c-10.708,3.15-18.532,13.036-18.532,24.763c0,14.263,11.563,25.826,25.826,25.826
				c8.162,0,15.427-3.796,20.16-9.708c6.697,3.346,14.247,5.239,22.242,5.239c15.257,0,28.904-6.861,38.048-17.657
				c4.215,1.769,8.843,2.75,13.7,2.75c0.184,0,0.361-0.025,0.545-0.028c2.973,9.524,11.859,16.437,22.361,16.437
				c12.938,0,23.424-10.487,23.424-23.423C193.071,69.054,188.292,61.458,181.217,57.427z"/>
		</g>
	</g>
</g>
</svg>
