<?xml version="1.0" encoding="utf-8"?>
<!-- Generator: Adobe Illustrator 16.0.0, SVG Export Plug-In . SVG Version: 6.00 Build 0)  -->
<!DOCTYPE svg PUBLIC "-//W3C//DTD SVG 1.1//EN" "http://www.w3.org/Graphics/SVG/1.1/DTD/svg11.dtd">
<svg version="1.1" id="Layer_1" xmlns="http://www.w3.org/2000/svg" xmlns:xlink="http://www.w3.org/1999/xlink" x="0px" y="0px"
	 width="1439.04px" height="919.2px" viewBox="0 0 1439.04 919.2" enable-background="new 0 0 1439.04 919.2" xml:space="preserve">
<g>
	<g>
		<path fill="#939396" d="M1400,845.462c0,18.522-15.016,33.538-33.538,33.538H66.538C48.016,879,33,863.984,33,845.462V65.538
			C33,47.016,48.016,32,66.538,32h1299.924C1384.984,32,1400,47.016,1400,65.538V845.462z"/>
		<g>
			<image overflow="visible" width="5996" height="3830" xlink:href="2F7B08C6.png"  transform="matrix(0.24 0 0 0.24 0 0)">
			</image>
		</g>
		<path fill="#568291" d="M1400,65.538C1400,47.016,1384.801,32,1366.279,32H66.538C48.016,32,33,47.016,33,65.538V116h1367V65.538z
			"/>
		<g id="buttons_1_">
			<circle fill="#AAAAE2" cx="88.465" cy="74.137" r="22.807"/>
			<circle fill="#AAAAE2" cx="142.121" cy="74.137" r="22.807"/>
			<circle fill="#AAAAE2" cx="195.779" cy="74.137" r="22.807"/>
		</g>
	</g>
	<g>
		<g>
			<path fill="#B1DDDC" d="M509.343,721.146c40.14-0.178,65.831,19.799,81.461,39.703c20.213-20.577,32.684-48.784,32.684-79.91
				c0-62.985-51.058-114.043-114.044-114.043S395.4,617.954,395.4,680.939c0,31.07,12.427,59.229,32.575,79.794
				C443.613,740.869,469.284,720.969,509.343,721.146z M509.417,608.914c28.189,0,51.045,22.854,51.045,51.047
				c0,28.189-22.855,51.045-51.045,51.045c-28.193,0-51.049-22.855-51.049-51.045C458.368,631.768,481.224,608.914,509.417,608.914z
				"/>
			<circle fill="#878787" cx="509.417" cy="659.96" r="51.046"/>
			<path fill="#878787" d="M509.443,794.986c31.861,0,60.668-13.072,81.36-34.137c-15.63-19.904-41.321-39.881-81.461-39.703
				c-40.059-0.178-65.729,19.723-81.367,39.587C448.676,781.867,477.527,794.986,509.443,794.986z"/>
		</g>
		<g>
			<circle fill="#1389A5" cx="938.539" cy="682.302" r="115.198"/>
			<polygon fill="#FCFCFC" points="918.058,717.666 875.587,675.196 860.643,690.139 917.271,746.768 1016.894,647.145 
				1002.735,632.988 			"/>
		</g>
	</g>
	<g>
		<g>
			<path fill="#B1DDDC" d="M505.965,217.882c-62.986,0-114.044,51.058-114.044,114.044c0,31.069,12.428,59.227,32.576,79.793
				c20.699,21.134,49.551,34.253,81.468,34.253c31.86,0,60.667-13.072,81.359-34.138c20.214-20.576,32.685-48.783,32.685-79.908
				C620.009,268.939,568.951,217.882,505.965,217.882z"/>
			<rect x="451.43" y="267.946" fill="none" width="116.181" height="133.931"/>
			<text transform="matrix(1 0 0 1 451.4297 398.3389)" fill="#C62466" font-family="'ArialRoundedMTBold'" font-size="179.1113">?</text>
		</g>
		<g>
			<circle fill="#1389A5" cx="938.539" cy="335.302" r="115.198"/>
			<polygon fill="#FCFCFC" points="995.946,378.133 953.521,335.707 995.946,293.28 981.098,278.432 938.671,320.857 
				895.537,277.725 881.396,291.866 923.821,334.293 881.396,376.719 896.245,391.568 938.671,349.143 981.805,392.275 			"/>
		</g>
	</g>
</g>
</svg>
